<?xml version="1.0" encoding="utf-8" standalone="no"?>
<!DOCTYPE svg PUBLIC "-//W3C//DTD SVG 1.1//EN"
  "http://www.w3.org/Graphics/SVG/1.1/DTD/svg11.dtd">
<svg height="277.314375pt" version="1.1" viewBox="0 0 392.173437 277.314375" width="392.173437pt" xmlns="http://www.w3.org/2000/svg" xmlns:xlink="http://www.w3.org/1999/xlink">
 <metadata>
  <rdf:RDF xmlns:cc="http://creativecommons.org/ns#" xmlns:dc="http://purl.org/dc/elements/1.1/" xmlns:rdf="http://www.w3.org/1999/02/22-rdf-syntax-ns#">
   <cc:Work>
    <dc:type rdf:resource="http://purl.org/dc/dcmitype/StillImage"/>
    <dc:date>2022-05-28T19:47:43.997439</dc:date>
    <dc:format>image/svg+xml</dc:format>
    <dc:creator>
     <cc:Agent>
      <dc:title>Matplotlib v3.4.3, https://matplotlib.org/</dc:title>
     </cc:Agent>
    </dc:creator>
   </cc:Work>
  </rdf:RDF>
 </metadata>
 <defs>
  <style type="text/css">*{stroke-linecap:butt;stroke-linejoin:round;}</style>
 </defs>
 <g id="figure_1">
  <g id="patch_1">
   <path d="M 0 277.314375 
L 392.173437 277.314375 
L 392.173437 0 
L 0 0 
z
" style="fill:none;"/>
  </g>
  <g id="axes_1">
   <g id="patch_2">
    <path d="M 50.173438 239.758125 
L 384.973437 239.758125 
L 384.973437 22.318125 
L 50.173438 22.318125 
z
" style="fill:#ffffff;"/>
   </g>
   <g id="matplotlib.axis_1">
    <g id="xtick_1">
     <g id="line2d_1">
      <defs>
       <path d="M 0 0 
L 0 3.5 
" id="m561251bef7" style="stroke:#000000;stroke-width:0.8;"/>
      </defs>
      <g>
       <use style="stroke:#000000;stroke-width:0.8;" x="65.391619" xlink:href="#m561251bef7" y="239.758125"/>
      </g>
     </g>
     <g id="text_1">
      <!-- 0 -->
      <g transform="translate(61.912713 254.356562)scale(0.1 -0.1)">
       <defs>
        <path d="M 2944 2338 
Q 2944 3213 2780 3570 
Q 2616 3928 2228 3928 
Q 1841 3928 1675 3570 
Q 1509 3213 1509 2338 
Q 1509 1453 1675 1090 
Q 1841 728 2228 728 
Q 2613 728 2778 1090 
Q 2944 1453 2944 2338 
z
M 4147 2328 
Q 4147 1169 3647 539 
Q 3147 -91 2228 -91 
Q 1306 -91 806 539 
Q 306 1169 306 2328 
Q 306 3491 806 4120 
Q 1306 4750 2228 4750 
Q 3147 4750 3647 4120 
Q 4147 3491 4147 2328 
z
" id="DejaVuSans-Bold-30" transform="scale(0.015625)"/>
       </defs>
       <use xlink:href="#DejaVuSans-Bold-30"/>
      </g>
     </g>
    </g>
    <g id="xtick_2">
     <g id="line2d_2">
      <g>
       <use style="stroke:#000000;stroke-width:0.8;" x="138.732255" xlink:href="#m561251bef7" y="239.758125"/>
      </g>
     </g>
     <g id="text_2">
      <!-- 1 -->
      <g transform="translate(135.253348 254.356562)scale(0.1 -0.1)">
       <defs>
        <path d="M 750 831 
L 1813 831 
L 1813 3847 
L 722 3622 
L 722 4441 
L 1806 4666 
L 2950 4666 
L 2950 831 
L 4013 831 
L 4013 0 
L 750 0 
L 750 831 
z
" id="DejaVuSans-Bold-31" transform="scale(0.015625)"/>
       </defs>
       <use xlink:href="#DejaVuSans-Bold-31"/>
      </g>
     </g>
    </g>
    <g id="xtick_3">
     <g id="line2d_3">
      <g>
       <use style="stroke:#000000;stroke-width:0.8;" x="212.07289" xlink:href="#m561251bef7" y="239.758125"/>
      </g>
     </g>
     <g id="text_3">
      <!-- 2 -->
      <g transform="translate(208.593984 254.356562)scale(0.1 -0.1)">
       <defs>
        <path d="M 1844 884 
L 3897 884 
L 3897 0 
L 506 0 
L 506 884 
L 2209 2388 
Q 2438 2594 2547 2791 
Q 2656 2988 2656 3200 
Q 2656 3528 2436 3728 
Q 2216 3928 1850 3928 
Q 1569 3928 1234 3808 
Q 900 3688 519 3450 
L 519 4475 
Q 925 4609 1322 4679 
Q 1719 4750 2100 4750 
Q 2938 4750 3402 4381 
Q 3866 4013 3866 3353 
Q 3866 2972 3669 2642 
Q 3472 2313 2841 1759 
L 1844 884 
z
" id="DejaVuSans-Bold-32" transform="scale(0.015625)"/>
       </defs>
       <use xlink:href="#DejaVuSans-Bold-32"/>
      </g>
     </g>
    </g>
    <g id="xtick_4">
     <g id="line2d_4">
      <g>
       <use style="stroke:#000000;stroke-width:0.8;" x="285.413525" xlink:href="#m561251bef7" y="239.758125"/>
      </g>
     </g>
     <g id="text_4">
      <!-- 3 -->
      <g transform="translate(281.934619 254.356562)scale(0.1 -0.1)">
       <defs>
        <path d="M 2981 2516 
Q 3453 2394 3698 2092 
Q 3944 1791 3944 1325 
Q 3944 631 3412 270 
Q 2881 -91 1863 -91 
Q 1503 -91 1142 -33 
Q 781 25 428 141 
L 428 1069 
Q 766 900 1098 814 
Q 1431 728 1753 728 
Q 2231 728 2486 893 
Q 2741 1059 2741 1369 
Q 2741 1688 2480 1852 
Q 2219 2016 1709 2016 
L 1228 2016 
L 1228 2791 
L 1734 2791 
Q 2188 2791 2409 2933 
Q 2631 3075 2631 3366 
Q 2631 3634 2415 3781 
Q 2200 3928 1806 3928 
Q 1516 3928 1219 3862 
Q 922 3797 628 3669 
L 628 4550 
Q 984 4650 1334 4700 
Q 1684 4750 2022 4750 
Q 2931 4750 3382 4451 
Q 3834 4153 3834 3553 
Q 3834 3144 3618 2883 
Q 3403 2622 2981 2516 
z
" id="DejaVuSans-Bold-33" transform="scale(0.015625)"/>
       </defs>
       <use xlink:href="#DejaVuSans-Bold-33"/>
      </g>
     </g>
    </g>
    <g id="xtick_5">
     <g id="line2d_5">
      <g>
       <use style="stroke:#000000;stroke-width:0.8;" x="358.75416" xlink:href="#m561251bef7" y="239.758125"/>
      </g>
     </g>
     <g id="text_5">
      <!-- 4 -->
      <g transform="translate(355.275254 254.356562)scale(0.1 -0.1)">
       <defs>
        <path d="M 2356 3675 
L 1038 1722 
L 2356 1722 
L 2356 3675 
z
M 2156 4666 
L 3494 4666 
L 3494 1722 
L 4159 1722 
L 4159 850 
L 3494 850 
L 3494 0 
L 2356 0 
L 2356 850 
L 288 850 
L 288 1881 
L 2156 4666 
z
" id="DejaVuSans-Bold-34" transform="scale(0.015625)"/>
       </defs>
       <use xlink:href="#DejaVuSans-Bold-34"/>
      </g>
     </g>
    </g>
    <g id="text_6">
     <!-- time -->
     <g transform="translate(204.867969 268.034687)scale(0.1 -0.1)">
      <defs>
       <path d="M 1759 4494 
L 1759 3500 
L 2913 3500 
L 2913 2700 
L 1759 2700 
L 1759 1216 
Q 1759 972 1856 886 
Q 1953 800 2241 800 
L 2816 800 
L 2816 0 
L 1856 0 
Q 1194 0 917 276 
Q 641 553 641 1216 
L 641 2700 
L 84 2700 
L 84 3500 
L 641 3500 
L 641 4494 
L 1759 4494 
z
" id="DejaVuSans-Bold-74" transform="scale(0.015625)"/>
       <path d="M 538 3500 
L 1656 3500 
L 1656 0 
L 538 0 
L 538 3500 
z
M 538 4863 
L 1656 4863 
L 1656 3950 
L 538 3950 
L 538 4863 
z
" id="DejaVuSans-Bold-69" transform="scale(0.015625)"/>
       <path d="M 3781 2919 
Q 3994 3244 4286 3414 
Q 4578 3584 4928 3584 
Q 5531 3584 5847 3212 
Q 6163 2841 6163 2131 
L 6163 0 
L 5038 0 
L 5038 1825 
Q 5041 1866 5042 1909 
Q 5044 1953 5044 2034 
Q 5044 2406 4934 2573 
Q 4825 2741 4581 2741 
Q 4263 2741 4089 2478 
Q 3916 2216 3909 1719 
L 3909 0 
L 2784 0 
L 2784 1825 
Q 2784 2406 2684 2573 
Q 2584 2741 2328 2741 
Q 2006 2741 1831 2477 
Q 1656 2213 1656 1722 
L 1656 0 
L 531 0 
L 531 3500 
L 1656 3500 
L 1656 2988 
Q 1863 3284 2130 3434 
Q 2397 3584 2719 3584 
Q 3081 3584 3359 3409 
Q 3638 3234 3781 2919 
z
" id="DejaVuSans-Bold-6d" transform="scale(0.015625)"/>
       <path d="M 4031 1759 
L 4031 1441 
L 1416 1441 
Q 1456 1047 1700 850 
Q 1944 653 2381 653 
Q 2734 653 3104 758 
Q 3475 863 3866 1075 
L 3866 213 
Q 3469 63 3072 -14 
Q 2675 -91 2278 -91 
Q 1328 -91 801 392 
Q 275 875 275 1747 
Q 275 2603 792 3093 
Q 1309 3584 2216 3584 
Q 3041 3584 3536 3087 
Q 4031 2591 4031 1759 
z
M 2881 2131 
Q 2881 2450 2695 2645 
Q 2509 2841 2209 2841 
Q 1884 2841 1681 2658 
Q 1478 2475 1428 2131 
L 2881 2131 
z
" id="DejaVuSans-Bold-65" transform="scale(0.015625)"/>
      </defs>
      <use xlink:href="#DejaVuSans-Bold-74"/>
      <use x="47.802734" xlink:href="#DejaVuSans-Bold-69"/>
      <use x="82.080078" xlink:href="#DejaVuSans-Bold-6d"/>
      <use x="186.279297" xlink:href="#DejaVuSans-Bold-65"/>
     </g>
    </g>
   </g>
   <g id="matplotlib.axis_2">
    <g id="ytick_1">
     <g id="line2d_6">
      <defs>
       <path d="M 0 0 
L -3.5 0 
" id="m4bd27c10e1" style="stroke:#000000;stroke-width:0.8;"/>
      </defs>
      <g>
       <use style="stroke:#000000;stroke-width:0.8;" x="50.173438" xlink:href="#m4bd27c10e1" y="214.243968"/>
      </g>
     </g>
     <g id="text_7">
      <!-- −10 -->
      <g transform="translate(20.878125 218.043186)scale(0.1 -0.1)">
       <defs>
        <path d="M 678 2375 
L 4684 2375 
L 4684 1638 
L 678 1638 
L 678 2375 
z
" id="DejaVuSans-Bold-2212" transform="scale(0.015625)"/>
       </defs>
       <use xlink:href="#DejaVuSans-Bold-2212"/>
       <use x="83.789062" xlink:href="#DejaVuSans-Bold-31"/>
       <use x="153.369141" xlink:href="#DejaVuSans-Bold-30"/>
      </g>
     </g>
    </g>
    <g id="ytick_2">
     <g id="line2d_7">
      <g>
       <use style="stroke:#000000;stroke-width:0.8;" x="50.173438" xlink:href="#m4bd27c10e1" y="169.340806"/>
      </g>
     </g>
     <g id="text_8">
      <!-- −5 -->
      <g transform="translate(27.835938 173.140025)scale(0.1 -0.1)">
       <defs>
        <path d="M 678 4666 
L 3669 4666 
L 3669 3781 
L 1638 3781 
L 1638 3059 
Q 1775 3097 1914 3117 
Q 2053 3138 2203 3138 
Q 3056 3138 3531 2711 
Q 4006 2284 4006 1522 
Q 4006 766 3489 337 
Q 2972 -91 2053 -91 
Q 1656 -91 1267 -14 
Q 878 63 494 219 
L 494 1166 
Q 875 947 1217 837 
Q 1559 728 1863 728 
Q 2300 728 2551 942 
Q 2803 1156 2803 1522 
Q 2803 1891 2551 2103 
Q 2300 2316 1863 2316 
Q 1603 2316 1309 2248 
Q 1016 2181 678 2041 
L 678 4666 
z
" id="DejaVuSans-Bold-35" transform="scale(0.015625)"/>
       </defs>
       <use xlink:href="#DejaVuSans-Bold-2212"/>
       <use x="83.789062" xlink:href="#DejaVuSans-Bold-35"/>
      </g>
     </g>
    </g>
    <g id="ytick_3">
     <g id="line2d_8">
      <g>
       <use style="stroke:#000000;stroke-width:0.8;" x="50.173438" xlink:href="#m4bd27c10e1" y="124.437645"/>
      </g>
     </g>
     <g id="text_9">
      <!-- 0 -->
      <g transform="translate(36.215625 128.236863)scale(0.1 -0.1)">
       <use xlink:href="#DejaVuSans-Bold-30"/>
      </g>
     </g>
    </g>
    <g id="ytick_4">
     <g id="line2d_9">
      <g>
       <use style="stroke:#000000;stroke-width:0.8;" x="50.173438" xlink:href="#m4bd27c10e1" y="79.534483"/>
      </g>
     </g>
     <g id="text_10">
      <!-- 5 -->
      <g transform="translate(36.215625 83.333702)scale(0.1 -0.1)">
       <use xlink:href="#DejaVuSans-Bold-35"/>
      </g>
     </g>
    </g>
    <g id="ytick_5">
     <g id="line2d_10">
      <g>
       <use style="stroke:#000000;stroke-width:0.8;" x="50.173438" xlink:href="#m4bd27c10e1" y="34.631322"/>
      </g>
     </g>
     <g id="text_11">
      <!-- 10 -->
      <g transform="translate(29.257813 38.430541)scale(0.1 -0.1)">
       <use xlink:href="#DejaVuSans-Bold-31"/>
       <use x="69.580078" xlink:href="#DejaVuSans-Bold-30"/>
      </g>
     </g>
    </g>
    <g id="text_12">
     <!-- X -->
     <g transform="translate(14.798438 134.892812)rotate(-90)scale(0.1 -0.1)">
      <defs>
       <path d="M 3188 2381 
L 4806 0 
L 3553 0 
L 2463 1594 
L 1381 0 
L 122 0 
L 1741 2381 
L 184 4666 
L 1441 4666 
L 2463 3163 
L 3481 4666 
L 4744 4666 
L 3188 2381 
z
" id="DejaVuSans-Bold-58" transform="scale(0.015625)"/>
      </defs>
      <use xlink:href="#DejaVuSans-Bold-58"/>
     </g>
    </g>
   </g>
   <g id="line2d_11">
    <path clip-path="url(#p3dd763e86b)" d="M 65.391619 124.437645 
L 69.058651 124.437645 
L 72.725683 124.437645 
L 76.392715 124.437645 
L 80.059746 124.437645 
L 83.726778 124.437645 
L 87.39381 124.437645 
L 91.060842 124.437645 
L 94.727873 124.437645 
L 98.394905 124.437645 
L 102.061937 124.437645 
L 105.728969 124.437645 
L 109.396 124.437645 
L 113.063032 124.405751 
L 116.730064 124.362633 
L 120.397096 124.387176 
L 124.064128 124.607209 
L 127.731159 124.764159 
L 131.398191 124.811577 
L 135.065223 124.797564 
L 138.732255 124.777418 
L 142.399286 124.676095 
L 146.066318 124.750362 
L 149.73335 124.715799 
L 153.400382 124.230644 
L 157.067413 124.33029 
L 160.734445 124.301857 
L 164.401477 122.95141 
L 168.068509 120.568609 
L 171.73554 116.70077 
L 175.402572 111.782236 
L 179.069604 103.480301 
L 182.736636 93.260541 
L 186.403668 82.474503 
L 190.070699 70.52643 
L 193.737731 58.450473 
L 197.404763 48.291043 
L 201.071795 40.571531 
L 204.738826 35.583389 
L 208.405858 33.002894 
L 212.07289 32.201761 
L 215.739922 32.798494 
L 219.406953 34.597854 
L 223.073985 36.866871 
L 226.741017 39.035065 
L 230.408049 40.446072 
L 234.07508 40.849751 
L 237.742112 40.758208 
L 241.409144 40.761831 
L 245.076176 40.911298 
L 248.743207 40.853852 
L 252.410239 40.820115 
L 256.077271 40.890493 
L 259.744303 40.884356 
L 263.411335 40.817301 
L 267.078366 40.843495 
L 270.745398 40.907946 
L 274.41243 40.838346 
L 278.079462 40.851338 
L 281.746493 40.886811 
L 285.413525 40.843794 
L 289.080557 40.862982 
L 292.747589 40.87828 
L 296.41462 40.84101 
L 300.081652 40.870915 
L 303.748684 40.872741 
L 307.415716 40.841309 
L 311.082747 40.875196 
L 314.749779 40.860737 
L 318.416811 40.860618 
L 322.083843 40.849811 
L 325.750875 40.874298 
L 329.417906 40.871903 
L 333.084938 40.826431 
L 336.75197 40.8875 
L 340.419002 40.865976 
L 344.086033 40.839992 
L 347.753065 40.877531 
L 351.420097 40.855828 
L 355.087129 40.859749 
L 358.75416 40.870227 
L 362.421192 40.847775 
L 366.088224 40.870766 
L 369.755256 40.862324 
" style="fill:none;stroke:#0000ff;stroke-linecap:square;stroke-width:1.5;"/>
   </g>
   <g id="line2d_12">
    <path clip-path="url(#p3dd763e86b)" d="M 65.391619 124.437645 
L 69.058651 124.437645 
L 72.725683 124.437645 
L 76.392715 124.437645 
L 80.059746 124.437645 
L 83.726778 124.437645 
L 87.39381 124.437645 
L 91.060842 124.437645 
L 94.727873 124.437645 
L 98.394905 124.437645 
L 102.061937 124.437645 
L 105.728969 124.437645 
L 109.396 124.437645 
L 113.063032 124.437645 
L 116.730064 124.455015 
L 120.397096 124.515225 
L 124.064128 124.558255 
L 127.731159 124.609827 
L 131.398191 124.599637 
L 135.065223 124.534291 
L 138.732255 124.413211 
L 142.399286 124.174785 
L 146.066318 123.817212 
L 149.73335 123.808605 
L 153.400382 124.088026 
L 157.067413 124.835786 
L 160.734445 126.131991 
L 164.401477 128.954214 
L 168.068509 132.128688 
L 171.73554 136.091021 
L 175.402572 139.192524 
L 179.069604 143.244553 
L 182.736636 149.522691 
L 186.403668 158.76695 
L 190.070699 170.012797 
L 193.737731 182.112672 
L 197.404763 195.076694 
L 201.071795 206.614711 
L 204.738826 216.254192 
L 208.405858 223.477524 
L 212.07289 228.226662 
L 215.739922 229.874489 
L 219.406953 229.102513 
L 223.073985 227.650764 
L 226.741017 225.945043 
L 230.408049 224.871408 
L 234.07508 225.020786 
L 237.742112 225.432937 
L 241.409144 225.447246 
L 245.076176 225.288229 
L 248.743207 225.368696 
L 252.410239 225.353578 
L 256.077271 225.381089 
L 259.744303 225.391447 
L 263.411335 225.303496 
L 267.078366 225.372348 
L 270.745398 225.376958 
L 274.41243 225.35732 
L 278.079462 225.364505 
L 281.746493 225.349986 
L 285.413525 225.358159 
L 289.080557 225.383185 
L 292.747589 225.34828 
L 296.41462 225.364655 
L 300.081652 225.365313 
L 303.748684 225.351782 
L 307.415716 225.383484 
L 311.082747 225.345586 
L 314.749779 225.380251 
L 318.416811 225.346154 
L 322.083843 225.361601 
L 325.750875 225.390429 
L 329.417906 225.337473 
L 333.084938 225.370492 
L 336.75197 225.358667 
L 340.419002 225.375132 
L 344.086033 225.363786 
L 347.753065 225.348968 
L 351.420097 225.372707 
L 355.087129 225.366481 
L 358.75416 225.360464 
L 362.421192 225.364774 
L 366.088224 225.359027 
L 369.755256 225.368726 
" style="fill:none;stroke:#ffd700;stroke-linecap:square;stroke-width:1.5;"/>
   </g>
   <g id="line2d_13">
    <path clip-path="url(#p3dd763e86b)" d="M 65.391619 124.437645 
L 69.058651 124.437645 
L 72.725683 124.437645 
L 76.392715 124.437645 
L 80.059746 124.437645 
L 83.726778 124.437645 
L 87.39381 124.437645 
L 91.060842 124.437645 
L 94.727873 124.437645 
L 98.394905 124.437645 
L 102.061937 124.437645 
L 105.728969 124.437645 
L 109.396 124.437645 
L 113.063032 124.437645 
L 116.730064 124.437645 
L 120.397096 124.429905 
L 124.064128 124.413648 
L 127.731159 124.381024 
L 131.398191 124.33261 
L 135.065223 124.258725 
L 138.732255 124.166166 
L 142.399286 124.071672 
L 146.066318 123.939079 
L 149.73335 123.923611 
L 153.400382 124.398115 
L 157.067413 124.360142 
L 160.734445 123.876505 
L 164.401477 122.94662 
L 168.068509 122.959732 
L 171.73554 124.446925 
L 175.402572 126.538568 
L 179.069604 128.501671 
L 182.736636 128.339517 
L 186.403668 127.266352 
L 190.070699 127.243984 
L 193.737731 129.416905 
L 197.404763 132.243799 
L 201.071795 133.588298 
L 204.738826 136.744589 
L 208.405858 140.50587 
L 212.07289 143.495382 
L 215.739922 146.138325 
L 219.406953 148.95058 
L 223.073985 151.86719 
L 226.741017 152.48838 
L 230.408049 153.467778 
L 234.07508 153.335673 
L 237.742112 153.196922 
L 241.409144 153.372583 
L 245.076176 153.322412 
L 248.743207 153.200005 
L 252.410239 153.301427 
L 256.077271 153.320226 
L 259.744303 153.243861 
L 263.411335 153.300379 
L 267.078366 153.277688 
L 270.745398 153.256015 
L 274.41243 153.297685 
L 278.079462 153.287387 
L 281.746493 153.26736 
L 285.413525 153.29526 
L 289.080557 153.273587 
L 292.747589 153.269126 
L 296.41462 153.289812 
L 300.081652 153.279215 
L 303.748684 153.285292 
L 307.415716 153.274365 
L 311.082747 153.28616 
L 314.749779 153.277029 
L 318.416811 153.271821 
L 322.083843 153.292596 
L 325.750875 153.275682 
L 329.417906 153.279963 
L 333.084938 153.286639 
L 336.75197 153.271012 
L 340.419002 153.281999 
L 344.086033 153.288255 
L 347.753065 153.268588 
L 351.420097 153.287986 
L 355.087129 153.284753 
L 358.75416 153.269965 
L 362.421192 153.286609 
L 366.088224 153.279873 
L 369.755256 153.27652 
" style="fill:none;stroke:#ff1493;stroke-linecap:square;stroke-width:1.5;"/>
   </g>
   <g id="line2d_14">
    <path clip-path="url(#p3dd763e86b)" d="M 65.391619 124.437645 
L 69.058651 124.437645 
L 72.725683 124.437645 
L 76.392715 124.437645 
L 80.059746 124.437645 
L 83.726778 124.437645 
L 87.39381 124.437645 
L 91.060842 124.437645 
L 94.727873 124.437645 
L 98.394905 124.437645 
L 102.061937 124.437645 
L 105.728969 124.437645 
L 109.396 124.437645 
L 113.063032 124.437645 
L 116.730064 124.437645 
L 120.397096 124.437645 
L 124.064128 124.440808 
L 127.731159 124.446129 
L 131.398191 124.457688 
L 135.065223 124.473651 
L 138.732255 124.514506 
L 142.399286 124.599257 
L 146.066318 124.785019 
L 149.73335 125.046139 
L 153.400382 125.418575 
L 157.067413 125.857043 
L 160.734445 126.189733 
L 164.401477 126.645563 
L 168.068509 126.560636 
L 171.73554 125.639999 
L 175.402572 124.754972 
L 179.069604 125.730068 
L 182.736636 127.606191 
L 186.403668 128.836628 
L 190.070699 130.252664 
L 193.737731 132.64711 
L 197.404763 136.34423 
L 201.071795 142.235719 
L 204.738826 148.492894 
L 208.405858 157.418208 
L 212.07289 165.956395 
L 215.739922 172.752758 
L 219.406953 179.043092 
L 223.073985 181.948626 
L 226.741017 183.388521 
L 230.408049 184.340318 
L 234.07508 184.103768 
L 237.742112 183.592381 
L 241.409144 183.692665 
L 245.076176 183.765138 
L 248.743207 183.617766 
L 252.410239 183.747686 
L 256.077271 183.75035 
L 259.744303 183.646205 
L 263.411335 183.744483 
L 267.078366 183.723857 
L 270.745398 183.684672 
L 274.41243 183.740232 
L 278.079462 183.703501 
L 281.746493 183.682337 
L 285.413525 183.739005 
L 289.080557 183.700957 
L 292.747589 183.707333 
L 296.41462 183.721612 
L 300.081652 183.697933 
L 303.748684 183.719307 
L 307.415716 183.698772 
L 311.082747 183.72254 
L 314.749779 183.709997 
L 318.416811 183.698562 
L 322.083843 183.725354 
L 325.750875 183.702334 
L 329.417906 183.706285 
L 333.084938 183.720385 
L 336.75197 183.701735 
L 340.419002 183.712871 
L 344.086033 183.723828 
L 347.753065 183.688713 
L 351.420097 183.720834 
L 355.087129 183.717152 
L 358.75416 183.69467 
L 362.421192 183.72248 
L 366.088224 183.708231 
L 369.755256 183.705357 
" style="fill:none;stroke:#008000;stroke-linecap:square;stroke-width:1.5;"/>
   </g>
   <g id="line2d_15">
    <path clip-path="url(#p3dd763e86b)" d="M 65.391619 124.437645 
L 69.058651 124.437645 
L 72.725683 124.437645 
L 76.392715 124.437645 
L 80.059746 124.437645 
L 83.726778 124.437645 
L 87.39381 124.437645 
L 91.060842 124.437645 
L 94.727873 124.437645 
L 98.394905 124.437645 
L 102.061937 124.437645 
L 105.728969 124.437645 
L 109.396 124.437645 
L 113.063032 124.437645 
L 116.730064 124.437645 
L 120.397096 124.437645 
L 124.064128 124.437286 
L 127.731159 124.436896 
L 131.398191 124.436616 
L 135.065223 124.43111 
L 138.732255 124.390931 
L 142.399286 124.325044 
L 146.066318 124.203034 
L 149.73335 123.99144 
L 153.400382 123.663825 
L 157.067413 123.318128 
L 160.734445 123.066631 
L 164.401477 122.983004 
L 168.068509 123.179925 
L 171.73554 123.42119 
L 175.402572 123.567885 
L 179.069604 123.65157 
L 182.736636 123.499118 
L 186.403668 123.455828 
L 190.070699 123.362025 
L 193.737731 123.277646 
L 197.404763 122.155397 
L 201.071795 121.125228 
L 204.738826 121.102507 
L 208.405858 121.503014 
L 212.07289 122.101483 
L 215.739922 122.654139 
L 219.406953 123.666669 
L 223.073985 125.997054 
L 226.741017 128.364423 
L 230.408049 128.655785 
L 234.07508 128.510065 
L 237.742112 128.319909 
L 241.409144 128.467482 
L 245.076176 128.512583 
L 248.743207 128.332374 
L 252.410239 128.455071 
L 256.077271 128.499737 
L 259.744303 128.368551 
L 263.411335 128.468096 
L 267.078366 128.466473 
L 270.745398 128.397298 
L 274.41243 128.478133 
L 278.079462 128.444926 
L 281.746493 128.411955 
L 285.413525 128.471233 
L 289.080557 128.437867 
L 292.747589 128.434131 
L 296.41462 128.450044 
L 300.081652 128.441875 
L 303.748684 128.446695 
L 307.415716 128.433116 
L 311.082747 128.456789 
L 314.749779 128.440624 
L 318.416811 128.430416 
L 322.083843 128.46165 
L 325.750875 128.436451 
L 329.417906 128.437998 
L 333.084938 128.455651 
L 336.75197 128.432182 
L 340.419002 128.446386 
L 344.086033 128.45528 
L 347.753065 128.424366 
L 351.420097 128.453227 
L 355.087129 128.451877 
L 358.75416 128.427635 
L 362.421192 128.454843 
L 366.088224 128.443147 
L 369.755256 128.437657 
" style="fill:none;stroke:#8fbc8f;stroke-linecap:square;stroke-width:1.5;"/>
   </g>
   <g id="patch_3">
    <path d="M 50.173438 239.758125 
L 50.173438 22.318125 
" style="fill:none;stroke:#000000;stroke-linecap:square;stroke-linejoin:miter;stroke-width:0.8;"/>
   </g>
   <g id="patch_4">
    <path d="M 384.973437 239.758125 
L 384.973437 22.318125 
" style="fill:none;stroke:#000000;stroke-linecap:square;stroke-linejoin:miter;stroke-width:0.8;"/>
   </g>
   <g id="patch_5">
    <path d="M 50.173438 239.758125 
L 384.973437 239.758125 
" style="fill:none;stroke:#000000;stroke-linecap:square;stroke-linejoin:miter;stroke-width:0.8;"/>
   </g>
   <g id="patch_6">
    <path d="M 50.173438 22.318125 
L 384.973437 22.318125 
" style="fill:none;stroke:#000000;stroke-linecap:square;stroke-linejoin:miter;stroke-width:0.8;"/>
   </g>
   <g id="text_13">
    <!-- Center of mass of intruder -->
    <g transform="translate(138.35375 16.318125)scale(0.12 -0.12)">
     <defs>
      <path d="M 4122 4306 
L 4122 3641 
Q 3803 3938 3442 4084 
Q 3081 4231 2675 4231 
Q 1875 4231 1450 3742 
Q 1025 3253 1025 2328 
Q 1025 1406 1450 917 
Q 1875 428 2675 428 
Q 3081 428 3442 575 
Q 3803 722 4122 1019 
L 4122 359 
Q 3791 134 3420 21 
Q 3050 -91 2638 -91 
Q 1578 -91 968 557 
Q 359 1206 359 2328 
Q 359 3453 968 4101 
Q 1578 4750 2638 4750 
Q 3056 4750 3426 4639 
Q 3797 4528 4122 4306 
z
" id="DejaVuSans-43" transform="scale(0.015625)"/>
      <path d="M 3597 1894 
L 3597 1613 
L 953 1613 
Q 991 1019 1311 708 
Q 1631 397 2203 397 
Q 2534 397 2845 478 
Q 3156 559 3463 722 
L 3463 178 
Q 3153 47 2828 -22 
Q 2503 -91 2169 -91 
Q 1331 -91 842 396 
Q 353 884 353 1716 
Q 353 2575 817 3079 
Q 1281 3584 2069 3584 
Q 2775 3584 3186 3129 
Q 3597 2675 3597 1894 
z
M 3022 2063 
Q 3016 2534 2758 2815 
Q 2500 3097 2075 3097 
Q 1594 3097 1305 2825 
Q 1016 2553 972 2059 
L 3022 2063 
z
" id="DejaVuSans-65" transform="scale(0.015625)"/>
      <path d="M 3513 2113 
L 3513 0 
L 2938 0 
L 2938 2094 
Q 2938 2591 2744 2837 
Q 2550 3084 2163 3084 
Q 1697 3084 1428 2787 
Q 1159 2491 1159 1978 
L 1159 0 
L 581 0 
L 581 3500 
L 1159 3500 
L 1159 2956 
Q 1366 3272 1645 3428 
Q 1925 3584 2291 3584 
Q 2894 3584 3203 3211 
Q 3513 2838 3513 2113 
z
" id="DejaVuSans-6e" transform="scale(0.015625)"/>
      <path d="M 1172 4494 
L 1172 3500 
L 2356 3500 
L 2356 3053 
L 1172 3053 
L 1172 1153 
Q 1172 725 1289 603 
Q 1406 481 1766 481 
L 2356 481 
L 2356 0 
L 1766 0 
Q 1100 0 847 248 
Q 594 497 594 1153 
L 594 3053 
L 172 3053 
L 172 3500 
L 594 3500 
L 594 4494 
L 1172 4494 
z
" id="DejaVuSans-74" transform="scale(0.015625)"/>
      <path d="M 2631 2963 
Q 2534 3019 2420 3045 
Q 2306 3072 2169 3072 
Q 1681 3072 1420 2755 
Q 1159 2438 1159 1844 
L 1159 0 
L 581 0 
L 581 3500 
L 1159 3500 
L 1159 2956 
Q 1341 3275 1631 3429 
Q 1922 3584 2338 3584 
Q 2397 3584 2469 3576 
Q 2541 3569 2628 3553 
L 2631 2963 
z
" id="DejaVuSans-72" transform="scale(0.015625)"/>
      <path id="DejaVuSans-20" transform="scale(0.015625)"/>
      <path d="M 1959 3097 
Q 1497 3097 1228 2736 
Q 959 2375 959 1747 
Q 959 1119 1226 758 
Q 1494 397 1959 397 
Q 2419 397 2687 759 
Q 2956 1122 2956 1747 
Q 2956 2369 2687 2733 
Q 2419 3097 1959 3097 
z
M 1959 3584 
Q 2709 3584 3137 3096 
Q 3566 2609 3566 1747 
Q 3566 888 3137 398 
Q 2709 -91 1959 -91 
Q 1206 -91 779 398 
Q 353 888 353 1747 
Q 353 2609 779 3096 
Q 1206 3584 1959 3584 
z
" id="DejaVuSans-6f" transform="scale(0.015625)"/>
      <path d="M 2375 4863 
L 2375 4384 
L 1825 4384 
Q 1516 4384 1395 4259 
Q 1275 4134 1275 3809 
L 1275 3500 
L 2222 3500 
L 2222 3053 
L 1275 3053 
L 1275 0 
L 697 0 
L 697 3053 
L 147 3053 
L 147 3500 
L 697 3500 
L 697 3744 
Q 697 4328 969 4595 
Q 1241 4863 1831 4863 
L 2375 4863 
z
" id="DejaVuSans-66" transform="scale(0.015625)"/>
      <path d="M 3328 2828 
Q 3544 3216 3844 3400 
Q 4144 3584 4550 3584 
Q 5097 3584 5394 3201 
Q 5691 2819 5691 2113 
L 5691 0 
L 5113 0 
L 5113 2094 
Q 5113 2597 4934 2840 
Q 4756 3084 4391 3084 
Q 3944 3084 3684 2787 
Q 3425 2491 3425 1978 
L 3425 0 
L 2847 0 
L 2847 2094 
Q 2847 2600 2669 2842 
Q 2491 3084 2119 3084 
Q 1678 3084 1418 2786 
Q 1159 2488 1159 1978 
L 1159 0 
L 581 0 
L 581 3500 
L 1159 3500 
L 1159 2956 
Q 1356 3278 1631 3431 
Q 1906 3584 2284 3584 
Q 2666 3584 2933 3390 
Q 3200 3197 3328 2828 
z
" id="DejaVuSans-6d" transform="scale(0.015625)"/>
      <path d="M 2194 1759 
Q 1497 1759 1228 1600 
Q 959 1441 959 1056 
Q 959 750 1161 570 
Q 1363 391 1709 391 
Q 2188 391 2477 730 
Q 2766 1069 2766 1631 
L 2766 1759 
L 2194 1759 
z
M 3341 1997 
L 3341 0 
L 2766 0 
L 2766 531 
Q 2569 213 2275 61 
Q 1981 -91 1556 -91 
Q 1019 -91 701 211 
Q 384 513 384 1019 
Q 384 1609 779 1909 
Q 1175 2209 1959 2209 
L 2766 2209 
L 2766 2266 
Q 2766 2663 2505 2880 
Q 2244 3097 1772 3097 
Q 1472 3097 1187 3025 
Q 903 2953 641 2809 
L 641 3341 
Q 956 3463 1253 3523 
Q 1550 3584 1831 3584 
Q 2591 3584 2966 3190 
Q 3341 2797 3341 1997 
z
" id="DejaVuSans-61" transform="scale(0.015625)"/>
      <path d="M 2834 3397 
L 2834 2853 
Q 2591 2978 2328 3040 
Q 2066 3103 1784 3103 
Q 1356 3103 1142 2972 
Q 928 2841 928 2578 
Q 928 2378 1081 2264 
Q 1234 2150 1697 2047 
L 1894 2003 
Q 2506 1872 2764 1633 
Q 3022 1394 3022 966 
Q 3022 478 2636 193 
Q 2250 -91 1575 -91 
Q 1294 -91 989 -36 
Q 684 19 347 128 
L 347 722 
Q 666 556 975 473 
Q 1284 391 1588 391 
Q 1994 391 2212 530 
Q 2431 669 2431 922 
Q 2431 1156 2273 1281 
Q 2116 1406 1581 1522 
L 1381 1569 
Q 847 1681 609 1914 
Q 372 2147 372 2553 
Q 372 3047 722 3315 
Q 1072 3584 1716 3584 
Q 2034 3584 2315 3537 
Q 2597 3491 2834 3397 
z
" id="DejaVuSans-73" transform="scale(0.015625)"/>
      <path d="M 603 3500 
L 1178 3500 
L 1178 0 
L 603 0 
L 603 3500 
z
M 603 4863 
L 1178 4863 
L 1178 4134 
L 603 4134 
L 603 4863 
z
" id="DejaVuSans-69" transform="scale(0.015625)"/>
      <path d="M 544 1381 
L 544 3500 
L 1119 3500 
L 1119 1403 
Q 1119 906 1312 657 
Q 1506 409 1894 409 
Q 2359 409 2629 706 
Q 2900 1003 2900 1516 
L 2900 3500 
L 3475 3500 
L 3475 0 
L 2900 0 
L 2900 538 
Q 2691 219 2414 64 
Q 2138 -91 1772 -91 
Q 1169 -91 856 284 
Q 544 659 544 1381 
z
M 1991 3584 
L 1991 3584 
z
" id="DejaVuSans-75" transform="scale(0.015625)"/>
      <path d="M 2906 2969 
L 2906 4863 
L 3481 4863 
L 3481 0 
L 2906 0 
L 2906 525 
Q 2725 213 2448 61 
Q 2172 -91 1784 -91 
Q 1150 -91 751 415 
Q 353 922 353 1747 
Q 353 2572 751 3078 
Q 1150 3584 1784 3584 
Q 2172 3584 2448 3432 
Q 2725 3281 2906 2969 
z
M 947 1747 
Q 947 1113 1208 752 
Q 1469 391 1925 391 
Q 2381 391 2643 752 
Q 2906 1113 2906 1747 
Q 2906 2381 2643 2742 
Q 2381 3103 1925 3103 
Q 1469 3103 1208 2742 
Q 947 2381 947 1747 
z
" id="DejaVuSans-64" transform="scale(0.015625)"/>
     </defs>
     <use xlink:href="#DejaVuSans-43"/>
     <use x="69.824219" xlink:href="#DejaVuSans-65"/>
     <use x="131.347656" xlink:href="#DejaVuSans-6e"/>
     <use x="194.726562" xlink:href="#DejaVuSans-74"/>
     <use x="233.935547" xlink:href="#DejaVuSans-65"/>
     <use x="295.458984" xlink:href="#DejaVuSans-72"/>
     <use x="336.572266" xlink:href="#DejaVuSans-20"/>
     <use x="368.359375" xlink:href="#DejaVuSans-6f"/>
     <use x="429.541016" xlink:href="#DejaVuSans-66"/>
     <use x="464.746094" xlink:href="#DejaVuSans-20"/>
     <use x="496.533203" xlink:href="#DejaVuSans-6d"/>
     <use x="593.945312" xlink:href="#DejaVuSans-61"/>
     <use x="655.224609" xlink:href="#DejaVuSans-73"/>
     <use x="707.324219" xlink:href="#DejaVuSans-73"/>
     <use x="759.423828" xlink:href="#DejaVuSans-20"/>
     <use x="791.210938" xlink:href="#DejaVuSans-6f"/>
     <use x="852.392578" xlink:href="#DejaVuSans-66"/>
     <use x="887.597656" xlink:href="#DejaVuSans-20"/>
     <use x="919.384766" xlink:href="#DejaVuSans-69"/>
     <use x="947.167969" xlink:href="#DejaVuSans-6e"/>
     <use x="1010.546875" xlink:href="#DejaVuSans-74"/>
     <use x="1049.755859" xlink:href="#DejaVuSans-72"/>
     <use x="1090.869141" xlink:href="#DejaVuSans-75"/>
     <use x="1154.248047" xlink:href="#DejaVuSans-64"/>
     <use x="1217.724609" xlink:href="#DejaVuSans-65"/>
     <use x="1279.248047" xlink:href="#DejaVuSans-72"/>
    </g>
   </g>
   <g id="legend_1">
    <g id="patch_7">
     <path d="M 57.173438 103.70875 
L 142.379688 103.70875 
Q 144.379688 103.70875 144.379688 101.70875 
L 144.379688 29.318125 
Q 144.379688 27.318125 142.379688 27.318125 
L 57.173438 27.318125 
Q 55.173438 27.318125 55.173438 29.318125 
L 55.173438 101.70875 
Q 55.173438 103.70875 57.173438 103.70875 
z
" style="fill:#ffffff;opacity:0.8;stroke:#cccccc;stroke-linejoin:miter;"/>
    </g>
    <g id="line2d_16">
     <path d="M 59.173438 35.416562 
L 79.173438 35.416562 
" style="fill:none;stroke:#0000ff;stroke-linecap:square;stroke-width:1.5;"/>
    </g>
    <g id="line2d_17"/>
    <g id="text_14">
     <!-- intruder1 -->
     <g transform="translate(87.173438 38.916562)scale(0.1 -0.1)">
      <defs>
       <path d="M 4056 2131 
L 4056 0 
L 2931 0 
L 2931 347 
L 2931 1631 
Q 2931 2084 2911 2256 
Q 2891 2428 2841 2509 
Q 2775 2619 2662 2680 
Q 2550 2741 2406 2741 
Q 2056 2741 1856 2470 
Q 1656 2200 1656 1722 
L 1656 0 
L 538 0 
L 538 3500 
L 1656 3500 
L 1656 2988 
Q 1909 3294 2193 3439 
Q 2478 3584 2822 3584 
Q 3428 3584 3742 3212 
Q 4056 2841 4056 2131 
z
" id="DejaVuSans-Bold-6e" transform="scale(0.015625)"/>
       <path d="M 3138 2547 
Q 2991 2616 2845 2648 
Q 2700 2681 2553 2681 
Q 2122 2681 1889 2404 
Q 1656 2128 1656 1613 
L 1656 0 
L 538 0 
L 538 3500 
L 1656 3500 
L 1656 2925 
Q 1872 3269 2151 3426 
Q 2431 3584 2822 3584 
Q 2878 3584 2943 3579 
Q 3009 3575 3134 3559 
L 3138 2547 
z
" id="DejaVuSans-Bold-72" transform="scale(0.015625)"/>
       <path d="M 500 1363 
L 500 3500 
L 1625 3500 
L 1625 3150 
Q 1625 2866 1622 2436 
Q 1619 2006 1619 1863 
Q 1619 1441 1641 1255 
Q 1663 1069 1716 984 
Q 1784 875 1895 815 
Q 2006 756 2150 756 
Q 2500 756 2700 1025 
Q 2900 1294 2900 1772 
L 2900 3500 
L 4019 3500 
L 4019 0 
L 2900 0 
L 2900 506 
Q 2647 200 2364 54 
Q 2081 -91 1741 -91 
Q 1134 -91 817 281 
Q 500 653 500 1363 
z
" id="DejaVuSans-Bold-75" transform="scale(0.015625)"/>
       <path d="M 2919 2988 
L 2919 4863 
L 4044 4863 
L 4044 0 
L 2919 0 
L 2919 506 
Q 2688 197 2409 53 
Q 2131 -91 1766 -91 
Q 1119 -91 703 423 
Q 288 938 288 1747 
Q 288 2556 703 3070 
Q 1119 3584 1766 3584 
Q 2128 3584 2408 3439 
Q 2688 3294 2919 2988 
z
M 2181 722 
Q 2541 722 2730 984 
Q 2919 1247 2919 1747 
Q 2919 2247 2730 2509 
Q 2541 2772 2181 2772 
Q 1825 2772 1636 2509 
Q 1447 2247 1447 1747 
Q 1447 1247 1636 984 
Q 1825 722 2181 722 
z
" id="DejaVuSans-Bold-64" transform="scale(0.015625)"/>
      </defs>
      <use xlink:href="#DejaVuSans-Bold-69"/>
      <use x="34.277344" xlink:href="#DejaVuSans-Bold-6e"/>
      <use x="105.46875" xlink:href="#DejaVuSans-Bold-74"/>
      <use x="153.271484" xlink:href="#DejaVuSans-Bold-72"/>
      <use x="202.587891" xlink:href="#DejaVuSans-Bold-75"/>
      <use x="273.779297" xlink:href="#DejaVuSans-Bold-64"/>
      <use x="345.361328" xlink:href="#DejaVuSans-Bold-65"/>
      <use x="413.183594" xlink:href="#DejaVuSans-Bold-72"/>
      <use x="462.5" xlink:href="#DejaVuSans-Bold-31"/>
     </g>
    </g>
    <g id="line2d_18">
     <path d="M 59.173438 50.094687 
L 79.173438 50.094687 
" style="fill:none;stroke:#ffd700;stroke-linecap:square;stroke-width:1.5;"/>
    </g>
    <g id="line2d_19"/>
    <g id="text_15">
     <!-- intruder2 -->
     <g transform="translate(87.173438 53.594687)scale(0.1 -0.1)">
      <use xlink:href="#DejaVuSans-Bold-69"/>
      <use x="34.277344" xlink:href="#DejaVuSans-Bold-6e"/>
      <use x="105.46875" xlink:href="#DejaVuSans-Bold-74"/>
      <use x="153.271484" xlink:href="#DejaVuSans-Bold-72"/>
      <use x="202.587891" xlink:href="#DejaVuSans-Bold-75"/>
      <use x="273.779297" xlink:href="#DejaVuSans-Bold-64"/>
      <use x="345.361328" xlink:href="#DejaVuSans-Bold-65"/>
      <use x="413.183594" xlink:href="#DejaVuSans-Bold-72"/>
      <use x="462.5" xlink:href="#DejaVuSans-Bold-32"/>
     </g>
    </g>
    <g id="line2d_20">
     <path d="M 59.173438 64.772812 
L 79.173438 64.772812 
" style="fill:none;stroke:#ff1493;stroke-linecap:square;stroke-width:1.5;"/>
    </g>
    <g id="line2d_21"/>
    <g id="text_16">
     <!-- intruder3 -->
     <g transform="translate(87.173438 68.272812)scale(0.1 -0.1)">
      <use xlink:href="#DejaVuSans-Bold-69"/>
      <use x="34.277344" xlink:href="#DejaVuSans-Bold-6e"/>
      <use x="105.46875" xlink:href="#DejaVuSans-Bold-74"/>
      <use x="153.271484" xlink:href="#DejaVuSans-Bold-72"/>
      <use x="202.587891" xlink:href="#DejaVuSans-Bold-75"/>
      <use x="273.779297" xlink:href="#DejaVuSans-Bold-64"/>
      <use x="345.361328" xlink:href="#DejaVuSans-Bold-65"/>
      <use x="413.183594" xlink:href="#DejaVuSans-Bold-72"/>
      <use x="462.5" xlink:href="#DejaVuSans-Bold-33"/>
     </g>
    </g>
    <g id="line2d_22">
     <path d="M 59.173438 79.450938 
L 79.173438 79.450938 
" style="fill:none;stroke:#008000;stroke-linecap:square;stroke-width:1.5;"/>
    </g>
    <g id="line2d_23"/>
    <g id="text_17">
     <!-- intruder4 -->
     <g transform="translate(87.173438 82.950938)scale(0.1 -0.1)">
      <use xlink:href="#DejaVuSans-Bold-69"/>
      <use x="34.277344" xlink:href="#DejaVuSans-Bold-6e"/>
      <use x="105.46875" xlink:href="#DejaVuSans-Bold-74"/>
      <use x="153.271484" xlink:href="#DejaVuSans-Bold-72"/>
      <use x="202.587891" xlink:href="#DejaVuSans-Bold-75"/>
      <use x="273.779297" xlink:href="#DejaVuSans-Bold-64"/>
      <use x="345.361328" xlink:href="#DejaVuSans-Bold-65"/>
      <use x="413.183594" xlink:href="#DejaVuSans-Bold-72"/>
      <use x="462.5" xlink:href="#DejaVuSans-Bold-34"/>
     </g>
    </g>
    <g id="line2d_24">
     <path d="M 59.173438 94.129063 
L 79.173438 94.129063 
" style="fill:none;stroke:#8fbc8f;stroke-linecap:square;stroke-width:1.5;"/>
    </g>
    <g id="line2d_25"/>
    <g id="text_18">
     <!-- intruder5 -->
     <g transform="translate(87.173438 97.629063)scale(0.1 -0.1)">
      <use xlink:href="#DejaVuSans-Bold-69"/>
      <use x="34.277344" xlink:href="#DejaVuSans-Bold-6e"/>
      <use x="105.46875" xlink:href="#DejaVuSans-Bold-74"/>
      <use x="153.271484" xlink:href="#DejaVuSans-Bold-72"/>
      <use x="202.587891" xlink:href="#DejaVuSans-Bold-75"/>
      <use x="273.779297" xlink:href="#DejaVuSans-Bold-64"/>
      <use x="345.361328" xlink:href="#DejaVuSans-Bold-65"/>
      <use x="413.183594" xlink:href="#DejaVuSans-Bold-72"/>
      <use x="462.5" xlink:href="#DejaVuSans-Bold-35"/>
     </g>
    </g>
   </g>
  </g>
 </g>
 <defs>
  <clipPath id="p3dd763e86b">
   <rect height="217.44" width="334.8" x="50.173438" y="22.318125"/>
  </clipPath>
 </defs>
</svg>
