<?xml version="1.0" encoding="utf-8" standalone="no"?>
<!DOCTYPE svg PUBLIC "-//W3C//DTD SVG 1.1//EN"
  "http://www.w3.org/Graphics/SVG/1.1/DTD/svg11.dtd">
<svg height="277.314375pt" version="1.1" viewBox="0 0 399.209375 277.314375" width="399.209375pt" xmlns="http://www.w3.org/2000/svg" xmlns:xlink="http://www.w3.org/1999/xlink">
 <metadata>
  <rdf:RDF xmlns:cc="http://creativecommons.org/ns#" xmlns:dc="http://purl.org/dc/elements/1.1/" xmlns:rdf="http://www.w3.org/1999/02/22-rdf-syntax-ns#">
   <cc:Work>
    <dc:type rdf:resource="http://purl.org/dc/dcmitype/StillImage"/>
    <dc:date>2022-05-28T19:47:44.393471</dc:date>
    <dc:format>image/svg+xml</dc:format>
    <dc:creator>
     <cc:Agent>
      <dc:title>Matplotlib v3.4.3, https://matplotlib.org/</dc:title>
     </cc:Agent>
    </dc:creator>
   </cc:Work>
  </rdf:RDF>
 </metadata>
 <defs>
  <style type="text/css">*{stroke-linecap:butt;stroke-linejoin:round;}</style>
 </defs>
 <g id="figure_1">
  <g id="patch_1">
   <path d="M 0 277.314375 
L 399.209375 277.314375 
L 399.209375 0 
L 0 0 
z
" style="fill:none;"/>
  </g>
  <g id="axes_1">
   <g id="patch_2">
    <path d="M 57.209375 239.758125 
L 392.009375 239.758125 
L 392.009375 22.318125 
L 57.209375 22.318125 
z
" style="fill:#ffffff;"/>
   </g>
   <g id="matplotlib.axis_1">
    <g id="xtick_1">
     <g id="line2d_1">
      <defs>
       <path d="M 0 0 
L 0 3.5 
" id="mc89f68b827" style="stroke:#000000;stroke-width:0.8;"/>
      </defs>
      <g>
       <use style="stroke:#000000;stroke-width:0.8;" x="72.427557" xlink:href="#mc89f68b827" y="239.758125"/>
      </g>
     </g>
     <g id="text_1">
      <!-- 0 -->
      <g transform="translate(68.948651 254.356562)scale(0.1 -0.1)">
       <defs>
        <path d="M 2944 2338 
Q 2944 3213 2780 3570 
Q 2616 3928 2228 3928 
Q 1841 3928 1675 3570 
Q 1509 3213 1509 2338 
Q 1509 1453 1675 1090 
Q 1841 728 2228 728 
Q 2613 728 2778 1090 
Q 2944 1453 2944 2338 
z
M 4147 2328 
Q 4147 1169 3647 539 
Q 3147 -91 2228 -91 
Q 1306 -91 806 539 
Q 306 1169 306 2328 
Q 306 3491 806 4120 
Q 1306 4750 2228 4750 
Q 3147 4750 3647 4120 
Q 4147 3491 4147 2328 
z
" id="DejaVuSans-Bold-30" transform="scale(0.015625)"/>
       </defs>
       <use xlink:href="#DejaVuSans-Bold-30"/>
      </g>
     </g>
    </g>
    <g id="xtick_2">
     <g id="line2d_2">
      <g>
       <use style="stroke:#000000;stroke-width:0.8;" x="145.768192" xlink:href="#mc89f68b827" y="239.758125"/>
      </g>
     </g>
     <g id="text_2">
      <!-- 1 -->
      <g transform="translate(142.289286 254.356562)scale(0.1 -0.1)">
       <defs>
        <path d="M 750 831 
L 1813 831 
L 1813 3847 
L 722 3622 
L 722 4441 
L 1806 4666 
L 2950 4666 
L 2950 831 
L 4013 831 
L 4013 0 
L 750 0 
L 750 831 
z
" id="DejaVuSans-Bold-31" transform="scale(0.015625)"/>
       </defs>
       <use xlink:href="#DejaVuSans-Bold-31"/>
      </g>
     </g>
    </g>
    <g id="xtick_3">
     <g id="line2d_3">
      <g>
       <use style="stroke:#000000;stroke-width:0.8;" x="219.108827" xlink:href="#mc89f68b827" y="239.758125"/>
      </g>
     </g>
     <g id="text_3">
      <!-- 2 -->
      <g transform="translate(215.629921 254.356562)scale(0.1 -0.1)">
       <defs>
        <path d="M 1844 884 
L 3897 884 
L 3897 0 
L 506 0 
L 506 884 
L 2209 2388 
Q 2438 2594 2547 2791 
Q 2656 2988 2656 3200 
Q 2656 3528 2436 3728 
Q 2216 3928 1850 3928 
Q 1569 3928 1234 3808 
Q 900 3688 519 3450 
L 519 4475 
Q 925 4609 1322 4679 
Q 1719 4750 2100 4750 
Q 2938 4750 3402 4381 
Q 3866 4013 3866 3353 
Q 3866 2972 3669 2642 
Q 3472 2313 2841 1759 
L 1844 884 
z
" id="DejaVuSans-Bold-32" transform="scale(0.015625)"/>
       </defs>
       <use xlink:href="#DejaVuSans-Bold-32"/>
      </g>
     </g>
    </g>
    <g id="xtick_4">
     <g id="line2d_4">
      <g>
       <use style="stroke:#000000;stroke-width:0.8;" x="292.449463" xlink:href="#mc89f68b827" y="239.758125"/>
      </g>
     </g>
     <g id="text_4">
      <!-- 3 -->
      <g transform="translate(288.970556 254.356562)scale(0.1 -0.1)">
       <defs>
        <path d="M 2981 2516 
Q 3453 2394 3698 2092 
Q 3944 1791 3944 1325 
Q 3944 631 3412 270 
Q 2881 -91 1863 -91 
Q 1503 -91 1142 -33 
Q 781 25 428 141 
L 428 1069 
Q 766 900 1098 814 
Q 1431 728 1753 728 
Q 2231 728 2486 893 
Q 2741 1059 2741 1369 
Q 2741 1688 2480 1852 
Q 2219 2016 1709 2016 
L 1228 2016 
L 1228 2791 
L 1734 2791 
Q 2188 2791 2409 2933 
Q 2631 3075 2631 3366 
Q 2631 3634 2415 3781 
Q 2200 3928 1806 3928 
Q 1516 3928 1219 3862 
Q 922 3797 628 3669 
L 628 4550 
Q 984 4650 1334 4700 
Q 1684 4750 2022 4750 
Q 2931 4750 3382 4451 
Q 3834 4153 3834 3553 
Q 3834 3144 3618 2883 
Q 3403 2622 2981 2516 
z
" id="DejaVuSans-Bold-33" transform="scale(0.015625)"/>
       </defs>
       <use xlink:href="#DejaVuSans-Bold-33"/>
      </g>
     </g>
    </g>
    <g id="xtick_5">
     <g id="line2d_5">
      <g>
       <use style="stroke:#000000;stroke-width:0.8;" x="365.790098" xlink:href="#mc89f68b827" y="239.758125"/>
      </g>
     </g>
     <g id="text_5">
      <!-- 4 -->
      <g transform="translate(362.311192 254.356562)scale(0.1 -0.1)">
       <defs>
        <path d="M 2356 3675 
L 1038 1722 
L 2356 1722 
L 2356 3675 
z
M 2156 4666 
L 3494 4666 
L 3494 1722 
L 4159 1722 
L 4159 850 
L 3494 850 
L 3494 0 
L 2356 0 
L 2356 850 
L 288 850 
L 288 1881 
L 2156 4666 
z
" id="DejaVuSans-Bold-34" transform="scale(0.015625)"/>
       </defs>
       <use xlink:href="#DejaVuSans-Bold-34"/>
      </g>
     </g>
    </g>
    <g id="text_6">
     <!-- time -->
     <g transform="translate(211.903906 268.034687)scale(0.1 -0.1)">
      <defs>
       <path d="M 1759 4494 
L 1759 3500 
L 2913 3500 
L 2913 2700 
L 1759 2700 
L 1759 1216 
Q 1759 972 1856 886 
Q 1953 800 2241 800 
L 2816 800 
L 2816 0 
L 1856 0 
Q 1194 0 917 276 
Q 641 553 641 1216 
L 641 2700 
L 84 2700 
L 84 3500 
L 641 3500 
L 641 4494 
L 1759 4494 
z
" id="DejaVuSans-Bold-74" transform="scale(0.015625)"/>
       <path d="M 538 3500 
L 1656 3500 
L 1656 0 
L 538 0 
L 538 3500 
z
M 538 4863 
L 1656 4863 
L 1656 3950 
L 538 3950 
L 538 4863 
z
" id="DejaVuSans-Bold-69" transform="scale(0.015625)"/>
       <path d="M 3781 2919 
Q 3994 3244 4286 3414 
Q 4578 3584 4928 3584 
Q 5531 3584 5847 3212 
Q 6163 2841 6163 2131 
L 6163 0 
L 5038 0 
L 5038 1825 
Q 5041 1866 5042 1909 
Q 5044 1953 5044 2034 
Q 5044 2406 4934 2573 
Q 4825 2741 4581 2741 
Q 4263 2741 4089 2478 
Q 3916 2216 3909 1719 
L 3909 0 
L 2784 0 
L 2784 1825 
Q 2784 2406 2684 2573 
Q 2584 2741 2328 2741 
Q 2006 2741 1831 2477 
Q 1656 2213 1656 1722 
L 1656 0 
L 531 0 
L 531 3500 
L 1656 3500 
L 1656 2988 
Q 1863 3284 2130 3434 
Q 2397 3584 2719 3584 
Q 3081 3584 3359 3409 
Q 3638 3234 3781 2919 
z
" id="DejaVuSans-Bold-6d" transform="scale(0.015625)"/>
       <path d="M 4031 1759 
L 4031 1441 
L 1416 1441 
Q 1456 1047 1700 850 
Q 1944 653 2381 653 
Q 2734 653 3104 758 
Q 3475 863 3866 1075 
L 3866 213 
Q 3469 63 3072 -14 
Q 2675 -91 2278 -91 
Q 1328 -91 801 392 
Q 275 875 275 1747 
Q 275 2603 792 3093 
Q 1309 3584 2216 3584 
Q 3041 3584 3536 3087 
Q 4031 2591 4031 1759 
z
M 2881 2131 
Q 2881 2450 2695 2645 
Q 2509 2841 2209 2841 
Q 1884 2841 1681 2658 
Q 1478 2475 1428 2131 
L 2881 2131 
z
" id="DejaVuSans-Bold-65" transform="scale(0.015625)"/>
      </defs>
      <use xlink:href="#DejaVuSans-Bold-74"/>
      <use x="47.802734" xlink:href="#DejaVuSans-Bold-69"/>
      <use x="82.080078" xlink:href="#DejaVuSans-Bold-6d"/>
      <use x="186.279297" xlink:href="#DejaVuSans-Bold-65"/>
     </g>
    </g>
   </g>
   <g id="matplotlib.axis_2">
    <g id="ytick_1">
     <g id="line2d_6">
      <defs>
       <path d="M 0 0 
L -3.5 0 
" id="m0fe3bb79d9" style="stroke:#000000;stroke-width:0.8;"/>
      </defs>
      <g>
       <use style="stroke:#000000;stroke-width:0.8;" x="57.209375" xlink:href="#m0fe3bb79d9" y="237.526062"/>
      </g>
     </g>
     <g id="text_7">
      <!-- −150 -->
      <g transform="translate(20.95625 241.325281)scale(0.1 -0.1)">
       <defs>
        <path d="M 678 2375 
L 4684 2375 
L 4684 1638 
L 678 1638 
L 678 2375 
z
" id="DejaVuSans-Bold-2212" transform="scale(0.015625)"/>
        <path d="M 678 4666 
L 3669 4666 
L 3669 3781 
L 1638 3781 
L 1638 3059 
Q 1775 3097 1914 3117 
Q 2053 3138 2203 3138 
Q 3056 3138 3531 2711 
Q 4006 2284 4006 1522 
Q 4006 766 3489 337 
Q 2972 -91 2053 -91 
Q 1656 -91 1267 -14 
Q 878 63 494 219 
L 494 1166 
Q 875 947 1217 837 
Q 1559 728 1863 728 
Q 2300 728 2551 942 
Q 2803 1156 2803 1522 
Q 2803 1891 2551 2103 
Q 2300 2316 1863 2316 
Q 1603 2316 1309 2248 
Q 1016 2181 678 2041 
L 678 4666 
z
" id="DejaVuSans-Bold-35" transform="scale(0.015625)"/>
       </defs>
       <use xlink:href="#DejaVuSans-Bold-2212"/>
       <use x="83.789062" xlink:href="#DejaVuSans-Bold-31"/>
       <use x="153.369141" xlink:href="#DejaVuSans-Bold-35"/>
       <use x="222.949219" xlink:href="#DejaVuSans-Bold-30"/>
      </g>
     </g>
    </g>
    <g id="ytick_2">
     <g id="line2d_7">
      <g>
       <use style="stroke:#000000;stroke-width:0.8;" x="57.209375" xlink:href="#m0fe3bb79d9" y="196.162741"/>
      </g>
     </g>
     <g id="text_8">
      <!-- −100 -->
      <g transform="translate(20.95625 199.96196)scale(0.1 -0.1)">
       <use xlink:href="#DejaVuSans-Bold-2212"/>
       <use x="83.789062" xlink:href="#DejaVuSans-Bold-31"/>
       <use x="153.369141" xlink:href="#DejaVuSans-Bold-30"/>
       <use x="222.949219" xlink:href="#DejaVuSans-Bold-30"/>
      </g>
     </g>
    </g>
    <g id="ytick_3">
     <g id="line2d_8">
      <g>
       <use style="stroke:#000000;stroke-width:0.8;" x="57.209375" xlink:href="#m0fe3bb79d9" y="154.79942"/>
      </g>
     </g>
     <g id="text_9">
      <!-- −50 -->
      <g transform="translate(27.914062 158.598638)scale(0.1 -0.1)">
       <use xlink:href="#DejaVuSans-Bold-2212"/>
       <use x="83.789062" xlink:href="#DejaVuSans-Bold-35"/>
       <use x="153.369141" xlink:href="#DejaVuSans-Bold-30"/>
      </g>
     </g>
    </g>
    <g id="ytick_4">
     <g id="line2d_9">
      <g>
       <use style="stroke:#000000;stroke-width:0.8;" x="57.209375" xlink:href="#m0fe3bb79d9" y="113.436098"/>
      </g>
     </g>
     <g id="text_10">
      <!-- 0 -->
      <g transform="translate(43.251562 117.235317)scale(0.1 -0.1)">
       <use xlink:href="#DejaVuSans-Bold-30"/>
      </g>
     </g>
    </g>
    <g id="ytick_5">
     <g id="line2d_10">
      <g>
       <use style="stroke:#000000;stroke-width:0.8;" x="57.209375" xlink:href="#m0fe3bb79d9" y="72.072777"/>
      </g>
     </g>
     <g id="text_11">
      <!-- 50 -->
      <g transform="translate(36.29375 75.871996)scale(0.1 -0.1)">
       <use xlink:href="#DejaVuSans-Bold-35"/>
       <use x="69.580078" xlink:href="#DejaVuSans-Bold-30"/>
      </g>
     </g>
    </g>
    <g id="ytick_6">
     <g id="line2d_11">
      <g>
       <use style="stroke:#000000;stroke-width:0.8;" x="57.209375" xlink:href="#m0fe3bb79d9" y="30.709456"/>
      </g>
     </g>
     <g id="text_12">
      <!-- 100 -->
      <g transform="translate(29.335938 34.508675)scale(0.1 -0.1)">
       <use xlink:href="#DejaVuSans-Bold-31"/>
       <use x="69.580078" xlink:href="#DejaVuSans-Bold-30"/>
       <use x="139.160156" xlink:href="#DejaVuSans-Bold-30"/>
      </g>
     </g>
    </g>
    <g id="text_13">
     <!-- theta (degree) -->
     <g transform="translate(14.798437 172.251406)rotate(-90)scale(0.1 -0.1)">
      <defs>
       <path d="M 4056 2131 
L 4056 0 
L 2931 0 
L 2931 347 
L 2931 1625 
Q 2931 2084 2911 2256 
Q 2891 2428 2841 2509 
Q 2775 2619 2662 2680 
Q 2550 2741 2406 2741 
Q 2056 2741 1856 2470 
Q 1656 2200 1656 1722 
L 1656 0 
L 538 0 
L 538 4863 
L 1656 4863 
L 1656 2988 
Q 1909 3294 2193 3439 
Q 2478 3584 2822 3584 
Q 3428 3584 3742 3212 
Q 4056 2841 4056 2131 
z
" id="DejaVuSans-Bold-68" transform="scale(0.015625)"/>
       <path d="M 2106 1575 
Q 1756 1575 1579 1456 
Q 1403 1338 1403 1106 
Q 1403 894 1545 773 
Q 1688 653 1941 653 
Q 2256 653 2472 879 
Q 2688 1106 2688 1447 
L 2688 1575 
L 2106 1575 
z
M 3816 1997 
L 3816 0 
L 2688 0 
L 2688 519 
Q 2463 200 2181 54 
Q 1900 -91 1497 -91 
Q 953 -91 614 226 
Q 275 544 275 1050 
Q 275 1666 698 1953 
Q 1122 2241 2028 2241 
L 2688 2241 
L 2688 2328 
Q 2688 2594 2478 2717 
Q 2269 2841 1825 2841 
Q 1466 2841 1156 2769 
Q 847 2697 581 2553 
L 581 3406 
Q 941 3494 1303 3539 
Q 1666 3584 2028 3584 
Q 2975 3584 3395 3211 
Q 3816 2838 3816 1997 
z
" id="DejaVuSans-Bold-61" transform="scale(0.015625)"/>
       <path id="DejaVuSans-Bold-20" transform="scale(0.015625)"/>
       <path d="M 2413 -844 
L 1484 -844 
Q 1006 -72 778 623 
Q 550 1319 550 2003 
Q 550 2688 779 3389 
Q 1009 4091 1484 4856 
L 2413 4856 
Q 2013 4116 1813 3408 
Q 1613 2700 1613 2009 
Q 1613 1319 1811 609 
Q 2009 -100 2413 -844 
z
" id="DejaVuSans-Bold-28" transform="scale(0.015625)"/>
       <path d="M 2919 2988 
L 2919 4863 
L 4044 4863 
L 4044 0 
L 2919 0 
L 2919 506 
Q 2688 197 2409 53 
Q 2131 -91 1766 -91 
Q 1119 -91 703 423 
Q 288 938 288 1747 
Q 288 2556 703 3070 
Q 1119 3584 1766 3584 
Q 2128 3584 2408 3439 
Q 2688 3294 2919 2988 
z
M 2181 722 
Q 2541 722 2730 984 
Q 2919 1247 2919 1747 
Q 2919 2247 2730 2509 
Q 2541 2772 2181 2772 
Q 1825 2772 1636 2509 
Q 1447 2247 1447 1747 
Q 1447 1247 1636 984 
Q 1825 722 2181 722 
z
" id="DejaVuSans-Bold-64" transform="scale(0.015625)"/>
       <path d="M 2919 594 
Q 2688 288 2409 144 
Q 2131 0 1766 0 
Q 1125 0 706 504 
Q 288 1009 288 1791 
Q 288 2575 706 3076 
Q 1125 3578 1766 3578 
Q 2131 3578 2409 3434 
Q 2688 3291 2919 2981 
L 2919 3500 
L 4044 3500 
L 4044 353 
Q 4044 -491 3511 -936 
Q 2978 -1381 1966 -1381 
Q 1638 -1381 1331 -1331 
Q 1025 -1281 716 -1178 
L 716 -306 
Q 1009 -475 1290 -558 
Q 1572 -641 1856 -641 
Q 2406 -641 2662 -400 
Q 2919 -159 2919 353 
L 2919 594 
z
M 2181 2772 
Q 1834 2772 1640 2515 
Q 1447 2259 1447 1791 
Q 1447 1309 1634 1061 
Q 1822 813 2181 813 
Q 2531 813 2725 1069 
Q 2919 1325 2919 1791 
Q 2919 2259 2725 2515 
Q 2531 2772 2181 2772 
z
" id="DejaVuSans-Bold-67" transform="scale(0.015625)"/>
       <path d="M 3138 2547 
Q 2991 2616 2845 2648 
Q 2700 2681 2553 2681 
Q 2122 2681 1889 2404 
Q 1656 2128 1656 1613 
L 1656 0 
L 538 0 
L 538 3500 
L 1656 3500 
L 1656 2925 
Q 1872 3269 2151 3426 
Q 2431 3584 2822 3584 
Q 2878 3584 2943 3579 
Q 3009 3575 3134 3559 
L 3138 2547 
z
" id="DejaVuSans-Bold-72" transform="scale(0.015625)"/>
       <path d="M 513 -844 
Q 913 -100 1113 609 
Q 1313 1319 1313 2009 
Q 1313 2700 1113 3408 
Q 913 4116 513 4856 
L 1441 4856 
Q 1916 4091 2145 3389 
Q 2375 2688 2375 2003 
Q 2375 1319 2147 623 
Q 1919 -72 1441 -844 
L 513 -844 
z
" id="DejaVuSans-Bold-29" transform="scale(0.015625)"/>
      </defs>
      <use xlink:href="#DejaVuSans-Bold-74"/>
      <use x="47.802734" xlink:href="#DejaVuSans-Bold-68"/>
      <use x="118.994141" xlink:href="#DejaVuSans-Bold-65"/>
      <use x="186.816406" xlink:href="#DejaVuSans-Bold-74"/>
      <use x="234.619141" xlink:href="#DejaVuSans-Bold-61"/>
      <use x="302.099609" xlink:href="#DejaVuSans-Bold-20"/>
      <use x="336.914062" xlink:href="#DejaVuSans-Bold-28"/>
      <use x="382.617188" xlink:href="#DejaVuSans-Bold-64"/>
      <use x="454.199219" xlink:href="#DejaVuSans-Bold-65"/>
      <use x="522.021484" xlink:href="#DejaVuSans-Bold-67"/>
      <use x="593.603516" xlink:href="#DejaVuSans-Bold-72"/>
      <use x="642.919922" xlink:href="#DejaVuSans-Bold-65"/>
      <use x="710.742188" xlink:href="#DejaVuSans-Bold-65"/>
      <use x="778.564453" xlink:href="#DejaVuSans-Bold-29"/>
     </g>
    </g>
   </g>
   <g id="line2d_12">
    <path clip-path="url(#p1be979c81f)" d="M 72.427557 113.436098 
L 76.094589 113.436098 
L 79.76162 113.436098 
L 83.428652 113.436098 
L 87.095684 113.436098 
L 90.762716 113.436098 
L 94.429747 113.436098 
L 98.096779 113.436098 
L 101.763811 113.436098 
L 105.430843 113.436098 
L 109.097874 113.436098 
L 112.764906 113.436098 
L 116.431938 113.436098 
L 120.09897 113.270202 
L 123.766002 112.843597 
L 127.433033 112.144318 
L 131.100065 112.144318 
L 134.767097 111.432896 
L 138.434129 110.44801 
L 142.10116 109.404704 
L 145.768192 107.253175 
L 149.435224 103.965736 
L 153.102256 98.471361 
L 156.769287 93.832432 
L 160.436319 99.424417 
L 164.103351 104.749106 
L 167.770383 98.625972 
L 171.437414 95.909409 
L 175.104446 88.027742 
L 178.771478 83.619927 
L 182.43851 79.753823 
L 186.105541 78.967013 
L 189.772573 73.981144 
L 193.439605 69.335418 
L 197.106637 68.221266 
L 200.773669 65.974091 
L 204.4407 62.631301 
L 208.107732 57.379885 
L 211.774764 51.029132 
L 215.441796 44.596937 
L 219.108827 39.517732 
L 222.775859 36.176369 
L 226.442891 33.862114 
L 230.109923 32.797874 
L 233.776954 33.044504 
L 237.443986 32.365002 
L 241.111018 32.849672 
L 244.77805 32.201761 
L 248.445081 32.478153 
L 252.112113 32.320174 
L 255.779145 32.340803 
L 259.446177 32.378192 
L 263.113209 32.379717 
L 266.78024 32.351412 
L 270.447272 32.373029 
L 274.114304 32.391077 
L 277.781336 32.357444 
L 281.448367 32.363194 
L 285.115399 32.382933 
L 288.782431 32.379131 
L 292.449463 32.381994 
L 296.116494 32.369743 
L 299.783526 32.359839 
L 303.450558 32.374202 
L 307.11759 32.384811 
L 310.784621 32.370682 
L 314.451653 32.370986 
L 318.118685 32.377488 
L 321.785717 32.374085 
L 325.452748 32.374319 
L 329.11978 32.372324 
L 332.786812 32.377488 
L 336.453844 32.379365 
L 340.120876 32.376831 
L 343.787907 32.369695 
L 347.454939 32.374037 
L 351.121971 32.379295 
L 354.789003 32.376314 
L 358.456034 32.375728 
L 362.123066 32.374906 
L 365.790098 32.375141 
L 369.45713 32.37608 
L 373.124161 32.375845 
L 376.791193 32.372559 
" style="fill:none;stroke:#0000ff;stroke-linecap:square;stroke-width:1.5;"/>
   </g>
   <g id="line2d_13">
    <path clip-path="url(#p1be979c81f)" d="M 72.427557 113.436098 
L 76.094589 113.436098 
L 79.76162 113.436098 
L 83.428652 113.436098 
L 87.095684 113.436098 
L 90.762716 113.436098 
L 94.429747 113.436098 
L 98.096779 113.436098 
L 101.763811 113.436098 
L 105.430843 113.436098 
L 109.097874 113.436098 
L 112.764906 113.436098 
L 116.431938 113.436098 
L 120.09897 113.436098 
L 123.766002 113.542746 
L 127.433033 113.874544 
L 131.100065 114.218216 
L 134.767097 114.846423 
L 138.434129 115.522326 
L 142.10116 116.234272 
L 145.768192 117.707785 
L 149.435224 119.89879 
L 153.102256 123.941371 
L 156.769287 130.217798 
L 160.436319 135.546971 
L 164.103351 135.379988 
L 167.770383 135.082531 
L 171.437414 128.543044 
L 175.104446 128.23502 
L 178.771478 130.767096 
L 182.43851 131.955512 
L 186.105541 136.556761 
L 189.772573 149.036273 
L 193.439605 155.99454 
L 197.106637 161.948423 
L 200.773669 168.470649 
L 204.4407 177.23303 
L 208.107732 184.958637 
L 211.774764 193.305453 
L 215.441796 199.774074 
L 219.108827 206.388523 
L 222.775859 213.017516 
L 226.442891 219.374859 
L 230.109923 226.107787 
L 233.776954 229.874489 
L 237.443986 229.648501 
L 241.111018 229.242948 
L 244.77805 229.743782 
L 248.445081 229.840731 
L 252.112113 229.731493 
L 255.779145 229.780501 
L 259.446177 229.749777 
L 263.113209 229.747269 
L 266.78024 229.768662 
L 270.447272 229.781102 
L 274.114304 229.752586 
L 277.781336 229.749702 
L 281.448367 229.771246 
L 285.115399 229.759408 
L 288.782431 229.762367 
L 292.449463 229.773064 
L 296.116494 229.750604 
L 299.783526 229.759558 
L 303.450558 229.765703 
L 307.11759 229.748711 
L 310.784621 229.773289 
L 314.451653 229.765778 
L 318.118685 229.749551 
L 321.785717 229.760624 
L 325.452748 229.758881 
L 329.11978 229.766769 
L 332.786812 229.762292 
L 336.453844 229.750378 
L 340.120876 229.769578 
L 343.787907 229.759032 
L 347.454939 229.759783 
L 351.121971 229.765627 
L 354.789003 229.752498 
L 358.456034 229.767445 
L 362.123066 229.76396 
L 365.790098 229.758116 
L 369.45713 229.76115 
L 373.124161 229.759633 
L 376.791193 229.765251 
" style="fill:none;stroke:#ffd700;stroke-linecap:square;stroke-width:1.5;"/>
   </g>
   <g id="line2d_14">
    <path clip-path="url(#p1be979c81f)" d="M 72.427557 113.436098 
L 76.094589 113.436098 
L 79.76162 113.436098 
L 83.428652 113.436098 
L 87.095684 113.436098 
L 90.762716 113.436098 
L 94.429747 113.436098 
L 98.096779 113.436098 
L 101.763811 113.436098 
L 105.430843 113.436098 
L 109.097874 113.436098 
L 112.764906 113.436098 
L 116.431938 113.436098 
L 120.09897 113.436098 
L 123.766002 113.436098 
L 127.433033 113.3887 
L 131.100065 113.305751 
L 134.767097 113.092453 
L 138.434129 112.760643 
L 142.10116 112.345833 
L 145.768192 111.432911 
L 149.435224 109.889725 
L 153.102256 107.073857 
L 156.769287 103.395537 
L 160.436319 98.176903 
L 164.103351 91.389983 
L 167.770383 87.5091 
L 171.437414 88.60572 
L 175.104446 89.890398 
L 178.771478 91.561047 
L 182.43851 94.367946 
L 186.105541 96.956074 
L 189.772573 100.79355 
L 193.439605 106.874098 
L 197.106637 109.553348 
L 200.773669 107.504038 
L 204.4407 104.832229 
L 208.107732 104.643015 
L 211.774764 100.994913 
L 215.441796 99.651 
L 219.108827 99.457927 
L 222.775859 94.097148 
L 226.442891 93.554287 
L 230.109923 89.044347 
L 233.776954 87.589759 
L 237.443986 87.102286 
L 241.111018 87.267763 
L 244.77805 87.560027 
L 248.445081 87.417993 
L 252.112113 87.307719 
L 255.779145 87.415432 
L 259.446177 87.369583 
L 263.113209 87.392406 
L 266.78024 87.462134 
L 270.447272 87.371392 
L 274.114304 87.360174 
L 277.781336 87.417667 
L 281.448367 87.379481 
L 285.115399 87.407994 
L 288.782431 87.423094 
L 292.449463 87.370701 
L 296.116494 87.393198 
L 299.783526 87.392305 
L 303.450558 87.394316 
L 307.11759 87.408786 
L 310.784621 87.397406 
L 314.451653 87.405231 
L 318.118685 87.38129 
L 321.785717 87.391187 
L 325.452748 87.400596 
L 329.11978 87.389805 
L 332.786812 87.405006 
L 336.453844 87.40263 
L 340.120876 87.388362 
L 343.787907 87.396288 
L 347.454939 87.394215 
L 351.121971 87.386452 
L 354.789003 87.410859 
L 358.456034 87.392142 
L 362.123066 87.391715 
L 365.790098 87.406287 
L 369.45713 87.386452 
L 373.124161 87.396715 
L 376.791193 87.398686 
" style="fill:none;stroke:#ff1493;stroke-linecap:square;stroke-width:1.5;"/>
   </g>
   <g id="line2d_15">
    <path clip-path="url(#p1be979c81f)" d="M 72.427557 113.436098 
L 76.094589 113.436098 
L 79.76162 113.436098 
L 83.428652 113.436098 
L 87.095684 113.436098 
L 90.762716 113.436098 
L 94.429747 113.436098 
L 98.096779 113.436098 
L 101.763811 113.436098 
L 105.430843 113.436098 
L 109.097874 113.436098 
L 112.764906 113.436098 
L 116.431938 113.436098 
L 120.09897 113.436098 
L 123.766002 113.436098 
L 127.433033 113.436098 
L 131.100065 113.447948 
L 134.767097 113.483497 
L 138.434129 113.566446 
L 142.10116 113.661244 
L 145.768192 113.933796 
L 149.435224 114.455254 
L 153.102256 115.504527 
L 156.769287 117.145289 
L 160.436319 120.366777 
L 164.103351 124.047073 
L 167.770383 127.919247 
L 171.437414 129.103069 
L 175.104446 129.524746 
L 178.771478 130.498482 
L 182.43851 128.159098 
L 186.105541 128.867702 
L 189.772573 132.087545 
L 193.439605 136.056633 
L 197.106637 139.741373 
L 200.773669 150.067913 
L 204.4407 150.878854 
L 208.107732 149.435461 
L 211.774764 145.026936 
L 215.441796 143.106046 
L 219.108827 138.672505 
L 222.775859 140.903628 
L 226.442891 142.402713 
L 230.109923 148.526884 
L 233.776954 153.052721 
L 237.443986 154.4814 
L 241.111018 154.478511 
L 244.77805 154.234678 
L 248.445081 154.179141 
L 252.112113 154.115532 
L 255.779145 154.212315 
L 259.446177 154.139787 
L 263.113209 154.149966 
L 266.78024 154.13823 
L 270.447272 154.151829 
L 274.114304 154.167804 
L 277.781336 154.135466 
L 281.448367 154.158848 
L 285.115399 154.142946 
L 288.782431 154.151829 
L 292.449463 154.147679 
L 296.116494 154.161058 
L 299.783526 154.152473 
L 303.450558 154.14017 
L 307.11759 154.163564 
L 310.784621 154.136599 
L 314.451653 154.15769 
L 318.118685 154.15584 
L 321.785717 154.153602 
L 325.452748 154.152897 
L 329.11978 154.154939 
L 332.786812 154.14571 
L 336.453844 154.150223 
L 340.120876 154.159619 
L 343.787907 154.147023 
L 347.454939 154.159733 
L 351.121971 154.145967 
L 354.789003 154.158628 
L 358.456034 154.147357 
L 362.123066 154.151996 
L 365.790098 154.154401 
L 369.45713 154.147972 
L 373.124161 154.157793 
L 376.791193 154.147292 
" style="fill:none;stroke:#008000;stroke-linecap:square;stroke-width:1.5;"/>
   </g>
   <g id="line2d_16">
    <path clip-path="url(#p1be979c81f)" d="M 72.427557 113.436098 
L 76.094589 113.436098 
L 79.76162 113.436098 
L 83.428652 113.436098 
L 87.095684 113.436098 
L 90.762716 113.436098 
L 94.429747 113.436098 
L 98.096779 113.436098 
L 101.763811 113.436098 
L 105.430843 113.436098 
L 109.097874 113.436098 
L 112.764906 113.436098 
L 116.431938 113.436098 
L 120.09897 113.436098 
L 123.766002 113.436098 
L 127.433033 113.436098 
L 131.100065 113.436098 
L 134.767097 113.436098 
L 138.434129 113.436098 
L 142.10116 113.436098 
L 145.768192 113.424249 
L 149.435224 113.3887 
L 153.102256 113.317601 
L 156.769287 113.287977 
L 160.436319 112.700202 
L 164.103351 111.85031 
L 167.770383 110.500232 
L 171.437414 108.475036 
L 175.104446 105.544535 
L 178.771478 100.539131 
L 182.43851 94.53426 
L 186.105541 88.832831 
L 189.772573 79.922277 
L 193.439605 72.851734 
L 197.106637 75.736553 
L 200.773669 78.441857 
L 204.4407 82.198565 
L 208.107732 88.79594 
L 211.774764 89.94438 
L 215.441796 85.122205 
L 219.108827 78.429024 
L 222.775859 75.839795 
L 226.442891 70.440497 
L 230.109923 62.976037 
L 233.776954 61.972292 
L 237.443986 63.50381 
L 241.111018 63.689217 
L 244.77805 63.476914 
L 248.445081 63.620013 
L 252.112113 63.54996 
L 255.779145 63.532562 
L 259.446177 63.554669 
L 263.113209 63.489665 
L 266.78024 63.524676 
L 270.447272 63.526189 
L 274.114304 63.498696 
L 277.781336 63.547795 
L 281.448367 63.50148 
L 285.115399 63.515284 
L 288.782431 63.511915 
L 292.449463 63.516098 
L 296.116494 63.528535 
L 299.783526 63.512847 
L 303.450558 63.520545 
L 307.11759 63.50006 
L 310.784621 63.516346 
L 314.451653 63.515688 
L 318.118685 63.517016 
L 321.785717 63.513473 
L 325.452748 63.518692 
L 329.11978 63.511919 
L 332.786812 63.509033 
L 336.453844 63.517264 
L 340.120876 63.507905 
L 343.787907 63.518369 
L 347.454939 63.513555 
L 351.121971 63.516837 
L 354.789003 63.510325 
L 358.456034 63.514532 
L 362.123066 63.512514 
L 365.790098 63.51564 
L 369.45713 63.514841 
L 373.124161 63.513311 
L 376.791193 63.51685 
" style="fill:none;stroke:#8fbc8f;stroke-linecap:square;stroke-width:1.5;"/>
   </g>
   <g id="patch_3">
    <path d="M 57.209375 239.758125 
L 57.209375 22.318125 
" style="fill:none;stroke:#000000;stroke-linecap:square;stroke-linejoin:miter;stroke-width:0.8;"/>
   </g>
   <g id="patch_4">
    <path d="M 392.009375 239.758125 
L 392.009375 22.318125 
" style="fill:none;stroke:#000000;stroke-linecap:square;stroke-linejoin:miter;stroke-width:0.8;"/>
   </g>
   <g id="patch_5">
    <path d="M 57.209375 239.758125 
L 392.009375 239.758125 
" style="fill:none;stroke:#000000;stroke-linecap:square;stroke-linejoin:miter;stroke-width:0.8;"/>
   </g>
   <g id="patch_6">
    <path d="M 57.209375 22.318125 
L 392.009375 22.318125 
" style="fill:none;stroke:#000000;stroke-linecap:square;stroke-linejoin:miter;stroke-width:0.8;"/>
   </g>
   <g id="text_14">
    <!-- Orientation of intruders -->
    <g transform="translate(153.955625 16.318125)scale(0.12 -0.12)">
     <defs>
      <path d="M 2522 4238 
Q 1834 4238 1429 3725 
Q 1025 3213 1025 2328 
Q 1025 1447 1429 934 
Q 1834 422 2522 422 
Q 3209 422 3611 934 
Q 4013 1447 4013 2328 
Q 4013 3213 3611 3725 
Q 3209 4238 2522 4238 
z
M 2522 4750 
Q 3503 4750 4090 4092 
Q 4678 3434 4678 2328 
Q 4678 1225 4090 567 
Q 3503 -91 2522 -91 
Q 1538 -91 948 565 
Q 359 1222 359 2328 
Q 359 3434 948 4092 
Q 1538 4750 2522 4750 
z
" id="DejaVuSans-4f" transform="scale(0.015625)"/>
      <path d="M 2631 2963 
Q 2534 3019 2420 3045 
Q 2306 3072 2169 3072 
Q 1681 3072 1420 2755 
Q 1159 2438 1159 1844 
L 1159 0 
L 581 0 
L 581 3500 
L 1159 3500 
L 1159 2956 
Q 1341 3275 1631 3429 
Q 1922 3584 2338 3584 
Q 2397 3584 2469 3576 
Q 2541 3569 2628 3553 
L 2631 2963 
z
" id="DejaVuSans-72" transform="scale(0.015625)"/>
      <path d="M 603 3500 
L 1178 3500 
L 1178 0 
L 603 0 
L 603 3500 
z
M 603 4863 
L 1178 4863 
L 1178 4134 
L 603 4134 
L 603 4863 
z
" id="DejaVuSans-69" transform="scale(0.015625)"/>
      <path d="M 3597 1894 
L 3597 1613 
L 953 1613 
Q 991 1019 1311 708 
Q 1631 397 2203 397 
Q 2534 397 2845 478 
Q 3156 559 3463 722 
L 3463 178 
Q 3153 47 2828 -22 
Q 2503 -91 2169 -91 
Q 1331 -91 842 396 
Q 353 884 353 1716 
Q 353 2575 817 3079 
Q 1281 3584 2069 3584 
Q 2775 3584 3186 3129 
Q 3597 2675 3597 1894 
z
M 3022 2063 
Q 3016 2534 2758 2815 
Q 2500 3097 2075 3097 
Q 1594 3097 1305 2825 
Q 1016 2553 972 2059 
L 3022 2063 
z
" id="DejaVuSans-65" transform="scale(0.015625)"/>
      <path d="M 3513 2113 
L 3513 0 
L 2938 0 
L 2938 2094 
Q 2938 2591 2744 2837 
Q 2550 3084 2163 3084 
Q 1697 3084 1428 2787 
Q 1159 2491 1159 1978 
L 1159 0 
L 581 0 
L 581 3500 
L 1159 3500 
L 1159 2956 
Q 1366 3272 1645 3428 
Q 1925 3584 2291 3584 
Q 2894 3584 3203 3211 
Q 3513 2838 3513 2113 
z
" id="DejaVuSans-6e" transform="scale(0.015625)"/>
      <path d="M 1172 4494 
L 1172 3500 
L 2356 3500 
L 2356 3053 
L 1172 3053 
L 1172 1153 
Q 1172 725 1289 603 
Q 1406 481 1766 481 
L 2356 481 
L 2356 0 
L 1766 0 
Q 1100 0 847 248 
Q 594 497 594 1153 
L 594 3053 
L 172 3053 
L 172 3500 
L 594 3500 
L 594 4494 
L 1172 4494 
z
" id="DejaVuSans-74" transform="scale(0.015625)"/>
      <path d="M 2194 1759 
Q 1497 1759 1228 1600 
Q 959 1441 959 1056 
Q 959 750 1161 570 
Q 1363 391 1709 391 
Q 2188 391 2477 730 
Q 2766 1069 2766 1631 
L 2766 1759 
L 2194 1759 
z
M 3341 1997 
L 3341 0 
L 2766 0 
L 2766 531 
Q 2569 213 2275 61 
Q 1981 -91 1556 -91 
Q 1019 -91 701 211 
Q 384 513 384 1019 
Q 384 1609 779 1909 
Q 1175 2209 1959 2209 
L 2766 2209 
L 2766 2266 
Q 2766 2663 2505 2880 
Q 2244 3097 1772 3097 
Q 1472 3097 1187 3025 
Q 903 2953 641 2809 
L 641 3341 
Q 956 3463 1253 3523 
Q 1550 3584 1831 3584 
Q 2591 3584 2966 3190 
Q 3341 2797 3341 1997 
z
" id="DejaVuSans-61" transform="scale(0.015625)"/>
      <path d="M 1959 3097 
Q 1497 3097 1228 2736 
Q 959 2375 959 1747 
Q 959 1119 1226 758 
Q 1494 397 1959 397 
Q 2419 397 2687 759 
Q 2956 1122 2956 1747 
Q 2956 2369 2687 2733 
Q 2419 3097 1959 3097 
z
M 1959 3584 
Q 2709 3584 3137 3096 
Q 3566 2609 3566 1747 
Q 3566 888 3137 398 
Q 2709 -91 1959 -91 
Q 1206 -91 779 398 
Q 353 888 353 1747 
Q 353 2609 779 3096 
Q 1206 3584 1959 3584 
z
" id="DejaVuSans-6f" transform="scale(0.015625)"/>
      <path id="DejaVuSans-20" transform="scale(0.015625)"/>
      <path d="M 2375 4863 
L 2375 4384 
L 1825 4384 
Q 1516 4384 1395 4259 
Q 1275 4134 1275 3809 
L 1275 3500 
L 2222 3500 
L 2222 3053 
L 1275 3053 
L 1275 0 
L 697 0 
L 697 3053 
L 147 3053 
L 147 3500 
L 697 3500 
L 697 3744 
Q 697 4328 969 4595 
Q 1241 4863 1831 4863 
L 2375 4863 
z
" id="DejaVuSans-66" transform="scale(0.015625)"/>
      <path d="M 544 1381 
L 544 3500 
L 1119 3500 
L 1119 1403 
Q 1119 906 1312 657 
Q 1506 409 1894 409 
Q 2359 409 2629 706 
Q 2900 1003 2900 1516 
L 2900 3500 
L 3475 3500 
L 3475 0 
L 2900 0 
L 2900 538 
Q 2691 219 2414 64 
Q 2138 -91 1772 -91 
Q 1169 -91 856 284 
Q 544 659 544 1381 
z
M 1991 3584 
L 1991 3584 
z
" id="DejaVuSans-75" transform="scale(0.015625)"/>
      <path d="M 2906 2969 
L 2906 4863 
L 3481 4863 
L 3481 0 
L 2906 0 
L 2906 525 
Q 2725 213 2448 61 
Q 2172 -91 1784 -91 
Q 1150 -91 751 415 
Q 353 922 353 1747 
Q 353 2572 751 3078 
Q 1150 3584 1784 3584 
Q 2172 3584 2448 3432 
Q 2725 3281 2906 2969 
z
M 947 1747 
Q 947 1113 1208 752 
Q 1469 391 1925 391 
Q 2381 391 2643 752 
Q 2906 1113 2906 1747 
Q 2906 2381 2643 2742 
Q 2381 3103 1925 3103 
Q 1469 3103 1208 2742 
Q 947 2381 947 1747 
z
" id="DejaVuSans-64" transform="scale(0.015625)"/>
      <path d="M 2834 3397 
L 2834 2853 
Q 2591 2978 2328 3040 
Q 2066 3103 1784 3103 
Q 1356 3103 1142 2972 
Q 928 2841 928 2578 
Q 928 2378 1081 2264 
Q 1234 2150 1697 2047 
L 1894 2003 
Q 2506 1872 2764 1633 
Q 3022 1394 3022 966 
Q 3022 478 2636 193 
Q 2250 -91 1575 -91 
Q 1294 -91 989 -36 
Q 684 19 347 128 
L 347 722 
Q 666 556 975 473 
Q 1284 391 1588 391 
Q 1994 391 2212 530 
Q 2431 669 2431 922 
Q 2431 1156 2273 1281 
Q 2116 1406 1581 1522 
L 1381 1569 
Q 847 1681 609 1914 
Q 372 2147 372 2553 
Q 372 3047 722 3315 
Q 1072 3584 1716 3584 
Q 2034 3584 2315 3537 
Q 2597 3491 2834 3397 
z
" id="DejaVuSans-73" transform="scale(0.015625)"/>
     </defs>
     <use xlink:href="#DejaVuSans-4f"/>
     <use x="78.710938" xlink:href="#DejaVuSans-72"/>
     <use x="119.824219" xlink:href="#DejaVuSans-69"/>
     <use x="147.607422" xlink:href="#DejaVuSans-65"/>
     <use x="209.130859" xlink:href="#DejaVuSans-6e"/>
     <use x="272.509766" xlink:href="#DejaVuSans-74"/>
     <use x="311.71875" xlink:href="#DejaVuSans-61"/>
     <use x="372.998047" xlink:href="#DejaVuSans-74"/>
     <use x="412.207031" xlink:href="#DejaVuSans-69"/>
     <use x="439.990234" xlink:href="#DejaVuSans-6f"/>
     <use x="501.171875" xlink:href="#DejaVuSans-6e"/>
     <use x="564.550781" xlink:href="#DejaVuSans-20"/>
     <use x="596.337891" xlink:href="#DejaVuSans-6f"/>
     <use x="657.519531" xlink:href="#DejaVuSans-66"/>
     <use x="692.724609" xlink:href="#DejaVuSans-20"/>
     <use x="724.511719" xlink:href="#DejaVuSans-69"/>
     <use x="752.294922" xlink:href="#DejaVuSans-6e"/>
     <use x="815.673828" xlink:href="#DejaVuSans-74"/>
     <use x="854.882812" xlink:href="#DejaVuSans-72"/>
     <use x="895.996094" xlink:href="#DejaVuSans-75"/>
     <use x="959.375" xlink:href="#DejaVuSans-64"/>
     <use x="1022.851562" xlink:href="#DejaVuSans-65"/>
     <use x="1084.375" xlink:href="#DejaVuSans-72"/>
     <use x="1125.488281" xlink:href="#DejaVuSans-73"/>
    </g>
   </g>
   <g id="legend_1">
    <g id="patch_7">
     <path d="M 64.209375 234.758125 
L 149.415625 234.758125 
Q 151.415625 234.758125 151.415625 232.758125 
L 151.415625 160.3675 
Q 151.415625 158.3675 149.415625 158.3675 
L 64.209375 158.3675 
Q 62.209375 158.3675 62.209375 160.3675 
L 62.209375 232.758125 
Q 62.209375 234.758125 64.209375 234.758125 
z
" style="fill:#ffffff;opacity:0.8;stroke:#cccccc;stroke-linejoin:miter;"/>
    </g>
    <g id="line2d_17">
     <path d="M 66.209375 166.465937 
L 86.209375 166.465937 
" style="fill:none;stroke:#0000ff;stroke-linecap:square;stroke-width:1.5;"/>
    </g>
    <g id="line2d_18"/>
    <g id="text_15">
     <!-- intruder1 -->
     <g transform="translate(94.209375 169.965937)scale(0.1 -0.1)">
      <defs>
       <path d="M 4056 2131 
L 4056 0 
L 2931 0 
L 2931 347 
L 2931 1631 
Q 2931 2084 2911 2256 
Q 2891 2428 2841 2509 
Q 2775 2619 2662 2680 
Q 2550 2741 2406 2741 
Q 2056 2741 1856 2470 
Q 1656 2200 1656 1722 
L 1656 0 
L 538 0 
L 538 3500 
L 1656 3500 
L 1656 2988 
Q 1909 3294 2193 3439 
Q 2478 3584 2822 3584 
Q 3428 3584 3742 3212 
Q 4056 2841 4056 2131 
z
" id="DejaVuSans-Bold-6e" transform="scale(0.015625)"/>
       <path d="M 500 1363 
L 500 3500 
L 1625 3500 
L 1625 3150 
Q 1625 2866 1622 2436 
Q 1619 2006 1619 1863 
Q 1619 1441 1641 1255 
Q 1663 1069 1716 984 
Q 1784 875 1895 815 
Q 2006 756 2150 756 
Q 2500 756 2700 1025 
Q 2900 1294 2900 1772 
L 2900 3500 
L 4019 3500 
L 4019 0 
L 2900 0 
L 2900 506 
Q 2647 200 2364 54 
Q 2081 -91 1741 -91 
Q 1134 -91 817 281 
Q 500 653 500 1363 
z
" id="DejaVuSans-Bold-75" transform="scale(0.015625)"/>
      </defs>
      <use xlink:href="#DejaVuSans-Bold-69"/>
      <use x="34.277344" xlink:href="#DejaVuSans-Bold-6e"/>
      <use x="105.46875" xlink:href="#DejaVuSans-Bold-74"/>
      <use x="153.271484" xlink:href="#DejaVuSans-Bold-72"/>
      <use x="202.587891" xlink:href="#DejaVuSans-Bold-75"/>
      <use x="273.779297" xlink:href="#DejaVuSans-Bold-64"/>
      <use x="345.361328" xlink:href="#DejaVuSans-Bold-65"/>
      <use x="413.183594" xlink:href="#DejaVuSans-Bold-72"/>
      <use x="462.5" xlink:href="#DejaVuSans-Bold-31"/>
     </g>
    </g>
    <g id="line2d_19">
     <path d="M 66.209375 181.144062 
L 86.209375 181.144062 
" style="fill:none;stroke:#ffd700;stroke-linecap:square;stroke-width:1.5;"/>
    </g>
    <g id="line2d_20"/>
    <g id="text_16">
     <!-- intruder2 -->
     <g transform="translate(94.209375 184.644062)scale(0.1 -0.1)">
      <use xlink:href="#DejaVuSans-Bold-69"/>
      <use x="34.277344" xlink:href="#DejaVuSans-Bold-6e"/>
      <use x="105.46875" xlink:href="#DejaVuSans-Bold-74"/>
      <use x="153.271484" xlink:href="#DejaVuSans-Bold-72"/>
      <use x="202.587891" xlink:href="#DejaVuSans-Bold-75"/>
      <use x="273.779297" xlink:href="#DejaVuSans-Bold-64"/>
      <use x="345.361328" xlink:href="#DejaVuSans-Bold-65"/>
      <use x="413.183594" xlink:href="#DejaVuSans-Bold-72"/>
      <use x="462.5" xlink:href="#DejaVuSans-Bold-32"/>
     </g>
    </g>
    <g id="line2d_21">
     <path d="M 66.209375 195.822187 
L 86.209375 195.822187 
" style="fill:none;stroke:#ff1493;stroke-linecap:square;stroke-width:1.5;"/>
    </g>
    <g id="line2d_22"/>
    <g id="text_17">
     <!-- intruder3 -->
     <g transform="translate(94.209375 199.322187)scale(0.1 -0.1)">
      <use xlink:href="#DejaVuSans-Bold-69"/>
      <use x="34.277344" xlink:href="#DejaVuSans-Bold-6e"/>
      <use x="105.46875" xlink:href="#DejaVuSans-Bold-74"/>
      <use x="153.271484" xlink:href="#DejaVuSans-Bold-72"/>
      <use x="202.587891" xlink:href="#DejaVuSans-Bold-75"/>
      <use x="273.779297" xlink:href="#DejaVuSans-Bold-64"/>
      <use x="345.361328" xlink:href="#DejaVuSans-Bold-65"/>
      <use x="413.183594" xlink:href="#DejaVuSans-Bold-72"/>
      <use x="462.5" xlink:href="#DejaVuSans-Bold-33"/>
     </g>
    </g>
    <g id="line2d_23">
     <path d="M 66.209375 210.500312 
L 86.209375 210.500312 
" style="fill:none;stroke:#008000;stroke-linecap:square;stroke-width:1.5;"/>
    </g>
    <g id="line2d_24"/>
    <g id="text_18">
     <!-- intruder4 -->
     <g transform="translate(94.209375 214.000312)scale(0.1 -0.1)">
      <use xlink:href="#DejaVuSans-Bold-69"/>
      <use x="34.277344" xlink:href="#DejaVuSans-Bold-6e"/>
      <use x="105.46875" xlink:href="#DejaVuSans-Bold-74"/>
      <use x="153.271484" xlink:href="#DejaVuSans-Bold-72"/>
      <use x="202.587891" xlink:href="#DejaVuSans-Bold-75"/>
      <use x="273.779297" xlink:href="#DejaVuSans-Bold-64"/>
      <use x="345.361328" xlink:href="#DejaVuSans-Bold-65"/>
      <use x="413.183594" xlink:href="#DejaVuSans-Bold-72"/>
      <use x="462.5" xlink:href="#DejaVuSans-Bold-34"/>
     </g>
    </g>
    <g id="line2d_25">
     <path d="M 66.209375 225.178437 
L 86.209375 225.178437 
" style="fill:none;stroke:#8fbc8f;stroke-linecap:square;stroke-width:1.5;"/>
    </g>
    <g id="line2d_26"/>
    <g id="text_19">
     <!-- intruder5 -->
     <g transform="translate(94.209375 228.678437)scale(0.1 -0.1)">
      <use xlink:href="#DejaVuSans-Bold-69"/>
      <use x="34.277344" xlink:href="#DejaVuSans-Bold-6e"/>
      <use x="105.46875" xlink:href="#DejaVuSans-Bold-74"/>
      <use x="153.271484" xlink:href="#DejaVuSans-Bold-72"/>
      <use x="202.587891" xlink:href="#DejaVuSans-Bold-75"/>
      <use x="273.779297" xlink:href="#DejaVuSans-Bold-64"/>
      <use x="345.361328" xlink:href="#DejaVuSans-Bold-65"/>
      <use x="413.183594" xlink:href="#DejaVuSans-Bold-72"/>
      <use x="462.5" xlink:href="#DejaVuSans-Bold-35"/>
     </g>
    </g>
   </g>
  </g>
 </g>
 <defs>
  <clipPath id="p1be979c81f">
   <rect height="217.44" width="334.8" x="57.209375" y="22.318125"/>
  </clipPath>
 </defs>
</svg>
