<?xml version="1.0" encoding="utf-8" standalone="no"?>
<!DOCTYPE svg PUBLIC "-//W3C//DTD SVG 1.1//EN"
  "http://www.w3.org/Graphics/SVG/1.1/DTD/svg11.dtd">
<svg height="331.674375pt" version="1.1" viewBox="0 0 622.409375 331.674375" width="622.409375pt" xmlns="http://www.w3.org/2000/svg" xmlns:xlink="http://www.w3.org/1999/xlink">
 <metadata>
  <rdf:RDF xmlns:cc="http://creativecommons.org/ns#" xmlns:dc="http://purl.org/dc/elements/1.1/" xmlns:rdf="http://www.w3.org/1999/02/22-rdf-syntax-ns#">
   <cc:Work>
    <dc:type rdf:resource="http://purl.org/dc/dcmitype/StillImage"/>
    <dc:date>2022-05-28T19:42:06.418033</dc:date>
    <dc:format>image/svg+xml</dc:format>
    <dc:creator>
     <cc:Agent>
      <dc:title>Matplotlib v3.4.3, https://matplotlib.org/</dc:title>
     </cc:Agent>
    </dc:creator>
   </cc:Work>
  </rdf:RDF>
 </metadata>
 <defs>
  <style type="text/css">*{stroke-linecap:butt;stroke-linejoin:round;}</style>
 </defs>
 <g id="figure_1">
  <g id="patch_1">
   <path d="M 0 331.674375 
L 622.409375 331.674375 
L 622.409375 0 
L 0 0 
z
" style="fill:none;"/>
  </g>
  <g id="axes_1">
   <g id="patch_2">
    <path d="M 57.209375 294.118125 
L 615.209375 294.118125 
L 615.209375 22.318125 
L 57.209375 22.318125 
z
" style="fill:#ffffff;"/>
   </g>
   <g id="matplotlib.axis_1">
    <g id="xtick_1">
     <g id="line2d_1">
      <defs>
       <path d="M 0 0 
L 0 3.5 
" id="m87ec232bf8" style="stroke:#000000;stroke-width:0.8;"/>
      </defs>
      <g>
       <use style="stroke:#000000;stroke-width:0.8;" x="82.573011" xlink:href="#m87ec232bf8" y="294.118125"/>
      </g>
     </g>
     <g id="text_1">
      <!-- 0 -->
      <g transform="translate(79.094105 308.716563)scale(0.1 -0.1)">
       <defs>
        <path d="M 2944 2338 
Q 2944 3213 2780 3570 
Q 2616 3928 2228 3928 
Q 1841 3928 1675 3570 
Q 1509 3213 1509 2338 
Q 1509 1453 1675 1090 
Q 1841 728 2228 728 
Q 2613 728 2778 1090 
Q 2944 1453 2944 2338 
z
M 4147 2328 
Q 4147 1169 3647 539 
Q 3147 -91 2228 -91 
Q 1306 -91 806 539 
Q 306 1169 306 2328 
Q 306 3491 806 4120 
Q 1306 4750 2228 4750 
Q 3147 4750 3647 4120 
Q 4147 3491 4147 2328 
z
" id="DejaVuSans-Bold-30" transform="scale(0.015625)"/>
       </defs>
       <use xlink:href="#DejaVuSans-Bold-30"/>
      </g>
     </g>
    </g>
    <g id="xtick_2">
     <g id="line2d_2">
      <g>
       <use style="stroke:#000000;stroke-width:0.8;" x="154.019874" xlink:href="#m87ec232bf8" y="294.118125"/>
      </g>
     </g>
     <g id="text_2">
      <!-- 5 -->
      <g transform="translate(150.540968 308.716563)scale(0.1 -0.1)">
       <defs>
        <path d="M 678 4666 
L 3669 4666 
L 3669 3781 
L 1638 3781 
L 1638 3059 
Q 1775 3097 1914 3117 
Q 2053 3138 2203 3138 
Q 3056 3138 3531 2711 
Q 4006 2284 4006 1522 
Q 4006 766 3489 337 
Q 2972 -91 2053 -91 
Q 1656 -91 1267 -14 
Q 878 63 494 219 
L 494 1166 
Q 875 947 1217 837 
Q 1559 728 1863 728 
Q 2300 728 2551 942 
Q 2803 1156 2803 1522 
Q 2803 1891 2551 2103 
Q 2300 2316 1863 2316 
Q 1603 2316 1309 2248 
Q 1016 2181 678 2041 
L 678 4666 
z
" id="DejaVuSans-Bold-35" transform="scale(0.015625)"/>
       </defs>
       <use xlink:href="#DejaVuSans-Bold-35"/>
      </g>
     </g>
    </g>
    <g id="xtick_3">
     <g id="line2d_3">
      <g>
       <use style="stroke:#000000;stroke-width:0.8;" x="225.466737" xlink:href="#m87ec232bf8" y="294.118125"/>
      </g>
     </g>
     <g id="text_3">
      <!-- 10 -->
      <g transform="translate(218.508925 308.716563)scale(0.1 -0.1)">
       <defs>
        <path d="M 750 831 
L 1813 831 
L 1813 3847 
L 722 3622 
L 722 4441 
L 1806 4666 
L 2950 4666 
L 2950 831 
L 4013 831 
L 4013 0 
L 750 0 
L 750 831 
z
" id="DejaVuSans-Bold-31" transform="scale(0.015625)"/>
       </defs>
       <use xlink:href="#DejaVuSans-Bold-31"/>
       <use x="69.580078" xlink:href="#DejaVuSans-Bold-30"/>
      </g>
     </g>
    </g>
    <g id="xtick_4">
     <g id="line2d_4">
      <g>
       <use style="stroke:#000000;stroke-width:0.8;" x="296.9136" xlink:href="#m87ec232bf8" y="294.118125"/>
      </g>
     </g>
     <g id="text_4">
      <!-- 15 -->
      <g transform="translate(289.955788 308.716563)scale(0.1 -0.1)">
       <use xlink:href="#DejaVuSans-Bold-31"/>
       <use x="69.580078" xlink:href="#DejaVuSans-Bold-35"/>
      </g>
     </g>
    </g>
    <g id="xtick_5">
     <g id="line2d_5">
      <g>
       <use style="stroke:#000000;stroke-width:0.8;" x="368.360463" xlink:href="#m87ec232bf8" y="294.118125"/>
      </g>
     </g>
     <g id="text_5">
      <!-- 20 -->
      <g transform="translate(361.402651 308.716563)scale(0.1 -0.1)">
       <defs>
        <path d="M 1844 884 
L 3897 884 
L 3897 0 
L 506 0 
L 506 884 
L 2209 2388 
Q 2438 2594 2547 2791 
Q 2656 2988 2656 3200 
Q 2656 3528 2436 3728 
Q 2216 3928 1850 3928 
Q 1569 3928 1234 3808 
Q 900 3688 519 3450 
L 519 4475 
Q 925 4609 1322 4679 
Q 1719 4750 2100 4750 
Q 2938 4750 3402 4381 
Q 3866 4013 3866 3353 
Q 3866 2972 3669 2642 
Q 3472 2313 2841 1759 
L 1844 884 
z
" id="DejaVuSans-Bold-32" transform="scale(0.015625)"/>
       </defs>
       <use xlink:href="#DejaVuSans-Bold-32"/>
       <use x="69.580078" xlink:href="#DejaVuSans-Bold-30"/>
      </g>
     </g>
    </g>
    <g id="xtick_6">
     <g id="line2d_6">
      <g>
       <use style="stroke:#000000;stroke-width:0.8;" x="439.807326" xlink:href="#m87ec232bf8" y="294.118125"/>
      </g>
     </g>
     <g id="text_6">
      <!-- 25 -->
      <g transform="translate(432.849514 308.716563)scale(0.1 -0.1)">
       <use xlink:href="#DejaVuSans-Bold-32"/>
       <use x="69.580078" xlink:href="#DejaVuSans-Bold-35"/>
      </g>
     </g>
    </g>
    <g id="xtick_7">
     <g id="line2d_7">
      <g>
       <use style="stroke:#000000;stroke-width:0.8;" x="511.254189" xlink:href="#m87ec232bf8" y="294.118125"/>
      </g>
     </g>
     <g id="text_7">
      <!-- 30 -->
      <g transform="translate(504.296377 308.716563)scale(0.1 -0.1)">
       <defs>
        <path d="M 2981 2516 
Q 3453 2394 3698 2092 
Q 3944 1791 3944 1325 
Q 3944 631 3412 270 
Q 2881 -91 1863 -91 
Q 1503 -91 1142 -33 
Q 781 25 428 141 
L 428 1069 
Q 766 900 1098 814 
Q 1431 728 1753 728 
Q 2231 728 2486 893 
Q 2741 1059 2741 1369 
Q 2741 1688 2480 1852 
Q 2219 2016 1709 2016 
L 1228 2016 
L 1228 2791 
L 1734 2791 
Q 2188 2791 2409 2933 
Q 2631 3075 2631 3366 
Q 2631 3634 2415 3781 
Q 2200 3928 1806 3928 
Q 1516 3928 1219 3862 
Q 922 3797 628 3669 
L 628 4550 
Q 984 4650 1334 4700 
Q 1684 4750 2022 4750 
Q 2931 4750 3382 4451 
Q 3834 4153 3834 3553 
Q 3834 3144 3618 2883 
Q 3403 2622 2981 2516 
z
" id="DejaVuSans-Bold-33" transform="scale(0.015625)"/>
       </defs>
       <use xlink:href="#DejaVuSans-Bold-33"/>
       <use x="69.580078" xlink:href="#DejaVuSans-Bold-30"/>
      </g>
     </g>
    </g>
    <g id="xtick_8">
     <g id="line2d_8">
      <g>
       <use style="stroke:#000000;stroke-width:0.8;" x="582.701052" xlink:href="#m87ec232bf8" y="294.118125"/>
      </g>
     </g>
     <g id="text_8">
      <!-- 35 -->
      <g transform="translate(575.74324 308.716563)scale(0.1 -0.1)">
       <use xlink:href="#DejaVuSans-Bold-33"/>
       <use x="69.580078" xlink:href="#DejaVuSans-Bold-35"/>
      </g>
     </g>
    </g>
    <g id="text_9">
     <!-- time -->
     <g transform="translate(323.503906 322.394687)scale(0.1 -0.1)">
      <defs>
       <path d="M 1759 4494 
L 1759 3500 
L 2913 3500 
L 2913 2700 
L 1759 2700 
L 1759 1216 
Q 1759 972 1856 886 
Q 1953 800 2241 800 
L 2816 800 
L 2816 0 
L 1856 0 
Q 1194 0 917 276 
Q 641 553 641 1216 
L 641 2700 
L 84 2700 
L 84 3500 
L 641 3500 
L 641 4494 
L 1759 4494 
z
" id="DejaVuSans-Bold-74" transform="scale(0.015625)"/>
       <path d="M 538 3500 
L 1656 3500 
L 1656 0 
L 538 0 
L 538 3500 
z
M 538 4863 
L 1656 4863 
L 1656 3950 
L 538 3950 
L 538 4863 
z
" id="DejaVuSans-Bold-69" transform="scale(0.015625)"/>
       <path d="M 3781 2919 
Q 3994 3244 4286 3414 
Q 4578 3584 4928 3584 
Q 5531 3584 5847 3212 
Q 6163 2841 6163 2131 
L 6163 0 
L 5038 0 
L 5038 1825 
Q 5041 1866 5042 1909 
Q 5044 1953 5044 2034 
Q 5044 2406 4934 2573 
Q 4825 2741 4581 2741 
Q 4263 2741 4089 2478 
Q 3916 2216 3909 1719 
L 3909 0 
L 2784 0 
L 2784 1825 
Q 2784 2406 2684 2573 
Q 2584 2741 2328 2741 
Q 2006 2741 1831 2477 
Q 1656 2213 1656 1722 
L 1656 0 
L 531 0 
L 531 3500 
L 1656 3500 
L 1656 2988 
Q 1863 3284 2130 3434 
Q 2397 3584 2719 3584 
Q 3081 3584 3359 3409 
Q 3638 3234 3781 2919 
z
" id="DejaVuSans-Bold-6d" transform="scale(0.015625)"/>
       <path d="M 4031 1759 
L 4031 1441 
L 1416 1441 
Q 1456 1047 1700 850 
Q 1944 653 2381 653 
Q 2734 653 3104 758 
Q 3475 863 3866 1075 
L 3866 213 
Q 3469 63 3072 -14 
Q 2675 -91 2278 -91 
Q 1328 -91 801 392 
Q 275 875 275 1747 
Q 275 2603 792 3093 
Q 1309 3584 2216 3584 
Q 3041 3584 3536 3087 
Q 4031 2591 4031 1759 
z
M 2881 2131 
Q 2881 2450 2695 2645 
Q 2509 2841 2209 2841 
Q 1884 2841 1681 2658 
Q 1478 2475 1428 2131 
L 2881 2131 
z
" id="DejaVuSans-Bold-65" transform="scale(0.015625)"/>
      </defs>
      <use xlink:href="#DejaVuSans-Bold-74"/>
      <use x="47.802734" xlink:href="#DejaVuSans-Bold-69"/>
      <use x="82.080078" xlink:href="#DejaVuSans-Bold-6d"/>
      <use x="186.279297" xlink:href="#DejaVuSans-Bold-65"/>
     </g>
    </g>
   </g>
   <g id="matplotlib.axis_2">
    <g id="ytick_1">
     <g id="line2d_9">
      <defs>
       <path d="M 0 0 
L -3.5 0 
" id="m03a1212169" style="stroke:#000000;stroke-width:0.8;"/>
      </defs>
      <g>
       <use style="stroke:#000000;stroke-width:0.8;" x="57.209375" xlink:href="#m03a1212169" y="252.564422"/>
      </g>
     </g>
     <g id="text_10">
      <!-- −150 -->
      <g transform="translate(20.95625 256.363641)scale(0.1 -0.1)">
       <defs>
        <path d="M 678 2375 
L 4684 2375 
L 4684 1638 
L 678 1638 
L 678 2375 
z
" id="DejaVuSans-Bold-2212" transform="scale(0.015625)"/>
       </defs>
       <use xlink:href="#DejaVuSans-Bold-2212"/>
       <use x="83.789062" xlink:href="#DejaVuSans-Bold-31"/>
       <use x="153.369141" xlink:href="#DejaVuSans-Bold-35"/>
       <use x="222.949219" xlink:href="#DejaVuSans-Bold-30"/>
      </g>
     </g>
    </g>
    <g id="ytick_2">
     <g id="line2d_10">
      <g>
       <use style="stroke:#000000;stroke-width:0.8;" x="57.209375" xlink:href="#m03a1212169" y="200.540705"/>
      </g>
     </g>
     <g id="text_11">
      <!-- −100 -->
      <g transform="translate(20.95625 204.339924)scale(0.1 -0.1)">
       <use xlink:href="#DejaVuSans-Bold-2212"/>
       <use x="83.789062" xlink:href="#DejaVuSans-Bold-31"/>
       <use x="153.369141" xlink:href="#DejaVuSans-Bold-30"/>
       <use x="222.949219" xlink:href="#DejaVuSans-Bold-30"/>
      </g>
     </g>
    </g>
    <g id="ytick_3">
     <g id="line2d_11">
      <g>
       <use style="stroke:#000000;stroke-width:0.8;" x="57.209375" xlink:href="#m03a1212169" y="148.516987"/>
      </g>
     </g>
     <g id="text_12">
      <!-- −50 -->
      <g transform="translate(27.914062 152.316206)scale(0.1 -0.1)">
       <use xlink:href="#DejaVuSans-Bold-2212"/>
       <use x="83.789062" xlink:href="#DejaVuSans-Bold-35"/>
       <use x="153.369141" xlink:href="#DejaVuSans-Bold-30"/>
      </g>
     </g>
    </g>
    <g id="ytick_4">
     <g id="line2d_12">
      <g>
       <use style="stroke:#000000;stroke-width:0.8;" x="57.209375" xlink:href="#m03a1212169" y="96.49327"/>
      </g>
     </g>
     <g id="text_13">
      <!-- 0 -->
      <g transform="translate(43.251562 100.292489)scale(0.1 -0.1)">
       <use xlink:href="#DejaVuSans-Bold-30"/>
      </g>
     </g>
    </g>
    <g id="ytick_5">
     <g id="line2d_13">
      <g>
       <use style="stroke:#000000;stroke-width:0.8;" x="57.209375" xlink:href="#m03a1212169" y="44.469552"/>
      </g>
     </g>
     <g id="text_14">
      <!-- 50 -->
      <g transform="translate(36.29375 48.268771)scale(0.1 -0.1)">
       <use xlink:href="#DejaVuSans-Bold-35"/>
       <use x="69.580078" xlink:href="#DejaVuSans-Bold-30"/>
      </g>
     </g>
    </g>
    <g id="text_15">
     <!-- theta (degree) -->
     <g transform="translate(14.798437 199.431406)rotate(-90)scale(0.1 -0.1)">
      <defs>
       <path d="M 4056 2131 
L 4056 0 
L 2931 0 
L 2931 347 
L 2931 1625 
Q 2931 2084 2911 2256 
Q 2891 2428 2841 2509 
Q 2775 2619 2662 2680 
Q 2550 2741 2406 2741 
Q 2056 2741 1856 2470 
Q 1656 2200 1656 1722 
L 1656 0 
L 538 0 
L 538 4863 
L 1656 4863 
L 1656 2988 
Q 1909 3294 2193 3439 
Q 2478 3584 2822 3584 
Q 3428 3584 3742 3212 
Q 4056 2841 4056 2131 
z
" id="DejaVuSans-Bold-68" transform="scale(0.015625)"/>
       <path d="M 2106 1575 
Q 1756 1575 1579 1456 
Q 1403 1338 1403 1106 
Q 1403 894 1545 773 
Q 1688 653 1941 653 
Q 2256 653 2472 879 
Q 2688 1106 2688 1447 
L 2688 1575 
L 2106 1575 
z
M 3816 1997 
L 3816 0 
L 2688 0 
L 2688 519 
Q 2463 200 2181 54 
Q 1900 -91 1497 -91 
Q 953 -91 614 226 
Q 275 544 275 1050 
Q 275 1666 698 1953 
Q 1122 2241 2028 2241 
L 2688 2241 
L 2688 2328 
Q 2688 2594 2478 2717 
Q 2269 2841 1825 2841 
Q 1466 2841 1156 2769 
Q 847 2697 581 2553 
L 581 3406 
Q 941 3494 1303 3539 
Q 1666 3584 2028 3584 
Q 2975 3584 3395 3211 
Q 3816 2838 3816 1997 
z
" id="DejaVuSans-Bold-61" transform="scale(0.015625)"/>
       <path id="DejaVuSans-Bold-20" transform="scale(0.015625)"/>
       <path d="M 2413 -844 
L 1484 -844 
Q 1006 -72 778 623 
Q 550 1319 550 2003 
Q 550 2688 779 3389 
Q 1009 4091 1484 4856 
L 2413 4856 
Q 2013 4116 1813 3408 
Q 1613 2700 1613 2009 
Q 1613 1319 1811 609 
Q 2009 -100 2413 -844 
z
" id="DejaVuSans-Bold-28" transform="scale(0.015625)"/>
       <path d="M 2919 2988 
L 2919 4863 
L 4044 4863 
L 4044 0 
L 2919 0 
L 2919 506 
Q 2688 197 2409 53 
Q 2131 -91 1766 -91 
Q 1119 -91 703 423 
Q 288 938 288 1747 
Q 288 2556 703 3070 
Q 1119 3584 1766 3584 
Q 2128 3584 2408 3439 
Q 2688 3294 2919 2988 
z
M 2181 722 
Q 2541 722 2730 984 
Q 2919 1247 2919 1747 
Q 2919 2247 2730 2509 
Q 2541 2772 2181 2772 
Q 1825 2772 1636 2509 
Q 1447 2247 1447 1747 
Q 1447 1247 1636 984 
Q 1825 722 2181 722 
z
" id="DejaVuSans-Bold-64" transform="scale(0.015625)"/>
       <path d="M 2919 594 
Q 2688 288 2409 144 
Q 2131 0 1766 0 
Q 1125 0 706 504 
Q 288 1009 288 1791 
Q 288 2575 706 3076 
Q 1125 3578 1766 3578 
Q 2131 3578 2409 3434 
Q 2688 3291 2919 2981 
L 2919 3500 
L 4044 3500 
L 4044 353 
Q 4044 -491 3511 -936 
Q 2978 -1381 1966 -1381 
Q 1638 -1381 1331 -1331 
Q 1025 -1281 716 -1178 
L 716 -306 
Q 1009 -475 1290 -558 
Q 1572 -641 1856 -641 
Q 2406 -641 2662 -400 
Q 2919 -159 2919 353 
L 2919 594 
z
M 2181 2772 
Q 1834 2772 1640 2515 
Q 1447 2259 1447 1791 
Q 1447 1309 1634 1061 
Q 1822 813 2181 813 
Q 2531 813 2725 1069 
Q 2919 1325 2919 1791 
Q 2919 2259 2725 2515 
Q 2531 2772 2181 2772 
z
" id="DejaVuSans-Bold-67" transform="scale(0.015625)"/>
       <path d="M 3138 2547 
Q 2991 2616 2845 2648 
Q 2700 2681 2553 2681 
Q 2122 2681 1889 2404 
Q 1656 2128 1656 1613 
L 1656 0 
L 538 0 
L 538 3500 
L 1656 3500 
L 1656 2925 
Q 1872 3269 2151 3426 
Q 2431 3584 2822 3584 
Q 2878 3584 2943 3579 
Q 3009 3575 3134 3559 
L 3138 2547 
z
" id="DejaVuSans-Bold-72" transform="scale(0.015625)"/>
       <path d="M 513 -844 
Q 913 -100 1113 609 
Q 1313 1319 1313 2009 
Q 1313 2700 1113 3408 
Q 913 4116 513 4856 
L 1441 4856 
Q 1916 4091 2145 3389 
Q 2375 2688 2375 2003 
Q 2375 1319 2147 623 
Q 1919 -72 1441 -844 
L 513 -844 
z
" id="DejaVuSans-Bold-29" transform="scale(0.015625)"/>
      </defs>
      <use xlink:href="#DejaVuSans-Bold-74"/>
      <use x="47.802734" xlink:href="#DejaVuSans-Bold-68"/>
      <use x="118.994141" xlink:href="#DejaVuSans-Bold-65"/>
      <use x="186.816406" xlink:href="#DejaVuSans-Bold-74"/>
      <use x="234.619141" xlink:href="#DejaVuSans-Bold-61"/>
      <use x="302.099609" xlink:href="#DejaVuSans-Bold-20"/>
      <use x="336.914062" xlink:href="#DejaVuSans-Bold-28"/>
      <use x="382.617188" xlink:href="#DejaVuSans-Bold-64"/>
      <use x="454.199219" xlink:href="#DejaVuSans-Bold-65"/>
      <use x="522.021484" xlink:href="#DejaVuSans-Bold-67"/>
      <use x="593.603516" xlink:href="#DejaVuSans-Bold-72"/>
      <use x="642.919922" xlink:href="#DejaVuSans-Bold-65"/>
      <use x="710.742188" xlink:href="#DejaVuSans-Bold-65"/>
      <use x="778.564453" xlink:href="#DejaVuSans-Bold-29"/>
     </g>
    </g>
   </g>
   <g id="line2d_14">
    <path clip-path="url(#pe1556f776f)" d="M 82.573011 96.49327 
L 89.717698 96.49327 
L 96.862384 96.49327 
L 104.00707 96.49327 
L 111.151757 96.49327 
L 118.296443 96.49327 
L 125.441129 96.49327 
L 132.585815 96.49327 
L 139.730502 96.49327 
L 146.875188 96.49327 
L 154.019874 96.49327 
L 161.164561 96.49327 
L 168.309247 96.418751 
L 175.453933 96.65721 
L 182.59862 96.359137 
L 189.743306 94.421195 
L 196.887992 92.182403 
L 204.032678 89.622433 
L 211.177365 86.943708 
L 218.322051 85.142954 
L 225.466737 83.585561 
L 232.611424 81.788068 
L 239.75611 80.221243 
L 246.900796 78.671035 
L 254.045483 76.502935 
L 261.190169 74.721126 
L 268.334855 72.425008 
L 275.479541 70.04282 
L 282.624228 67.667862 
L 289.768914 65.409908 
L 296.9136 64.496853 
L 304.058287 64.213399 
L 311.202973 64.408672 
L 318.347659 65.713628 
L 325.492346 66.142695 
L 332.637032 68.017162 
L 339.781718 70.238831 
L 346.926404 71.407172 
L 354.071091 73.266735 
L 361.215777 74.996558 
L 368.360463 76.281872 
L 375.50515 77.422461 
L 382.649836 79.422627 
L 389.794522 82.991472 
L 396.939209 88.91812 
L 404.083895 96.06404 
L 411.228581 102.407857 
L 418.373267 107.329705 
L 425.517954 111.367641 
L 432.66264 113.508233 
L 439.807326 114.086386 
L 446.952013 114.05384 
L 454.096699 114.112794 
L 461.241385 114.136351 
L 468.386072 114.809483 
L 475.530758 115.495268 
L 482.675444 115.787473 
L 489.82013 115.938288 
L 496.964817 116.327599 
L 504.109503 117.06197 
L 511.254189 117.199615 
L 518.398876 115.128301 
L 525.543562 113.127937 
L 532.688248 110.826299 
L 539.832935 108.904594 
L 546.977621 106.747613 
L 554.122307 106.403502 
L 561.266993 107.021003 
L 568.41168 106.957581 
L 575.556366 106.780535 
L 582.701052 106.991314 
L 589.845739 106.913836 
" style="fill:none;stroke:#0000ff;stroke-linecap:square;stroke-width:1.5;"/>
   </g>
   <g id="line2d_15">
    <path clip-path="url(#pe1556f776f)" d="M 82.573011 96.49327 
L 89.717698 96.49327 
L 96.862384 96.49327 
L 104.00707 96.49327 
L 111.151757 96.49327 
L 118.296443 96.49327 
L 125.441129 96.49327 
L 132.585815 96.49327 
L 139.730502 96.49327 
L 146.875188 96.49327 
L 154.019874 96.49327 
L 161.164561 96.49327 
L 168.309247 97.238481 
L 175.453933 98.401274 
L 182.59862 100.012579 
L 189.743306 102.135257 
L 196.887992 103.574272 
L 204.032678 104.731439 
L 211.177365 105.891592 
L 218.322051 106.345018 
L 225.466737 105.841896 
L 232.611424 104.292206 
L 239.75611 102.103804 
L 246.900796 98.930714 
L 254.045483 95.242752 
L 261.190169 91.13561 
L 268.334855 86.765624 
L 275.479541 82.527928 
L 282.624228 77.539911 
L 289.768914 72.963957 
L 296.9136 69.032307 
L 304.058287 65.04666 
L 311.202973 61.637199 
L 318.347659 58.133174 
L 325.492346 55.005226 
L 332.637032 52.883533 
L 339.781718 51.308766 
L 346.926404 50.409641 
L 354.071091 48.881519 
L 361.215777 48.415642 
L 368.360463 47.646038 
L 375.50515 46.860231 
L 382.649836 46.514154 
L 389.794522 46.341003 
L 396.939209 44.865309 
L 404.083895 43.26388 
L 411.228581 40.540599 
L 418.373267 36.900981 
L 425.517954 34.67267 
L 432.66264 41.983897 
L 439.807326 46.64288 
L 446.952013 48.592736 
L 454.096699 50.265239 
L 461.241385 52.273245 
L 468.386072 55.740366 
L 475.530758 60.265793 
L 482.675444 63.86208 
L 489.82013 65.539012 
L 496.964817 64.181577 
L 504.109503 63.423327 
L 511.254189 62.17983 
L 518.398876 60.71524 
L 525.543562 58.819835 
L 532.688248 58.559311 
L 539.832935 58.978719 
L 546.977621 58.153681 
L 554.122307 58.557513 
L 561.266993 58.321142 
L 568.41168 57.497546 
L 575.556366 57.940498 
L 582.701052 57.844694 
L 589.845739 57.572493 
" style="fill:none;stroke:#ffd700;stroke-linecap:square;stroke-width:1.5;"/>
   </g>
   <g id="line2d_16">
    <path clip-path="url(#pe1556f776f)" d="M 82.573011 96.49327 
L 89.717698 96.49327 
L 96.862384 96.49327 
L 104.00707 96.49327 
L 111.151757 96.49327 
L 118.296443 96.49327 
L 125.441129 96.49327 
L 132.585815 96.49327 
L 139.730502 96.49327 
L 146.875188 96.49327 
L 154.019874 96.49327 
L 161.164561 96.49327 
L 168.309247 96.418751 
L 175.453933 95.464863 
L 182.59862 94.451057 
L 189.743306 93.705286 
L 196.887992 93.347121 
L 204.032678 92.1973 
L 211.177365 91.195493 
L 218.322051 90.177305 
L 225.466737 89.550341 
L 232.611424 88.428145 
L 239.75611 87.061677 
L 246.900796 85.609831 
L 254.045483 84.073764 
L 261.190169 82.236508 
L 268.334855 80.530622 
L 275.479541 78.143009 
L 282.624228 75.619944 
L 289.768914 73.413389 
L 296.9136 71.827367 
L 304.058287 70.82734 
L 311.202973 70.13202 
L 318.347659 69.897515 
L 325.492346 69.908836 
L 332.637032 70.212686 
L 339.781718 70.680001 
L 346.926404 71.186143 
L 354.071091 72.137804 
L 361.215777 73.013712 
L 368.360463 73.551971 
L 375.50515 74.163212 
L 382.649836 74.875851 
L 389.794522 75.632831 
L 396.939209 76.327836 
L 404.083895 76.884569 
L 411.228581 76.449396 
L 418.373267 73.765292 
L 425.517954 71.431108 
L 432.66264 68.236749 
L 439.807326 62.466401 
L 446.952013 60.809323 
L 454.096699 61.341076 
L 461.241385 61.102691 
L 468.386072 61.786012 
L 475.530758 63.05606 
L 482.675444 63.028571 
L 489.82013 65.65623 
L 496.964817 65.756738 
L 504.109503 65.615895 
L 511.254189 66.352175 
L 518.398876 66.160327 
L 525.543562 65.822694 
L 532.688248 66.079524 
L 539.832935 65.934997 
L 546.977621 65.685197 
L 554.122307 65.419724 
L 561.266993 65.370476 
L 568.41168 65.498195 
L 575.556366 65.492668 
L 582.701052 65.46396 
L 589.845739 65.479635 
" style="fill:none;stroke:#ff1493;stroke-linecap:square;stroke-width:1.5;"/>
   </g>
   <g id="line2d_17">
    <path clip-path="url(#pe1556f776f)" d="M 82.573011 96.49327 
L 89.717698 96.49327 
L 96.862384 96.49327 
L 104.00707 96.49327 
L 111.151757 96.49327 
L 118.296443 96.49327 
L 125.441129 96.49327 
L 132.585815 96.49327 
L 139.730502 96.49327 
L 146.875188 96.49327 
L 154.019874 96.49327 
L 161.164561 96.49327 
L 168.309247 96.448559 
L 175.453933 96.850961 
L 182.59862 96.120673 
L 189.743306 96.105775 
L 196.887992 96.075963 
L 204.032678 96.478366 
L 211.177365 98.252187 
L 218.322051 100.639828 
L 225.466737 103.772496 
L 232.611424 108.121691 
L 239.75611 113.121632 
L 246.900796 118.834455 
L 254.045483 124.640552 
L 261.190169 130.801212 
L 268.334855 137.066481 
L 275.479541 142.846695 
L 282.624228 148.037652 
L 289.768914 153.235977 
L 296.9136 158.591191 
L 304.058287 163.908175 
L 311.202973 168.531276 
L 318.347659 172.765394 
L 325.492346 177.243769 
L 332.637032 182.385009 
L 339.781718 188.931635 
L 346.926404 196.251194 
L 354.071091 203.960599 
L 361.215777 210.883815 
L 368.360463 218.073477 
L 375.50515 225.334699 
L 382.649836 232.752054 
L 389.794522 239.765793 
L 396.939209 247.252897 
L 404.083895 255.130594 
L 411.228581 261.304349 
L 418.373267 263.884467 
L 425.517954 267.303748 
L 432.66264 269.420464 
L 439.807326 271.499154 
L 446.952013 273.549412 
L 454.096699 274.932308 
L 461.241385 275.706043 
L 468.386072 277.079983 
L 475.530758 278.4328 
L 482.675444 279.46857 
L 489.82013 279.210303 
L 496.964817 279.003798 
L 504.109503 278.670072 
L 511.254189 280.13568 
L 518.398876 281.76358 
L 525.543562 281.320486 
L 532.688248 278.904141 
L 539.832935 278.0395 
L 546.977621 277.966391 
L 554.122307 277.850718 
L 561.266993 278.034907 
L 568.41168 277.885716 
L 575.556366 278.024671 
L 582.701052 278.015182 
L 589.845739 277.890314 
" style="fill:none;stroke:#008000;stroke-linecap:square;stroke-width:1.5;"/>
   </g>
   <g id="line2d_18">
    <path clip-path="url(#pe1556f776f)" d="M 82.573011 96.49327 
L 89.717698 96.49327 
L 96.862384 96.49327 
L 104.00707 96.49327 
L 111.151757 96.49327 
L 118.296443 96.49327 
L 125.441129 96.49327 
L 132.585815 96.49327 
L 139.730502 96.49327 
L 146.875188 96.49327 
L 154.019874 96.49327 
L 161.164561 96.49327 
L 168.309247 96.865867 
L 175.453933 97.596211 
L 182.59862 98.744291 
L 189.743306 99.6692 
L 196.887992 100.371005 
L 204.032678 101.387213 
L 211.177365 102.944416 
L 218.322051 104.397468 
L 225.466737 105.929395 
L 232.611424 107.655633 
L 239.75611 109.533376 
L 246.900796 110.708677 
L 254.045483 111.792378 
L 261.190169 114.044418 
L 268.334855 116.105129 
L 275.479541 117.785718 
L 282.624228 119.19562 
L 289.768914 119.937631 
L 296.9136 120.629634 
L 304.058287 122.062256 
L 311.202973 124.480118 
L 318.347659 128.831927 
L 325.492346 132.127698 
L 332.637032 134.709696 
L 339.781718 136.166174 
L 346.926404 137.985512 
L 354.071091 140.795161 
L 361.215777 143.390494 
L 368.360463 146.745671 
L 375.50515 150.004757 
L 382.649836 153.449771 
L 389.794522 157.460939 
L 396.939209 161.918494 
L 404.083895 166.906103 
L 411.228581 172.714003 
L 418.373267 178.56673 
L 425.517954 185.750231 
L 432.66264 193.149275 
L 439.807326 196.631879 
L 446.952013 197.87342 
L 454.096699 199.341271 
L 461.241385 201.101303 
L 468.386072 202.982245 
L 475.530758 204.512371 
L 482.675444 205.672351 
L 489.82013 210.722459 
L 496.964817 215.490576 
L 504.109503 220.493485 
L 511.254189 225.164894 
L 518.398876 230.335781 
L 525.543562 231.001247 
L 532.688248 229.51663 
L 539.832935 229.506448 
L 546.977621 229.663566 
L 554.122307 229.105897 
L 561.266993 229.230025 
L 568.41168 229.190133 
L 575.556366 229.233841 
L 582.701052 229.158692 
L 589.845739 229.206944 
" style="fill:none;stroke:#8fbc8f;stroke-linecap:square;stroke-width:1.5;"/>
   </g>
   <g id="patch_3">
    <path d="M 57.209375 294.118125 
L 57.209375 22.318125 
" style="fill:none;stroke:#000000;stroke-linecap:square;stroke-linejoin:miter;stroke-width:0.8;"/>
   </g>
   <g id="patch_4">
    <path d="M 615.209375 294.118125 
L 615.209375 22.318125 
" style="fill:none;stroke:#000000;stroke-linecap:square;stroke-linejoin:miter;stroke-width:0.8;"/>
   </g>
   <g id="patch_5">
    <path d="M 57.209375 294.118125 
L 615.209375 294.118125 
" style="fill:none;stroke:#000000;stroke-linecap:square;stroke-linejoin:miter;stroke-width:0.8;"/>
   </g>
   <g id="patch_6">
    <path d="M 57.209375 22.318125 
L 615.209375 22.318125 
" style="fill:none;stroke:#000000;stroke-linecap:square;stroke-linejoin:miter;stroke-width:0.8;"/>
   </g>
   <g id="text_16">
    <!-- Orientation of intruders -->
    <g transform="translate(265.555625 16.318125)scale(0.12 -0.12)">
     <defs>
      <path d="M 2522 4238 
Q 1834 4238 1429 3725 
Q 1025 3213 1025 2328 
Q 1025 1447 1429 934 
Q 1834 422 2522 422 
Q 3209 422 3611 934 
Q 4013 1447 4013 2328 
Q 4013 3213 3611 3725 
Q 3209 4238 2522 4238 
z
M 2522 4750 
Q 3503 4750 4090 4092 
Q 4678 3434 4678 2328 
Q 4678 1225 4090 567 
Q 3503 -91 2522 -91 
Q 1538 -91 948 565 
Q 359 1222 359 2328 
Q 359 3434 948 4092 
Q 1538 4750 2522 4750 
z
" id="DejaVuSans-4f" transform="scale(0.015625)"/>
      <path d="M 2631 2963 
Q 2534 3019 2420 3045 
Q 2306 3072 2169 3072 
Q 1681 3072 1420 2755 
Q 1159 2438 1159 1844 
L 1159 0 
L 581 0 
L 581 3500 
L 1159 3500 
L 1159 2956 
Q 1341 3275 1631 3429 
Q 1922 3584 2338 3584 
Q 2397 3584 2469 3576 
Q 2541 3569 2628 3553 
L 2631 2963 
z
" id="DejaVuSans-72" transform="scale(0.015625)"/>
      <path d="M 603 3500 
L 1178 3500 
L 1178 0 
L 603 0 
L 603 3500 
z
M 603 4863 
L 1178 4863 
L 1178 4134 
L 603 4134 
L 603 4863 
z
" id="DejaVuSans-69" transform="scale(0.015625)"/>
      <path d="M 3597 1894 
L 3597 1613 
L 953 1613 
Q 991 1019 1311 708 
Q 1631 397 2203 397 
Q 2534 397 2845 478 
Q 3156 559 3463 722 
L 3463 178 
Q 3153 47 2828 -22 
Q 2503 -91 2169 -91 
Q 1331 -91 842 396 
Q 353 884 353 1716 
Q 353 2575 817 3079 
Q 1281 3584 2069 3584 
Q 2775 3584 3186 3129 
Q 3597 2675 3597 1894 
z
M 3022 2063 
Q 3016 2534 2758 2815 
Q 2500 3097 2075 3097 
Q 1594 3097 1305 2825 
Q 1016 2553 972 2059 
L 3022 2063 
z
" id="DejaVuSans-65" transform="scale(0.015625)"/>
      <path d="M 3513 2113 
L 3513 0 
L 2938 0 
L 2938 2094 
Q 2938 2591 2744 2837 
Q 2550 3084 2163 3084 
Q 1697 3084 1428 2787 
Q 1159 2491 1159 1978 
L 1159 0 
L 581 0 
L 581 3500 
L 1159 3500 
L 1159 2956 
Q 1366 3272 1645 3428 
Q 1925 3584 2291 3584 
Q 2894 3584 3203 3211 
Q 3513 2838 3513 2113 
z
" id="DejaVuSans-6e" transform="scale(0.015625)"/>
      <path d="M 1172 4494 
L 1172 3500 
L 2356 3500 
L 2356 3053 
L 1172 3053 
L 1172 1153 
Q 1172 725 1289 603 
Q 1406 481 1766 481 
L 2356 481 
L 2356 0 
L 1766 0 
Q 1100 0 847 248 
Q 594 497 594 1153 
L 594 3053 
L 172 3053 
L 172 3500 
L 594 3500 
L 594 4494 
L 1172 4494 
z
" id="DejaVuSans-74" transform="scale(0.015625)"/>
      <path d="M 2194 1759 
Q 1497 1759 1228 1600 
Q 959 1441 959 1056 
Q 959 750 1161 570 
Q 1363 391 1709 391 
Q 2188 391 2477 730 
Q 2766 1069 2766 1631 
L 2766 1759 
L 2194 1759 
z
M 3341 1997 
L 3341 0 
L 2766 0 
L 2766 531 
Q 2569 213 2275 61 
Q 1981 -91 1556 -91 
Q 1019 -91 701 211 
Q 384 513 384 1019 
Q 384 1609 779 1909 
Q 1175 2209 1959 2209 
L 2766 2209 
L 2766 2266 
Q 2766 2663 2505 2880 
Q 2244 3097 1772 3097 
Q 1472 3097 1187 3025 
Q 903 2953 641 2809 
L 641 3341 
Q 956 3463 1253 3523 
Q 1550 3584 1831 3584 
Q 2591 3584 2966 3190 
Q 3341 2797 3341 1997 
z
" id="DejaVuSans-61" transform="scale(0.015625)"/>
      <path d="M 1959 3097 
Q 1497 3097 1228 2736 
Q 959 2375 959 1747 
Q 959 1119 1226 758 
Q 1494 397 1959 397 
Q 2419 397 2687 759 
Q 2956 1122 2956 1747 
Q 2956 2369 2687 2733 
Q 2419 3097 1959 3097 
z
M 1959 3584 
Q 2709 3584 3137 3096 
Q 3566 2609 3566 1747 
Q 3566 888 3137 398 
Q 2709 -91 1959 -91 
Q 1206 -91 779 398 
Q 353 888 353 1747 
Q 353 2609 779 3096 
Q 1206 3584 1959 3584 
z
" id="DejaVuSans-6f" transform="scale(0.015625)"/>
      <path id="DejaVuSans-20" transform="scale(0.015625)"/>
      <path d="M 2375 4863 
L 2375 4384 
L 1825 4384 
Q 1516 4384 1395 4259 
Q 1275 4134 1275 3809 
L 1275 3500 
L 2222 3500 
L 2222 3053 
L 1275 3053 
L 1275 0 
L 697 0 
L 697 3053 
L 147 3053 
L 147 3500 
L 697 3500 
L 697 3744 
Q 697 4328 969 4595 
Q 1241 4863 1831 4863 
L 2375 4863 
z
" id="DejaVuSans-66" transform="scale(0.015625)"/>
      <path d="M 544 1381 
L 544 3500 
L 1119 3500 
L 1119 1403 
Q 1119 906 1312 657 
Q 1506 409 1894 409 
Q 2359 409 2629 706 
Q 2900 1003 2900 1516 
L 2900 3500 
L 3475 3500 
L 3475 0 
L 2900 0 
L 2900 538 
Q 2691 219 2414 64 
Q 2138 -91 1772 -91 
Q 1169 -91 856 284 
Q 544 659 544 1381 
z
M 1991 3584 
L 1991 3584 
z
" id="DejaVuSans-75" transform="scale(0.015625)"/>
      <path d="M 2906 2969 
L 2906 4863 
L 3481 4863 
L 3481 0 
L 2906 0 
L 2906 525 
Q 2725 213 2448 61 
Q 2172 -91 1784 -91 
Q 1150 -91 751 415 
Q 353 922 353 1747 
Q 353 2572 751 3078 
Q 1150 3584 1784 3584 
Q 2172 3584 2448 3432 
Q 2725 3281 2906 2969 
z
M 947 1747 
Q 947 1113 1208 752 
Q 1469 391 1925 391 
Q 2381 391 2643 752 
Q 2906 1113 2906 1747 
Q 2906 2381 2643 2742 
Q 2381 3103 1925 3103 
Q 1469 3103 1208 2742 
Q 947 2381 947 1747 
z
" id="DejaVuSans-64" transform="scale(0.015625)"/>
      <path d="M 2834 3397 
L 2834 2853 
Q 2591 2978 2328 3040 
Q 2066 3103 1784 3103 
Q 1356 3103 1142 2972 
Q 928 2841 928 2578 
Q 928 2378 1081 2264 
Q 1234 2150 1697 2047 
L 1894 2003 
Q 2506 1872 2764 1633 
Q 3022 1394 3022 966 
Q 3022 478 2636 193 
Q 2250 -91 1575 -91 
Q 1294 -91 989 -36 
Q 684 19 347 128 
L 347 722 
Q 666 556 975 473 
Q 1284 391 1588 391 
Q 1994 391 2212 530 
Q 2431 669 2431 922 
Q 2431 1156 2273 1281 
Q 2116 1406 1581 1522 
L 1381 1569 
Q 847 1681 609 1914 
Q 372 2147 372 2553 
Q 372 3047 722 3315 
Q 1072 3584 1716 3584 
Q 2034 3584 2315 3537 
Q 2597 3491 2834 3397 
z
" id="DejaVuSans-73" transform="scale(0.015625)"/>
     </defs>
     <use xlink:href="#DejaVuSans-4f"/>
     <use x="78.710938" xlink:href="#DejaVuSans-72"/>
     <use x="119.824219" xlink:href="#DejaVuSans-69"/>
     <use x="147.607422" xlink:href="#DejaVuSans-65"/>
     <use x="209.130859" xlink:href="#DejaVuSans-6e"/>
     <use x="272.509766" xlink:href="#DejaVuSans-74"/>
     <use x="311.71875" xlink:href="#DejaVuSans-61"/>
     <use x="372.998047" xlink:href="#DejaVuSans-74"/>
     <use x="412.207031" xlink:href="#DejaVuSans-69"/>
     <use x="439.990234" xlink:href="#DejaVuSans-6f"/>
     <use x="501.171875" xlink:href="#DejaVuSans-6e"/>
     <use x="564.550781" xlink:href="#DejaVuSans-20"/>
     <use x="596.337891" xlink:href="#DejaVuSans-6f"/>
     <use x="657.519531" xlink:href="#DejaVuSans-66"/>
     <use x="692.724609" xlink:href="#DejaVuSans-20"/>
     <use x="724.511719" xlink:href="#DejaVuSans-69"/>
     <use x="752.294922" xlink:href="#DejaVuSans-6e"/>
     <use x="815.673828" xlink:href="#DejaVuSans-74"/>
     <use x="854.882812" xlink:href="#DejaVuSans-72"/>
     <use x="895.996094" xlink:href="#DejaVuSans-75"/>
     <use x="959.375" xlink:href="#DejaVuSans-64"/>
     <use x="1022.851562" xlink:href="#DejaVuSans-65"/>
     <use x="1084.375" xlink:href="#DejaVuSans-72"/>
     <use x="1125.488281" xlink:href="#DejaVuSans-73"/>
    </g>
   </g>
   <g id="legend_1">
    <g id="patch_7">
     <path d="M 64.209375 289.118125 
L 149.415625 289.118125 
Q 151.415625 289.118125 151.415625 287.118125 
L 151.415625 214.7275 
Q 151.415625 212.7275 149.415625 212.7275 
L 64.209375 212.7275 
Q 62.209375 212.7275 62.209375 214.7275 
L 62.209375 287.118125 
Q 62.209375 289.118125 64.209375 289.118125 
z
" style="fill:#ffffff;opacity:0.8;stroke:#cccccc;stroke-linejoin:miter;"/>
    </g>
    <g id="line2d_19">
     <path d="M 66.209375 220.825938 
L 86.209375 220.825938 
" style="fill:none;stroke:#0000ff;stroke-linecap:square;stroke-width:1.5;"/>
    </g>
    <g id="line2d_20"/>
    <g id="text_17">
     <!-- intruder1 -->
     <g transform="translate(94.209375 224.325938)scale(0.1 -0.1)">
      <defs>
       <path d="M 4056 2131 
L 4056 0 
L 2931 0 
L 2931 347 
L 2931 1631 
Q 2931 2084 2911 2256 
Q 2891 2428 2841 2509 
Q 2775 2619 2662 2680 
Q 2550 2741 2406 2741 
Q 2056 2741 1856 2470 
Q 1656 2200 1656 1722 
L 1656 0 
L 538 0 
L 538 3500 
L 1656 3500 
L 1656 2988 
Q 1909 3294 2193 3439 
Q 2478 3584 2822 3584 
Q 3428 3584 3742 3212 
Q 4056 2841 4056 2131 
z
" id="DejaVuSans-Bold-6e" transform="scale(0.015625)"/>
       <path d="M 500 1363 
L 500 3500 
L 1625 3500 
L 1625 3150 
Q 1625 2866 1622 2436 
Q 1619 2006 1619 1863 
Q 1619 1441 1641 1255 
Q 1663 1069 1716 984 
Q 1784 875 1895 815 
Q 2006 756 2150 756 
Q 2500 756 2700 1025 
Q 2900 1294 2900 1772 
L 2900 3500 
L 4019 3500 
L 4019 0 
L 2900 0 
L 2900 506 
Q 2647 200 2364 54 
Q 2081 -91 1741 -91 
Q 1134 -91 817 281 
Q 500 653 500 1363 
z
" id="DejaVuSans-Bold-75" transform="scale(0.015625)"/>
      </defs>
      <use xlink:href="#DejaVuSans-Bold-69"/>
      <use x="34.277344" xlink:href="#DejaVuSans-Bold-6e"/>
      <use x="105.46875" xlink:href="#DejaVuSans-Bold-74"/>
      <use x="153.271484" xlink:href="#DejaVuSans-Bold-72"/>
      <use x="202.587891" xlink:href="#DejaVuSans-Bold-75"/>
      <use x="273.779297" xlink:href="#DejaVuSans-Bold-64"/>
      <use x="345.361328" xlink:href="#DejaVuSans-Bold-65"/>
      <use x="413.183594" xlink:href="#DejaVuSans-Bold-72"/>
      <use x="462.5" xlink:href="#DejaVuSans-Bold-31"/>
     </g>
    </g>
    <g id="line2d_21">
     <path d="M 66.209375 235.504063 
L 86.209375 235.504063 
" style="fill:none;stroke:#ffd700;stroke-linecap:square;stroke-width:1.5;"/>
    </g>
    <g id="line2d_22"/>
    <g id="text_18">
     <!-- intruder2 -->
     <g transform="translate(94.209375 239.004063)scale(0.1 -0.1)">
      <use xlink:href="#DejaVuSans-Bold-69"/>
      <use x="34.277344" xlink:href="#DejaVuSans-Bold-6e"/>
      <use x="105.46875" xlink:href="#DejaVuSans-Bold-74"/>
      <use x="153.271484" xlink:href="#DejaVuSans-Bold-72"/>
      <use x="202.587891" xlink:href="#DejaVuSans-Bold-75"/>
      <use x="273.779297" xlink:href="#DejaVuSans-Bold-64"/>
      <use x="345.361328" xlink:href="#DejaVuSans-Bold-65"/>
      <use x="413.183594" xlink:href="#DejaVuSans-Bold-72"/>
      <use x="462.5" xlink:href="#DejaVuSans-Bold-32"/>
     </g>
    </g>
    <g id="line2d_23">
     <path d="M 66.209375 250.182187 
L 86.209375 250.182187 
" style="fill:none;stroke:#ff1493;stroke-linecap:square;stroke-width:1.5;"/>
    </g>
    <g id="line2d_24"/>
    <g id="text_19">
     <!-- intruder3 -->
     <g transform="translate(94.209375 253.682187)scale(0.1 -0.1)">
      <use xlink:href="#DejaVuSans-Bold-69"/>
      <use x="34.277344" xlink:href="#DejaVuSans-Bold-6e"/>
      <use x="105.46875" xlink:href="#DejaVuSans-Bold-74"/>
      <use x="153.271484" xlink:href="#DejaVuSans-Bold-72"/>
      <use x="202.587891" xlink:href="#DejaVuSans-Bold-75"/>
      <use x="273.779297" xlink:href="#DejaVuSans-Bold-64"/>
      <use x="345.361328" xlink:href="#DejaVuSans-Bold-65"/>
      <use x="413.183594" xlink:href="#DejaVuSans-Bold-72"/>
      <use x="462.5" xlink:href="#DejaVuSans-Bold-33"/>
     </g>
    </g>
    <g id="line2d_25">
     <path d="M 66.209375 264.860313 
L 86.209375 264.860313 
" style="fill:none;stroke:#008000;stroke-linecap:square;stroke-width:1.5;"/>
    </g>
    <g id="line2d_26"/>
    <g id="text_20">
     <!-- intruder4 -->
     <g transform="translate(94.209375 268.360313)scale(0.1 -0.1)">
      <defs>
       <path d="M 2356 3675 
L 1038 1722 
L 2356 1722 
L 2356 3675 
z
M 2156 4666 
L 3494 4666 
L 3494 1722 
L 4159 1722 
L 4159 850 
L 3494 850 
L 3494 0 
L 2356 0 
L 2356 850 
L 288 850 
L 288 1881 
L 2156 4666 
z
" id="DejaVuSans-Bold-34" transform="scale(0.015625)"/>
      </defs>
      <use xlink:href="#DejaVuSans-Bold-69"/>
      <use x="34.277344" xlink:href="#DejaVuSans-Bold-6e"/>
      <use x="105.46875" xlink:href="#DejaVuSans-Bold-74"/>
      <use x="153.271484" xlink:href="#DejaVuSans-Bold-72"/>
      <use x="202.587891" xlink:href="#DejaVuSans-Bold-75"/>
      <use x="273.779297" xlink:href="#DejaVuSans-Bold-64"/>
      <use x="345.361328" xlink:href="#DejaVuSans-Bold-65"/>
      <use x="413.183594" xlink:href="#DejaVuSans-Bold-72"/>
      <use x="462.5" xlink:href="#DejaVuSans-Bold-34"/>
     </g>
    </g>
    <g id="line2d_27">
     <path d="M 66.209375 279.538437 
L 86.209375 279.538437 
" style="fill:none;stroke:#8fbc8f;stroke-linecap:square;stroke-width:1.5;"/>
    </g>
    <g id="line2d_28"/>
    <g id="text_21">
     <!-- intruder5 -->
     <g transform="translate(94.209375 283.038437)scale(0.1 -0.1)">
      <use xlink:href="#DejaVuSans-Bold-69"/>
      <use x="34.277344" xlink:href="#DejaVuSans-Bold-6e"/>
      <use x="105.46875" xlink:href="#DejaVuSans-Bold-74"/>
      <use x="153.271484" xlink:href="#DejaVuSans-Bold-72"/>
      <use x="202.587891" xlink:href="#DejaVuSans-Bold-75"/>
      <use x="273.779297" xlink:href="#DejaVuSans-Bold-64"/>
      <use x="345.361328" xlink:href="#DejaVuSans-Bold-65"/>
      <use x="413.183594" xlink:href="#DejaVuSans-Bold-72"/>
      <use x="462.5" xlink:href="#DejaVuSans-Bold-35"/>
     </g>
    </g>
   </g>
  </g>
 </g>
 <defs>
  <clipPath id="pe1556f776f">
   <rect height="271.8" width="558" x="57.209375" y="22.318125"/>
  </clipPath>
 </defs>
</svg>
