<?xml version="1.0" encoding="utf-8" standalone="no"?>
<!DOCTYPE svg PUBLIC "-//W3C//DTD SVG 1.1//EN"
  "http://www.w3.org/Graphics/SVG/1.1/DTD/svg11.dtd">
<svg height="331.674375pt" version="1.1" viewBox="0 0 613.951563 331.674375" width="613.951563pt" xmlns="http://www.w3.org/2000/svg" xmlns:xlink="http://www.w3.org/1999/xlink">
 <metadata>
  <rdf:RDF xmlns:cc="http://creativecommons.org/ns#" xmlns:dc="http://purl.org/dc/elements/1.1/" xmlns:rdf="http://www.w3.org/1999/02/22-rdf-syntax-ns#">
   <cc:Work>
    <dc:type rdf:resource="http://purl.org/dc/dcmitype/StillImage"/>
    <dc:date>2022-05-28T19:29:40.619120</dc:date>
    <dc:format>image/svg+xml</dc:format>
    <dc:creator>
     <cc:Agent>
      <dc:title>Matplotlib v3.4.3, https://matplotlib.org/</dc:title>
     </cc:Agent>
    </dc:creator>
   </cc:Work>
  </rdf:RDF>
 </metadata>
 <defs>
  <style type="text/css">*{stroke-linecap:butt;stroke-linejoin:round;}</style>
 </defs>
 <g id="figure_1">
  <g id="patch_1">
   <path d="M 0 331.674375 
L 613.951563 331.674375 
L 613.951563 0 
L 0 0 
z
" style="fill:none;"/>
  </g>
  <g id="axes_1">
   <g id="patch_2">
    <path d="M 48.751563 294.118125 
L 606.751562 294.118125 
L 606.751562 22.318125 
L 48.751563 22.318125 
z
" style="fill:#ffffff;"/>
   </g>
   <g id="matplotlib.axis_1">
    <g id="xtick_1">
     <g id="line2d_1">
      <defs>
       <path d="M 0 0 
L 0 3.5 
" id="m55ab936875" style="stroke:#000000;stroke-width:0.8;"/>
      </defs>
      <g>
       <use style="stroke:#000000;stroke-width:0.8;" x="115.119641" xlink:href="#m55ab936875" y="294.118125"/>
      </g>
     </g>
     <g id="text_1">
      <!-- −30 -->
      <g transform="translate(103.971985 308.716563)scale(0.1 -0.1)">
       <defs>
        <path d="M 678 2375 
L 4684 2375 
L 4684 1638 
L 678 1638 
L 678 2375 
z
" id="DejaVuSans-Bold-2212" transform="scale(0.015625)"/>
        <path d="M 2981 2516 
Q 3453 2394 3698 2092 
Q 3944 1791 3944 1325 
Q 3944 631 3412 270 
Q 2881 -91 1863 -91 
Q 1503 -91 1142 -33 
Q 781 25 428 141 
L 428 1069 
Q 766 900 1098 814 
Q 1431 728 1753 728 
Q 2231 728 2486 893 
Q 2741 1059 2741 1369 
Q 2741 1688 2480 1852 
Q 2219 2016 1709 2016 
L 1228 2016 
L 1228 2791 
L 1734 2791 
Q 2188 2791 2409 2933 
Q 2631 3075 2631 3366 
Q 2631 3634 2415 3781 
Q 2200 3928 1806 3928 
Q 1516 3928 1219 3862 
Q 922 3797 628 3669 
L 628 4550 
Q 984 4650 1334 4700 
Q 1684 4750 2022 4750 
Q 2931 4750 3382 4451 
Q 3834 4153 3834 3553 
Q 3834 3144 3618 2883 
Q 3403 2622 2981 2516 
z
" id="DejaVuSans-Bold-33" transform="scale(0.015625)"/>
        <path d="M 2944 2338 
Q 2944 3213 2780 3570 
Q 2616 3928 2228 3928 
Q 1841 3928 1675 3570 
Q 1509 3213 1509 2338 
Q 1509 1453 1675 1090 
Q 1841 728 2228 728 
Q 2613 728 2778 1090 
Q 2944 1453 2944 2338 
z
M 4147 2328 
Q 4147 1169 3647 539 
Q 3147 -91 2228 -91 
Q 1306 -91 806 539 
Q 306 1169 306 2328 
Q 306 3491 806 4120 
Q 1306 4750 2228 4750 
Q 3147 4750 3647 4120 
Q 4147 3491 4147 2328 
z
" id="DejaVuSans-Bold-30" transform="scale(0.015625)"/>
       </defs>
       <use xlink:href="#DejaVuSans-Bold-2212"/>
       <use x="83.789062" xlink:href="#DejaVuSans-Bold-33"/>
       <use x="153.369141" xlink:href="#DejaVuSans-Bold-30"/>
      </g>
     </g>
    </g>
    <g id="xtick_2">
     <g id="line2d_2">
      <g>
       <use style="stroke:#000000;stroke-width:0.8;" x="184.33869" xlink:href="#m55ab936875" y="294.118125"/>
      </g>
     </g>
     <g id="text_2">
      <!-- −20 -->
      <g transform="translate(173.191034 308.716563)scale(0.1 -0.1)">
       <defs>
        <path d="M 1844 884 
L 3897 884 
L 3897 0 
L 506 0 
L 506 884 
L 2209 2388 
Q 2438 2594 2547 2791 
Q 2656 2988 2656 3200 
Q 2656 3528 2436 3728 
Q 2216 3928 1850 3928 
Q 1569 3928 1234 3808 
Q 900 3688 519 3450 
L 519 4475 
Q 925 4609 1322 4679 
Q 1719 4750 2100 4750 
Q 2938 4750 3402 4381 
Q 3866 4013 3866 3353 
Q 3866 2972 3669 2642 
Q 3472 2313 2841 1759 
L 1844 884 
z
" id="DejaVuSans-Bold-32" transform="scale(0.015625)"/>
       </defs>
       <use xlink:href="#DejaVuSans-Bold-2212"/>
       <use x="83.789062" xlink:href="#DejaVuSans-Bold-32"/>
       <use x="153.369141" xlink:href="#DejaVuSans-Bold-30"/>
      </g>
     </g>
    </g>
    <g id="xtick_3">
     <g id="line2d_3">
      <g>
       <use style="stroke:#000000;stroke-width:0.8;" x="253.55774" xlink:href="#m55ab936875" y="294.118125"/>
      </g>
     </g>
     <g id="text_3">
      <!-- −10 -->
      <g transform="translate(242.410084 308.716563)scale(0.1 -0.1)">
       <defs>
        <path d="M 750 831 
L 1813 831 
L 1813 3847 
L 722 3622 
L 722 4441 
L 1806 4666 
L 2950 4666 
L 2950 831 
L 4013 831 
L 4013 0 
L 750 0 
L 750 831 
z
" id="DejaVuSans-Bold-31" transform="scale(0.015625)"/>
       </defs>
       <use xlink:href="#DejaVuSans-Bold-2212"/>
       <use x="83.789062" xlink:href="#DejaVuSans-Bold-31"/>
       <use x="153.369141" xlink:href="#DejaVuSans-Bold-30"/>
      </g>
     </g>
    </g>
    <g id="xtick_4">
     <g id="line2d_4">
      <g>
       <use style="stroke:#000000;stroke-width:0.8;" x="322.776789" xlink:href="#m55ab936875" y="294.118125"/>
      </g>
     </g>
     <g id="text_4">
      <!-- 0 -->
      <g transform="translate(319.297883 308.716563)scale(0.1 -0.1)">
       <use xlink:href="#DejaVuSans-Bold-30"/>
      </g>
     </g>
    </g>
    <g id="xtick_5">
     <g id="line2d_5">
      <g>
       <use style="stroke:#000000;stroke-width:0.8;" x="391.995839" xlink:href="#m55ab936875" y="294.118125"/>
      </g>
     </g>
     <g id="text_5">
      <!-- 10 -->
      <g transform="translate(385.038026 308.716563)scale(0.1 -0.1)">
       <use xlink:href="#DejaVuSans-Bold-31"/>
       <use x="69.580078" xlink:href="#DejaVuSans-Bold-30"/>
      </g>
     </g>
    </g>
    <g id="xtick_6">
     <g id="line2d_6">
      <g>
       <use style="stroke:#000000;stroke-width:0.8;" x="461.214888" xlink:href="#m55ab936875" y="294.118125"/>
      </g>
     </g>
     <g id="text_6">
      <!-- 20 -->
      <g transform="translate(454.257076 308.716563)scale(0.1 -0.1)">
       <use xlink:href="#DejaVuSans-Bold-32"/>
       <use x="69.580078" xlink:href="#DejaVuSans-Bold-30"/>
      </g>
     </g>
    </g>
    <g id="xtick_7">
     <g id="line2d_7">
      <g>
       <use style="stroke:#000000;stroke-width:0.8;" x="530.433938" xlink:href="#m55ab936875" y="294.118125"/>
      </g>
     </g>
     <g id="text_7">
      <!-- 30 -->
      <g transform="translate(523.476125 308.716563)scale(0.1 -0.1)">
       <use xlink:href="#DejaVuSans-Bold-33"/>
       <use x="69.580078" xlink:href="#DejaVuSans-Bold-30"/>
      </g>
     </g>
    </g>
    <g id="xtick_8">
     <g id="line2d_8">
      <g>
       <use style="stroke:#000000;stroke-width:0.8;" x="599.652987" xlink:href="#m55ab936875" y="294.118125"/>
      </g>
     </g>
     <g id="text_8">
      <!-- 40 -->
      <g transform="translate(592.695175 308.716563)scale(0.1 -0.1)">
       <defs>
        <path d="M 2356 3675 
L 1038 1722 
L 2356 1722 
L 2356 3675 
z
M 2156 4666 
L 3494 4666 
L 3494 1722 
L 4159 1722 
L 4159 850 
L 3494 850 
L 3494 0 
L 2356 0 
L 2356 850 
L 288 850 
L 288 1881 
L 2156 4666 
z
" id="DejaVuSans-Bold-34" transform="scale(0.015625)"/>
       </defs>
       <use xlink:href="#DejaVuSans-Bold-34"/>
       <use x="69.580078" xlink:href="#DejaVuSans-Bold-30"/>
      </g>
     </g>
    </g>
    <g id="text_9">
     <!-- X -->
     <g transform="translate(323.896875 322.394687)scale(0.1 -0.1)">
      <defs>
       <path d="M 3188 2381 
L 4806 0 
L 3553 0 
L 2463 1594 
L 1381 0 
L 122 0 
L 1741 2381 
L 184 4666 
L 1441 4666 
L 2463 3163 
L 3481 4666 
L 4744 4666 
L 3188 2381 
z
" id="DejaVuSans-Bold-58" transform="scale(0.015625)"/>
      </defs>
      <use xlink:href="#DejaVuSans-Bold-58"/>
     </g>
    </g>
   </g>
   <g id="matplotlib.axis_2">
    <g id="ytick_1">
     <g id="line2d_9">
      <defs>
       <path d="M 0 0 
L -3.5 0 
" id="m34981b6ffe" style="stroke:#000000;stroke-width:0.8;"/>
      </defs>
      <g>
       <use style="stroke:#000000;stroke-width:0.8;" x="48.751563" xlink:href="#m34981b6ffe" y="287.579328"/>
      </g>
     </g>
     <g id="text_10">
      <!-- 0 -->
      <g transform="translate(34.79375 291.378547)scale(0.1 -0.1)">
       <use xlink:href="#DejaVuSans-Bold-30"/>
      </g>
     </g>
    </g>
    <g id="ytick_2">
     <g id="line2d_10">
      <g>
       <use style="stroke:#000000;stroke-width:0.8;" x="48.751563" xlink:href="#m34981b6ffe" y="252.0361"/>
      </g>
     </g>
     <g id="text_11">
      <!-- 20 -->
      <g transform="translate(27.835938 255.835319)scale(0.1 -0.1)">
       <use xlink:href="#DejaVuSans-Bold-32"/>
       <use x="69.580078" xlink:href="#DejaVuSans-Bold-30"/>
      </g>
     </g>
    </g>
    <g id="ytick_3">
     <g id="line2d_11">
      <g>
       <use style="stroke:#000000;stroke-width:0.8;" x="48.751563" xlink:href="#m34981b6ffe" y="216.492871"/>
      </g>
     </g>
     <g id="text_12">
      <!-- 40 -->
      <g transform="translate(27.835938 220.29209)scale(0.1 -0.1)">
       <use xlink:href="#DejaVuSans-Bold-34"/>
       <use x="69.580078" xlink:href="#DejaVuSans-Bold-30"/>
      </g>
     </g>
    </g>
    <g id="ytick_4">
     <g id="line2d_12">
      <g>
       <use style="stroke:#000000;stroke-width:0.8;" x="48.751563" xlink:href="#m34981b6ffe" y="180.949643"/>
      </g>
     </g>
     <g id="text_13">
      <!-- 60 -->
      <g transform="translate(27.835938 184.748862)scale(0.1 -0.1)">
       <defs>
        <path d="M 2316 2303 
Q 2000 2303 1842 2098 
Q 1684 1894 1684 1484 
Q 1684 1075 1842 870 
Q 2000 666 2316 666 
Q 2634 666 2792 870 
Q 2950 1075 2950 1484 
Q 2950 1894 2792 2098 
Q 2634 2303 2316 2303 
z
M 3803 4544 
L 3803 3681 
Q 3506 3822 3243 3889 
Q 2981 3956 2731 3956 
Q 2194 3956 1894 3657 
Q 1594 3359 1544 2772 
Q 1750 2925 1990 3001 
Q 2231 3078 2516 3078 
Q 3231 3078 3670 2659 
Q 4109 2241 4109 1563 
Q 4109 813 3618 361 
Q 3128 -91 2303 -91 
Q 1394 -91 895 523 
Q 397 1138 397 2266 
Q 397 3422 980 4083 
Q 1563 4744 2578 4744 
Q 2900 4744 3203 4694 
Q 3506 4644 3803 4544 
z
" id="DejaVuSans-Bold-36" transform="scale(0.015625)"/>
       </defs>
       <use xlink:href="#DejaVuSans-Bold-36"/>
       <use x="69.580078" xlink:href="#DejaVuSans-Bold-30"/>
      </g>
     </g>
    </g>
    <g id="ytick_5">
     <g id="line2d_13">
      <g>
       <use style="stroke:#000000;stroke-width:0.8;" x="48.751563" xlink:href="#m34981b6ffe" y="145.406414"/>
      </g>
     </g>
     <g id="text_14">
      <!-- 80 -->
      <g transform="translate(27.835938 149.205633)scale(0.1 -0.1)">
       <defs>
        <path d="M 2228 2088 
Q 1891 2088 1709 1903 
Q 1528 1719 1528 1375 
Q 1528 1031 1709 848 
Q 1891 666 2228 666 
Q 2563 666 2741 848 
Q 2919 1031 2919 1375 
Q 2919 1722 2741 1905 
Q 2563 2088 2228 2088 
z
M 1350 2484 
Q 925 2613 709 2878 
Q 494 3144 494 3541 
Q 494 4131 934 4440 
Q 1375 4750 2228 4750 
Q 3075 4750 3515 4442 
Q 3956 4134 3956 3541 
Q 3956 3144 3739 2878 
Q 3522 2613 3097 2484 
Q 3572 2353 3814 2058 
Q 4056 1763 4056 1313 
Q 4056 619 3595 264 
Q 3134 -91 2228 -91 
Q 1319 -91 855 264 
Q 391 619 391 1313 
Q 391 1763 633 2058 
Q 875 2353 1350 2484 
z
M 1631 3419 
Q 1631 3141 1786 2991 
Q 1941 2841 2228 2841 
Q 2509 2841 2662 2991 
Q 2816 3141 2816 3419 
Q 2816 3697 2662 3845 
Q 2509 3994 2228 3994 
Q 1941 3994 1786 3844 
Q 1631 3694 1631 3419 
z
" id="DejaVuSans-Bold-38" transform="scale(0.015625)"/>
       </defs>
       <use xlink:href="#DejaVuSans-Bold-38"/>
       <use x="69.580078" xlink:href="#DejaVuSans-Bold-30"/>
      </g>
     </g>
    </g>
    <g id="ytick_6">
     <g id="line2d_14">
      <g>
       <use style="stroke:#000000;stroke-width:0.8;" x="48.751563" xlink:href="#m34981b6ffe" y="109.863186"/>
      </g>
     </g>
     <g id="text_15">
      <!-- 100 -->
      <g transform="translate(20.878125 113.662404)scale(0.1 -0.1)">
       <use xlink:href="#DejaVuSans-Bold-31"/>
       <use x="69.580078" xlink:href="#DejaVuSans-Bold-30"/>
       <use x="139.160156" xlink:href="#DejaVuSans-Bold-30"/>
      </g>
     </g>
    </g>
    <g id="ytick_7">
     <g id="line2d_15">
      <g>
       <use style="stroke:#000000;stroke-width:0.8;" x="48.751563" xlink:href="#m34981b6ffe" y="74.319957"/>
      </g>
     </g>
     <g id="text_16">
      <!-- 120 -->
      <g transform="translate(20.878125 78.119176)scale(0.1 -0.1)">
       <use xlink:href="#DejaVuSans-Bold-31"/>
       <use x="69.580078" xlink:href="#DejaVuSans-Bold-32"/>
       <use x="139.160156" xlink:href="#DejaVuSans-Bold-30"/>
      </g>
     </g>
    </g>
    <g id="ytick_8">
     <g id="line2d_16">
      <g>
       <use style="stroke:#000000;stroke-width:0.8;" x="48.751563" xlink:href="#m34981b6ffe" y="38.776729"/>
      </g>
     </g>
     <g id="text_17">
      <!-- 140 -->
      <g transform="translate(20.878125 42.575947)scale(0.1 -0.1)">
       <use xlink:href="#DejaVuSans-Bold-31"/>
       <use x="69.580078" xlink:href="#DejaVuSans-Bold-34"/>
       <use x="139.160156" xlink:href="#DejaVuSans-Bold-30"/>
      </g>
     </g>
    </g>
    <g id="text_18">
     <!-- Y -->
     <g transform="translate(14.798438 161.838438)rotate(-90)scale(0.1 -0.1)">
      <defs>
       <path d="M -63 4666 
L 1253 4666 
L 2316 3003 
L 3378 4666 
L 4697 4666 
L 2919 1966 
L 2919 0 
L 1716 0 
L 1716 1966 
L -63 4666 
z
" id="DejaVuSans-Bold-59" transform="scale(0.015625)"/>
      </defs>
      <use xlink:href="#DejaVuSans-Bold-59"/>
     </g>
    </g>
   </g>
   <g id="line2d_17">
    <path clip-path="url(#pb8af748238)" d="M 184.33869 34.67267 
L 184.33869 34.894816 
L 184.33869 35.561251 
L 184.33869 36.671977 
L 184.33869 38.226993 
L 184.33869 40.2263 
L 184.33869 42.669897 
L 184.33869 45.557784 
L 184.33869 48.889962 
L 184.33869 52.66643 
L 184.33869 56.887188 
L 184.33869 61.552237 
L 184.33869 66.661576 
L 184.342844 72.199804 
L 184.204175 78.041926 
L 183.436535 83.929661 
L 181.837345 89.807919 
L 179.332307 95.504906 
L 176.121697 101.17879 
L 172.359872 106.890765 
L 168.234417 112.695507 
L 163.753637 118.555934 
L 158.88823 124.489757 
L 153.573822 130.451245 
L 147.901321 136.421382 
L 142.062002 142.380915 
L 136.060018 148.340389 
L 129.981202 154.128782 
L 123.954299 159.805865 
L 117.820568 165.371994 
L 111.74129 170.871242 
L 105.657166 176.153143 
L 99.623111 181.197971 
L 94.021905 185.919534 
L 88.816402 190.4712 
L 84.062668 194.855931 
L 80.057654 199.044937 
L 77.187371 203.017782 
L 75.313842 206.864388 
L 74.314319 210.617516 
L 74.115199 214.397183 
L 74.691563 218.190712 
L 76.077097 222.028078 
L 77.973238 225.988719 
L 80.421977 229.976314 
L 83.244038 234.040623 
L 86.373431 238.161386 
L 89.752936 242.170721 
L 93.096677 245.915971 
L 96.182924 249.217759 
L 98.919845 252.215534 
L 101.489256 255.176522 
L 104.044362 258.3157 
L 106.542247 261.638992 
L 108.890388 265.047528 
L 111.061789 268.52849 
L 112.643906 271.559243 
L 113.631431 274.118255 
L 114.206411 276.413571 
L 114.703173 278.305022 
L 115.345756 280.170029 
L 115.853824 281.744487 
L 115.761763 281.76358 
L 115.272846 281.319579 
L 114.270323 281.375726 
L 113.630047 281.606319 
L 113.929304 281.588381 
L 114.154035 281.626691 
L 114.330082 281.645096 
L 114.316469 281.649284 
L 114.24725 281.643491 
L 114.292243 281.657436 
L 114.293165 281.636767 
L 114.277245 281.652542 
L 114.310239 281.646702 
L 114.277014 281.645546 
L 114.287859 281.654456 
L 114.316931 281.642673 
L 114.276553 281.649794 
" style="fill:none;stroke:#0000ff;stroke-linecap:square;stroke-width:1.5;"/>
   </g>
   <g id="line2d_18">
    <path clip-path="url(#pb8af748238)" d="M 253.55774 34.67267 
L 253.55774 34.894816 
L 253.55774 35.561251 
L 253.55774 36.671977 
L 253.55774 38.226993 
L 253.55774 40.2263 
L 253.55774 42.669897 
L 253.55774 45.557784 
L 253.55774 48.889962 
L 253.55774 52.66643 
L 253.55774 56.887188 
L 253.55774 61.552237 
L 253.55774 66.661576 
L 253.574076 72.195657 
L 253.605916 77.971431 
L 253.439191 83.548756 
L 252.878286 88.794937 
L 252.052456 93.610452 
L 250.900236 98.244697 
L 249.36888 102.80667 
L 247.440968 107.410999 
L 245.172314 112.076522 
L 242.654609 116.856257 
L 239.783934 121.72947 
L 236.582229 126.707062 
L 233.194188 131.8539 
L 229.594336 137.182837 
L 225.842202 142.695354 
L 221.93894 148.40573 
L 217.908545 154.299389 
L 213.730483 160.374438 
L 209.518273 166.577146 
L 205.373667 172.878723 
L 201.371422 179.221176 
L 197.527227 185.577312 
L 193.845696 191.937713 
L 190.373669 198.27673 
L 187.281423 204.51741 
L 184.555346 210.622848 
L 182.266272 216.601752 
L 180.299528 222.471479 
L 178.677264 228.22421 
L 177.356334 233.736432 
L 176.250675 239.072418 
L 175.487651 244.173997 
L 175.085719 249.020672 
L 175.22508 253.548346 
L 176.81158 257.414975 
L 179.728009 260.463577 
L 183.646731 262.477101 
L 188.100284 263.517096 
L 192.878014 264.305149 
L 197.747805 265.283417 
L 202.597291 266.546522 
L 207.432011 268.010346 
L 211.801118 269.628926 
L 215.585092 270.928742 
L 217.626593 271.670464 
L 218.044214 272.245897 
L 217.975918 272.69184 
L 217.64459 273.324995 
L 217.179207 273.965176 
L 216.577001 274.775313 
L 215.804517 275.639659 
L 214.843756 276.199311 
L 214.605181 276.491867 
L 214.553036 276.688765 
L 214.592491 276.699623 
L 214.715009 276.788647 
L 214.776614 276.792196 
L 214.654788 276.75481 
L 214.628254 276.796188 
L 214.70278 276.785342 
L 214.725853 276.774329 
L 214.68686 276.802716 
L 214.640714 276.776711 
L 214.682707 276.788706 
L 214.71847 276.794476 
L 214.668632 276.775668 
" style="fill:none;stroke:#ffd700;stroke-linecap:square;stroke-width:1.5;"/>
   </g>
   <g id="line2d_19">
    <path clip-path="url(#pb8af748238)" d="M 322.776789 34.67267 
L 322.776789 34.894816 
L 322.776789 35.561251 
L 322.776789 36.671977 
L 322.776789 38.226993 
L 322.776789 40.2263 
L 322.776789 42.669897 
L 322.776789 45.557784 
L 322.776789 48.889962 
L 322.776789 52.66643 
L 322.776789 56.887188 
L 322.776789 61.552237 
L 322.776789 66.661576 
L 322.786746 72.197434 
L 322.779379 77.973801 
L 322.953457 83.520322 
L 323.254551 88.685938 
L 323.269518 93.361057 
L 323.151977 97.758939 
L 322.94489 101.994507 
L 322.625077 106.176701 
L 322.011114 110.300308 
L 321.169124 114.384047 
L 320.274698 118.520628 
L 319.248395 122.795589 
L 318.100789 127.188081 
L 316.844971 131.75503 
L 315.36809 136.442294 
L 313.776029 141.341276 
L 312.069913 146.430652 
L 310.262484 151.759766 
L 308.358443 157.28431 
L 306.232408 162.958905 
L 303.934367 168.757249 
L 301.49246 174.701025 
L 299.029072 180.841769 
L 296.605344 187.164317 
L 294.202381 193.660138 
L 291.960792 200.318629 
L 289.921921 207.143344 
L 288.077534 214.142338 
L 286.458569 221.280426 
L 285.191699 228.530889 
L 284.193676 235.85469 
L 283.570635 243.224815 
L 283.463046 250.554717 
L 283.934012 257.713479 
L 284.941288 264.232522 
L 285.964738 269.377292 
L 287.537856 272.654117 
L 289.376198 274.669524 
L 291.197836 276.214938 
L 293.154336 277.794396 
L 295.242351 279.351711 
L 297.59776 280.563468 
L 299.562405 280.903469 
L 300.9544 280.899429 
L 301.894948 280.808112 
L 302.470043 280.961167 
L 302.633354 280.897249 
L 302.431811 280.969088 
L 302.374544 280.924878 
L 302.340442 280.980467 
L 302.170278 281.005851 
L 302.049537 280.981783 
L 301.80231 280.981332 
L 301.856878 280.974923 
L 302.101475 280.986385 
L 302.077133 280.994507 
L 302.034332 280.98465 
L 302.055029 280.995769 
L 302.002076 280.985248 
L 302.032763 280.988494 
L 302.102421 280.991273 
L 302.028402 280.988358 
L 302.020881 280.991592 
L 302.060382 280.988453 
L 302.041762 280.990745 
L 302.052698 280.98741 
" style="fill:none;stroke:#ff1493;stroke-linecap:square;stroke-width:1.5;"/>
   </g>
   <g id="line2d_20">
    <path clip-path="url(#pb8af748238)" d="M 391.995839 34.67267 
L 391.995839 34.894816 
L 391.995839 35.561251 
L 391.995839 36.671977 
L 391.995839 38.226993 
L 391.995839 40.2263 
L 391.995839 42.669897 
L 391.995839 45.557784 
L 391.995839 48.889962 
L 391.995839 52.66643 
L 391.995839 56.887188 
L 391.995839 61.552237 
L 391.995839 66.661576 
L 392.000084 72.202765 
L 392.036009 77.996904 
L 392.219901 83.637022 
L 392.592553 88.922893 
L 393.203204 93.747293 
L 394.331613 98.402864 
L 395.808378 102.967207 
L 397.673716 107.527048 
L 400.041723 112.080668 
L 402.880096 116.683872 
L 405.987547 121.426168 
L 409.344901 126.324025 
L 413.002898 131.426433 
L 416.927618 136.728239 
L 421.266037 142.188449 
L 425.776119 147.81897 
L 430.414488 153.664469 
L 435.095772 159.733949 
L 439.865888 165.962307 
L 444.585243 172.29457 
L 449.211613 178.712848 
L 453.553032 185.205648 
L 457.627496 191.706031 
L 461.273032 198.228509 
L 464.428267 204.734697 
L 466.866162 211.216598 
L 468.629172 217.679423 
L 469.879498 224.140352 
L 470.378798 230.472082 
L 470.384336 236.75423 
L 469.934181 242.978145 
L 469.080941 249.098097 
L 467.853687 255.051114 
L 466.183663 260.734476 
L 464.419038 265.676525 
L 462.570659 269.069949 
L 459.999863 270.85881 
L 457.559892 271.474609 
L 455.893097 271.873214 
L 454.20346 272.464334 
L 452.35485 273.260632 
L 450.602224 274.188601 
L 449.168697 274.682006 
L 448.134103 274.918114 
L 448.465201 274.880835 
L 448.980652 274.759117 
L 449.398043 274.865699 
L 449.487336 275.012919 
L 449.36551 275.240325 
L 449.359511 275.569799 
L 449.278756 275.882366 
L 449.252452 276.11079 
L 449.471646 276.249433 
L 449.429422 276.308322 
L 449.155546 276.340234 
L 449.039258 276.363769 
L 449.052871 276.354635 
L 449.053332 276.357484 
L 449.080328 276.363574 
L 449.091864 276.351578 
L 449.033028 276.356981 
L 449.074098 276.361044 
L 449.126012 276.356596 
L 449.059331 276.363349 
L 449.044564 276.352538 
L 449.108015 276.36041 
" style="fill:none;stroke:#008000;stroke-linecap:square;stroke-width:1.5;"/>
   </g>
   <g id="line2d_21">
    <path clip-path="url(#pb8af748238)" d="M 461.214888 34.67267 
L 461.214888 34.894816 
L 461.214888 35.561251 
L 461.214888 36.671977 
L 461.214888 38.226993 
L 461.214888 40.2263 
L 461.214888 42.669897 
L 461.214888 45.557784 
L 461.214888 48.889962 
L 461.214888 52.66643 
L 461.214888 56.887188 
L 461.214888 61.552237 
L 461.214888 66.661576 
L 461.210505 72.195657 
L 461.266341 78.046072 
L 461.79679 83.955134 
L 463.187401 89.861234 
L 465.4654 95.625753 
L 468.263003 101.470837 
L 471.504531 107.39459 
L 475.301888 113.350154 
L 479.495409 119.28226 
L 484.054175 125.187945 
L 488.826367 131.059331 
L 493.763301 136.9569 
L 498.746149 142.86069 
L 503.632553 148.75743 
L 508.618862 154.604409 
L 513.630783 160.334333 
L 518.358444 165.980849 
L 523.17609 171.527785 
L 528.133789 176.888414 
L 533.103024 182.035785 
L 538.278071 186.961602 
L 543.350674 191.588323 
L 548.251613 195.997816 
L 552.950664 200.164727 
L 557.418292 204.127441 
L 561.603507 207.883472 
L 565.389789 211.599754 
L 568.808518 215.349209 
L 572.093192 219.162168 
L 575.093377 223.082764 
L 577.641791 227.167865 
L 579.546469 231.352133 
L 580.765416 235.577156 
L 581.387926 239.802061 
L 580.988532 243.90612 
L 579.44887 247.589405 
L 576.87669 250.525217 
L 574.002715 252.928709 
L 571.268332 255.392684 
L 568.513875 257.973122 
L 565.780876 260.732817 
L 563.049723 263.6771 
L 560.565452 266.514693 
L 558.661005 269.084226 
L 557.556269 271.191655 
L 557.571728 272.810548 
L 557.776155 274.336194 
L 557.558115 275.552306 
L 557.441365 276.735196 
L 557.001132 277.794047 
L 556.562975 278.500687 
L 556.959601 278.865728 
L 557.211097 278.83435 
L 556.884152 278.692799 
L 556.938604 278.793795 
L 556.929606 278.918581 
L 556.574281 278.837424 
L 556.767402 278.871966 
L 556.9183 278.880307 
L 556.686416 278.835232 
L 556.759096 278.89594 
L 556.830622 278.857861 
L 556.78563 278.858217 
L 556.800628 278.88555 
L 556.766018 278.850919 
L 556.797628 278.882913 
" style="fill:none;stroke:#8fbc8f;stroke-linecap:square;stroke-width:1.5;"/>
   </g>
   <g id="patch_3">
    <path d="M 48.751563 294.118125 
L 48.751563 22.318125 
" style="fill:none;stroke:#000000;stroke-linecap:square;stroke-linejoin:miter;stroke-width:0.8;"/>
   </g>
   <g id="patch_4">
    <path d="M 606.751562 294.118125 
L 606.751562 22.318125 
" style="fill:none;stroke:#000000;stroke-linecap:square;stroke-linejoin:miter;stroke-width:0.8;"/>
   </g>
   <g id="patch_5">
    <path d="M 48.751562 294.118125 
L 606.751562 294.118125 
" style="fill:none;stroke:#000000;stroke-linecap:square;stroke-linejoin:miter;stroke-width:0.8;"/>
   </g>
   <g id="patch_6">
    <path d="M 48.751562 22.318125 
L 606.751562 22.318125 
" style="fill:none;stroke:#000000;stroke-linecap:square;stroke-linejoin:miter;stroke-width:0.8;"/>
   </g>
   <g id="text_19">
    <!-- Center of mass of intruders -->
    <g transform="translate(245.40625 16.318125)scale(0.12 -0.12)">
     <defs>
      <path d="M 4122 4306 
L 4122 3641 
Q 3803 3938 3442 4084 
Q 3081 4231 2675 4231 
Q 1875 4231 1450 3742 
Q 1025 3253 1025 2328 
Q 1025 1406 1450 917 
Q 1875 428 2675 428 
Q 3081 428 3442 575 
Q 3803 722 4122 1019 
L 4122 359 
Q 3791 134 3420 21 
Q 3050 -91 2638 -91 
Q 1578 -91 968 557 
Q 359 1206 359 2328 
Q 359 3453 968 4101 
Q 1578 4750 2638 4750 
Q 3056 4750 3426 4639 
Q 3797 4528 4122 4306 
z
" id="DejaVuSans-43" transform="scale(0.015625)"/>
      <path d="M 3597 1894 
L 3597 1613 
L 953 1613 
Q 991 1019 1311 708 
Q 1631 397 2203 397 
Q 2534 397 2845 478 
Q 3156 559 3463 722 
L 3463 178 
Q 3153 47 2828 -22 
Q 2503 -91 2169 -91 
Q 1331 -91 842 396 
Q 353 884 353 1716 
Q 353 2575 817 3079 
Q 1281 3584 2069 3584 
Q 2775 3584 3186 3129 
Q 3597 2675 3597 1894 
z
M 3022 2063 
Q 3016 2534 2758 2815 
Q 2500 3097 2075 3097 
Q 1594 3097 1305 2825 
Q 1016 2553 972 2059 
L 3022 2063 
z
" id="DejaVuSans-65" transform="scale(0.015625)"/>
      <path d="M 3513 2113 
L 3513 0 
L 2938 0 
L 2938 2094 
Q 2938 2591 2744 2837 
Q 2550 3084 2163 3084 
Q 1697 3084 1428 2787 
Q 1159 2491 1159 1978 
L 1159 0 
L 581 0 
L 581 3500 
L 1159 3500 
L 1159 2956 
Q 1366 3272 1645 3428 
Q 1925 3584 2291 3584 
Q 2894 3584 3203 3211 
Q 3513 2838 3513 2113 
z
" id="DejaVuSans-6e" transform="scale(0.015625)"/>
      <path d="M 1172 4494 
L 1172 3500 
L 2356 3500 
L 2356 3053 
L 1172 3053 
L 1172 1153 
Q 1172 725 1289 603 
Q 1406 481 1766 481 
L 2356 481 
L 2356 0 
L 1766 0 
Q 1100 0 847 248 
Q 594 497 594 1153 
L 594 3053 
L 172 3053 
L 172 3500 
L 594 3500 
L 594 4494 
L 1172 4494 
z
" id="DejaVuSans-74" transform="scale(0.015625)"/>
      <path d="M 2631 2963 
Q 2534 3019 2420 3045 
Q 2306 3072 2169 3072 
Q 1681 3072 1420 2755 
Q 1159 2438 1159 1844 
L 1159 0 
L 581 0 
L 581 3500 
L 1159 3500 
L 1159 2956 
Q 1341 3275 1631 3429 
Q 1922 3584 2338 3584 
Q 2397 3584 2469 3576 
Q 2541 3569 2628 3553 
L 2631 2963 
z
" id="DejaVuSans-72" transform="scale(0.015625)"/>
      <path id="DejaVuSans-20" transform="scale(0.015625)"/>
      <path d="M 1959 3097 
Q 1497 3097 1228 2736 
Q 959 2375 959 1747 
Q 959 1119 1226 758 
Q 1494 397 1959 397 
Q 2419 397 2687 759 
Q 2956 1122 2956 1747 
Q 2956 2369 2687 2733 
Q 2419 3097 1959 3097 
z
M 1959 3584 
Q 2709 3584 3137 3096 
Q 3566 2609 3566 1747 
Q 3566 888 3137 398 
Q 2709 -91 1959 -91 
Q 1206 -91 779 398 
Q 353 888 353 1747 
Q 353 2609 779 3096 
Q 1206 3584 1959 3584 
z
" id="DejaVuSans-6f" transform="scale(0.015625)"/>
      <path d="M 2375 4863 
L 2375 4384 
L 1825 4384 
Q 1516 4384 1395 4259 
Q 1275 4134 1275 3809 
L 1275 3500 
L 2222 3500 
L 2222 3053 
L 1275 3053 
L 1275 0 
L 697 0 
L 697 3053 
L 147 3053 
L 147 3500 
L 697 3500 
L 697 3744 
Q 697 4328 969 4595 
Q 1241 4863 1831 4863 
L 2375 4863 
z
" id="DejaVuSans-66" transform="scale(0.015625)"/>
      <path d="M 3328 2828 
Q 3544 3216 3844 3400 
Q 4144 3584 4550 3584 
Q 5097 3584 5394 3201 
Q 5691 2819 5691 2113 
L 5691 0 
L 5113 0 
L 5113 2094 
Q 5113 2597 4934 2840 
Q 4756 3084 4391 3084 
Q 3944 3084 3684 2787 
Q 3425 2491 3425 1978 
L 3425 0 
L 2847 0 
L 2847 2094 
Q 2847 2600 2669 2842 
Q 2491 3084 2119 3084 
Q 1678 3084 1418 2786 
Q 1159 2488 1159 1978 
L 1159 0 
L 581 0 
L 581 3500 
L 1159 3500 
L 1159 2956 
Q 1356 3278 1631 3431 
Q 1906 3584 2284 3584 
Q 2666 3584 2933 3390 
Q 3200 3197 3328 2828 
z
" id="DejaVuSans-6d" transform="scale(0.015625)"/>
      <path d="M 2194 1759 
Q 1497 1759 1228 1600 
Q 959 1441 959 1056 
Q 959 750 1161 570 
Q 1363 391 1709 391 
Q 2188 391 2477 730 
Q 2766 1069 2766 1631 
L 2766 1759 
L 2194 1759 
z
M 3341 1997 
L 3341 0 
L 2766 0 
L 2766 531 
Q 2569 213 2275 61 
Q 1981 -91 1556 -91 
Q 1019 -91 701 211 
Q 384 513 384 1019 
Q 384 1609 779 1909 
Q 1175 2209 1959 2209 
L 2766 2209 
L 2766 2266 
Q 2766 2663 2505 2880 
Q 2244 3097 1772 3097 
Q 1472 3097 1187 3025 
Q 903 2953 641 2809 
L 641 3341 
Q 956 3463 1253 3523 
Q 1550 3584 1831 3584 
Q 2591 3584 2966 3190 
Q 3341 2797 3341 1997 
z
" id="DejaVuSans-61" transform="scale(0.015625)"/>
      <path d="M 2834 3397 
L 2834 2853 
Q 2591 2978 2328 3040 
Q 2066 3103 1784 3103 
Q 1356 3103 1142 2972 
Q 928 2841 928 2578 
Q 928 2378 1081 2264 
Q 1234 2150 1697 2047 
L 1894 2003 
Q 2506 1872 2764 1633 
Q 3022 1394 3022 966 
Q 3022 478 2636 193 
Q 2250 -91 1575 -91 
Q 1294 -91 989 -36 
Q 684 19 347 128 
L 347 722 
Q 666 556 975 473 
Q 1284 391 1588 391 
Q 1994 391 2212 530 
Q 2431 669 2431 922 
Q 2431 1156 2273 1281 
Q 2116 1406 1581 1522 
L 1381 1569 
Q 847 1681 609 1914 
Q 372 2147 372 2553 
Q 372 3047 722 3315 
Q 1072 3584 1716 3584 
Q 2034 3584 2315 3537 
Q 2597 3491 2834 3397 
z
" id="DejaVuSans-73" transform="scale(0.015625)"/>
      <path d="M 603 3500 
L 1178 3500 
L 1178 0 
L 603 0 
L 603 3500 
z
M 603 4863 
L 1178 4863 
L 1178 4134 
L 603 4134 
L 603 4863 
z
" id="DejaVuSans-69" transform="scale(0.015625)"/>
      <path d="M 544 1381 
L 544 3500 
L 1119 3500 
L 1119 1403 
Q 1119 906 1312 657 
Q 1506 409 1894 409 
Q 2359 409 2629 706 
Q 2900 1003 2900 1516 
L 2900 3500 
L 3475 3500 
L 3475 0 
L 2900 0 
L 2900 538 
Q 2691 219 2414 64 
Q 2138 -91 1772 -91 
Q 1169 -91 856 284 
Q 544 659 544 1381 
z
M 1991 3584 
L 1991 3584 
z
" id="DejaVuSans-75" transform="scale(0.015625)"/>
      <path d="M 2906 2969 
L 2906 4863 
L 3481 4863 
L 3481 0 
L 2906 0 
L 2906 525 
Q 2725 213 2448 61 
Q 2172 -91 1784 -91 
Q 1150 -91 751 415 
Q 353 922 353 1747 
Q 353 2572 751 3078 
Q 1150 3584 1784 3584 
Q 2172 3584 2448 3432 
Q 2725 3281 2906 2969 
z
M 947 1747 
Q 947 1113 1208 752 
Q 1469 391 1925 391 
Q 2381 391 2643 752 
Q 2906 1113 2906 1747 
Q 2906 2381 2643 2742 
Q 2381 3103 1925 3103 
Q 1469 3103 1208 2742 
Q 947 2381 947 1747 
z
" id="DejaVuSans-64" transform="scale(0.015625)"/>
     </defs>
     <use xlink:href="#DejaVuSans-43"/>
     <use x="69.824219" xlink:href="#DejaVuSans-65"/>
     <use x="131.347656" xlink:href="#DejaVuSans-6e"/>
     <use x="194.726562" xlink:href="#DejaVuSans-74"/>
     <use x="233.935547" xlink:href="#DejaVuSans-65"/>
     <use x="295.458984" xlink:href="#DejaVuSans-72"/>
     <use x="336.572266" xlink:href="#DejaVuSans-20"/>
     <use x="368.359375" xlink:href="#DejaVuSans-6f"/>
     <use x="429.541016" xlink:href="#DejaVuSans-66"/>
     <use x="464.746094" xlink:href="#DejaVuSans-20"/>
     <use x="496.533203" xlink:href="#DejaVuSans-6d"/>
     <use x="593.945312" xlink:href="#DejaVuSans-61"/>
     <use x="655.224609" xlink:href="#DejaVuSans-73"/>
     <use x="707.324219" xlink:href="#DejaVuSans-73"/>
     <use x="759.423828" xlink:href="#DejaVuSans-20"/>
     <use x="791.210938" xlink:href="#DejaVuSans-6f"/>
     <use x="852.392578" xlink:href="#DejaVuSans-66"/>
     <use x="887.597656" xlink:href="#DejaVuSans-20"/>
     <use x="919.384766" xlink:href="#DejaVuSans-69"/>
     <use x="947.167969" xlink:href="#DejaVuSans-6e"/>
     <use x="1010.546875" xlink:href="#DejaVuSans-74"/>
     <use x="1049.755859" xlink:href="#DejaVuSans-72"/>
     <use x="1090.869141" xlink:href="#DejaVuSans-75"/>
     <use x="1154.248047" xlink:href="#DejaVuSans-64"/>
     <use x="1217.724609" xlink:href="#DejaVuSans-65"/>
     <use x="1279.248047" xlink:href="#DejaVuSans-72"/>
     <use x="1320.361328" xlink:href="#DejaVuSans-73"/>
    </g>
   </g>
   <g id="legend_1">
    <g id="patch_7">
     <path d="M 514.545313 103.70875 
L 599.751563 103.70875 
Q 601.751563 103.70875 601.751563 101.70875 
L 601.751563 29.318125 
Q 601.751563 27.318125 599.751563 27.318125 
L 514.545313 27.318125 
Q 512.545313 27.318125 512.545313 29.318125 
L 512.545313 101.70875 
Q 512.545313 103.70875 514.545313 103.70875 
z
" style="fill:#ffffff;opacity:0.8;stroke:#cccccc;stroke-linejoin:miter;"/>
    </g>
    <g id="line2d_22">
     <path d="M 516.545313 35.416563 
L 536.545313 35.416563 
" style="fill:none;stroke:#0000ff;stroke-linecap:square;stroke-width:1.5;"/>
    </g>
    <g id="line2d_23"/>
    <g id="text_20">
     <!-- intruder1 -->
     <g transform="translate(544.545313 38.916563)scale(0.1 -0.1)">
      <defs>
       <path d="M 538 3500 
L 1656 3500 
L 1656 0 
L 538 0 
L 538 3500 
z
M 538 4863 
L 1656 4863 
L 1656 3950 
L 538 3950 
L 538 4863 
z
" id="DejaVuSans-Bold-69" transform="scale(0.015625)"/>
       <path d="M 4056 2131 
L 4056 0 
L 2931 0 
L 2931 347 
L 2931 1631 
Q 2931 2084 2911 2256 
Q 2891 2428 2841 2509 
Q 2775 2619 2662 2680 
Q 2550 2741 2406 2741 
Q 2056 2741 1856 2470 
Q 1656 2200 1656 1722 
L 1656 0 
L 538 0 
L 538 3500 
L 1656 3500 
L 1656 2988 
Q 1909 3294 2193 3439 
Q 2478 3584 2822 3584 
Q 3428 3584 3742 3212 
Q 4056 2841 4056 2131 
z
" id="DejaVuSans-Bold-6e" transform="scale(0.015625)"/>
       <path d="M 1759 4494 
L 1759 3500 
L 2913 3500 
L 2913 2700 
L 1759 2700 
L 1759 1216 
Q 1759 972 1856 886 
Q 1953 800 2241 800 
L 2816 800 
L 2816 0 
L 1856 0 
Q 1194 0 917 276 
Q 641 553 641 1216 
L 641 2700 
L 84 2700 
L 84 3500 
L 641 3500 
L 641 4494 
L 1759 4494 
z
" id="DejaVuSans-Bold-74" transform="scale(0.015625)"/>
       <path d="M 3138 2547 
Q 2991 2616 2845 2648 
Q 2700 2681 2553 2681 
Q 2122 2681 1889 2404 
Q 1656 2128 1656 1613 
L 1656 0 
L 538 0 
L 538 3500 
L 1656 3500 
L 1656 2925 
Q 1872 3269 2151 3426 
Q 2431 3584 2822 3584 
Q 2878 3584 2943 3579 
Q 3009 3575 3134 3559 
L 3138 2547 
z
" id="DejaVuSans-Bold-72" transform="scale(0.015625)"/>
       <path d="M 500 1363 
L 500 3500 
L 1625 3500 
L 1625 3150 
Q 1625 2866 1622 2436 
Q 1619 2006 1619 1863 
Q 1619 1441 1641 1255 
Q 1663 1069 1716 984 
Q 1784 875 1895 815 
Q 2006 756 2150 756 
Q 2500 756 2700 1025 
Q 2900 1294 2900 1772 
L 2900 3500 
L 4019 3500 
L 4019 0 
L 2900 0 
L 2900 506 
Q 2647 200 2364 54 
Q 2081 -91 1741 -91 
Q 1134 -91 817 281 
Q 500 653 500 1363 
z
" id="DejaVuSans-Bold-75" transform="scale(0.015625)"/>
       <path d="M 2919 2988 
L 2919 4863 
L 4044 4863 
L 4044 0 
L 2919 0 
L 2919 506 
Q 2688 197 2409 53 
Q 2131 -91 1766 -91 
Q 1119 -91 703 423 
Q 288 938 288 1747 
Q 288 2556 703 3070 
Q 1119 3584 1766 3584 
Q 2128 3584 2408 3439 
Q 2688 3294 2919 2988 
z
M 2181 722 
Q 2541 722 2730 984 
Q 2919 1247 2919 1747 
Q 2919 2247 2730 2509 
Q 2541 2772 2181 2772 
Q 1825 2772 1636 2509 
Q 1447 2247 1447 1747 
Q 1447 1247 1636 984 
Q 1825 722 2181 722 
z
" id="DejaVuSans-Bold-64" transform="scale(0.015625)"/>
       <path d="M 4031 1759 
L 4031 1441 
L 1416 1441 
Q 1456 1047 1700 850 
Q 1944 653 2381 653 
Q 2734 653 3104 758 
Q 3475 863 3866 1075 
L 3866 213 
Q 3469 63 3072 -14 
Q 2675 -91 2278 -91 
Q 1328 -91 801 392 
Q 275 875 275 1747 
Q 275 2603 792 3093 
Q 1309 3584 2216 3584 
Q 3041 3584 3536 3087 
Q 4031 2591 4031 1759 
z
M 2881 2131 
Q 2881 2450 2695 2645 
Q 2509 2841 2209 2841 
Q 1884 2841 1681 2658 
Q 1478 2475 1428 2131 
L 2881 2131 
z
" id="DejaVuSans-Bold-65" transform="scale(0.015625)"/>
      </defs>
      <use xlink:href="#DejaVuSans-Bold-69"/>
      <use x="34.277344" xlink:href="#DejaVuSans-Bold-6e"/>
      <use x="105.46875" xlink:href="#DejaVuSans-Bold-74"/>
      <use x="153.271484" xlink:href="#DejaVuSans-Bold-72"/>
      <use x="202.587891" xlink:href="#DejaVuSans-Bold-75"/>
      <use x="273.779297" xlink:href="#DejaVuSans-Bold-64"/>
      <use x="345.361328" xlink:href="#DejaVuSans-Bold-65"/>
      <use x="413.183594" xlink:href="#DejaVuSans-Bold-72"/>
      <use x="462.5" xlink:href="#DejaVuSans-Bold-31"/>
     </g>
    </g>
    <g id="line2d_24">
     <path d="M 516.545313 50.094688 
L 536.545313 50.094688 
" style="fill:none;stroke:#ffd700;stroke-linecap:square;stroke-width:1.5;"/>
    </g>
    <g id="line2d_25"/>
    <g id="text_21">
     <!-- intruder2 -->
     <g transform="translate(544.545313 53.594688)scale(0.1 -0.1)">
      <use xlink:href="#DejaVuSans-Bold-69"/>
      <use x="34.277344" xlink:href="#DejaVuSans-Bold-6e"/>
      <use x="105.46875" xlink:href="#DejaVuSans-Bold-74"/>
      <use x="153.271484" xlink:href="#DejaVuSans-Bold-72"/>
      <use x="202.587891" xlink:href="#DejaVuSans-Bold-75"/>
      <use x="273.779297" xlink:href="#DejaVuSans-Bold-64"/>
      <use x="345.361328" xlink:href="#DejaVuSans-Bold-65"/>
      <use x="413.183594" xlink:href="#DejaVuSans-Bold-72"/>
      <use x="462.5" xlink:href="#DejaVuSans-Bold-32"/>
     </g>
    </g>
    <g id="line2d_26">
     <path d="M 516.545313 64.772813 
L 536.545313 64.772813 
" style="fill:none;stroke:#ff1493;stroke-linecap:square;stroke-width:1.5;"/>
    </g>
    <g id="line2d_27"/>
    <g id="text_22">
     <!-- intruder3 -->
     <g transform="translate(544.545313 68.272813)scale(0.1 -0.1)">
      <use xlink:href="#DejaVuSans-Bold-69"/>
      <use x="34.277344" xlink:href="#DejaVuSans-Bold-6e"/>
      <use x="105.46875" xlink:href="#DejaVuSans-Bold-74"/>
      <use x="153.271484" xlink:href="#DejaVuSans-Bold-72"/>
      <use x="202.587891" xlink:href="#DejaVuSans-Bold-75"/>
      <use x="273.779297" xlink:href="#DejaVuSans-Bold-64"/>
      <use x="345.361328" xlink:href="#DejaVuSans-Bold-65"/>
      <use x="413.183594" xlink:href="#DejaVuSans-Bold-72"/>
      <use x="462.5" xlink:href="#DejaVuSans-Bold-33"/>
     </g>
    </g>
    <g id="line2d_28">
     <path d="M 516.545313 79.450938 
L 536.545313 79.450938 
" style="fill:none;stroke:#008000;stroke-linecap:square;stroke-width:1.5;"/>
    </g>
    <g id="line2d_29"/>
    <g id="text_23">
     <!-- intruder4 -->
     <g transform="translate(544.545313 82.950938)scale(0.1 -0.1)">
      <use xlink:href="#DejaVuSans-Bold-69"/>
      <use x="34.277344" xlink:href="#DejaVuSans-Bold-6e"/>
      <use x="105.46875" xlink:href="#DejaVuSans-Bold-74"/>
      <use x="153.271484" xlink:href="#DejaVuSans-Bold-72"/>
      <use x="202.587891" xlink:href="#DejaVuSans-Bold-75"/>
      <use x="273.779297" xlink:href="#DejaVuSans-Bold-64"/>
      <use x="345.361328" xlink:href="#DejaVuSans-Bold-65"/>
      <use x="413.183594" xlink:href="#DejaVuSans-Bold-72"/>
      <use x="462.5" xlink:href="#DejaVuSans-Bold-34"/>
     </g>
    </g>
    <g id="line2d_30">
     <path d="M 516.545313 94.129063 
L 536.545313 94.129063 
" style="fill:none;stroke:#8fbc8f;stroke-linecap:square;stroke-width:1.5;"/>
    </g>
    <g id="line2d_31"/>
    <g id="text_24">
     <!-- intruder5 -->
     <g transform="translate(544.545313 97.629063)scale(0.1 -0.1)">
      <defs>
       <path d="M 678 4666 
L 3669 4666 
L 3669 3781 
L 1638 3781 
L 1638 3059 
Q 1775 3097 1914 3117 
Q 2053 3138 2203 3138 
Q 3056 3138 3531 2711 
Q 4006 2284 4006 1522 
Q 4006 766 3489 337 
Q 2972 -91 2053 -91 
Q 1656 -91 1267 -14 
Q 878 63 494 219 
L 494 1166 
Q 875 947 1217 837 
Q 1559 728 1863 728 
Q 2300 728 2551 942 
Q 2803 1156 2803 1522 
Q 2803 1891 2551 2103 
Q 2300 2316 1863 2316 
Q 1603 2316 1309 2248 
Q 1016 2181 678 2041 
L 678 4666 
z
" id="DejaVuSans-Bold-35" transform="scale(0.015625)"/>
      </defs>
      <use xlink:href="#DejaVuSans-Bold-69"/>
      <use x="34.277344" xlink:href="#DejaVuSans-Bold-6e"/>
      <use x="105.46875" xlink:href="#DejaVuSans-Bold-74"/>
      <use x="153.271484" xlink:href="#DejaVuSans-Bold-72"/>
      <use x="202.587891" xlink:href="#DejaVuSans-Bold-75"/>
      <use x="273.779297" xlink:href="#DejaVuSans-Bold-64"/>
      <use x="345.361328" xlink:href="#DejaVuSans-Bold-65"/>
      <use x="413.183594" xlink:href="#DejaVuSans-Bold-72"/>
      <use x="462.5" xlink:href="#DejaVuSans-Bold-35"/>
     </g>
    </g>
   </g>
  </g>
 </g>
 <defs>
  <clipPath id="pb8af748238">
   <rect height="271.8" width="558" x="48.751563" y="22.318125"/>
  </clipPath>
 </defs>
</svg>
