<?xml version="1.0" encoding="utf-8" standalone="no"?>
<!DOCTYPE svg PUBLIC "-//W3C//DTD SVG 1.1//EN"
  "http://www.w3.org/Graphics/SVG/1.1/DTD/svg11.dtd">
<svg height="331.674375pt" version="1.1" viewBox="0 0 615.373438 331.674375" width="615.373438pt" xmlns="http://www.w3.org/2000/svg" xmlns:xlink="http://www.w3.org/1999/xlink">
 <metadata>
  <rdf:RDF xmlns:cc="http://creativecommons.org/ns#" xmlns:dc="http://purl.org/dc/elements/1.1/" xmlns:rdf="http://www.w3.org/1999/02/22-rdf-syntax-ns#">
   <cc:Work>
    <dc:type rdf:resource="http://purl.org/dc/dcmitype/StillImage"/>
    <dc:date>2022-05-28T19:29:54.786907</dc:date>
    <dc:format>image/svg+xml</dc:format>
    <dc:creator>
     <cc:Agent>
      <dc:title>Matplotlib v3.4.3, https://matplotlib.org/</dc:title>
     </cc:Agent>
    </dc:creator>
   </cc:Work>
  </rdf:RDF>
 </metadata>
 <defs>
  <style type="text/css">*{stroke-linecap:butt;stroke-linejoin:round;}</style>
 </defs>
 <g id="figure_1">
  <g id="patch_1">
   <path d="M 0 331.674375 
L 615.373438 331.674375 
L 615.373438 0 
L 0 0 
z
" style="fill:none;"/>
  </g>
  <g id="axes_1">
   <g id="patch_2">
    <path d="M 50.173437 294.118125 
L 608.173437 294.118125 
L 608.173437 22.318125 
L 50.173437 22.318125 
z
" style="fill:#ffffff;"/>
   </g>
   <g id="matplotlib.axis_1">
    <g id="xtick_1">
     <g id="line2d_1">
      <defs>
       <path d="M 0 0 
L 0 3.5 
" id="m4f23fb388e" style="stroke:#000000;stroke-width:0.8;"/>
      </defs>
      <g>
       <use style="stroke:#000000;stroke-width:0.8;" x="75.537074" xlink:href="#m4f23fb388e" y="294.118125"/>
      </g>
     </g>
     <g id="text_1">
      <!-- 0 -->
      <g transform="translate(72.058168 308.716563)scale(0.1 -0.1)">
       <defs>
        <path d="M 2944 2338 
Q 2944 3213 2780 3570 
Q 2616 3928 2228 3928 
Q 1841 3928 1675 3570 
Q 1509 3213 1509 2338 
Q 1509 1453 1675 1090 
Q 1841 728 2228 728 
Q 2613 728 2778 1090 
Q 2944 1453 2944 2338 
z
M 4147 2328 
Q 4147 1169 3647 539 
Q 3147 -91 2228 -91 
Q 1306 -91 806 539 
Q 306 1169 306 2328 
Q 306 3491 806 4120 
Q 1306 4750 2228 4750 
Q 3147 4750 3647 4120 
Q 4147 3491 4147 2328 
z
" id="DejaVuSans-Bold-30" transform="scale(0.015625)"/>
       </defs>
       <use xlink:href="#DejaVuSans-Bold-30"/>
      </g>
     </g>
    </g>
    <g id="xtick_2">
     <g id="line2d_2">
      <g>
       <use style="stroke:#000000;stroke-width:0.8;" x="140.572039" xlink:href="#m4f23fb388e" y="294.118125"/>
      </g>
     </g>
     <g id="text_2">
      <!-- 5 -->
      <g transform="translate(137.093133 308.716563)scale(0.1 -0.1)">
       <defs>
        <path d="M 678 4666 
L 3669 4666 
L 3669 3781 
L 1638 3781 
L 1638 3059 
Q 1775 3097 1914 3117 
Q 2053 3138 2203 3138 
Q 3056 3138 3531 2711 
Q 4006 2284 4006 1522 
Q 4006 766 3489 337 
Q 2972 -91 2053 -91 
Q 1656 -91 1267 -14 
Q 878 63 494 219 
L 494 1166 
Q 875 947 1217 837 
Q 1559 728 1863 728 
Q 2300 728 2551 942 
Q 2803 1156 2803 1522 
Q 2803 1891 2551 2103 
Q 2300 2316 1863 2316 
Q 1603 2316 1309 2248 
Q 1016 2181 678 2041 
L 678 4666 
z
" id="DejaVuSans-Bold-35" transform="scale(0.015625)"/>
       </defs>
       <use xlink:href="#DejaVuSans-Bold-35"/>
      </g>
     </g>
    </g>
    <g id="xtick_3">
     <g id="line2d_3">
      <g>
       <use style="stroke:#000000;stroke-width:0.8;" x="205.607004" xlink:href="#m4f23fb388e" y="294.118125"/>
      </g>
     </g>
     <g id="text_3">
      <!-- 10 -->
      <g transform="translate(198.649191 308.716563)scale(0.1 -0.1)">
       <defs>
        <path d="M 750 831 
L 1813 831 
L 1813 3847 
L 722 3622 
L 722 4441 
L 1806 4666 
L 2950 4666 
L 2950 831 
L 4013 831 
L 4013 0 
L 750 0 
L 750 831 
z
" id="DejaVuSans-Bold-31" transform="scale(0.015625)"/>
       </defs>
       <use xlink:href="#DejaVuSans-Bold-31"/>
       <use x="69.580078" xlink:href="#DejaVuSans-Bold-30"/>
      </g>
     </g>
    </g>
    <g id="xtick_4">
     <g id="line2d_4">
      <g>
       <use style="stroke:#000000;stroke-width:0.8;" x="270.641969" xlink:href="#m4f23fb388e" y="294.118125"/>
      </g>
     </g>
     <g id="text_4">
      <!-- 15 -->
      <g transform="translate(263.684156 308.716563)scale(0.1 -0.1)">
       <use xlink:href="#DejaVuSans-Bold-31"/>
       <use x="69.580078" xlink:href="#DejaVuSans-Bold-35"/>
      </g>
     </g>
    </g>
    <g id="xtick_5">
     <g id="line2d_5">
      <g>
       <use style="stroke:#000000;stroke-width:0.8;" x="335.676934" xlink:href="#m4f23fb388e" y="294.118125"/>
      </g>
     </g>
     <g id="text_5">
      <!-- 20 -->
      <g transform="translate(328.719122 308.716563)scale(0.1 -0.1)">
       <defs>
        <path d="M 1844 884 
L 3897 884 
L 3897 0 
L 506 0 
L 506 884 
L 2209 2388 
Q 2438 2594 2547 2791 
Q 2656 2988 2656 3200 
Q 2656 3528 2436 3728 
Q 2216 3928 1850 3928 
Q 1569 3928 1234 3808 
Q 900 3688 519 3450 
L 519 4475 
Q 925 4609 1322 4679 
Q 1719 4750 2100 4750 
Q 2938 4750 3402 4381 
Q 3866 4013 3866 3353 
Q 3866 2972 3669 2642 
Q 3472 2313 2841 1759 
L 1844 884 
z
" id="DejaVuSans-Bold-32" transform="scale(0.015625)"/>
       </defs>
       <use xlink:href="#DejaVuSans-Bold-32"/>
       <use x="69.580078" xlink:href="#DejaVuSans-Bold-30"/>
      </g>
     </g>
    </g>
    <g id="xtick_6">
     <g id="line2d_6">
      <g>
       <use style="stroke:#000000;stroke-width:0.8;" x="400.711899" xlink:href="#m4f23fb388e" y="294.118125"/>
      </g>
     </g>
     <g id="text_6">
      <!-- 25 -->
      <g transform="translate(393.754087 308.716563)scale(0.1 -0.1)">
       <use xlink:href="#DejaVuSans-Bold-32"/>
       <use x="69.580078" xlink:href="#DejaVuSans-Bold-35"/>
      </g>
     </g>
    </g>
    <g id="xtick_7">
     <g id="line2d_7">
      <g>
       <use style="stroke:#000000;stroke-width:0.8;" x="465.746864" xlink:href="#m4f23fb388e" y="294.118125"/>
      </g>
     </g>
     <g id="text_7">
      <!-- 30 -->
      <g transform="translate(458.789052 308.716563)scale(0.1 -0.1)">
       <defs>
        <path d="M 2981 2516 
Q 3453 2394 3698 2092 
Q 3944 1791 3944 1325 
Q 3944 631 3412 270 
Q 2881 -91 1863 -91 
Q 1503 -91 1142 -33 
Q 781 25 428 141 
L 428 1069 
Q 766 900 1098 814 
Q 1431 728 1753 728 
Q 2231 728 2486 893 
Q 2741 1059 2741 1369 
Q 2741 1688 2480 1852 
Q 2219 2016 1709 2016 
L 1228 2016 
L 1228 2791 
L 1734 2791 
Q 2188 2791 2409 2933 
Q 2631 3075 2631 3366 
Q 2631 3634 2415 3781 
Q 2200 3928 1806 3928 
Q 1516 3928 1219 3862 
Q 922 3797 628 3669 
L 628 4550 
Q 984 4650 1334 4700 
Q 1684 4750 2022 4750 
Q 2931 4750 3382 4451 
Q 3834 4153 3834 3553 
Q 3834 3144 3618 2883 
Q 3403 2622 2981 2516 
z
" id="DejaVuSans-Bold-33" transform="scale(0.015625)"/>
       </defs>
       <use xlink:href="#DejaVuSans-Bold-33"/>
       <use x="69.580078" xlink:href="#DejaVuSans-Bold-30"/>
      </g>
     </g>
    </g>
    <g id="xtick_8">
     <g id="line2d_8">
      <g>
       <use style="stroke:#000000;stroke-width:0.8;" x="530.781829" xlink:href="#m4f23fb388e" y="294.118125"/>
      </g>
     </g>
     <g id="text_8">
      <!-- 35 -->
      <g transform="translate(523.824017 308.716563)scale(0.1 -0.1)">
       <use xlink:href="#DejaVuSans-Bold-33"/>
       <use x="69.580078" xlink:href="#DejaVuSans-Bold-35"/>
      </g>
     </g>
    </g>
    <g id="xtick_9">
     <g id="line2d_9">
      <g>
       <use style="stroke:#000000;stroke-width:0.8;" x="595.816794" xlink:href="#m4f23fb388e" y="294.118125"/>
      </g>
     </g>
     <g id="text_9">
      <!-- 40 -->
      <g transform="translate(588.858982 308.716563)scale(0.1 -0.1)">
       <defs>
        <path d="M 2356 3675 
L 1038 1722 
L 2356 1722 
L 2356 3675 
z
M 2156 4666 
L 3494 4666 
L 3494 1722 
L 4159 1722 
L 4159 850 
L 3494 850 
L 3494 0 
L 2356 0 
L 2356 850 
L 288 850 
L 288 1881 
L 2156 4666 
z
" id="DejaVuSans-Bold-34" transform="scale(0.015625)"/>
       </defs>
       <use xlink:href="#DejaVuSans-Bold-34"/>
       <use x="69.580078" xlink:href="#DejaVuSans-Bold-30"/>
      </g>
     </g>
    </g>
    <g id="text_10">
     <!-- time -->
     <g transform="translate(316.467969 322.394687)scale(0.1 -0.1)">
      <defs>
       <path d="M 1759 4494 
L 1759 3500 
L 2913 3500 
L 2913 2700 
L 1759 2700 
L 1759 1216 
Q 1759 972 1856 886 
Q 1953 800 2241 800 
L 2816 800 
L 2816 0 
L 1856 0 
Q 1194 0 917 276 
Q 641 553 641 1216 
L 641 2700 
L 84 2700 
L 84 3500 
L 641 3500 
L 641 4494 
L 1759 4494 
z
" id="DejaVuSans-Bold-74" transform="scale(0.015625)"/>
       <path d="M 538 3500 
L 1656 3500 
L 1656 0 
L 538 0 
L 538 3500 
z
M 538 4863 
L 1656 4863 
L 1656 3950 
L 538 3950 
L 538 4863 
z
" id="DejaVuSans-Bold-69" transform="scale(0.015625)"/>
       <path d="M 3781 2919 
Q 3994 3244 4286 3414 
Q 4578 3584 4928 3584 
Q 5531 3584 5847 3212 
Q 6163 2841 6163 2131 
L 6163 0 
L 5038 0 
L 5038 1825 
Q 5041 1866 5042 1909 
Q 5044 1953 5044 2034 
Q 5044 2406 4934 2573 
Q 4825 2741 4581 2741 
Q 4263 2741 4089 2478 
Q 3916 2216 3909 1719 
L 3909 0 
L 2784 0 
L 2784 1825 
Q 2784 2406 2684 2573 
Q 2584 2741 2328 2741 
Q 2006 2741 1831 2477 
Q 1656 2213 1656 1722 
L 1656 0 
L 531 0 
L 531 3500 
L 1656 3500 
L 1656 2988 
Q 1863 3284 2130 3434 
Q 2397 3584 2719 3584 
Q 3081 3584 3359 3409 
Q 3638 3234 3781 2919 
z
" id="DejaVuSans-Bold-6d" transform="scale(0.015625)"/>
       <path d="M 4031 1759 
L 4031 1441 
L 1416 1441 
Q 1456 1047 1700 850 
Q 1944 653 2381 653 
Q 2734 653 3104 758 
Q 3475 863 3866 1075 
L 3866 213 
Q 3469 63 3072 -14 
Q 2675 -91 2278 -91 
Q 1328 -91 801 392 
Q 275 875 275 1747 
Q 275 2603 792 3093 
Q 1309 3584 2216 3584 
Q 3041 3584 3536 3087 
Q 4031 2591 4031 1759 
z
M 2881 2131 
Q 2881 2450 2695 2645 
Q 2509 2841 2209 2841 
Q 1884 2841 1681 2658 
Q 1478 2475 1428 2131 
L 2881 2131 
z
" id="DejaVuSans-Bold-65" transform="scale(0.015625)"/>
      </defs>
      <use xlink:href="#DejaVuSans-Bold-74"/>
      <use x="47.802734" xlink:href="#DejaVuSans-Bold-69"/>
      <use x="82.080078" xlink:href="#DejaVuSans-Bold-6d"/>
      <use x="186.279297" xlink:href="#DejaVuSans-Bold-65"/>
     </g>
    </g>
   </g>
   <g id="matplotlib.axis_2">
    <g id="ytick_1">
     <g id="line2d_10">
      <defs>
       <path d="M 0 0 
L -3.5 0 
" id="m959952b8fb" style="stroke:#000000;stroke-width:0.8;"/>
      </defs>
      <g>
       <use style="stroke:#000000;stroke-width:0.8;" x="50.173437" xlink:href="#m959952b8fb" y="261.790448"/>
      </g>
     </g>
     <g id="text_11">
      <!-- −30 -->
      <g transform="translate(20.878125 265.589667)scale(0.1 -0.1)">
       <defs>
        <path d="M 678 2375 
L 4684 2375 
L 4684 1638 
L 678 1638 
L 678 2375 
z
" id="DejaVuSans-Bold-2212" transform="scale(0.015625)"/>
       </defs>
       <use xlink:href="#DejaVuSans-Bold-2212"/>
       <use x="83.789062" xlink:href="#DejaVuSans-Bold-33"/>
       <use x="153.369141" xlink:href="#DejaVuSans-Bold-30"/>
      </g>
     </g>
    </g>
    <g id="ytick_2">
     <g id="line2d_11">
      <g>
       <use style="stroke:#000000;stroke-width:0.8;" x="50.173437" xlink:href="#m959952b8fb" y="228.074072"/>
      </g>
     </g>
     <g id="text_12">
      <!-- −20 -->
      <g transform="translate(20.878125 231.873291)scale(0.1 -0.1)">
       <use xlink:href="#DejaVuSans-Bold-2212"/>
       <use x="83.789062" xlink:href="#DejaVuSans-Bold-32"/>
       <use x="153.369141" xlink:href="#DejaVuSans-Bold-30"/>
      </g>
     </g>
    </g>
    <g id="ytick_3">
     <g id="line2d_12">
      <g>
       <use style="stroke:#000000;stroke-width:0.8;" x="50.173437" xlink:href="#m959952b8fb" y="194.357697"/>
      </g>
     </g>
     <g id="text_13">
      <!-- −10 -->
      <g transform="translate(20.878125 198.156915)scale(0.1 -0.1)">
       <use xlink:href="#DejaVuSans-Bold-2212"/>
       <use x="83.789062" xlink:href="#DejaVuSans-Bold-31"/>
       <use x="153.369141" xlink:href="#DejaVuSans-Bold-30"/>
      </g>
     </g>
    </g>
    <g id="ytick_4">
     <g id="line2d_13">
      <g>
       <use style="stroke:#000000;stroke-width:0.8;" x="50.173437" xlink:href="#m959952b8fb" y="160.641321"/>
      </g>
     </g>
     <g id="text_14">
      <!-- 0 -->
      <g transform="translate(36.215625 164.44054)scale(0.1 -0.1)">
       <use xlink:href="#DejaVuSans-Bold-30"/>
      </g>
     </g>
    </g>
    <g id="ytick_5">
     <g id="line2d_14">
      <g>
       <use style="stroke:#000000;stroke-width:0.8;" x="50.173437" xlink:href="#m959952b8fb" y="126.924945"/>
      </g>
     </g>
     <g id="text_15">
      <!-- 10 -->
      <g transform="translate(29.257812 130.724164)scale(0.1 -0.1)">
       <use xlink:href="#DejaVuSans-Bold-31"/>
       <use x="69.580078" xlink:href="#DejaVuSans-Bold-30"/>
      </g>
     </g>
    </g>
    <g id="ytick_6">
     <g id="line2d_15">
      <g>
       <use style="stroke:#000000;stroke-width:0.8;" x="50.173437" xlink:href="#m959952b8fb" y="93.208569"/>
      </g>
     </g>
     <g id="text_16">
      <!-- 20 -->
      <g transform="translate(29.257812 97.007788)scale(0.1 -0.1)">
       <use xlink:href="#DejaVuSans-Bold-32"/>
       <use x="69.580078" xlink:href="#DejaVuSans-Bold-30"/>
      </g>
     </g>
    </g>
    <g id="ytick_7">
     <g id="line2d_16">
      <g>
       <use style="stroke:#000000;stroke-width:0.8;" x="50.173437" xlink:href="#m959952b8fb" y="59.492194"/>
      </g>
     </g>
     <g id="text_17">
      <!-- 30 -->
      <g transform="translate(29.257812 63.291412)scale(0.1 -0.1)">
       <use xlink:href="#DejaVuSans-Bold-33"/>
       <use x="69.580078" xlink:href="#DejaVuSans-Bold-30"/>
      </g>
     </g>
    </g>
    <g id="ytick_8">
     <g id="line2d_17">
      <g>
       <use style="stroke:#000000;stroke-width:0.8;" x="50.173437" xlink:href="#m959952b8fb" y="25.775818"/>
      </g>
     </g>
     <g id="text_18">
      <!-- 40 -->
      <g transform="translate(29.257812 29.575037)scale(0.1 -0.1)">
       <use xlink:href="#DejaVuSans-Bold-34"/>
       <use x="69.580078" xlink:href="#DejaVuSans-Bold-30"/>
      </g>
     </g>
    </g>
    <g id="text_19">
     <!-- x -->
     <g transform="translate(14.798437 161.443125)rotate(-90)scale(0.1 -0.1)">
      <defs>
       <path d="M 1422 1791 
L 159 3500 
L 1344 3500 
L 2059 2463 
L 2784 3500 
L 3969 3500 
L 2706 1797 
L 4031 0 
L 2847 0 
L 2059 1106 
L 1281 0 
L 97 0 
L 1422 1791 
z
" id="DejaVuSans-Bold-78" transform="scale(0.015625)"/>
      </defs>
      <use xlink:href="#DejaVuSans-Bold-78"/>
     </g>
    </g>
   </g>
   <g id="line2d_18">
    <path clip-path="url(#pa0d6e14c13)" d="M 75.537074 228.074072 
L 82.04057 228.074072 
L 88.544067 228.074072 
L 95.047563 228.074072 
L 101.55106 228.074072 
L 108.054556 228.074072 
L 114.558053 228.074072 
L 121.061549 228.074072 
L 127.565046 228.074072 
L 134.068542 228.074072 
L 140.572039 228.074072 
L 147.075535 228.074072 
L 153.579032 228.074072 
L 160.082528 228.072049 
L 166.586025 228.139595 
L 173.089521 228.513509 
L 179.593018 229.29247 
L 186.096514 230.512665 
L 192.600011 232.076543 
L 199.103507 233.908916 
L 205.607004 235.918412 
L 212.1105 238.100985 
L 218.613997 240.470909 
L 225.117493 243.05954 
L 231.62099 245.822597 
L 238.124486 248.666911 
L 244.627983 251.590458 
L 251.131479 254.55143 
L 257.634976 257.487115 
L 264.138472 260.474835 
L 270.641969 263.436032 
L 277.145465 266.399589 
L 283.648962 269.338758 
L 290.152458 272.067087 
L 296.655955 274.602671 
L 303.159451 276.918199 
L 309.662948 278.869029 
L 316.166444 280.267134 
L 322.669941 281.179724 
L 329.173437 281.666589 
L 335.676934 281.76358 
L 342.180431 281.482835 
L 348.683927 280.807945 
L 355.187424 279.884341 
L 361.69092 278.691568 
L 368.194417 277.316952 
L 374.697913 275.792634 
L 381.20141 274.146488 
L 387.704906 272.517763 
L 394.208403 271.014462 
L 400.711899 269.681316 
L 407.215396 268.429764 
L 413.718892 267.185181 
L 420.222389 265.968469 
L 426.725885 264.824697 
L 433.229382 263.767014 
L 439.732878 262.99637 
L 446.236375 262.51535 
L 452.739871 262.235279 
L 459.243368 261.993308 
L 465.746864 261.680308 
L 472.250361 261.43283 
L 478.753857 261.477673 
L 485.257354 261.715823 
L 491.76085 262.204148 
L 498.264347 262.516025 
L 504.767843 262.370257 
L 511.27134 262.260792 
L 517.774836 262.17504 
L 524.278333 262.18167 
L 530.781829 262.215387 
L 537.285326 262.193471 
L 543.788822 262.193022 
L 550.292319 262.200776 
L 556.795815 262.184705 
L 563.299312 262.200889 
L 569.802808 262.195607 
L 576.306305 262.181446 
L 582.809801 262.201114 
" style="fill:none;stroke:#0000ff;stroke-linecap:square;stroke-width:1.5;"/>
   </g>
   <g id="line2d_19">
    <path clip-path="url(#pa0d6e14c13)" d="M 75.537074 194.357697 
L 82.04057 194.357697 
L 88.544067 194.357697 
L 95.047563 194.357697 
L 101.55106 194.357697 
L 108.054556 194.357697 
L 114.558053 194.357697 
L 121.061549 194.357697 
L 127.565046 194.357697 
L 134.068542 194.357697 
L 140.572039 194.357697 
L 147.075535 194.357697 
L 153.579032 194.357697 
L 160.082528 194.34974 
L 166.586025 194.33423 
L 173.089521 194.415442 
L 179.593018 194.688657 
L 186.096514 195.090915 
L 192.600011 195.652158 
L 199.103507 196.398077 
L 205.607004 197.337157 
L 212.1105 198.442211 
L 218.613997 199.668577 
L 225.117493 201.066873 
L 231.62099 202.626413 
L 238.124486 204.276717 
L 244.627983 206.030194 
L 251.131479 207.857846 
L 257.634976 209.759112 
L 264.138472 211.722304 
L 270.641969 213.757425 
L 277.145465 215.809179 
L 283.648962 217.828003 
L 290.152458 219.777484 
L 296.655955 221.649979 
L 303.159451 223.443241 
L 309.662948 225.134454 
L 316.166444 226.640677 
L 322.669941 227.96854 
L 329.173437 229.083541 
L 335.676934 230.041535 
L 342.180431 230.831735 
L 348.683927 231.475156 
L 355.187424 232.013719 
L 361.69092 232.385385 
L 368.194417 232.581165 
L 374.697913 232.513283 
L 381.20141 231.740503 
L 387.704906 230.31992 
L 394.208403 228.411124 
L 400.711899 226.241812 
L 407.215396 223.914595 
L 413.718892 221.542536 
L 420.222389 219.180367 
L 426.725885 216.82539 
L 433.229382 214.697213 
L 439.732878 212.854051 
L 446.236375 211.859643 
L 452.739871 211.65622 
L 459.243368 211.689487 
L 465.746864 211.850876 
L 472.250361 212.077563 
L 478.753857 212.370895 
L 485.257354 212.74717 
L 491.76085 213.215153 
L 498.264347 213.331362 
L 504.767843 213.356762 
L 511.27134 213.337544 
L 517.774836 213.277866 
L 524.278333 213.247858 
L 530.781829 213.307199 
L 537.285326 213.320124 
L 543.788822 213.283822 
L 550.292319 213.272583 
L 556.795815 213.291577 
L 563.299312 213.314055 
L 569.802808 213.2936 
L 576.306305 213.27618 
L 582.809801 213.300456 
" style="fill:none;stroke:#ffd700;stroke-linecap:square;stroke-width:1.5;"/>
   </g>
   <g id="line2d_20">
    <path clip-path="url(#pa0d6e14c13)" d="M 75.537074 160.641321 
L 82.04057 160.641321 
L 88.544067 160.641321 
L 95.047563 160.641321 
L 101.55106 160.641321 
L 108.054556 160.641321 
L 114.558053 160.641321 
L 121.061549 160.641321 
L 127.565046 160.641321 
L 134.068542 160.641321 
L 140.572039 160.641321 
L 147.075535 160.641321 
L 153.579032 160.641321 
L 160.082528 160.636471 
L 166.586025 160.64006 
L 173.089521 160.555267 
L 179.593018 160.408605 
L 186.096514 160.401315 
L 192.600011 160.458568 
L 199.103507 160.55944 
L 205.607004 160.715219 
L 212.1105 161.014279 
L 218.613997 161.42441 
L 225.117493 161.860081 
L 231.62099 162.359991 
L 238.124486 162.918986 
L 244.627983 163.530691 
L 251.131479 164.250075 
L 257.634976 165.025562 
L 264.138472 165.856606 
L 270.641969 166.736999 
L 277.145465 167.664451 
L 283.648962 168.700036 
L 290.152458 169.819404 
L 296.655955 171.008849 
L 303.159451 172.208758 
L 309.662948 173.389348 
L 316.166444 174.559823 
L 322.669941 175.651694 
L 329.173437 176.644821 
L 335.676934 177.543216 
L 342.180431 178.331809 
L 348.683927 178.948897 
L 355.187424 179.435031 
L 361.69092 179.738512 
L 368.194417 179.790919 
L 374.697913 179.561512 
L 381.20141 179.070872 
L 387.704906 178.572353 
L 394.208403 177.806092 
L 400.711899 176.910641 
L 407.215396 176.023327 
L 413.718892 175.070323 
L 420.222389 174.053257 
L 426.725885 172.905945 
L 433.229382 171.948973 
L 439.732878 171.270937 
L 446.236375 170.812798 
L 452.739871 170.532672 
L 459.243368 170.453123 
L 465.746864 170.551294 
L 472.250361 170.579189 
L 478.753857 170.5958 
L 485.257354 170.678686 
L 491.76085 170.737499 
L 498.264347 170.857922 
L 504.767843 170.831342 
L 511.27134 170.7122 
L 517.774836 170.724057 
L 524.278333 170.744905 
L 530.781829 170.734824 
L 537.285326 170.760617 
L 543.788822 170.745669 
L 550.292319 170.711739 
L 556.795815 170.747793 
L 563.299312 170.751457 
L 569.802808 170.732216 
L 576.306305 170.741286 
L 582.809801 170.735959 
" style="fill:none;stroke:#ff1493;stroke-linecap:square;stroke-width:1.5;"/>
   </g>
   <g id="line2d_21">
    <path clip-path="url(#pa0d6e14c13)" d="M 75.537074 126.924945 
L 82.04057 126.924945 
L 88.544067 126.924945 
L 95.047563 126.924945 
L 101.55106 126.924945 
L 108.054556 126.924945 
L 114.558053 126.924945 
L 121.061549 126.924945 
L 127.565046 126.924945 
L 134.068542 126.924945 
L 140.572039 126.924945 
L 147.075535 126.924945 
L 153.579032 126.924945 
L 160.082528 126.922877 
L 166.586025 126.905378 
L 173.089521 126.815805 
L 179.593018 126.634288 
L 186.096514 126.336842 
L 192.600011 125.787197 
L 199.103507 125.06787 
L 205.607004 124.15927 
L 212.1105 123.005821 
L 218.613997 121.623259 
L 225.117493 120.109629 
L 231.62099 118.474273 
L 238.124486 116.692475 
L 244.627983 114.780756 
L 251.131479 112.667526 
L 257.634976 110.47068 
L 264.138472 108.211345 
L 270.641969 105.931107 
L 277.145465 103.607599 
L 283.648962 101.308816 
L 290.152458 99.055326 
L 296.655955 96.940635 
L 303.159451 94.955977 
L 309.662948 93.180248 
L 316.166444 91.643343 
L 322.669941 90.455852 
L 329.173437 89.597096 
L 335.676934 88.988066 
L 342.180431 88.744858 
L 348.683927 88.742161 
L 355.187424 88.96143 
L 361.69092 89.377041 
L 368.194417 89.974832 
L 374.697913 90.788296 
L 381.20141 91.647838 
L 387.704906 92.548178 
L 394.208403 93.800404 
L 400.711899 94.988906 
L 407.215396 95.800797 
L 413.718892 96.623814 
L 420.222389 97.524266 
L 426.725885 98.377964 
L 433.229382 99.07623 
L 439.732878 99.580178 
L 446.236375 99.418901 
L 452.739871 99.167826 
L 459.243368 98.964517 
L 465.746864 98.921023 
L 472.250361 98.980363 
L 478.753857 98.983286 
L 485.257354 99.022621 
L 491.76085 99.035434 
L 498.264347 98.928665 
L 504.767843 98.949232 
L 511.27134 99.082636 
L 517.774836 99.13928 
L 524.278333 99.132649 
L 530.781829 99.132424 
L 537.285326 99.119275 
L 543.788822 99.113656 
L 550.292319 99.142314 
L 556.795815 99.122309 
L 563.299312 99.097022 
L 569.802808 99.129502 
L 576.306305 99.136695 
L 582.809801 99.105788 
" style="fill:none;stroke:#008000;stroke-linecap:square;stroke-width:1.5;"/>
   </g>
   <g id="line2d_22">
    <path clip-path="url(#pa0d6e14c13)" d="M 75.537074 93.208569 
L 82.04057 93.208569 
L 88.544067 93.208569 
L 95.047563 93.208569 
L 101.55106 93.208569 
L 108.054556 93.208569 
L 114.558053 93.208569 
L 121.061549 93.208569 
L 127.565046 93.208569 
L 134.068542 93.208569 
L 140.572039 93.208569 
L 147.075535 93.208569 
L 153.579032 93.208569 
L 160.082528 93.210705 
L 166.586025 93.183507 
L 173.089521 92.925127 
L 179.593018 92.247765 
L 186.096514 91.138159 
L 192.600011 89.775456 
L 199.103507 88.196518 
L 205.607004 86.346837 
L 212.1105 84.304187 
L 218.613997 82.083627 
L 225.117493 79.759107 
L 231.62099 77.354343 
L 238.124486 74.927213 
L 244.627983 72.547062 
L 251.131479 70.118247 
L 257.634976 67.676956 
L 264.138472 65.374128 
L 270.641969 63.027468 
L 277.145465 60.612589 
L 283.648962 58.19209 
L 290.152458 55.671342 
L 296.655955 53.200493 
L 303.159451 50.813261 
L 309.662948 48.524369 
L 316.166444 46.348202 
L 322.669941 44.309597 
L 329.173437 42.465312 
L 335.676934 40.80006 
L 342.180431 39.200105 
L 348.683927 37.738725 
L 355.187424 36.497401 
L 361.69092 35.569638 
L 368.194417 34.975893 
L 374.697913 34.67267 
L 381.20141 34.867214 
L 387.704906 35.617179 
L 394.208403 36.870079 
L 400.711899 38.269983 
L 407.215396 39.601892 
L 413.718892 40.943579 
L 420.222389 42.274814 
L 426.725885 43.60515 
L 433.229382 44.815231 
L 439.732878 45.74288 
L 446.236375 46.280994 
L 452.739871 46.273464 
L 459.243368 46.173888 
L 465.746864 46.280095 
L 472.250361 46.336963 
L 478.753857 46.551399 
L 485.257354 46.764824 
L 491.76085 46.571629 
L 498.264347 46.449126 
L 504.767843 46.60838 
L 511.27134 46.581856 
L 517.774836 46.586239 
L 524.278333 46.759317 
L 530.781829 46.665248 
L 537.285326 46.591746 
L 543.788822 46.704696 
L 550.292319 46.669294 
L 556.795815 46.634454 
L 563.299312 46.656369 
L 569.802808 46.649064 
L 576.306305 46.665922 
L 582.809801 46.650525 
" style="fill:none;stroke:#8fbc8f;stroke-linecap:square;stroke-width:1.5;"/>
   </g>
   <g id="patch_3">
    <path d="M 50.173437 294.118125 
L 50.173437 22.318125 
" style="fill:none;stroke:#000000;stroke-linecap:square;stroke-linejoin:miter;stroke-width:0.8;"/>
   </g>
   <g id="patch_4">
    <path d="M 608.173437 294.118125 
L 608.173437 22.318125 
" style="fill:none;stroke:#000000;stroke-linecap:square;stroke-linejoin:miter;stroke-width:0.8;"/>
   </g>
   <g id="patch_5">
    <path d="M 50.173437 294.118125 
L 608.173437 294.118125 
" style="fill:none;stroke:#000000;stroke-linecap:square;stroke-linejoin:miter;stroke-width:0.8;"/>
   </g>
   <g id="patch_6">
    <path d="M 50.173437 22.318125 
L 608.173437 22.318125 
" style="fill:none;stroke:#000000;stroke-linecap:square;stroke-linejoin:miter;stroke-width:0.8;"/>
   </g>
   <g id="text_20">
    <!-- Center of mass of intruder -->
    <g transform="translate(249.95375 16.318125)scale(0.12 -0.12)">
     <defs>
      <path d="M 4122 4306 
L 4122 3641 
Q 3803 3938 3442 4084 
Q 3081 4231 2675 4231 
Q 1875 4231 1450 3742 
Q 1025 3253 1025 2328 
Q 1025 1406 1450 917 
Q 1875 428 2675 428 
Q 3081 428 3442 575 
Q 3803 722 4122 1019 
L 4122 359 
Q 3791 134 3420 21 
Q 3050 -91 2638 -91 
Q 1578 -91 968 557 
Q 359 1206 359 2328 
Q 359 3453 968 4101 
Q 1578 4750 2638 4750 
Q 3056 4750 3426 4639 
Q 3797 4528 4122 4306 
z
" id="DejaVuSans-43" transform="scale(0.015625)"/>
      <path d="M 3597 1894 
L 3597 1613 
L 953 1613 
Q 991 1019 1311 708 
Q 1631 397 2203 397 
Q 2534 397 2845 478 
Q 3156 559 3463 722 
L 3463 178 
Q 3153 47 2828 -22 
Q 2503 -91 2169 -91 
Q 1331 -91 842 396 
Q 353 884 353 1716 
Q 353 2575 817 3079 
Q 1281 3584 2069 3584 
Q 2775 3584 3186 3129 
Q 3597 2675 3597 1894 
z
M 3022 2063 
Q 3016 2534 2758 2815 
Q 2500 3097 2075 3097 
Q 1594 3097 1305 2825 
Q 1016 2553 972 2059 
L 3022 2063 
z
" id="DejaVuSans-65" transform="scale(0.015625)"/>
      <path d="M 3513 2113 
L 3513 0 
L 2938 0 
L 2938 2094 
Q 2938 2591 2744 2837 
Q 2550 3084 2163 3084 
Q 1697 3084 1428 2787 
Q 1159 2491 1159 1978 
L 1159 0 
L 581 0 
L 581 3500 
L 1159 3500 
L 1159 2956 
Q 1366 3272 1645 3428 
Q 1925 3584 2291 3584 
Q 2894 3584 3203 3211 
Q 3513 2838 3513 2113 
z
" id="DejaVuSans-6e" transform="scale(0.015625)"/>
      <path d="M 1172 4494 
L 1172 3500 
L 2356 3500 
L 2356 3053 
L 1172 3053 
L 1172 1153 
Q 1172 725 1289 603 
Q 1406 481 1766 481 
L 2356 481 
L 2356 0 
L 1766 0 
Q 1100 0 847 248 
Q 594 497 594 1153 
L 594 3053 
L 172 3053 
L 172 3500 
L 594 3500 
L 594 4494 
L 1172 4494 
z
" id="DejaVuSans-74" transform="scale(0.015625)"/>
      <path d="M 2631 2963 
Q 2534 3019 2420 3045 
Q 2306 3072 2169 3072 
Q 1681 3072 1420 2755 
Q 1159 2438 1159 1844 
L 1159 0 
L 581 0 
L 581 3500 
L 1159 3500 
L 1159 2956 
Q 1341 3275 1631 3429 
Q 1922 3584 2338 3584 
Q 2397 3584 2469 3576 
Q 2541 3569 2628 3553 
L 2631 2963 
z
" id="DejaVuSans-72" transform="scale(0.015625)"/>
      <path id="DejaVuSans-20" transform="scale(0.015625)"/>
      <path d="M 1959 3097 
Q 1497 3097 1228 2736 
Q 959 2375 959 1747 
Q 959 1119 1226 758 
Q 1494 397 1959 397 
Q 2419 397 2687 759 
Q 2956 1122 2956 1747 
Q 2956 2369 2687 2733 
Q 2419 3097 1959 3097 
z
M 1959 3584 
Q 2709 3584 3137 3096 
Q 3566 2609 3566 1747 
Q 3566 888 3137 398 
Q 2709 -91 1959 -91 
Q 1206 -91 779 398 
Q 353 888 353 1747 
Q 353 2609 779 3096 
Q 1206 3584 1959 3584 
z
" id="DejaVuSans-6f" transform="scale(0.015625)"/>
      <path d="M 2375 4863 
L 2375 4384 
L 1825 4384 
Q 1516 4384 1395 4259 
Q 1275 4134 1275 3809 
L 1275 3500 
L 2222 3500 
L 2222 3053 
L 1275 3053 
L 1275 0 
L 697 0 
L 697 3053 
L 147 3053 
L 147 3500 
L 697 3500 
L 697 3744 
Q 697 4328 969 4595 
Q 1241 4863 1831 4863 
L 2375 4863 
z
" id="DejaVuSans-66" transform="scale(0.015625)"/>
      <path d="M 3328 2828 
Q 3544 3216 3844 3400 
Q 4144 3584 4550 3584 
Q 5097 3584 5394 3201 
Q 5691 2819 5691 2113 
L 5691 0 
L 5113 0 
L 5113 2094 
Q 5113 2597 4934 2840 
Q 4756 3084 4391 3084 
Q 3944 3084 3684 2787 
Q 3425 2491 3425 1978 
L 3425 0 
L 2847 0 
L 2847 2094 
Q 2847 2600 2669 2842 
Q 2491 3084 2119 3084 
Q 1678 3084 1418 2786 
Q 1159 2488 1159 1978 
L 1159 0 
L 581 0 
L 581 3500 
L 1159 3500 
L 1159 2956 
Q 1356 3278 1631 3431 
Q 1906 3584 2284 3584 
Q 2666 3584 2933 3390 
Q 3200 3197 3328 2828 
z
" id="DejaVuSans-6d" transform="scale(0.015625)"/>
      <path d="M 2194 1759 
Q 1497 1759 1228 1600 
Q 959 1441 959 1056 
Q 959 750 1161 570 
Q 1363 391 1709 391 
Q 2188 391 2477 730 
Q 2766 1069 2766 1631 
L 2766 1759 
L 2194 1759 
z
M 3341 1997 
L 3341 0 
L 2766 0 
L 2766 531 
Q 2569 213 2275 61 
Q 1981 -91 1556 -91 
Q 1019 -91 701 211 
Q 384 513 384 1019 
Q 384 1609 779 1909 
Q 1175 2209 1959 2209 
L 2766 2209 
L 2766 2266 
Q 2766 2663 2505 2880 
Q 2244 3097 1772 3097 
Q 1472 3097 1187 3025 
Q 903 2953 641 2809 
L 641 3341 
Q 956 3463 1253 3523 
Q 1550 3584 1831 3584 
Q 2591 3584 2966 3190 
Q 3341 2797 3341 1997 
z
" id="DejaVuSans-61" transform="scale(0.015625)"/>
      <path d="M 2834 3397 
L 2834 2853 
Q 2591 2978 2328 3040 
Q 2066 3103 1784 3103 
Q 1356 3103 1142 2972 
Q 928 2841 928 2578 
Q 928 2378 1081 2264 
Q 1234 2150 1697 2047 
L 1894 2003 
Q 2506 1872 2764 1633 
Q 3022 1394 3022 966 
Q 3022 478 2636 193 
Q 2250 -91 1575 -91 
Q 1294 -91 989 -36 
Q 684 19 347 128 
L 347 722 
Q 666 556 975 473 
Q 1284 391 1588 391 
Q 1994 391 2212 530 
Q 2431 669 2431 922 
Q 2431 1156 2273 1281 
Q 2116 1406 1581 1522 
L 1381 1569 
Q 847 1681 609 1914 
Q 372 2147 372 2553 
Q 372 3047 722 3315 
Q 1072 3584 1716 3584 
Q 2034 3584 2315 3537 
Q 2597 3491 2834 3397 
z
" id="DejaVuSans-73" transform="scale(0.015625)"/>
      <path d="M 603 3500 
L 1178 3500 
L 1178 0 
L 603 0 
L 603 3500 
z
M 603 4863 
L 1178 4863 
L 1178 4134 
L 603 4134 
L 603 4863 
z
" id="DejaVuSans-69" transform="scale(0.015625)"/>
      <path d="M 544 1381 
L 544 3500 
L 1119 3500 
L 1119 1403 
Q 1119 906 1312 657 
Q 1506 409 1894 409 
Q 2359 409 2629 706 
Q 2900 1003 2900 1516 
L 2900 3500 
L 3475 3500 
L 3475 0 
L 2900 0 
L 2900 538 
Q 2691 219 2414 64 
Q 2138 -91 1772 -91 
Q 1169 -91 856 284 
Q 544 659 544 1381 
z
M 1991 3584 
L 1991 3584 
z
" id="DejaVuSans-75" transform="scale(0.015625)"/>
      <path d="M 2906 2969 
L 2906 4863 
L 3481 4863 
L 3481 0 
L 2906 0 
L 2906 525 
Q 2725 213 2448 61 
Q 2172 -91 1784 -91 
Q 1150 -91 751 415 
Q 353 922 353 1747 
Q 353 2572 751 3078 
Q 1150 3584 1784 3584 
Q 2172 3584 2448 3432 
Q 2725 3281 2906 2969 
z
M 947 1747 
Q 947 1113 1208 752 
Q 1469 391 1925 391 
Q 2381 391 2643 752 
Q 2906 1113 2906 1747 
Q 2906 2381 2643 2742 
Q 2381 3103 1925 3103 
Q 1469 3103 1208 2742 
Q 947 2381 947 1747 
z
" id="DejaVuSans-64" transform="scale(0.015625)"/>
     </defs>
     <use xlink:href="#DejaVuSans-43"/>
     <use x="69.824219" xlink:href="#DejaVuSans-65"/>
     <use x="131.347656" xlink:href="#DejaVuSans-6e"/>
     <use x="194.726562" xlink:href="#DejaVuSans-74"/>
     <use x="233.935547" xlink:href="#DejaVuSans-65"/>
     <use x="295.458984" xlink:href="#DejaVuSans-72"/>
     <use x="336.572266" xlink:href="#DejaVuSans-20"/>
     <use x="368.359375" xlink:href="#DejaVuSans-6f"/>
     <use x="429.541016" xlink:href="#DejaVuSans-66"/>
     <use x="464.746094" xlink:href="#DejaVuSans-20"/>
     <use x="496.533203" xlink:href="#DejaVuSans-6d"/>
     <use x="593.945312" xlink:href="#DejaVuSans-61"/>
     <use x="655.224609" xlink:href="#DejaVuSans-73"/>
     <use x="707.324219" xlink:href="#DejaVuSans-73"/>
     <use x="759.423828" xlink:href="#DejaVuSans-20"/>
     <use x="791.210938" xlink:href="#DejaVuSans-6f"/>
     <use x="852.392578" xlink:href="#DejaVuSans-66"/>
     <use x="887.597656" xlink:href="#DejaVuSans-20"/>
     <use x="919.384766" xlink:href="#DejaVuSans-69"/>
     <use x="947.167969" xlink:href="#DejaVuSans-6e"/>
     <use x="1010.546875" xlink:href="#DejaVuSans-74"/>
     <use x="1049.755859" xlink:href="#DejaVuSans-72"/>
     <use x="1090.869141" xlink:href="#DejaVuSans-75"/>
     <use x="1154.248047" xlink:href="#DejaVuSans-64"/>
     <use x="1217.724609" xlink:href="#DejaVuSans-65"/>
     <use x="1279.248047" xlink:href="#DejaVuSans-72"/>
    </g>
   </g>
   <g id="legend_1">
    <g id="patch_7">
     <path d="M 57.173437 103.70875 
L 142.379688 103.70875 
Q 144.379688 103.70875 144.379688 101.70875 
L 144.379688 29.318125 
Q 144.379688 27.318125 142.379688 27.318125 
L 57.173437 27.318125 
Q 55.173437 27.318125 55.173437 29.318125 
L 55.173437 101.70875 
Q 55.173437 103.70875 57.173437 103.70875 
z
" style="fill:#ffffff;opacity:0.8;stroke:#cccccc;stroke-linejoin:miter;"/>
    </g>
    <g id="line2d_23">
     <path d="M 59.173437 35.416563 
L 79.173438 35.416563 
" style="fill:none;stroke:#0000ff;stroke-linecap:square;stroke-width:1.5;"/>
    </g>
    <g id="line2d_24"/>
    <g id="text_21">
     <!-- intruder1 -->
     <g transform="translate(87.173438 38.916563)scale(0.1 -0.1)">
      <defs>
       <path d="M 4056 2131 
L 4056 0 
L 2931 0 
L 2931 347 
L 2931 1631 
Q 2931 2084 2911 2256 
Q 2891 2428 2841 2509 
Q 2775 2619 2662 2680 
Q 2550 2741 2406 2741 
Q 2056 2741 1856 2470 
Q 1656 2200 1656 1722 
L 1656 0 
L 538 0 
L 538 3500 
L 1656 3500 
L 1656 2988 
Q 1909 3294 2193 3439 
Q 2478 3584 2822 3584 
Q 3428 3584 3742 3212 
Q 4056 2841 4056 2131 
z
" id="DejaVuSans-Bold-6e" transform="scale(0.015625)"/>
       <path d="M 3138 2547 
Q 2991 2616 2845 2648 
Q 2700 2681 2553 2681 
Q 2122 2681 1889 2404 
Q 1656 2128 1656 1613 
L 1656 0 
L 538 0 
L 538 3500 
L 1656 3500 
L 1656 2925 
Q 1872 3269 2151 3426 
Q 2431 3584 2822 3584 
Q 2878 3584 2943 3579 
Q 3009 3575 3134 3559 
L 3138 2547 
z
" id="DejaVuSans-Bold-72" transform="scale(0.015625)"/>
       <path d="M 500 1363 
L 500 3500 
L 1625 3500 
L 1625 3150 
Q 1625 2866 1622 2436 
Q 1619 2006 1619 1863 
Q 1619 1441 1641 1255 
Q 1663 1069 1716 984 
Q 1784 875 1895 815 
Q 2006 756 2150 756 
Q 2500 756 2700 1025 
Q 2900 1294 2900 1772 
L 2900 3500 
L 4019 3500 
L 4019 0 
L 2900 0 
L 2900 506 
Q 2647 200 2364 54 
Q 2081 -91 1741 -91 
Q 1134 -91 817 281 
Q 500 653 500 1363 
z
" id="DejaVuSans-Bold-75" transform="scale(0.015625)"/>
       <path d="M 2919 2988 
L 2919 4863 
L 4044 4863 
L 4044 0 
L 2919 0 
L 2919 506 
Q 2688 197 2409 53 
Q 2131 -91 1766 -91 
Q 1119 -91 703 423 
Q 288 938 288 1747 
Q 288 2556 703 3070 
Q 1119 3584 1766 3584 
Q 2128 3584 2408 3439 
Q 2688 3294 2919 2988 
z
M 2181 722 
Q 2541 722 2730 984 
Q 2919 1247 2919 1747 
Q 2919 2247 2730 2509 
Q 2541 2772 2181 2772 
Q 1825 2772 1636 2509 
Q 1447 2247 1447 1747 
Q 1447 1247 1636 984 
Q 1825 722 2181 722 
z
" id="DejaVuSans-Bold-64" transform="scale(0.015625)"/>
      </defs>
      <use xlink:href="#DejaVuSans-Bold-69"/>
      <use x="34.277344" xlink:href="#DejaVuSans-Bold-6e"/>
      <use x="105.46875" xlink:href="#DejaVuSans-Bold-74"/>
      <use x="153.271484" xlink:href="#DejaVuSans-Bold-72"/>
      <use x="202.587891" xlink:href="#DejaVuSans-Bold-75"/>
      <use x="273.779297" xlink:href="#DejaVuSans-Bold-64"/>
      <use x="345.361328" xlink:href="#DejaVuSans-Bold-65"/>
      <use x="413.183594" xlink:href="#DejaVuSans-Bold-72"/>
      <use x="462.5" xlink:href="#DejaVuSans-Bold-31"/>
     </g>
    </g>
    <g id="line2d_25">
     <path d="M 59.173437 50.094688 
L 79.173438 50.094688 
" style="fill:none;stroke:#ffd700;stroke-linecap:square;stroke-width:1.5;"/>
    </g>
    <g id="line2d_26"/>
    <g id="text_22">
     <!-- intruder2 -->
     <g transform="translate(87.173438 53.594688)scale(0.1 -0.1)">
      <use xlink:href="#DejaVuSans-Bold-69"/>
      <use x="34.277344" xlink:href="#DejaVuSans-Bold-6e"/>
      <use x="105.46875" xlink:href="#DejaVuSans-Bold-74"/>
      <use x="153.271484" xlink:href="#DejaVuSans-Bold-72"/>
      <use x="202.587891" xlink:href="#DejaVuSans-Bold-75"/>
      <use x="273.779297" xlink:href="#DejaVuSans-Bold-64"/>
      <use x="345.361328" xlink:href="#DejaVuSans-Bold-65"/>
      <use x="413.183594" xlink:href="#DejaVuSans-Bold-72"/>
      <use x="462.5" xlink:href="#DejaVuSans-Bold-32"/>
     </g>
    </g>
    <g id="line2d_27">
     <path d="M 59.173437 64.772813 
L 79.173438 64.772813 
" style="fill:none;stroke:#ff1493;stroke-linecap:square;stroke-width:1.5;"/>
    </g>
    <g id="line2d_28"/>
    <g id="text_23">
     <!-- intruder3 -->
     <g transform="translate(87.173438 68.272813)scale(0.1 -0.1)">
      <use xlink:href="#DejaVuSans-Bold-69"/>
      <use x="34.277344" xlink:href="#DejaVuSans-Bold-6e"/>
      <use x="105.46875" xlink:href="#DejaVuSans-Bold-74"/>
      <use x="153.271484" xlink:href="#DejaVuSans-Bold-72"/>
      <use x="202.587891" xlink:href="#DejaVuSans-Bold-75"/>
      <use x="273.779297" xlink:href="#DejaVuSans-Bold-64"/>
      <use x="345.361328" xlink:href="#DejaVuSans-Bold-65"/>
      <use x="413.183594" xlink:href="#DejaVuSans-Bold-72"/>
      <use x="462.5" xlink:href="#DejaVuSans-Bold-33"/>
     </g>
    </g>
    <g id="line2d_29">
     <path d="M 59.173437 79.450938 
L 79.173438 79.450938 
" style="fill:none;stroke:#008000;stroke-linecap:square;stroke-width:1.5;"/>
    </g>
    <g id="line2d_30"/>
    <g id="text_24">
     <!-- intruder4 -->
     <g transform="translate(87.173438 82.950938)scale(0.1 -0.1)">
      <use xlink:href="#DejaVuSans-Bold-69"/>
      <use x="34.277344" xlink:href="#DejaVuSans-Bold-6e"/>
      <use x="105.46875" xlink:href="#DejaVuSans-Bold-74"/>
      <use x="153.271484" xlink:href="#DejaVuSans-Bold-72"/>
      <use x="202.587891" xlink:href="#DejaVuSans-Bold-75"/>
      <use x="273.779297" xlink:href="#DejaVuSans-Bold-64"/>
      <use x="345.361328" xlink:href="#DejaVuSans-Bold-65"/>
      <use x="413.183594" xlink:href="#DejaVuSans-Bold-72"/>
      <use x="462.5" xlink:href="#DejaVuSans-Bold-34"/>
     </g>
    </g>
    <g id="line2d_31">
     <path d="M 59.173437 94.129063 
L 79.173438 94.129063 
" style="fill:none;stroke:#8fbc8f;stroke-linecap:square;stroke-width:1.5;"/>
    </g>
    <g id="line2d_32"/>
    <g id="text_25">
     <!-- intruder5 -->
     <g transform="translate(87.173438 97.629063)scale(0.1 -0.1)">
      <use xlink:href="#DejaVuSans-Bold-69"/>
      <use x="34.277344" xlink:href="#DejaVuSans-Bold-6e"/>
      <use x="105.46875" xlink:href="#DejaVuSans-Bold-74"/>
      <use x="153.271484" xlink:href="#DejaVuSans-Bold-72"/>
      <use x="202.587891" xlink:href="#DejaVuSans-Bold-75"/>
      <use x="273.779297" xlink:href="#DejaVuSans-Bold-64"/>
      <use x="345.361328" xlink:href="#DejaVuSans-Bold-65"/>
      <use x="413.183594" xlink:href="#DejaVuSans-Bold-72"/>
      <use x="462.5" xlink:href="#DejaVuSans-Bold-35"/>
     </g>
    </g>
   </g>
  </g>
 </g>
 <defs>
  <clipPath id="pa0d6e14c13">
   <rect height="271.8" width="558" x="50.173437" y="22.318125"/>
  </clipPath>
 </defs>
</svg>
