<?xml version="1.0" encoding="utf-8" standalone="no"?>
<!DOCTYPE svg PUBLIC "-//W3C//DTD SVG 1.1//EN"
  "http://www.w3.org/Graphics/SVG/1.1/DTD/svg11.dtd">
<svg height="331.674375pt" version="1.1" viewBox="0 0 622.409375 331.674375" width="622.409375pt" xmlns="http://www.w3.org/2000/svg" xmlns:xlink="http://www.w3.org/1999/xlink">
 <metadata>
  <rdf:RDF xmlns:cc="http://creativecommons.org/ns#" xmlns:dc="http://purl.org/dc/elements/1.1/" xmlns:rdf="http://www.w3.org/1999/02/22-rdf-syntax-ns#">
   <cc:Work>
    <dc:type rdf:resource="http://purl.org/dc/dcmitype/StillImage"/>
    <dc:date>2022-05-28T19:29:58.749846</dc:date>
    <dc:format>image/svg+xml</dc:format>
    <dc:creator>
     <cc:Agent>
      <dc:title>Matplotlib v3.4.3, https://matplotlib.org/</dc:title>
     </cc:Agent>
    </dc:creator>
   </cc:Work>
  </rdf:RDF>
 </metadata>
 <defs>
  <style type="text/css">*{stroke-linecap:butt;stroke-linejoin:round;}</style>
 </defs>
 <g id="figure_1">
  <g id="patch_1">
   <path d="M 0 331.674375 
L 622.409375 331.674375 
L 622.409375 0 
L 0 0 
z
" style="fill:none;"/>
  </g>
  <g id="axes_1">
   <g id="patch_2">
    <path d="M 57.209375 294.118125 
L 615.209375 294.118125 
L 615.209375 22.318125 
L 57.209375 22.318125 
z
" style="fill:#ffffff;"/>
   </g>
   <g id="matplotlib.axis_1">
    <g id="xtick_1">
     <g id="line2d_1">
      <defs>
       <path d="M 0 0 
L 0 3.5 
" id="m506309ee2b" style="stroke:#000000;stroke-width:0.8;"/>
      </defs>
      <g>
       <use style="stroke:#000000;stroke-width:0.8;" x="82.573011" xlink:href="#m506309ee2b" y="294.118125"/>
      </g>
     </g>
     <g id="text_1">
      <!-- 0 -->
      <g transform="translate(79.094105 308.716563)scale(0.1 -0.1)">
       <defs>
        <path d="M 2944 2338 
Q 2944 3213 2780 3570 
Q 2616 3928 2228 3928 
Q 1841 3928 1675 3570 
Q 1509 3213 1509 2338 
Q 1509 1453 1675 1090 
Q 1841 728 2228 728 
Q 2613 728 2778 1090 
Q 2944 1453 2944 2338 
z
M 4147 2328 
Q 4147 1169 3647 539 
Q 3147 -91 2228 -91 
Q 1306 -91 806 539 
Q 306 1169 306 2328 
Q 306 3491 806 4120 
Q 1306 4750 2228 4750 
Q 3147 4750 3647 4120 
Q 4147 3491 4147 2328 
z
" id="DejaVuSans-Bold-30" transform="scale(0.015625)"/>
       </defs>
       <use xlink:href="#DejaVuSans-Bold-30"/>
      </g>
     </g>
    </g>
    <g id="xtick_2">
     <g id="line2d_2">
      <g>
       <use style="stroke:#000000;stroke-width:0.8;" x="147.607976" xlink:href="#m506309ee2b" y="294.118125"/>
      </g>
     </g>
     <g id="text_2">
      <!-- 5 -->
      <g transform="translate(144.12907 308.716563)scale(0.1 -0.1)">
       <defs>
        <path d="M 678 4666 
L 3669 4666 
L 3669 3781 
L 1638 3781 
L 1638 3059 
Q 1775 3097 1914 3117 
Q 2053 3138 2203 3138 
Q 3056 3138 3531 2711 
Q 4006 2284 4006 1522 
Q 4006 766 3489 337 
Q 2972 -91 2053 -91 
Q 1656 -91 1267 -14 
Q 878 63 494 219 
L 494 1166 
Q 875 947 1217 837 
Q 1559 728 1863 728 
Q 2300 728 2551 942 
Q 2803 1156 2803 1522 
Q 2803 1891 2551 2103 
Q 2300 2316 1863 2316 
Q 1603 2316 1309 2248 
Q 1016 2181 678 2041 
L 678 4666 
z
" id="DejaVuSans-Bold-35" transform="scale(0.015625)"/>
       </defs>
       <use xlink:href="#DejaVuSans-Bold-35"/>
      </g>
     </g>
    </g>
    <g id="xtick_3">
     <g id="line2d_3">
      <g>
       <use style="stroke:#000000;stroke-width:0.8;" x="212.642941" xlink:href="#m506309ee2b" y="294.118125"/>
      </g>
     </g>
     <g id="text_3">
      <!-- 10 -->
      <g transform="translate(205.685129 308.716563)scale(0.1 -0.1)">
       <defs>
        <path d="M 750 831 
L 1813 831 
L 1813 3847 
L 722 3622 
L 722 4441 
L 1806 4666 
L 2950 4666 
L 2950 831 
L 4013 831 
L 4013 0 
L 750 0 
L 750 831 
z
" id="DejaVuSans-Bold-31" transform="scale(0.015625)"/>
       </defs>
       <use xlink:href="#DejaVuSans-Bold-31"/>
       <use x="69.580078" xlink:href="#DejaVuSans-Bold-30"/>
      </g>
     </g>
    </g>
    <g id="xtick_4">
     <g id="line2d_4">
      <g>
       <use style="stroke:#000000;stroke-width:0.8;" x="277.677906" xlink:href="#m506309ee2b" y="294.118125"/>
      </g>
     </g>
     <g id="text_4">
      <!-- 15 -->
      <g transform="translate(270.720094 308.716563)scale(0.1 -0.1)">
       <use xlink:href="#DejaVuSans-Bold-31"/>
       <use x="69.580078" xlink:href="#DejaVuSans-Bold-35"/>
      </g>
     </g>
    </g>
    <g id="xtick_5">
     <g id="line2d_5">
      <g>
       <use style="stroke:#000000;stroke-width:0.8;" x="342.712872" xlink:href="#m506309ee2b" y="294.118125"/>
      </g>
     </g>
     <g id="text_5">
      <!-- 20 -->
      <g transform="translate(335.755059 308.716563)scale(0.1 -0.1)">
       <defs>
        <path d="M 1844 884 
L 3897 884 
L 3897 0 
L 506 0 
L 506 884 
L 2209 2388 
Q 2438 2594 2547 2791 
Q 2656 2988 2656 3200 
Q 2656 3528 2436 3728 
Q 2216 3928 1850 3928 
Q 1569 3928 1234 3808 
Q 900 3688 519 3450 
L 519 4475 
Q 925 4609 1322 4679 
Q 1719 4750 2100 4750 
Q 2938 4750 3402 4381 
Q 3866 4013 3866 3353 
Q 3866 2972 3669 2642 
Q 3472 2313 2841 1759 
L 1844 884 
z
" id="DejaVuSans-Bold-32" transform="scale(0.015625)"/>
       </defs>
       <use xlink:href="#DejaVuSans-Bold-32"/>
       <use x="69.580078" xlink:href="#DejaVuSans-Bold-30"/>
      </g>
     </g>
    </g>
    <g id="xtick_6">
     <g id="line2d_6">
      <g>
       <use style="stroke:#000000;stroke-width:0.8;" x="407.747837" xlink:href="#m506309ee2b" y="294.118125"/>
      </g>
     </g>
     <g id="text_6">
      <!-- 25 -->
      <g transform="translate(400.790024 308.716563)scale(0.1 -0.1)">
       <use xlink:href="#DejaVuSans-Bold-32"/>
       <use x="69.580078" xlink:href="#DejaVuSans-Bold-35"/>
      </g>
     </g>
    </g>
    <g id="xtick_7">
     <g id="line2d_7">
      <g>
       <use style="stroke:#000000;stroke-width:0.8;" x="472.782802" xlink:href="#m506309ee2b" y="294.118125"/>
      </g>
     </g>
     <g id="text_7">
      <!-- 30 -->
      <g transform="translate(465.824989 308.716563)scale(0.1 -0.1)">
       <defs>
        <path d="M 2981 2516 
Q 3453 2394 3698 2092 
Q 3944 1791 3944 1325 
Q 3944 631 3412 270 
Q 2881 -91 1863 -91 
Q 1503 -91 1142 -33 
Q 781 25 428 141 
L 428 1069 
Q 766 900 1098 814 
Q 1431 728 1753 728 
Q 2231 728 2486 893 
Q 2741 1059 2741 1369 
Q 2741 1688 2480 1852 
Q 2219 2016 1709 2016 
L 1228 2016 
L 1228 2791 
L 1734 2791 
Q 2188 2791 2409 2933 
Q 2631 3075 2631 3366 
Q 2631 3634 2415 3781 
Q 2200 3928 1806 3928 
Q 1516 3928 1219 3862 
Q 922 3797 628 3669 
L 628 4550 
Q 984 4650 1334 4700 
Q 1684 4750 2022 4750 
Q 2931 4750 3382 4451 
Q 3834 4153 3834 3553 
Q 3834 3144 3618 2883 
Q 3403 2622 2981 2516 
z
" id="DejaVuSans-Bold-33" transform="scale(0.015625)"/>
       </defs>
       <use xlink:href="#DejaVuSans-Bold-33"/>
       <use x="69.580078" xlink:href="#DejaVuSans-Bold-30"/>
      </g>
     </g>
    </g>
    <g id="xtick_8">
     <g id="line2d_8">
      <g>
       <use style="stroke:#000000;stroke-width:0.8;" x="537.817767" xlink:href="#m506309ee2b" y="294.118125"/>
      </g>
     </g>
     <g id="text_8">
      <!-- 35 -->
      <g transform="translate(530.859954 308.716563)scale(0.1 -0.1)">
       <use xlink:href="#DejaVuSans-Bold-33"/>
       <use x="69.580078" xlink:href="#DejaVuSans-Bold-35"/>
      </g>
     </g>
    </g>
    <g id="xtick_9">
     <g id="line2d_9">
      <g>
       <use style="stroke:#000000;stroke-width:0.8;" x="602.852732" xlink:href="#m506309ee2b" y="294.118125"/>
      </g>
     </g>
     <g id="text_9">
      <!-- 40 -->
      <g transform="translate(595.894919 308.716563)scale(0.1 -0.1)">
       <defs>
        <path d="M 2356 3675 
L 1038 1722 
L 2356 1722 
L 2356 3675 
z
M 2156 4666 
L 3494 4666 
L 3494 1722 
L 4159 1722 
L 4159 850 
L 3494 850 
L 3494 0 
L 2356 0 
L 2356 850 
L 288 850 
L 288 1881 
L 2156 4666 
z
" id="DejaVuSans-Bold-34" transform="scale(0.015625)"/>
       </defs>
       <use xlink:href="#DejaVuSans-Bold-34"/>
       <use x="69.580078" xlink:href="#DejaVuSans-Bold-30"/>
      </g>
     </g>
    </g>
    <g id="text_10">
     <!-- time -->
     <g transform="translate(323.503906 322.394687)scale(0.1 -0.1)">
      <defs>
       <path d="M 1759 4494 
L 1759 3500 
L 2913 3500 
L 2913 2700 
L 1759 2700 
L 1759 1216 
Q 1759 972 1856 886 
Q 1953 800 2241 800 
L 2816 800 
L 2816 0 
L 1856 0 
Q 1194 0 917 276 
Q 641 553 641 1216 
L 641 2700 
L 84 2700 
L 84 3500 
L 641 3500 
L 641 4494 
L 1759 4494 
z
" id="DejaVuSans-Bold-74" transform="scale(0.015625)"/>
       <path d="M 538 3500 
L 1656 3500 
L 1656 0 
L 538 0 
L 538 3500 
z
M 538 4863 
L 1656 4863 
L 1656 3950 
L 538 3950 
L 538 4863 
z
" id="DejaVuSans-Bold-69" transform="scale(0.015625)"/>
       <path d="M 3781 2919 
Q 3994 3244 4286 3414 
Q 4578 3584 4928 3584 
Q 5531 3584 5847 3212 
Q 6163 2841 6163 2131 
L 6163 0 
L 5038 0 
L 5038 1825 
Q 5041 1866 5042 1909 
Q 5044 1953 5044 2034 
Q 5044 2406 4934 2573 
Q 4825 2741 4581 2741 
Q 4263 2741 4089 2478 
Q 3916 2216 3909 1719 
L 3909 0 
L 2784 0 
L 2784 1825 
Q 2784 2406 2684 2573 
Q 2584 2741 2328 2741 
Q 2006 2741 1831 2477 
Q 1656 2213 1656 1722 
L 1656 0 
L 531 0 
L 531 3500 
L 1656 3500 
L 1656 2988 
Q 1863 3284 2130 3434 
Q 2397 3584 2719 3584 
Q 3081 3584 3359 3409 
Q 3638 3234 3781 2919 
z
" id="DejaVuSans-Bold-6d" transform="scale(0.015625)"/>
       <path d="M 4031 1759 
L 4031 1441 
L 1416 1441 
Q 1456 1047 1700 850 
Q 1944 653 2381 653 
Q 2734 653 3104 758 
Q 3475 863 3866 1075 
L 3866 213 
Q 3469 63 3072 -14 
Q 2675 -91 2278 -91 
Q 1328 -91 801 392 
Q 275 875 275 1747 
Q 275 2603 792 3093 
Q 1309 3584 2216 3584 
Q 3041 3584 3536 3087 
Q 4031 2591 4031 1759 
z
M 2881 2131 
Q 2881 2450 2695 2645 
Q 2509 2841 2209 2841 
Q 1884 2841 1681 2658 
Q 1478 2475 1428 2131 
L 2881 2131 
z
" id="DejaVuSans-Bold-65" transform="scale(0.015625)"/>
      </defs>
      <use xlink:href="#DejaVuSans-Bold-74"/>
      <use x="47.802734" xlink:href="#DejaVuSans-Bold-69"/>
      <use x="82.080078" xlink:href="#DejaVuSans-Bold-6d"/>
      <use x="186.279297" xlink:href="#DejaVuSans-Bold-65"/>
     </g>
    </g>
   </g>
   <g id="matplotlib.axis_2">
    <g id="ytick_1">
     <g id="line2d_10">
      <defs>
       <path d="M 0 0 
L -3.5 0 
" id="mb9bc530eac" style="stroke:#000000;stroke-width:0.8;"/>
      </defs>
      <g>
       <use style="stroke:#000000;stroke-width:0.8;" x="57.209375" xlink:href="#mb9bc530eac" y="285.631288"/>
      </g>
     </g>
     <g id="text_11">
      <!-- −100 -->
      <g transform="translate(20.95625 289.430506)scale(0.1 -0.1)">
       <defs>
        <path d="M 678 2375 
L 4684 2375 
L 4684 1638 
L 678 1638 
L 678 2375 
z
" id="DejaVuSans-Bold-2212" transform="scale(0.015625)"/>
       </defs>
       <use xlink:href="#DejaVuSans-Bold-2212"/>
       <use x="83.789062" xlink:href="#DejaVuSans-Bold-31"/>
       <use x="153.369141" xlink:href="#DejaVuSans-Bold-30"/>
       <use x="222.949219" xlink:href="#DejaVuSans-Bold-30"/>
      </g>
     </g>
    </g>
    <g id="ytick_2">
     <g id="line2d_11">
      <g>
       <use style="stroke:#000000;stroke-width:0.8;" x="57.209375" xlink:href="#mb9bc530eac" y="254.666342"/>
      </g>
     </g>
     <g id="text_12">
      <!-- −75 -->
      <g transform="translate(27.914062 258.465561)scale(0.1 -0.1)">
       <defs>
        <path d="M 428 4666 
L 3944 4666 
L 3944 3988 
L 2125 0 
L 953 0 
L 2675 3781 
L 428 3781 
L 428 4666 
z
" id="DejaVuSans-Bold-37" transform="scale(0.015625)"/>
       </defs>
       <use xlink:href="#DejaVuSans-Bold-2212"/>
       <use x="83.789062" xlink:href="#DejaVuSans-Bold-37"/>
       <use x="153.369141" xlink:href="#DejaVuSans-Bold-35"/>
      </g>
     </g>
    </g>
    <g id="ytick_3">
     <g id="line2d_12">
      <g>
       <use style="stroke:#000000;stroke-width:0.8;" x="57.209375" xlink:href="#mb9bc530eac" y="223.701397"/>
      </g>
     </g>
     <g id="text_13">
      <!-- −50 -->
      <g transform="translate(27.914062 227.500616)scale(0.1 -0.1)">
       <use xlink:href="#DejaVuSans-Bold-2212"/>
       <use x="83.789062" xlink:href="#DejaVuSans-Bold-35"/>
       <use x="153.369141" xlink:href="#DejaVuSans-Bold-30"/>
      </g>
     </g>
    </g>
    <g id="ytick_4">
     <g id="line2d_13">
      <g>
       <use style="stroke:#000000;stroke-width:0.8;" x="57.209375" xlink:href="#mb9bc530eac" y="192.736451"/>
      </g>
     </g>
     <g id="text_14">
      <!-- −25 -->
      <g transform="translate(27.914062 196.53567)scale(0.1 -0.1)">
       <use xlink:href="#DejaVuSans-Bold-2212"/>
       <use x="83.789062" xlink:href="#DejaVuSans-Bold-32"/>
       <use x="153.369141" xlink:href="#DejaVuSans-Bold-35"/>
      </g>
     </g>
    </g>
    <g id="ytick_5">
     <g id="line2d_14">
      <g>
       <use style="stroke:#000000;stroke-width:0.8;" x="57.209375" xlink:href="#mb9bc530eac" y="161.771506"/>
      </g>
     </g>
     <g id="text_15">
      <!-- 0 -->
      <g transform="translate(43.251562 165.570725)scale(0.1 -0.1)">
       <use xlink:href="#DejaVuSans-Bold-30"/>
      </g>
     </g>
    </g>
    <g id="ytick_6">
     <g id="line2d_15">
      <g>
       <use style="stroke:#000000;stroke-width:0.8;" x="57.209375" xlink:href="#mb9bc530eac" y="130.806561"/>
      </g>
     </g>
     <g id="text_16">
      <!-- 25 -->
      <g transform="translate(36.29375 134.605779)scale(0.1 -0.1)">
       <use xlink:href="#DejaVuSans-Bold-32"/>
       <use x="69.580078" xlink:href="#DejaVuSans-Bold-35"/>
      </g>
     </g>
    </g>
    <g id="ytick_7">
     <g id="line2d_16">
      <g>
       <use style="stroke:#000000;stroke-width:0.8;" x="57.209375" xlink:href="#mb9bc530eac" y="99.841615"/>
      </g>
     </g>
     <g id="text_17">
      <!-- 50 -->
      <g transform="translate(36.29375 103.640834)scale(0.1 -0.1)">
       <use xlink:href="#DejaVuSans-Bold-35"/>
       <use x="69.580078" xlink:href="#DejaVuSans-Bold-30"/>
      </g>
     </g>
    </g>
    <g id="ytick_8">
     <g id="line2d_17">
      <g>
       <use style="stroke:#000000;stroke-width:0.8;" x="57.209375" xlink:href="#mb9bc530eac" y="68.87667"/>
      </g>
     </g>
     <g id="text_18">
      <!-- 75 -->
      <g transform="translate(36.29375 72.675889)scale(0.1 -0.1)">
       <use xlink:href="#DejaVuSans-Bold-37"/>
       <use x="69.580078" xlink:href="#DejaVuSans-Bold-35"/>
      </g>
     </g>
    </g>
    <g id="ytick_9">
     <g id="line2d_18">
      <g>
       <use style="stroke:#000000;stroke-width:0.8;" x="57.209375" xlink:href="#mb9bc530eac" y="37.911725"/>
      </g>
     </g>
     <g id="text_19">
      <!-- 100 -->
      <g transform="translate(29.335937 41.710943)scale(0.1 -0.1)">
       <use xlink:href="#DejaVuSans-Bold-31"/>
       <use x="69.580078" xlink:href="#DejaVuSans-Bold-30"/>
       <use x="139.160156" xlink:href="#DejaVuSans-Bold-30"/>
      </g>
     </g>
    </g>
    <g id="text_20">
     <!-- theta (degree) -->
     <g transform="translate(14.798437 199.431406)rotate(-90)scale(0.1 -0.1)">
      <defs>
       <path d="M 4056 2131 
L 4056 0 
L 2931 0 
L 2931 347 
L 2931 1625 
Q 2931 2084 2911 2256 
Q 2891 2428 2841 2509 
Q 2775 2619 2662 2680 
Q 2550 2741 2406 2741 
Q 2056 2741 1856 2470 
Q 1656 2200 1656 1722 
L 1656 0 
L 538 0 
L 538 4863 
L 1656 4863 
L 1656 2988 
Q 1909 3294 2193 3439 
Q 2478 3584 2822 3584 
Q 3428 3584 3742 3212 
Q 4056 2841 4056 2131 
z
" id="DejaVuSans-Bold-68" transform="scale(0.015625)"/>
       <path d="M 2106 1575 
Q 1756 1575 1579 1456 
Q 1403 1338 1403 1106 
Q 1403 894 1545 773 
Q 1688 653 1941 653 
Q 2256 653 2472 879 
Q 2688 1106 2688 1447 
L 2688 1575 
L 2106 1575 
z
M 3816 1997 
L 3816 0 
L 2688 0 
L 2688 519 
Q 2463 200 2181 54 
Q 1900 -91 1497 -91 
Q 953 -91 614 226 
Q 275 544 275 1050 
Q 275 1666 698 1953 
Q 1122 2241 2028 2241 
L 2688 2241 
L 2688 2328 
Q 2688 2594 2478 2717 
Q 2269 2841 1825 2841 
Q 1466 2841 1156 2769 
Q 847 2697 581 2553 
L 581 3406 
Q 941 3494 1303 3539 
Q 1666 3584 2028 3584 
Q 2975 3584 3395 3211 
Q 3816 2838 3816 1997 
z
" id="DejaVuSans-Bold-61" transform="scale(0.015625)"/>
       <path id="DejaVuSans-Bold-20" transform="scale(0.015625)"/>
       <path d="M 2413 -844 
L 1484 -844 
Q 1006 -72 778 623 
Q 550 1319 550 2003 
Q 550 2688 779 3389 
Q 1009 4091 1484 4856 
L 2413 4856 
Q 2013 4116 1813 3408 
Q 1613 2700 1613 2009 
Q 1613 1319 1811 609 
Q 2009 -100 2413 -844 
z
" id="DejaVuSans-Bold-28" transform="scale(0.015625)"/>
       <path d="M 2919 2988 
L 2919 4863 
L 4044 4863 
L 4044 0 
L 2919 0 
L 2919 506 
Q 2688 197 2409 53 
Q 2131 -91 1766 -91 
Q 1119 -91 703 423 
Q 288 938 288 1747 
Q 288 2556 703 3070 
Q 1119 3584 1766 3584 
Q 2128 3584 2408 3439 
Q 2688 3294 2919 2988 
z
M 2181 722 
Q 2541 722 2730 984 
Q 2919 1247 2919 1747 
Q 2919 2247 2730 2509 
Q 2541 2772 2181 2772 
Q 1825 2772 1636 2509 
Q 1447 2247 1447 1747 
Q 1447 1247 1636 984 
Q 1825 722 2181 722 
z
" id="DejaVuSans-Bold-64" transform="scale(0.015625)"/>
       <path d="M 2919 594 
Q 2688 288 2409 144 
Q 2131 0 1766 0 
Q 1125 0 706 504 
Q 288 1009 288 1791 
Q 288 2575 706 3076 
Q 1125 3578 1766 3578 
Q 2131 3578 2409 3434 
Q 2688 3291 2919 2981 
L 2919 3500 
L 4044 3500 
L 4044 353 
Q 4044 -491 3511 -936 
Q 2978 -1381 1966 -1381 
Q 1638 -1381 1331 -1331 
Q 1025 -1281 716 -1178 
L 716 -306 
Q 1009 -475 1290 -558 
Q 1572 -641 1856 -641 
Q 2406 -641 2662 -400 
Q 2919 -159 2919 353 
L 2919 594 
z
M 2181 2772 
Q 1834 2772 1640 2515 
Q 1447 2259 1447 1791 
Q 1447 1309 1634 1061 
Q 1822 813 2181 813 
Q 2531 813 2725 1069 
Q 2919 1325 2919 1791 
Q 2919 2259 2725 2515 
Q 2531 2772 2181 2772 
z
" id="DejaVuSans-Bold-67" transform="scale(0.015625)"/>
       <path d="M 3138 2547 
Q 2991 2616 2845 2648 
Q 2700 2681 2553 2681 
Q 2122 2681 1889 2404 
Q 1656 2128 1656 1613 
L 1656 0 
L 538 0 
L 538 3500 
L 1656 3500 
L 1656 2925 
Q 1872 3269 2151 3426 
Q 2431 3584 2822 3584 
Q 2878 3584 2943 3579 
Q 3009 3575 3134 3559 
L 3138 2547 
z
" id="DejaVuSans-Bold-72" transform="scale(0.015625)"/>
       <path d="M 513 -844 
Q 913 -100 1113 609 
Q 1313 1319 1313 2009 
Q 1313 2700 1113 3408 
Q 913 4116 513 4856 
L 1441 4856 
Q 1916 4091 2145 3389 
Q 2375 2688 2375 2003 
Q 2375 1319 2147 623 
Q 1919 -72 1441 -844 
L 513 -844 
z
" id="DejaVuSans-Bold-29" transform="scale(0.015625)"/>
      </defs>
      <use xlink:href="#DejaVuSans-Bold-74"/>
      <use x="47.802734" xlink:href="#DejaVuSans-Bold-68"/>
      <use x="118.994141" xlink:href="#DejaVuSans-Bold-65"/>
      <use x="186.816406" xlink:href="#DejaVuSans-Bold-74"/>
      <use x="234.619141" xlink:href="#DejaVuSans-Bold-61"/>
      <use x="302.099609" xlink:href="#DejaVuSans-Bold-20"/>
      <use x="336.914062" xlink:href="#DejaVuSans-Bold-28"/>
      <use x="382.617188" xlink:href="#DejaVuSans-Bold-64"/>
      <use x="454.199219" xlink:href="#DejaVuSans-Bold-65"/>
      <use x="522.021484" xlink:href="#DejaVuSans-Bold-67"/>
      <use x="593.603516" xlink:href="#DejaVuSans-Bold-72"/>
      <use x="642.919922" xlink:href="#DejaVuSans-Bold-65"/>
      <use x="710.742188" xlink:href="#DejaVuSans-Bold-65"/>
      <use x="778.564453" xlink:href="#DejaVuSans-Bold-29"/>
     </g>
    </g>
   </g>
   <g id="line2d_19">
    <path clip-path="url(#p72aea481c8)" d="M 82.573011 161.771506 
L 89.076508 161.771506 
L 95.580004 161.771506 
L 102.083501 161.771506 
L 108.586997 161.771506 
L 115.090494 161.771506 
L 121.59399 161.771506 
L 128.097487 161.771506 
L 134.600983 161.771506 
L 141.10448 161.771506 
L 147.607976 161.771506 
L 154.111473 161.771506 
L 160.614969 161.771506 
L 167.118466 161.718281 
L 173.621962 162.215052 
L 180.125459 164.451158 
L 186.628955 167.597337 
L 193.132452 171.63193 
L 199.635948 176.061455 
L 206.139445 179.978668 
L 212.642941 183.223088 
L 219.146438 185.293955 
L 225.649934 186.630612 
L 232.153431 188.448855 
L 238.656927 190.081706 
L 245.160424 190.644538 
L 251.66392 190.948793 
L 258.167417 190.12155 
L 264.670913 188.817513 
L 271.17441 188.416241 
L 277.677906 188.323002 
L 284.181403 187.253151 
L 290.684899 185.377008 
L 297.188396 181.864807 
L 303.691892 178.048262 
L 310.195389 174.314335 
L 316.698885 170.608199 
L 323.202382 166.195613 
L 329.705878 159.986497 
L 336.209375 153.517308 
L 342.712872 147.722687 
L 349.216368 143.074633 
L 355.719865 137.110511 
L 362.223361 131.017042 
L 368.726858 124.772437 
L 375.230354 118.267537 
L 381.733851 111.421637 
L 388.237347 105.363414 
L 394.740844 98.81867 
L 401.24434 92.534946 
L 407.747837 86.805602 
L 414.251333 81.337914 
L 420.75483 76.042646 
L 427.258326 72.195918 
L 433.761823 69.820995 
L 440.265319 68.486083 
L 446.768816 65.4413 
L 453.272312 60.319531 
L 459.775809 55.248079 
L 466.279305 49.243813 
L 472.782802 42.193463 
L 479.286298 34.67267 
L 485.789795 39.274912 
L 492.293291 49.433664 
L 498.796788 53.685864 
L 505.300284 49.570284 
L 511.803781 49.822224 
L 518.307277 50.7856 
L 524.810774 52.029455 
L 531.31427 51.740196 
L 537.817767 51.424344 
L 544.321263 51.761489 
L 550.82476 51.669215 
L 557.328256 51.841346 
L 563.831753 51.701155 
L 570.335249 51.585815 
L 576.838746 51.706476 
L 583.342242 51.688734 
L 589.845739 51.756164 
" style="fill:none;stroke:#0000ff;stroke-linecap:square;stroke-width:1.5;"/>
   </g>
   <g id="line2d_20">
    <path clip-path="url(#p72aea481c8)" d="M 82.573011 161.771506 
L 89.076508 161.771506 
L 95.580004 161.771506 
L 102.083501 161.771506 
L 108.586997 161.771506 
L 115.090494 161.771506 
L 121.59399 161.771506 
L 128.097487 161.771506 
L 134.600983 161.771506 
L 141.10448 161.771506 
L 147.607976 161.771506 
L 154.111473 161.771506 
L 160.614969 161.771506 
L 167.118466 161.665056 
L 173.621962 161.629575 
L 180.125459 162.321496 
L 186.628955 164.220333 
L 193.132452 164.930506 
L 199.635948 166.494289 
L 206.139445 167.241341 
L 212.642941 167.650747 
L 219.146438 167.47446 
L 225.649934 166.496071 
L 232.153431 164.087214 
L 238.656927 161.99505 
L 245.160424 160.339666 
L 251.66392 158.308711 
L 258.167417 156.161081 
L 264.670913 154.126042 
L 271.17441 151.669213 
L 277.677906 148.970813 
L 284.181403 146.676717 
L 290.684899 144.655614 
L 297.188396 142.157802 
L 303.691892 139.136625 
L 310.195389 135.720478 
L 316.698885 132.483791 
L 323.202382 128.584834 
L 329.705878 123.737219 
L 336.209375 119.375815 
L 342.712872 115.429624 
L 349.216368 111.806697 
L 355.719865 109.174395 
L 362.223361 107.372015 
L 368.726858 106.650576 
L 375.230354 107.336894 
L 381.733851 106.571534 
L 388.237347 102.012986 
L 394.740844 96.752412 
L 401.24434 96.168705 
L 407.747837 104.778748 
L 414.251333 113.417065 
L 420.75483 120.725562 
L 427.258326 126.923966 
L 433.761823 133.913039 
L 440.265319 139.796982 
L 446.768816 140.44651 
L 453.272312 136.108956 
L 459.775809 127.177148 
L 466.279305 122.839921 
L 472.782802 121.16699 
L 479.286298 120.794508 
L 485.789795 121.835132 
L 492.293291 121.523027 
L 498.796788 122.061667 
L 505.300284 123.010771 
L 511.803781 120.530316 
L 518.307277 118.411426 
L 524.810774 118.147193 
L 531.31427 118.064191 
L 537.817767 118.300382 
L 544.321263 117.81391 
L 550.82476 118.06565 
L 557.328256 118.145445 
L 563.831753 117.92757 
L 570.335249 118.0033 
L 576.838746 117.995446 
L 583.342242 118.015509 
L 589.845739 118.026983 
" style="fill:none;stroke:#ffd700;stroke-linecap:square;stroke-width:1.5;"/>
   </g>
   <g id="line2d_21">
    <path clip-path="url(#p72aea481c8)" d="M 82.573011 161.771506 
L 89.076508 161.771506 
L 95.580004 161.771506 
L 102.083501 161.771506 
L 108.586997 161.771506 
L 115.090494 161.771506 
L 121.59399 161.771506 
L 128.097487 161.771506 
L 134.600983 161.771506 
L 141.10448 161.771506 
L 147.607976 161.771506 
L 154.111473 161.771506 
L 160.614969 161.771506 
L 167.118466 161.70054 
L 173.621962 161.540865 
L 180.125459 161.292479 
L 186.628955 162.339244 
L 193.132452 165.250276 
L 199.635948 167.010045 
L 206.139445 168.327355 
L 212.642941 170.129268 
L 219.146438 173.139094 
L 225.649934 175.668379 
L 232.153431 178.498319 
L 238.656927 182.26459 
L 245.160424 185.429291 
L 251.66392 188.48503 
L 258.167417 192.341984 
L 264.670913 196.366031 
L 271.17441 200.424363 
L 277.677906 205.239823 
L 284.181403 209.910793 
L 290.684899 215.686842 
L 297.188396 222.596981 
L 303.691892 230.19861 
L 310.195389 237.56864 
L 316.698885 244.433755 
L 323.202382 251.454327 
L 329.705878 257.881528 
L 336.209375 263.449191 
L 342.712872 267.768725 
L 349.216368 271.341733 
L 355.719865 274.202862 
L 362.223361 276.617648 
L 368.726858 277.97502 
L 375.230354 278.942781 
L 381.733851 278.133157 
L 388.237347 275.503119 
L 394.740844 276.962637 
L 401.24434 281.76358 
L 407.747837 280.945006 
L 414.251333 277.832587 
L 420.75483 274.153348 
L 427.258326 269.698169 
L 433.761823 266.963324 
L 440.265319 268.705332 
L 446.768816 269.563873 
L 453.272312 269.845967 
L 459.775809 268.817152 
L 466.279305 269.119302 
L 472.782802 268.787991 
L 479.286298 268.438629 
L 485.789795 268.313957 
L 492.293291 267.603928 
L 498.796788 267.213532 
L 505.300284 267.420951 
L 511.803781 267.360588 
L 518.307277 267.406704 
L 524.810774 267.185744 
L 531.31427 267.262683 
L 537.817767 267.279582 
L 544.321263 267.133042 
L 550.82476 267.21835 
L 557.328256 267.277991 
L 563.831753 267.180764 
L 570.335249 267.183607 
L 576.838746 267.233289 
L 583.342242 267.208905 
L 589.845739 267.204087 
" style="fill:none;stroke:#ff1493;stroke-linecap:square;stroke-width:1.5;"/>
   </g>
   <g id="line2d_22">
    <path clip-path="url(#p72aea481c8)" d="M 82.573011 161.771506 
L 89.076508 161.771506 
L 95.580004 161.771506 
L 102.083501 161.771506 
L 108.586997 161.771506 
L 115.090494 161.771506 
L 121.59399 161.771506 
L 128.097487 161.771506 
L 134.600983 161.771506 
L 141.10448 161.771506 
L 147.607976 161.771506 
L 154.111473 161.771506 
L 160.614969 161.771506 
L 167.118466 161.736023 
L 173.621962 161.576348 
L 180.125459 161.310218 
L 186.628955 160.01491 
L 193.132452 159.517908 
L 199.635948 158.843357 
L 206.139445 158.790002 
L 212.642941 159.198409 
L 219.146438 159.290727 
L 225.649934 159.500215 
L 232.153431 159.432723 
L 238.656927 160.050391 
L 245.160424 161.398936 
L 251.66392 163.072048 
L 258.167417 164.23453 
L 264.670913 165.97516 
L 271.17441 167.987342 
L 277.677906 169.997303 
L 284.181403 172.033628 
L 290.684899 174.757698 
L 297.188396 178.024591 
L 303.691892 181.628911 
L 310.195389 184.924786 
L 316.698885 188.24887 
L 323.202382 191.702685 
L 329.705878 195.557234 
L 336.209375 200.900265 
L 342.712872 205.500901 
L 349.216368 209.61002 
L 355.719865 213.241771 
L 362.223361 216.713011 
L 368.726858 219.266177 
L 375.230354 221.502471 
L 381.733851 222.254043 
L 388.237347 223.084219 
L 394.740844 219.712601 
L 401.24434 218.869011 
L 407.747837 221.233815 
L 414.251333 221.391469 
L 420.75483 220.484806 
L 427.258326 219.308451 
L 433.761823 217.134308 
L 440.265319 214.120172 
L 446.768816 212.899664 
L 453.272312 213.245851 
L 459.775809 213.696729 
L 466.279305 214.545218 
L 472.782802 215.490491 
L 479.286298 215.480587 
L 485.789795 212.830834 
L 492.293291 209.130816 
L 498.796788 207.207414 
L 505.300284 206.421007 
L 511.803781 205.750469 
L 518.307277 205.586813 
L 524.810774 205.295245 
L 531.31427 205.378673 
L 537.817767 205.277076 
L 544.321263 205.405854 
L 550.82476 205.360359 
L 557.328256 205.275475 
L 563.831753 205.382305 
L 570.335249 205.406579 
L 576.838746 205.325769 
L 583.342242 205.313559 
L 589.845739 205.38361 
" style="fill:none;stroke:#008000;stroke-linecap:square;stroke-width:1.5;"/>
   </g>
   <g id="line2d_23">
    <path clip-path="url(#p72aea481c8)" d="M 82.573011 161.771506 
L 89.076508 161.771506 
L 95.580004 161.771506 
L 102.083501 161.771506 
L 108.586997 161.771506 
L 115.090494 161.771506 
L 121.59399 161.771506 
L 128.097487 161.771506 
L 134.600983 161.771506 
L 141.10448 161.771506 
L 147.607976 161.771506 
L 154.111473 161.771506 
L 160.614969 161.771506 
L 167.118466 161.806989 
L 173.621962 162.374736 
L 180.125459 163.741057 
L 186.628955 164.433362 
L 193.132452 163.386117 
L 199.635948 162.05537 
L 206.139445 160.369856 
L 212.642941 158.642637 
L 219.146438 157.544723 
L 225.649934 157.06829 
L 232.153431 157.116322 
L 238.656927 157.686932 
L 245.160424 158.298078 
L 251.66392 159.253455 
L 258.167417 159.601407 
L 264.670913 160.052165 
L 271.17441 160.103602 
L 277.677906 159.315574 
L 284.181403 156.999016 
L 290.684899 156.221634 
L 297.188396 154.885858 
L 303.691892 151.778356 
L 310.195389 147.128386 
L 316.698885 141.997204 
L 323.202382 134.660927 
L 329.705878 125.473325 
L 336.209375 116.033565 
L 342.712872 106.848804 
L 349.216368 98.228206 
L 355.719865 90.245666 
L 362.223361 82.457671 
L 368.726858 75.934251 
L 375.230354 70.854068 
L 381.733851 65.481212 
L 388.237347 60.097404 
L 394.740844 59.710508 
L 401.24434 63.082051 
L 407.747837 69.881678 
L 414.251333 78.169002 
L 420.75483 85.67636 
L 427.258326 93.129887 
L 433.761823 100.829814 
L 440.265319 107.170001 
L 446.768816 114.486034 
L 453.272312 123.442989 
L 459.775809 129.56553 
L 466.279305 132.676484 
L 472.782802 138.120453 
L 479.286298 143.509538 
L 485.789795 149.315491 
L 492.293291 156.745401 
L 498.796788 162.076837 
L 505.300284 162.188262 
L 511.803781 161.947857 
L 518.307277 162.162714 
L 524.810774 161.251851 
L 531.31427 160.884938 
L 537.817767 161.255044 
L 544.321263 161.557898 
L 550.82476 161.27864 
L 557.328256 161.091812 
L 563.831753 161.429087 
L 570.335249 161.415258 
L 576.838746 161.231094 
L 583.342242 161.343584 
L 589.845739 161.275092 
" style="fill:none;stroke:#8fbc8f;stroke-linecap:square;stroke-width:1.5;"/>
   </g>
   <g id="patch_3">
    <path d="M 57.209375 294.118125 
L 57.209375 22.318125 
" style="fill:none;stroke:#000000;stroke-linecap:square;stroke-linejoin:miter;stroke-width:0.8;"/>
   </g>
   <g id="patch_4">
    <path d="M 615.209375 294.118125 
L 615.209375 22.318125 
" style="fill:none;stroke:#000000;stroke-linecap:square;stroke-linejoin:miter;stroke-width:0.8;"/>
   </g>
   <g id="patch_5">
    <path d="M 57.209375 294.118125 
L 615.209375 294.118125 
" style="fill:none;stroke:#000000;stroke-linecap:square;stroke-linejoin:miter;stroke-width:0.8;"/>
   </g>
   <g id="patch_6">
    <path d="M 57.209375 22.318125 
L 615.209375 22.318125 
" style="fill:none;stroke:#000000;stroke-linecap:square;stroke-linejoin:miter;stroke-width:0.8;"/>
   </g>
   <g id="text_21">
    <!-- Orientation of intruders -->
    <g transform="translate(265.555625 16.318125)scale(0.12 -0.12)">
     <defs>
      <path d="M 2522 4238 
Q 1834 4238 1429 3725 
Q 1025 3213 1025 2328 
Q 1025 1447 1429 934 
Q 1834 422 2522 422 
Q 3209 422 3611 934 
Q 4013 1447 4013 2328 
Q 4013 3213 3611 3725 
Q 3209 4238 2522 4238 
z
M 2522 4750 
Q 3503 4750 4090 4092 
Q 4678 3434 4678 2328 
Q 4678 1225 4090 567 
Q 3503 -91 2522 -91 
Q 1538 -91 948 565 
Q 359 1222 359 2328 
Q 359 3434 948 4092 
Q 1538 4750 2522 4750 
z
" id="DejaVuSans-4f" transform="scale(0.015625)"/>
      <path d="M 2631 2963 
Q 2534 3019 2420 3045 
Q 2306 3072 2169 3072 
Q 1681 3072 1420 2755 
Q 1159 2438 1159 1844 
L 1159 0 
L 581 0 
L 581 3500 
L 1159 3500 
L 1159 2956 
Q 1341 3275 1631 3429 
Q 1922 3584 2338 3584 
Q 2397 3584 2469 3576 
Q 2541 3569 2628 3553 
L 2631 2963 
z
" id="DejaVuSans-72" transform="scale(0.015625)"/>
      <path d="M 603 3500 
L 1178 3500 
L 1178 0 
L 603 0 
L 603 3500 
z
M 603 4863 
L 1178 4863 
L 1178 4134 
L 603 4134 
L 603 4863 
z
" id="DejaVuSans-69" transform="scale(0.015625)"/>
      <path d="M 3597 1894 
L 3597 1613 
L 953 1613 
Q 991 1019 1311 708 
Q 1631 397 2203 397 
Q 2534 397 2845 478 
Q 3156 559 3463 722 
L 3463 178 
Q 3153 47 2828 -22 
Q 2503 -91 2169 -91 
Q 1331 -91 842 396 
Q 353 884 353 1716 
Q 353 2575 817 3079 
Q 1281 3584 2069 3584 
Q 2775 3584 3186 3129 
Q 3597 2675 3597 1894 
z
M 3022 2063 
Q 3016 2534 2758 2815 
Q 2500 3097 2075 3097 
Q 1594 3097 1305 2825 
Q 1016 2553 972 2059 
L 3022 2063 
z
" id="DejaVuSans-65" transform="scale(0.015625)"/>
      <path d="M 3513 2113 
L 3513 0 
L 2938 0 
L 2938 2094 
Q 2938 2591 2744 2837 
Q 2550 3084 2163 3084 
Q 1697 3084 1428 2787 
Q 1159 2491 1159 1978 
L 1159 0 
L 581 0 
L 581 3500 
L 1159 3500 
L 1159 2956 
Q 1366 3272 1645 3428 
Q 1925 3584 2291 3584 
Q 2894 3584 3203 3211 
Q 3513 2838 3513 2113 
z
" id="DejaVuSans-6e" transform="scale(0.015625)"/>
      <path d="M 1172 4494 
L 1172 3500 
L 2356 3500 
L 2356 3053 
L 1172 3053 
L 1172 1153 
Q 1172 725 1289 603 
Q 1406 481 1766 481 
L 2356 481 
L 2356 0 
L 1766 0 
Q 1100 0 847 248 
Q 594 497 594 1153 
L 594 3053 
L 172 3053 
L 172 3500 
L 594 3500 
L 594 4494 
L 1172 4494 
z
" id="DejaVuSans-74" transform="scale(0.015625)"/>
      <path d="M 2194 1759 
Q 1497 1759 1228 1600 
Q 959 1441 959 1056 
Q 959 750 1161 570 
Q 1363 391 1709 391 
Q 2188 391 2477 730 
Q 2766 1069 2766 1631 
L 2766 1759 
L 2194 1759 
z
M 3341 1997 
L 3341 0 
L 2766 0 
L 2766 531 
Q 2569 213 2275 61 
Q 1981 -91 1556 -91 
Q 1019 -91 701 211 
Q 384 513 384 1019 
Q 384 1609 779 1909 
Q 1175 2209 1959 2209 
L 2766 2209 
L 2766 2266 
Q 2766 2663 2505 2880 
Q 2244 3097 1772 3097 
Q 1472 3097 1187 3025 
Q 903 2953 641 2809 
L 641 3341 
Q 956 3463 1253 3523 
Q 1550 3584 1831 3584 
Q 2591 3584 2966 3190 
Q 3341 2797 3341 1997 
z
" id="DejaVuSans-61" transform="scale(0.015625)"/>
      <path d="M 1959 3097 
Q 1497 3097 1228 2736 
Q 959 2375 959 1747 
Q 959 1119 1226 758 
Q 1494 397 1959 397 
Q 2419 397 2687 759 
Q 2956 1122 2956 1747 
Q 2956 2369 2687 2733 
Q 2419 3097 1959 3097 
z
M 1959 3584 
Q 2709 3584 3137 3096 
Q 3566 2609 3566 1747 
Q 3566 888 3137 398 
Q 2709 -91 1959 -91 
Q 1206 -91 779 398 
Q 353 888 353 1747 
Q 353 2609 779 3096 
Q 1206 3584 1959 3584 
z
" id="DejaVuSans-6f" transform="scale(0.015625)"/>
      <path id="DejaVuSans-20" transform="scale(0.015625)"/>
      <path d="M 2375 4863 
L 2375 4384 
L 1825 4384 
Q 1516 4384 1395 4259 
Q 1275 4134 1275 3809 
L 1275 3500 
L 2222 3500 
L 2222 3053 
L 1275 3053 
L 1275 0 
L 697 0 
L 697 3053 
L 147 3053 
L 147 3500 
L 697 3500 
L 697 3744 
Q 697 4328 969 4595 
Q 1241 4863 1831 4863 
L 2375 4863 
z
" id="DejaVuSans-66" transform="scale(0.015625)"/>
      <path d="M 544 1381 
L 544 3500 
L 1119 3500 
L 1119 1403 
Q 1119 906 1312 657 
Q 1506 409 1894 409 
Q 2359 409 2629 706 
Q 2900 1003 2900 1516 
L 2900 3500 
L 3475 3500 
L 3475 0 
L 2900 0 
L 2900 538 
Q 2691 219 2414 64 
Q 2138 -91 1772 -91 
Q 1169 -91 856 284 
Q 544 659 544 1381 
z
M 1991 3584 
L 1991 3584 
z
" id="DejaVuSans-75" transform="scale(0.015625)"/>
      <path d="M 2906 2969 
L 2906 4863 
L 3481 4863 
L 3481 0 
L 2906 0 
L 2906 525 
Q 2725 213 2448 61 
Q 2172 -91 1784 -91 
Q 1150 -91 751 415 
Q 353 922 353 1747 
Q 353 2572 751 3078 
Q 1150 3584 1784 3584 
Q 2172 3584 2448 3432 
Q 2725 3281 2906 2969 
z
M 947 1747 
Q 947 1113 1208 752 
Q 1469 391 1925 391 
Q 2381 391 2643 752 
Q 2906 1113 2906 1747 
Q 2906 2381 2643 2742 
Q 2381 3103 1925 3103 
Q 1469 3103 1208 2742 
Q 947 2381 947 1747 
z
" id="DejaVuSans-64" transform="scale(0.015625)"/>
      <path d="M 2834 3397 
L 2834 2853 
Q 2591 2978 2328 3040 
Q 2066 3103 1784 3103 
Q 1356 3103 1142 2972 
Q 928 2841 928 2578 
Q 928 2378 1081 2264 
Q 1234 2150 1697 2047 
L 1894 2003 
Q 2506 1872 2764 1633 
Q 3022 1394 3022 966 
Q 3022 478 2636 193 
Q 2250 -91 1575 -91 
Q 1294 -91 989 -36 
Q 684 19 347 128 
L 347 722 
Q 666 556 975 473 
Q 1284 391 1588 391 
Q 1994 391 2212 530 
Q 2431 669 2431 922 
Q 2431 1156 2273 1281 
Q 2116 1406 1581 1522 
L 1381 1569 
Q 847 1681 609 1914 
Q 372 2147 372 2553 
Q 372 3047 722 3315 
Q 1072 3584 1716 3584 
Q 2034 3584 2315 3537 
Q 2597 3491 2834 3397 
z
" id="DejaVuSans-73" transform="scale(0.015625)"/>
     </defs>
     <use xlink:href="#DejaVuSans-4f"/>
     <use x="78.710938" xlink:href="#DejaVuSans-72"/>
     <use x="119.824219" xlink:href="#DejaVuSans-69"/>
     <use x="147.607422" xlink:href="#DejaVuSans-65"/>
     <use x="209.130859" xlink:href="#DejaVuSans-6e"/>
     <use x="272.509766" xlink:href="#DejaVuSans-74"/>
     <use x="311.71875" xlink:href="#DejaVuSans-61"/>
     <use x="372.998047" xlink:href="#DejaVuSans-74"/>
     <use x="412.207031" xlink:href="#DejaVuSans-69"/>
     <use x="439.990234" xlink:href="#DejaVuSans-6f"/>
     <use x="501.171875" xlink:href="#DejaVuSans-6e"/>
     <use x="564.550781" xlink:href="#DejaVuSans-20"/>
     <use x="596.337891" xlink:href="#DejaVuSans-6f"/>
     <use x="657.519531" xlink:href="#DejaVuSans-66"/>
     <use x="692.724609" xlink:href="#DejaVuSans-20"/>
     <use x="724.511719" xlink:href="#DejaVuSans-69"/>
     <use x="752.294922" xlink:href="#DejaVuSans-6e"/>
     <use x="815.673828" xlink:href="#DejaVuSans-74"/>
     <use x="854.882812" xlink:href="#DejaVuSans-72"/>
     <use x="895.996094" xlink:href="#DejaVuSans-75"/>
     <use x="959.375" xlink:href="#DejaVuSans-64"/>
     <use x="1022.851562" xlink:href="#DejaVuSans-65"/>
     <use x="1084.375" xlink:href="#DejaVuSans-72"/>
     <use x="1125.488281" xlink:href="#DejaVuSans-73"/>
    </g>
   </g>
   <g id="legend_1">
    <g id="patch_7">
     <path d="M 64.209375 103.70875 
L 149.415625 103.70875 
Q 151.415625 103.70875 151.415625 101.70875 
L 151.415625 29.318125 
Q 151.415625 27.318125 149.415625 27.318125 
L 64.209375 27.318125 
Q 62.209375 27.318125 62.209375 29.318125 
L 62.209375 101.70875 
Q 62.209375 103.70875 64.209375 103.70875 
z
" style="fill:#ffffff;opacity:0.8;stroke:#cccccc;stroke-linejoin:miter;"/>
    </g>
    <g id="line2d_24">
     <path d="M 66.209375 35.416563 
L 86.209375 35.416563 
" style="fill:none;stroke:#0000ff;stroke-linecap:square;stroke-width:1.5;"/>
    </g>
    <g id="line2d_25"/>
    <g id="text_22">
     <!-- intruder1 -->
     <g transform="translate(94.209375 38.916563)scale(0.1 -0.1)">
      <defs>
       <path d="M 4056 2131 
L 4056 0 
L 2931 0 
L 2931 347 
L 2931 1631 
Q 2931 2084 2911 2256 
Q 2891 2428 2841 2509 
Q 2775 2619 2662 2680 
Q 2550 2741 2406 2741 
Q 2056 2741 1856 2470 
Q 1656 2200 1656 1722 
L 1656 0 
L 538 0 
L 538 3500 
L 1656 3500 
L 1656 2988 
Q 1909 3294 2193 3439 
Q 2478 3584 2822 3584 
Q 3428 3584 3742 3212 
Q 4056 2841 4056 2131 
z
" id="DejaVuSans-Bold-6e" transform="scale(0.015625)"/>
       <path d="M 500 1363 
L 500 3500 
L 1625 3500 
L 1625 3150 
Q 1625 2866 1622 2436 
Q 1619 2006 1619 1863 
Q 1619 1441 1641 1255 
Q 1663 1069 1716 984 
Q 1784 875 1895 815 
Q 2006 756 2150 756 
Q 2500 756 2700 1025 
Q 2900 1294 2900 1772 
L 2900 3500 
L 4019 3500 
L 4019 0 
L 2900 0 
L 2900 506 
Q 2647 200 2364 54 
Q 2081 -91 1741 -91 
Q 1134 -91 817 281 
Q 500 653 500 1363 
z
" id="DejaVuSans-Bold-75" transform="scale(0.015625)"/>
      </defs>
      <use xlink:href="#DejaVuSans-Bold-69"/>
      <use x="34.277344" xlink:href="#DejaVuSans-Bold-6e"/>
      <use x="105.46875" xlink:href="#DejaVuSans-Bold-74"/>
      <use x="153.271484" xlink:href="#DejaVuSans-Bold-72"/>
      <use x="202.587891" xlink:href="#DejaVuSans-Bold-75"/>
      <use x="273.779297" xlink:href="#DejaVuSans-Bold-64"/>
      <use x="345.361328" xlink:href="#DejaVuSans-Bold-65"/>
      <use x="413.183594" xlink:href="#DejaVuSans-Bold-72"/>
      <use x="462.5" xlink:href="#DejaVuSans-Bold-31"/>
     </g>
    </g>
    <g id="line2d_26">
     <path d="M 66.209375 50.094688 
L 86.209375 50.094688 
" style="fill:none;stroke:#ffd700;stroke-linecap:square;stroke-width:1.5;"/>
    </g>
    <g id="line2d_27"/>
    <g id="text_23">
     <!-- intruder2 -->
     <g transform="translate(94.209375 53.594688)scale(0.1 -0.1)">
      <use xlink:href="#DejaVuSans-Bold-69"/>
      <use x="34.277344" xlink:href="#DejaVuSans-Bold-6e"/>
      <use x="105.46875" xlink:href="#DejaVuSans-Bold-74"/>
      <use x="153.271484" xlink:href="#DejaVuSans-Bold-72"/>
      <use x="202.587891" xlink:href="#DejaVuSans-Bold-75"/>
      <use x="273.779297" xlink:href="#DejaVuSans-Bold-64"/>
      <use x="345.361328" xlink:href="#DejaVuSans-Bold-65"/>
      <use x="413.183594" xlink:href="#DejaVuSans-Bold-72"/>
      <use x="462.5" xlink:href="#DejaVuSans-Bold-32"/>
     </g>
    </g>
    <g id="line2d_28">
     <path d="M 66.209375 64.772813 
L 86.209375 64.772813 
" style="fill:none;stroke:#ff1493;stroke-linecap:square;stroke-width:1.5;"/>
    </g>
    <g id="line2d_29"/>
    <g id="text_24">
     <!-- intruder3 -->
     <g transform="translate(94.209375 68.272813)scale(0.1 -0.1)">
      <use xlink:href="#DejaVuSans-Bold-69"/>
      <use x="34.277344" xlink:href="#DejaVuSans-Bold-6e"/>
      <use x="105.46875" xlink:href="#DejaVuSans-Bold-74"/>
      <use x="153.271484" xlink:href="#DejaVuSans-Bold-72"/>
      <use x="202.587891" xlink:href="#DejaVuSans-Bold-75"/>
      <use x="273.779297" xlink:href="#DejaVuSans-Bold-64"/>
      <use x="345.361328" xlink:href="#DejaVuSans-Bold-65"/>
      <use x="413.183594" xlink:href="#DejaVuSans-Bold-72"/>
      <use x="462.5" xlink:href="#DejaVuSans-Bold-33"/>
     </g>
    </g>
    <g id="line2d_30">
     <path d="M 66.209375 79.450938 
L 86.209375 79.450938 
" style="fill:none;stroke:#008000;stroke-linecap:square;stroke-width:1.5;"/>
    </g>
    <g id="line2d_31"/>
    <g id="text_25">
     <!-- intruder4 -->
     <g transform="translate(94.209375 82.950938)scale(0.1 -0.1)">
      <use xlink:href="#DejaVuSans-Bold-69"/>
      <use x="34.277344" xlink:href="#DejaVuSans-Bold-6e"/>
      <use x="105.46875" xlink:href="#DejaVuSans-Bold-74"/>
      <use x="153.271484" xlink:href="#DejaVuSans-Bold-72"/>
      <use x="202.587891" xlink:href="#DejaVuSans-Bold-75"/>
      <use x="273.779297" xlink:href="#DejaVuSans-Bold-64"/>
      <use x="345.361328" xlink:href="#DejaVuSans-Bold-65"/>
      <use x="413.183594" xlink:href="#DejaVuSans-Bold-72"/>
      <use x="462.5" xlink:href="#DejaVuSans-Bold-34"/>
     </g>
    </g>
    <g id="line2d_32">
     <path d="M 66.209375 94.129063 
L 86.209375 94.129063 
" style="fill:none;stroke:#8fbc8f;stroke-linecap:square;stroke-width:1.5;"/>
    </g>
    <g id="line2d_33"/>
    <g id="text_26">
     <!-- intruder5 -->
     <g transform="translate(94.209375 97.629063)scale(0.1 -0.1)">
      <use xlink:href="#DejaVuSans-Bold-69"/>
      <use x="34.277344" xlink:href="#DejaVuSans-Bold-6e"/>
      <use x="105.46875" xlink:href="#DejaVuSans-Bold-74"/>
      <use x="153.271484" xlink:href="#DejaVuSans-Bold-72"/>
      <use x="202.587891" xlink:href="#DejaVuSans-Bold-75"/>
      <use x="273.779297" xlink:href="#DejaVuSans-Bold-64"/>
      <use x="345.361328" xlink:href="#DejaVuSans-Bold-65"/>
      <use x="413.183594" xlink:href="#DejaVuSans-Bold-72"/>
      <use x="462.5" xlink:href="#DejaVuSans-Bold-35"/>
     </g>
    </g>
   </g>
  </g>
 </g>
 <defs>
  <clipPath id="p72aea481c8">
   <rect height="271.8" width="558" x="57.209375" y="22.318125"/>
  </clipPath>
 </defs>
</svg>
