<?xml version="1.0" encoding="utf-8" standalone="no"?>
<!DOCTYPE svg PUBLIC "-//W3C//DTD SVG 1.1//EN"
  "http://www.w3.org/Graphics/SVG/1.1/DTD/svg11.dtd">
<svg height="262.19625pt" version="1.1" viewBox="0 0 390.751562 262.19625" width="390.751562pt" xmlns="http://www.w3.org/2000/svg" xmlns:xlink="http://www.w3.org/1999/xlink">
 <metadata>
  <rdf:RDF xmlns:cc="http://creativecommons.org/ns#" xmlns:dc="http://purl.org/dc/elements/1.1/" xmlns:rdf="http://www.w3.org/1999/02/22-rdf-syntax-ns#">
   <cc:Work>
    <dc:type rdf:resource="http://purl.org/dc/dcmitype/StillImage"/>
    <dc:date>2022-05-28T19:06:09.703028</dc:date>
    <dc:format>image/svg+xml</dc:format>
    <dc:creator>
     <cc:Agent>
      <dc:title>Matplotlib v3.4.3, https://matplotlib.org/</dc:title>
     </cc:Agent>
    </dc:creator>
   </cc:Work>
  </rdf:RDF>
 </metadata>
 <defs>
  <style type="text/css">*{stroke-linecap:butt;stroke-linejoin:round;}</style>
 </defs>
 <g id="figure_1">
  <g id="patch_1">
   <path d="M 0 262.19625 
L 390.751562 262.19625 
L 390.751562 0 
L 0 0 
z
" style="fill:none;"/>
  </g>
  <g id="axes_1">
   <g id="patch_2">
    <path d="M 48.751563 224.64 
L 383.551562 224.64 
L 383.551562 7.2 
L 48.751563 7.2 
z
" style="fill:#ffffff;"/>
   </g>
   <g id="matplotlib.axis_1">
    <g id="xtick_1">
     <g id="line2d_1">
      <defs>
       <path d="M 0 0 
L 0 3.5 
" id="m8caff7c366" style="stroke:#000000;stroke-width:0.8;"/>
      </defs>
      <g>
       <use style="stroke:#000000;stroke-width:0.8;" x="80.080806" xlink:href="#m8caff7c366" y="224.64"/>
      </g>
     </g>
     <g id="text_1">
      <!-- −20 -->
      <g transform="translate(68.93315 239.238437)scale(0.1 -0.1)">
       <defs>
        <path d="M 678 2375 
L 4684 2375 
L 4684 1638 
L 678 1638 
L 678 2375 
z
" id="DejaVuSans-Bold-2212" transform="scale(0.015625)"/>
        <path d="M 1844 884 
L 3897 884 
L 3897 0 
L 506 0 
L 506 884 
L 2209 2388 
Q 2438 2594 2547 2791 
Q 2656 2988 2656 3200 
Q 2656 3528 2436 3728 
Q 2216 3928 1850 3928 
Q 1569 3928 1234 3808 
Q 900 3688 519 3450 
L 519 4475 
Q 925 4609 1322 4679 
Q 1719 4750 2100 4750 
Q 2938 4750 3402 4381 
Q 3866 4013 3866 3353 
Q 3866 2972 3669 2642 
Q 3472 2313 2841 1759 
L 1844 884 
z
" id="DejaVuSans-Bold-32" transform="scale(0.015625)"/>
        <path d="M 2944 2338 
Q 2944 3213 2780 3570 
Q 2616 3928 2228 3928 
Q 1841 3928 1675 3570 
Q 1509 3213 1509 2338 
Q 1509 1453 1675 1090 
Q 1841 728 2228 728 
Q 2613 728 2778 1090 
Q 2944 1453 2944 2338 
z
M 4147 2328 
Q 4147 1169 3647 539 
Q 3147 -91 2228 -91 
Q 1306 -91 806 539 
Q 306 1169 306 2328 
Q 306 3491 806 4120 
Q 1306 4750 2228 4750 
Q 3147 4750 3647 4120 
Q 4147 3491 4147 2328 
z
" id="DejaVuSans-Bold-30" transform="scale(0.015625)"/>
       </defs>
       <use xlink:href="#DejaVuSans-Bold-2212"/>
       <use x="83.789062" xlink:href="#DejaVuSans-Bold-32"/>
       <use x="153.369141" xlink:href="#DejaVuSans-Bold-30"/>
      </g>
     </g>
    </g>
    <g id="xtick_2">
     <g id="line2d_2">
      <g>
       <use style="stroke:#000000;stroke-width:0.8;" x="144.481262" xlink:href="#m8caff7c366" y="224.64"/>
      </g>
     </g>
     <g id="text_2">
      <!-- −10 -->
      <g transform="translate(133.333605 239.238437)scale(0.1 -0.1)">
       <defs>
        <path d="M 750 831 
L 1813 831 
L 1813 3847 
L 722 3622 
L 722 4441 
L 1806 4666 
L 2950 4666 
L 2950 831 
L 4013 831 
L 4013 0 
L 750 0 
L 750 831 
z
" id="DejaVuSans-Bold-31" transform="scale(0.015625)"/>
       </defs>
       <use xlink:href="#DejaVuSans-Bold-2212"/>
       <use x="83.789062" xlink:href="#DejaVuSans-Bold-31"/>
       <use x="153.369141" xlink:href="#DejaVuSans-Bold-30"/>
      </g>
     </g>
    </g>
    <g id="xtick_3">
     <g id="line2d_3">
      <g>
       <use style="stroke:#000000;stroke-width:0.8;" x="208.881717" xlink:href="#m8caff7c366" y="224.64"/>
      </g>
     </g>
     <g id="text_3">
      <!-- 0 -->
      <g transform="translate(205.402811 239.238437)scale(0.1 -0.1)">
       <use xlink:href="#DejaVuSans-Bold-30"/>
      </g>
     </g>
    </g>
    <g id="xtick_4">
     <g id="line2d_4">
      <g>
       <use style="stroke:#000000;stroke-width:0.8;" x="273.282173" xlink:href="#m8caff7c366" y="224.64"/>
      </g>
     </g>
     <g id="text_4">
      <!-- 10 -->
      <g transform="translate(266.32436 239.238437)scale(0.1 -0.1)">
       <use xlink:href="#DejaVuSans-Bold-31"/>
       <use x="69.580078" xlink:href="#DejaVuSans-Bold-30"/>
      </g>
     </g>
    </g>
    <g id="xtick_5">
     <g id="line2d_5">
      <g>
       <use style="stroke:#000000;stroke-width:0.8;" x="337.682628" xlink:href="#m8caff7c366" y="224.64"/>
      </g>
     </g>
     <g id="text_5">
      <!-- 20 -->
      <g transform="translate(330.724815 239.238437)scale(0.1 -0.1)">
       <use xlink:href="#DejaVuSans-Bold-32"/>
       <use x="69.580078" xlink:href="#DejaVuSans-Bold-30"/>
      </g>
     </g>
    </g>
    <g id="text_6">
     <!-- X -->
     <g transform="translate(212.296875 252.916562)scale(0.1 -0.1)">
      <defs>
       <path d="M 3188 2381 
L 4806 0 
L 3553 0 
L 2463 1594 
L 1381 0 
L 122 0 
L 1741 2381 
L 184 4666 
L 1441 4666 
L 2463 3163 
L 3481 4666 
L 4744 4666 
L 3188 2381 
z
" id="DejaVuSans-Bold-58" transform="scale(0.015625)"/>
      </defs>
      <use xlink:href="#DejaVuSans-Bold-58"/>
     </g>
    </g>
   </g>
   <g id="matplotlib.axis_2">
    <g id="ytick_1">
     <g id="line2d_6">
      <defs>
       <path d="M 0 0 
L -3.5 0 
" id="m2a14a86879" style="stroke:#000000;stroke-width:0.8;"/>
      </defs>
      <g>
       <use style="stroke:#000000;stroke-width:0.8;" x="48.751563" xlink:href="#m2a14a86879" y="218.1646"/>
      </g>
     </g>
     <g id="text_7">
      <!-- 0 -->
      <g transform="translate(34.79375 221.963819)scale(0.1 -0.1)">
       <use xlink:href="#DejaVuSans-Bold-30"/>
      </g>
     </g>
    </g>
    <g id="ytick_2">
     <g id="line2d_7">
      <g>
       <use style="stroke:#000000;stroke-width:0.8;" x="48.751563" xlink:href="#m2a14a86879" y="186.378169"/>
      </g>
     </g>
     <g id="text_8">
      <!-- 20 -->
      <g transform="translate(27.835938 190.177388)scale(0.1 -0.1)">
       <use xlink:href="#DejaVuSans-Bold-32"/>
       <use x="69.580078" xlink:href="#DejaVuSans-Bold-30"/>
      </g>
     </g>
    </g>
    <g id="ytick_3">
     <g id="line2d_8">
      <g>
       <use style="stroke:#000000;stroke-width:0.8;" x="48.751563" xlink:href="#m2a14a86879" y="154.591738"/>
      </g>
     </g>
     <g id="text_9">
      <!-- 40 -->
      <g transform="translate(27.835938 158.390956)scale(0.1 -0.1)">
       <defs>
        <path d="M 2356 3675 
L 1038 1722 
L 2356 1722 
L 2356 3675 
z
M 2156 4666 
L 3494 4666 
L 3494 1722 
L 4159 1722 
L 4159 850 
L 3494 850 
L 3494 0 
L 2356 0 
L 2356 850 
L 288 850 
L 288 1881 
L 2156 4666 
z
" id="DejaVuSans-Bold-34" transform="scale(0.015625)"/>
       </defs>
       <use xlink:href="#DejaVuSans-Bold-34"/>
       <use x="69.580078" xlink:href="#DejaVuSans-Bold-30"/>
      </g>
     </g>
    </g>
    <g id="ytick_4">
     <g id="line2d_9">
      <g>
       <use style="stroke:#000000;stroke-width:0.8;" x="48.751563" xlink:href="#m2a14a86879" y="122.805307"/>
      </g>
     </g>
     <g id="text_10">
      <!-- 60 -->
      <g transform="translate(27.835938 126.604525)scale(0.1 -0.1)">
       <defs>
        <path d="M 2316 2303 
Q 2000 2303 1842 2098 
Q 1684 1894 1684 1484 
Q 1684 1075 1842 870 
Q 2000 666 2316 666 
Q 2634 666 2792 870 
Q 2950 1075 2950 1484 
Q 2950 1894 2792 2098 
Q 2634 2303 2316 2303 
z
M 3803 4544 
L 3803 3681 
Q 3506 3822 3243 3889 
Q 2981 3956 2731 3956 
Q 2194 3956 1894 3657 
Q 1594 3359 1544 2772 
Q 1750 2925 1990 3001 
Q 2231 3078 2516 3078 
Q 3231 3078 3670 2659 
Q 4109 2241 4109 1563 
Q 4109 813 3618 361 
Q 3128 -91 2303 -91 
Q 1394 -91 895 523 
Q 397 1138 397 2266 
Q 397 3422 980 4083 
Q 1563 4744 2578 4744 
Q 2900 4744 3203 4694 
Q 3506 4644 3803 4544 
z
" id="DejaVuSans-Bold-36" transform="scale(0.015625)"/>
       </defs>
       <use xlink:href="#DejaVuSans-Bold-36"/>
       <use x="69.580078" xlink:href="#DejaVuSans-Bold-30"/>
      </g>
     </g>
    </g>
    <g id="ytick_5">
     <g id="line2d_10">
      <g>
       <use style="stroke:#000000;stroke-width:0.8;" x="48.751563" xlink:href="#m2a14a86879" y="91.018875"/>
      </g>
     </g>
     <g id="text_11">
      <!-- 80 -->
      <g transform="translate(27.835938 94.818094)scale(0.1 -0.1)">
       <defs>
        <path d="M 2228 2088 
Q 1891 2088 1709 1903 
Q 1528 1719 1528 1375 
Q 1528 1031 1709 848 
Q 1891 666 2228 666 
Q 2563 666 2741 848 
Q 2919 1031 2919 1375 
Q 2919 1722 2741 1905 
Q 2563 2088 2228 2088 
z
M 1350 2484 
Q 925 2613 709 2878 
Q 494 3144 494 3541 
Q 494 4131 934 4440 
Q 1375 4750 2228 4750 
Q 3075 4750 3515 4442 
Q 3956 4134 3956 3541 
Q 3956 3144 3739 2878 
Q 3522 2613 3097 2484 
Q 3572 2353 3814 2058 
Q 4056 1763 4056 1313 
Q 4056 619 3595 264 
Q 3134 -91 2228 -91 
Q 1319 -91 855 264 
Q 391 619 391 1313 
Q 391 1763 633 2058 
Q 875 2353 1350 2484 
z
M 1631 3419 
Q 1631 3141 1786 2991 
Q 1941 2841 2228 2841 
Q 2509 2841 2662 2991 
Q 2816 3141 2816 3419 
Q 2816 3697 2662 3845 
Q 2509 3994 2228 3994 
Q 1941 3994 1786 3844 
Q 1631 3694 1631 3419 
z
" id="DejaVuSans-Bold-38" transform="scale(0.015625)"/>
       </defs>
       <use xlink:href="#DejaVuSans-Bold-38"/>
       <use x="69.580078" xlink:href="#DejaVuSans-Bold-30"/>
      </g>
     </g>
    </g>
    <g id="ytick_6">
     <g id="line2d_11">
      <g>
       <use style="stroke:#000000;stroke-width:0.8;" x="48.751563" xlink:href="#m2a14a86879" y="59.232444"/>
      </g>
     </g>
     <g id="text_12">
      <!-- 100 -->
      <g transform="translate(20.878125 63.031663)scale(0.1 -0.1)">
       <use xlink:href="#DejaVuSans-Bold-31"/>
       <use x="69.580078" xlink:href="#DejaVuSans-Bold-30"/>
       <use x="139.160156" xlink:href="#DejaVuSans-Bold-30"/>
      </g>
     </g>
    </g>
    <g id="ytick_7">
     <g id="line2d_12">
      <g>
       <use style="stroke:#000000;stroke-width:0.8;" x="48.751563" xlink:href="#m2a14a86879" y="27.446013"/>
      </g>
     </g>
     <g id="text_13">
      <!-- 120 -->
      <g transform="translate(20.878125 31.245232)scale(0.1 -0.1)">
       <use xlink:href="#DejaVuSans-Bold-31"/>
       <use x="69.580078" xlink:href="#DejaVuSans-Bold-32"/>
       <use x="139.160156" xlink:href="#DejaVuSans-Bold-30"/>
      </g>
     </g>
    </g>
    <g id="text_14">
     <!-- Y -->
     <g transform="translate(14.798438 119.540312)rotate(-90)scale(0.1 -0.1)">
      <defs>
       <path d="M -63 4666 
L 1253 4666 
L 2316 3003 
L 3378 4666 
L 4697 4666 
L 2919 1966 
L 2919 0 
L 1716 0 
L 1716 1966 
L -63 4666 
z
" id="DejaVuSans-Bold-59" transform="scale(0.015625)"/>
      </defs>
      <use xlink:href="#DejaVuSans-Bold-59"/>
     </g>
    </g>
   </g>
   <g id="line2d_13">
    <path clip-path="url(#pb62e93f3bb)" d="M 176.166286 17.083636 
L 176.166286 17.878297 
L 176.166286 20.262279 
L 176.166286 24.235583 
L 175.925428 29.628151 
L 175.006434 36.193639 
L 173.41381 43.978136 
L 170.880812 52.660599 
L 166.95496 62.04459 
L 161.008866 71.916502 
L 153.559729 82.095629 
L 144.497104 92.643003 
L 134.117296 103.52175 
L 122.765428 114.799258 
L 110.91832 126.276067 
L 99.081517 137.600937 
L 87.96793 148.693924 
L 77.518312 159.223656 
L 69.541672 168.570457 
L 64.500404 176.006892 
L 63.969744 181.097489 
L 65.874066 185.754201 
L 68.631693 190.926648 
L 72.585237 196.49134 
L 77.077169 201.984353 
L 80.994649 206.978272 
L 83.699468 211.425924 
L 83.249309 214.368649 
L 81.40166 213.26612 
L 79.354369 213.594109 
L 78.957018 213.608476 
L 79.322169 213.655695 
L 79.561095 213.849338 
" style="fill:none;stroke:#1f77b4;stroke-linecap:square;stroke-width:1.5;"/>
   </g>
   <g id="line2d_14">
    <path clip-path="url(#pb62e93f3bb)" d="M 192.524001 17.083636 
L 192.524001 17.878297 
L 192.524001 20.262279 
L 192.524001 24.235583 
L 192.324296 29.590008 
L 191.861321 36.139602 
L 191.141839 43.909795 
L 190.154773 52.547758 
L 188.805004 61.7663 
L 187.085125 71.314785 
L 184.45456 80.932405 
L 180.495284 90.715633 
L 174.948602 100.647303 
L 168.204135 110.742515 
L 160.218672 121.098852 
L 151.381062 131.735704 
L 142.088785 142.877166 
L 132.728179 154.364306 
L 123.826104 166.042164 
L 116.446455 177.105113 
L 111.232595 186.04012 
L 108.085344 193.606721 
L 106.864312 200.545222 
L 107.15991 205.793877 
L 110.542222 208.435362 
L 113.970902 209.783265 
L 116.468996 210.892802 
L 116.86699 211.455883 
L 114.642599 212.084857 
L 112.820066 213.175752 
L 112.691265 213.6097 
L 113.146576 213.688387 
L 113.027435 213.675339 
" style="fill:none;stroke:#ff7f0e;stroke-linecap:square;stroke-width:1.5;"/>
   </g>
   <g id="line2d_15">
    <path clip-path="url(#pb62e93f3bb)" d="M 208.881717 17.083636 
L 208.881717 17.878297 
L 208.881717 20.262279 
L 208.881717 24.235583 
L 208.993895 29.543917 
L 209.333565 35.923454 
L 209.541468 43.410748 
L 209.813424 51.803955 
L 210.30471 60.704315 
L 210.909771 70.097046 
L 211.324021 79.828939 
L 211.375354 89.566871 
L 211.284414 99.234873 
L 211.501302 109.129512 
L 212.125517 119.161946 
L 213.238086 129.511926 
L 214.203507 140.3956 
L 215.153948 151.79771 
L 216.060629 163.66438 
L 217.145841 175.230191 
L 217.714046 184.997207 
L 218.010353 193.786315 
L 218.550866 202.140424 
L 219.140838 208.66265 
L 219.477331 212.585207 
L 218.435396 214.070254 
L 216.13675 214.204917 
L 216.121423 214.219062 
L 215.916501 214.21512 
L 215.944129 214.202882 
L 215.945095 214.199847 
L 216.053931 214.2056 
L 216.027398 214.2039 
" style="fill:none;stroke:#2ca02c;stroke-linecap:square;stroke-width:1.5;"/>
   </g>
   <g id="line2d_16">
    <path clip-path="url(#pb62e93f3bb)" d="M 225.239433 17.083636 
L 225.239433 17.878297 
L 225.239433 20.262279 
L 225.239433 24.235583 
L 225.365142 29.588418 
L 225.85465 36.020403 
L 226.720064 43.536304 
L 228.247642 52.013746 
L 230.262153 61.299675 
L 233.169769 71.103564 
L 237.66183 80.940511 
L 243.515509 90.777616 
L 251.477144 100.707539 
L 260.555226 111.006501 
L 270.587657 121.712807 
L 281.320637 132.905445 
L 292.497336 144.395763 
L 303.698508 156.0261 
L 314.223474 167.530405 
L 322.888555 178.037409 
L 328.978262 185.723051 
L 332.125513 191.894068 
L 333.123076 197.501354 
L 331.817678 201.728154 
L 329.144416 204.497436 
L 326.469221 205.847406 
L 324.531411 206.879098 
L 324.340142 208.270454 
L 325.832944 209.870614 
L 327.690253 210.896092 
L 328.11272 211.228197 
L 328.142988 211.214179 
L 328.247317 211.213082 
" style="fill:none;stroke:#d62728;stroke-linecap:square;stroke-width:1.5;"/>
   </g>
   <g id="line2d_17">
    <path clip-path="url(#pb62e93f3bb)" d="M 241.597148 17.083636 
L 241.597148 17.878297 
L 241.597148 20.262279 
L 241.597148 24.235583 
L 241.720411 29.590008 
L 242.411106 36.12053 
L 243.655194 43.849401 
L 245.831736 52.535043 
L 249.494319 61.93286 
L 254.957925 71.927309 
L 262.035728 82.360728 
L 271.07285 93.110423 
L 281.922782 104.156366 
L 294.499547 115.578502 
L 308.188507 127.009062 
L 321.986305 137.938826 
L 335.406072 148.231114 
L 347.875932 157.763547 
L 358.503939 166.371312 
L 365.35486 173.781524 
L 368.053883 179.767545 
L 368.333381 185.381982 
L 366.82641 191.393432 
L 363.702988 197.469567 
L 359.174992 203.049326 
L 355.49193 207.456864 
L 354.627032 210.987828 
L 354.140164 213.407125 
L 354.33079 214.331633 
L 355.272324 214.690439 
L 355.473254 214.743872 
L 355.448138 214.756364 
L 355.527994 214.751755 
" style="fill:none;stroke:#9467bd;stroke-linecap:square;stroke-width:1.5;"/>
   </g>
   <g id="patch_3">
    <path d="M 48.751563 224.64 
L 48.751563 7.2 
" style="fill:none;stroke:#000000;stroke-linecap:square;stroke-linejoin:miter;stroke-width:0.8;"/>
   </g>
   <g id="patch_4">
    <path d="M 383.551562 224.64 
L 383.551562 7.2 
" style="fill:none;stroke:#000000;stroke-linecap:square;stroke-linejoin:miter;stroke-width:0.8;"/>
   </g>
   <g id="patch_5">
    <path d="M 48.751563 224.64 
L 383.551562 224.64 
" style="fill:none;stroke:#000000;stroke-linecap:square;stroke-linejoin:miter;stroke-width:0.8;"/>
   </g>
   <g id="patch_6">
    <path d="M 48.751563 7.2 
L 383.551562 7.2 
" style="fill:none;stroke:#000000;stroke-linecap:square;stroke-linejoin:miter;stroke-width:0.8;"/>
   </g>
   <g id="legend_1">
    <g id="patch_7">
     <path d="M 287.864062 88.590625 
L 376.551562 88.590625 
Q 378.551562 88.590625 378.551562 86.590625 
L 378.551562 14.2 
Q 378.551562 12.2 376.551562 12.2 
L 287.864062 12.2 
Q 285.864062 12.2 285.864062 14.2 
L 285.864062 86.590625 
Q 285.864062 88.590625 287.864062 88.590625 
z
" style="fill:#ffffff;opacity:0.8;stroke:#cccccc;stroke-linejoin:miter;"/>
    </g>
    <g id="line2d_18">
     <path d="M 289.864062 20.298437 
L 309.864062 20.298437 
" style="fill:none;stroke:#1f77b4;stroke-linecap:square;stroke-width:1.5;"/>
    </g>
    <g id="line2d_19"/>
    <g id="text_15">
     <!-- intruder 1 -->
     <g transform="translate(317.864062 23.798437)scale(0.1 -0.1)">
      <defs>
       <path d="M 538 3500 
L 1656 3500 
L 1656 0 
L 538 0 
L 538 3500 
z
M 538 4863 
L 1656 4863 
L 1656 3950 
L 538 3950 
L 538 4863 
z
" id="DejaVuSans-Bold-69" transform="scale(0.015625)"/>
       <path d="M 4056 2131 
L 4056 0 
L 2931 0 
L 2931 347 
L 2931 1631 
Q 2931 2084 2911 2256 
Q 2891 2428 2841 2509 
Q 2775 2619 2662 2680 
Q 2550 2741 2406 2741 
Q 2056 2741 1856 2470 
Q 1656 2200 1656 1722 
L 1656 0 
L 538 0 
L 538 3500 
L 1656 3500 
L 1656 2988 
Q 1909 3294 2193 3439 
Q 2478 3584 2822 3584 
Q 3428 3584 3742 3212 
Q 4056 2841 4056 2131 
z
" id="DejaVuSans-Bold-6e" transform="scale(0.015625)"/>
       <path d="M 1759 4494 
L 1759 3500 
L 2913 3500 
L 2913 2700 
L 1759 2700 
L 1759 1216 
Q 1759 972 1856 886 
Q 1953 800 2241 800 
L 2816 800 
L 2816 0 
L 1856 0 
Q 1194 0 917 276 
Q 641 553 641 1216 
L 641 2700 
L 84 2700 
L 84 3500 
L 641 3500 
L 641 4494 
L 1759 4494 
z
" id="DejaVuSans-Bold-74" transform="scale(0.015625)"/>
       <path d="M 3138 2547 
Q 2991 2616 2845 2648 
Q 2700 2681 2553 2681 
Q 2122 2681 1889 2404 
Q 1656 2128 1656 1613 
L 1656 0 
L 538 0 
L 538 3500 
L 1656 3500 
L 1656 2925 
Q 1872 3269 2151 3426 
Q 2431 3584 2822 3584 
Q 2878 3584 2943 3579 
Q 3009 3575 3134 3559 
L 3138 2547 
z
" id="DejaVuSans-Bold-72" transform="scale(0.015625)"/>
       <path d="M 500 1363 
L 500 3500 
L 1625 3500 
L 1625 3150 
Q 1625 2866 1622 2436 
Q 1619 2006 1619 1863 
Q 1619 1441 1641 1255 
Q 1663 1069 1716 984 
Q 1784 875 1895 815 
Q 2006 756 2150 756 
Q 2500 756 2700 1025 
Q 2900 1294 2900 1772 
L 2900 3500 
L 4019 3500 
L 4019 0 
L 2900 0 
L 2900 506 
Q 2647 200 2364 54 
Q 2081 -91 1741 -91 
Q 1134 -91 817 281 
Q 500 653 500 1363 
z
" id="DejaVuSans-Bold-75" transform="scale(0.015625)"/>
       <path d="M 2919 2988 
L 2919 4863 
L 4044 4863 
L 4044 0 
L 2919 0 
L 2919 506 
Q 2688 197 2409 53 
Q 2131 -91 1766 -91 
Q 1119 -91 703 423 
Q 288 938 288 1747 
Q 288 2556 703 3070 
Q 1119 3584 1766 3584 
Q 2128 3584 2408 3439 
Q 2688 3294 2919 2988 
z
M 2181 722 
Q 2541 722 2730 984 
Q 2919 1247 2919 1747 
Q 2919 2247 2730 2509 
Q 2541 2772 2181 2772 
Q 1825 2772 1636 2509 
Q 1447 2247 1447 1747 
Q 1447 1247 1636 984 
Q 1825 722 2181 722 
z
" id="DejaVuSans-Bold-64" transform="scale(0.015625)"/>
       <path d="M 4031 1759 
L 4031 1441 
L 1416 1441 
Q 1456 1047 1700 850 
Q 1944 653 2381 653 
Q 2734 653 3104 758 
Q 3475 863 3866 1075 
L 3866 213 
Q 3469 63 3072 -14 
Q 2675 -91 2278 -91 
Q 1328 -91 801 392 
Q 275 875 275 1747 
Q 275 2603 792 3093 
Q 1309 3584 2216 3584 
Q 3041 3584 3536 3087 
Q 4031 2591 4031 1759 
z
M 2881 2131 
Q 2881 2450 2695 2645 
Q 2509 2841 2209 2841 
Q 1884 2841 1681 2658 
Q 1478 2475 1428 2131 
L 2881 2131 
z
" id="DejaVuSans-Bold-65" transform="scale(0.015625)"/>
       <path id="DejaVuSans-Bold-20" transform="scale(0.015625)"/>
      </defs>
      <use xlink:href="#DejaVuSans-Bold-69"/>
      <use x="34.277344" xlink:href="#DejaVuSans-Bold-6e"/>
      <use x="105.46875" xlink:href="#DejaVuSans-Bold-74"/>
      <use x="153.271484" xlink:href="#DejaVuSans-Bold-72"/>
      <use x="202.587891" xlink:href="#DejaVuSans-Bold-75"/>
      <use x="273.779297" xlink:href="#DejaVuSans-Bold-64"/>
      <use x="345.361328" xlink:href="#DejaVuSans-Bold-65"/>
      <use x="413.183594" xlink:href="#DejaVuSans-Bold-72"/>
      <use x="462.5" xlink:href="#DejaVuSans-Bold-20"/>
      <use x="497.314453" xlink:href="#DejaVuSans-Bold-31"/>
     </g>
    </g>
    <g id="line2d_20">
     <path d="M 289.864062 34.976562 
L 309.864062 34.976562 
" style="fill:none;stroke:#ff7f0e;stroke-linecap:square;stroke-width:1.5;"/>
    </g>
    <g id="line2d_21"/>
    <g id="text_16">
     <!-- intruder 2 -->
     <g transform="translate(317.864062 38.476562)scale(0.1 -0.1)">
      <use xlink:href="#DejaVuSans-Bold-69"/>
      <use x="34.277344" xlink:href="#DejaVuSans-Bold-6e"/>
      <use x="105.46875" xlink:href="#DejaVuSans-Bold-74"/>
      <use x="153.271484" xlink:href="#DejaVuSans-Bold-72"/>
      <use x="202.587891" xlink:href="#DejaVuSans-Bold-75"/>
      <use x="273.779297" xlink:href="#DejaVuSans-Bold-64"/>
      <use x="345.361328" xlink:href="#DejaVuSans-Bold-65"/>
      <use x="413.183594" xlink:href="#DejaVuSans-Bold-72"/>
      <use x="462.5" xlink:href="#DejaVuSans-Bold-20"/>
      <use x="497.314453" xlink:href="#DejaVuSans-Bold-32"/>
     </g>
    </g>
    <g id="line2d_22">
     <path d="M 289.864062 49.654687 
L 309.864062 49.654687 
" style="fill:none;stroke:#2ca02c;stroke-linecap:square;stroke-width:1.5;"/>
    </g>
    <g id="line2d_23"/>
    <g id="text_17">
     <!-- intruder 3 -->
     <g transform="translate(317.864062 53.154687)scale(0.1 -0.1)">
      <defs>
       <path d="M 2981 2516 
Q 3453 2394 3698 2092 
Q 3944 1791 3944 1325 
Q 3944 631 3412 270 
Q 2881 -91 1863 -91 
Q 1503 -91 1142 -33 
Q 781 25 428 141 
L 428 1069 
Q 766 900 1098 814 
Q 1431 728 1753 728 
Q 2231 728 2486 893 
Q 2741 1059 2741 1369 
Q 2741 1688 2480 1852 
Q 2219 2016 1709 2016 
L 1228 2016 
L 1228 2791 
L 1734 2791 
Q 2188 2791 2409 2933 
Q 2631 3075 2631 3366 
Q 2631 3634 2415 3781 
Q 2200 3928 1806 3928 
Q 1516 3928 1219 3862 
Q 922 3797 628 3669 
L 628 4550 
Q 984 4650 1334 4700 
Q 1684 4750 2022 4750 
Q 2931 4750 3382 4451 
Q 3834 4153 3834 3553 
Q 3834 3144 3618 2883 
Q 3403 2622 2981 2516 
z
" id="DejaVuSans-Bold-33" transform="scale(0.015625)"/>
      </defs>
      <use xlink:href="#DejaVuSans-Bold-69"/>
      <use x="34.277344" xlink:href="#DejaVuSans-Bold-6e"/>
      <use x="105.46875" xlink:href="#DejaVuSans-Bold-74"/>
      <use x="153.271484" xlink:href="#DejaVuSans-Bold-72"/>
      <use x="202.587891" xlink:href="#DejaVuSans-Bold-75"/>
      <use x="273.779297" xlink:href="#DejaVuSans-Bold-64"/>
      <use x="345.361328" xlink:href="#DejaVuSans-Bold-65"/>
      <use x="413.183594" xlink:href="#DejaVuSans-Bold-72"/>
      <use x="462.5" xlink:href="#DejaVuSans-Bold-20"/>
      <use x="497.314453" xlink:href="#DejaVuSans-Bold-33"/>
     </g>
    </g>
    <g id="line2d_24">
     <path d="M 289.864062 64.332812 
L 309.864062 64.332812 
" style="fill:none;stroke:#d62728;stroke-linecap:square;stroke-width:1.5;"/>
    </g>
    <g id="line2d_25"/>
    <g id="text_18">
     <!-- intruder 4 -->
     <g transform="translate(317.864062 67.832812)scale(0.1 -0.1)">
      <use xlink:href="#DejaVuSans-Bold-69"/>
      <use x="34.277344" xlink:href="#DejaVuSans-Bold-6e"/>
      <use x="105.46875" xlink:href="#DejaVuSans-Bold-74"/>
      <use x="153.271484" xlink:href="#DejaVuSans-Bold-72"/>
      <use x="202.587891" xlink:href="#DejaVuSans-Bold-75"/>
      <use x="273.779297" xlink:href="#DejaVuSans-Bold-64"/>
      <use x="345.361328" xlink:href="#DejaVuSans-Bold-65"/>
      <use x="413.183594" xlink:href="#DejaVuSans-Bold-72"/>
      <use x="462.5" xlink:href="#DejaVuSans-Bold-20"/>
      <use x="497.314453" xlink:href="#DejaVuSans-Bold-34"/>
     </g>
    </g>
    <g id="line2d_26">
     <path d="M 289.864062 79.010937 
L 309.864062 79.010937 
" style="fill:none;stroke:#9467bd;stroke-linecap:square;stroke-width:1.5;"/>
    </g>
    <g id="line2d_27"/>
    <g id="text_19">
     <!-- intruder 5 -->
     <g transform="translate(317.864062 82.510937)scale(0.1 -0.1)">
      <defs>
       <path d="M 678 4666 
L 3669 4666 
L 3669 3781 
L 1638 3781 
L 1638 3059 
Q 1775 3097 1914 3117 
Q 2053 3138 2203 3138 
Q 3056 3138 3531 2711 
Q 4006 2284 4006 1522 
Q 4006 766 3489 337 
Q 2972 -91 2053 -91 
Q 1656 -91 1267 -14 
Q 878 63 494 219 
L 494 1166 
Q 875 947 1217 837 
Q 1559 728 1863 728 
Q 2300 728 2551 942 
Q 2803 1156 2803 1522 
Q 2803 1891 2551 2103 
Q 2300 2316 1863 2316 
Q 1603 2316 1309 2248 
Q 1016 2181 678 2041 
L 678 4666 
z
" id="DejaVuSans-Bold-35" transform="scale(0.015625)"/>
      </defs>
      <use xlink:href="#DejaVuSans-Bold-69"/>
      <use x="34.277344" xlink:href="#DejaVuSans-Bold-6e"/>
      <use x="105.46875" xlink:href="#DejaVuSans-Bold-74"/>
      <use x="153.271484" xlink:href="#DejaVuSans-Bold-72"/>
      <use x="202.587891" xlink:href="#DejaVuSans-Bold-75"/>
      <use x="273.779297" xlink:href="#DejaVuSans-Bold-64"/>
      <use x="345.361328" xlink:href="#DejaVuSans-Bold-65"/>
      <use x="413.183594" xlink:href="#DejaVuSans-Bold-72"/>
      <use x="462.5" xlink:href="#DejaVuSans-Bold-20"/>
      <use x="497.314453" xlink:href="#DejaVuSans-Bold-35"/>
     </g>
    </g>
   </g>
  </g>
 </g>
 <defs>
  <clipPath id="pb62e93f3bb">
   <rect height="217.44" width="334.8" x="48.751563" y="7.2"/>
  </clipPath>
 </defs>
</svg>
