<?xml version="1.0" encoding="utf-8" standalone="no"?>
<!DOCTYPE svg PUBLIC "-//W3C//DTD SVG 1.1//EN"
  "http://www.w3.org/Graphics/SVG/1.1/DTD/svg11.dtd">
<svg height="277.314375pt" version="1.1" viewBox="0 0 390.751562 277.314375" width="390.751562pt" xmlns="http://www.w3.org/2000/svg" xmlns:xlink="http://www.w3.org/1999/xlink">
 <metadata>
  <rdf:RDF xmlns:cc="http://creativecommons.org/ns#" xmlns:dc="http://purl.org/dc/elements/1.1/" xmlns:rdf="http://www.w3.org/1999/02/22-rdf-syntax-ns#">
   <cc:Work>
    <dc:type rdf:resource="http://purl.org/dc/dcmitype/StillImage"/>
    <dc:date>2022-05-28T19:21:13.128649</dc:date>
    <dc:format>image/svg+xml</dc:format>
    <dc:creator>
     <cc:Agent>
      <dc:title>Matplotlib v3.4.3, https://matplotlib.org/</dc:title>
     </cc:Agent>
    </dc:creator>
   </cc:Work>
  </rdf:RDF>
 </metadata>
 <defs>
  <style type="text/css">*{stroke-linecap:butt;stroke-linejoin:round;}</style>
 </defs>
 <g id="figure_1">
  <g id="patch_1">
   <path d="M 0 277.314375 
L 390.751562 277.314375 
L 390.751562 0 
L 0 0 
z
" style="fill:none;"/>
  </g>
  <g id="axes_1">
   <g id="patch_2">
    <path d="M 48.751563 239.758125 
L 383.551562 239.758125 
L 383.551562 22.318125 
L 48.751563 22.318125 
z
" style="fill:#ffffff;"/>
   </g>
   <g id="matplotlib.axis_1">
    <g id="xtick_1">
     <g id="line2d_1">
      <defs>
       <path d="M 0 0 
L 0 3.5 
" id="m3d619db34c" style="stroke:#000000;stroke-width:0.8;"/>
      </defs>
      <g>
       <use style="stroke:#000000;stroke-width:0.8;" x="51.854238" xlink:href="#m3d619db34c" y="239.758125"/>
      </g>
     </g>
     <g id="text_1">
      <!-- −0.4 -->
      <g transform="translate(38.807363 254.356562)scale(0.1 -0.1)">
       <defs>
        <path d="M 678 2375 
L 4684 2375 
L 4684 1638 
L 678 1638 
L 678 2375 
z
" id="DejaVuSans-Bold-2212" transform="scale(0.015625)"/>
        <path d="M 2944 2338 
Q 2944 3213 2780 3570 
Q 2616 3928 2228 3928 
Q 1841 3928 1675 3570 
Q 1509 3213 1509 2338 
Q 1509 1453 1675 1090 
Q 1841 728 2228 728 
Q 2613 728 2778 1090 
Q 2944 1453 2944 2338 
z
M 4147 2328 
Q 4147 1169 3647 539 
Q 3147 -91 2228 -91 
Q 1306 -91 806 539 
Q 306 1169 306 2328 
Q 306 3491 806 4120 
Q 1306 4750 2228 4750 
Q 3147 4750 3647 4120 
Q 4147 3491 4147 2328 
z
" id="DejaVuSans-Bold-30" transform="scale(0.015625)"/>
        <path d="M 653 1209 
L 1778 1209 
L 1778 0 
L 653 0 
L 653 1209 
z
" id="DejaVuSans-Bold-2e" transform="scale(0.015625)"/>
        <path d="M 2356 3675 
L 1038 1722 
L 2356 1722 
L 2356 3675 
z
M 2156 4666 
L 3494 4666 
L 3494 1722 
L 4159 1722 
L 4159 850 
L 3494 850 
L 3494 0 
L 2356 0 
L 2356 850 
L 288 850 
L 288 1881 
L 2156 4666 
z
" id="DejaVuSans-Bold-34" transform="scale(0.015625)"/>
       </defs>
       <use xlink:href="#DejaVuSans-Bold-2212"/>
       <use x="83.789062" xlink:href="#DejaVuSans-Bold-30"/>
       <use x="153.369141" xlink:href="#DejaVuSans-Bold-2e"/>
       <use x="191.357422" xlink:href="#DejaVuSans-Bold-34"/>
      </g>
     </g>
    </g>
    <g id="xtick_2">
     <g id="line2d_2">
      <g>
       <use style="stroke:#000000;stroke-width:0.8;" x="124.515303" xlink:href="#m3d619db34c" y="239.758125"/>
      </g>
     </g>
     <g id="text_2">
      <!-- −0.3 -->
      <g transform="translate(111.468428 254.356562)scale(0.1 -0.1)">
       <defs>
        <path d="M 2981 2516 
Q 3453 2394 3698 2092 
Q 3944 1791 3944 1325 
Q 3944 631 3412 270 
Q 2881 -91 1863 -91 
Q 1503 -91 1142 -33 
Q 781 25 428 141 
L 428 1069 
Q 766 900 1098 814 
Q 1431 728 1753 728 
Q 2231 728 2486 893 
Q 2741 1059 2741 1369 
Q 2741 1688 2480 1852 
Q 2219 2016 1709 2016 
L 1228 2016 
L 1228 2791 
L 1734 2791 
Q 2188 2791 2409 2933 
Q 2631 3075 2631 3366 
Q 2631 3634 2415 3781 
Q 2200 3928 1806 3928 
Q 1516 3928 1219 3862 
Q 922 3797 628 3669 
L 628 4550 
Q 984 4650 1334 4700 
Q 1684 4750 2022 4750 
Q 2931 4750 3382 4451 
Q 3834 4153 3834 3553 
Q 3834 3144 3618 2883 
Q 3403 2622 2981 2516 
z
" id="DejaVuSans-Bold-33" transform="scale(0.015625)"/>
       </defs>
       <use xlink:href="#DejaVuSans-Bold-2212"/>
       <use x="83.789062" xlink:href="#DejaVuSans-Bold-30"/>
       <use x="153.369141" xlink:href="#DejaVuSans-Bold-2e"/>
       <use x="191.357422" xlink:href="#DejaVuSans-Bold-33"/>
      </g>
     </g>
    </g>
    <g id="xtick_3">
     <g id="line2d_3">
      <g>
       <use style="stroke:#000000;stroke-width:0.8;" x="197.176368" xlink:href="#m3d619db34c" y="239.758125"/>
      </g>
     </g>
     <g id="text_3">
      <!-- −0.2 -->
      <g transform="translate(184.129493 254.356562)scale(0.1 -0.1)">
       <defs>
        <path d="M 1844 884 
L 3897 884 
L 3897 0 
L 506 0 
L 506 884 
L 2209 2388 
Q 2438 2594 2547 2791 
Q 2656 2988 2656 3200 
Q 2656 3528 2436 3728 
Q 2216 3928 1850 3928 
Q 1569 3928 1234 3808 
Q 900 3688 519 3450 
L 519 4475 
Q 925 4609 1322 4679 
Q 1719 4750 2100 4750 
Q 2938 4750 3402 4381 
Q 3866 4013 3866 3353 
Q 3866 2972 3669 2642 
Q 3472 2313 2841 1759 
L 1844 884 
z
" id="DejaVuSans-Bold-32" transform="scale(0.015625)"/>
       </defs>
       <use xlink:href="#DejaVuSans-Bold-2212"/>
       <use x="83.789062" xlink:href="#DejaVuSans-Bold-30"/>
       <use x="153.369141" xlink:href="#DejaVuSans-Bold-2e"/>
       <use x="191.357422" xlink:href="#DejaVuSans-Bold-32"/>
      </g>
     </g>
    </g>
    <g id="xtick_4">
     <g id="line2d_4">
      <g>
       <use style="stroke:#000000;stroke-width:0.8;" x="269.837432" xlink:href="#m3d619db34c" y="239.758125"/>
      </g>
     </g>
     <g id="text_4">
      <!-- −0.1 -->
      <g transform="translate(256.790557 254.356562)scale(0.1 -0.1)">
       <defs>
        <path d="M 750 831 
L 1813 831 
L 1813 3847 
L 722 3622 
L 722 4441 
L 1806 4666 
L 2950 4666 
L 2950 831 
L 4013 831 
L 4013 0 
L 750 0 
L 750 831 
z
" id="DejaVuSans-Bold-31" transform="scale(0.015625)"/>
       </defs>
       <use xlink:href="#DejaVuSans-Bold-2212"/>
       <use x="83.789062" xlink:href="#DejaVuSans-Bold-30"/>
       <use x="153.369141" xlink:href="#DejaVuSans-Bold-2e"/>
       <use x="191.357422" xlink:href="#DejaVuSans-Bold-31"/>
      </g>
     </g>
    </g>
    <g id="xtick_5">
     <g id="line2d_5">
      <g>
       <use style="stroke:#000000;stroke-width:0.8;" x="342.498497" xlink:href="#m3d619db34c" y="239.758125"/>
      </g>
     </g>
     <g id="text_5">
      <!-- 0.0 -->
      <g transform="translate(333.641466 254.356562)scale(0.1 -0.1)">
       <use xlink:href="#DejaVuSans-Bold-30"/>
       <use x="69.580078" xlink:href="#DejaVuSans-Bold-2e"/>
       <use x="107.568359" xlink:href="#DejaVuSans-Bold-30"/>
      </g>
     </g>
    </g>
    <g id="text_6">
     <!-- X -->
     <g transform="translate(212.296875 268.034687)scale(0.1 -0.1)">
      <defs>
       <path d="M 3188 2381 
L 4806 0 
L 3553 0 
L 2463 1594 
L 1381 0 
L 122 0 
L 1741 2381 
L 184 4666 
L 1441 4666 
L 2463 3163 
L 3481 4666 
L 4744 4666 
L 3188 2381 
z
" id="DejaVuSans-Bold-58" transform="scale(0.015625)"/>
      </defs>
      <use xlink:href="#DejaVuSans-Bold-58"/>
     </g>
    </g>
   </g>
   <g id="matplotlib.axis_2">
    <g id="ytick_1">
     <g id="line2d_6">
      <defs>
       <path d="M 0 0 
L -3.5 0 
" id="mf27bc121f8" style="stroke:#000000;stroke-width:0.8;"/>
      </defs>
      <g>
       <use style="stroke:#000000;stroke-width:0.8;" x="48.751563" xlink:href="#mf27bc121f8" y="210.84142"/>
      </g>
     </g>
     <g id="text_7">
      <!-- 20 -->
      <g transform="translate(27.835938 214.640639)scale(0.1 -0.1)">
       <use xlink:href="#DejaVuSans-Bold-32"/>
       <use x="69.580078" xlink:href="#DejaVuSans-Bold-30"/>
      </g>
     </g>
    </g>
    <g id="ytick_2">
     <g id="line2d_7">
      <g>
       <use style="stroke:#000000;stroke-width:0.8;" x="48.751563" xlink:href="#mf27bc121f8" y="181.630296"/>
      </g>
     </g>
     <g id="text_8">
      <!-- 40 -->
      <g transform="translate(27.835938 185.429515)scale(0.1 -0.1)">
       <use xlink:href="#DejaVuSans-Bold-34"/>
       <use x="69.580078" xlink:href="#DejaVuSans-Bold-30"/>
      </g>
     </g>
    </g>
    <g id="ytick_3">
     <g id="line2d_8">
      <g>
       <use style="stroke:#000000;stroke-width:0.8;" x="48.751563" xlink:href="#mf27bc121f8" y="152.419171"/>
      </g>
     </g>
     <g id="text_9">
      <!-- 60 -->
      <g transform="translate(27.835938 156.21839)scale(0.1 -0.1)">
       <defs>
        <path d="M 2316 2303 
Q 2000 2303 1842 2098 
Q 1684 1894 1684 1484 
Q 1684 1075 1842 870 
Q 2000 666 2316 666 
Q 2634 666 2792 870 
Q 2950 1075 2950 1484 
Q 2950 1894 2792 2098 
Q 2634 2303 2316 2303 
z
M 3803 4544 
L 3803 3681 
Q 3506 3822 3243 3889 
Q 2981 3956 2731 3956 
Q 2194 3956 1894 3657 
Q 1594 3359 1544 2772 
Q 1750 2925 1990 3001 
Q 2231 3078 2516 3078 
Q 3231 3078 3670 2659 
Q 4109 2241 4109 1563 
Q 4109 813 3618 361 
Q 3128 -91 2303 -91 
Q 1394 -91 895 523 
Q 397 1138 397 2266 
Q 397 3422 980 4083 
Q 1563 4744 2578 4744 
Q 2900 4744 3203 4694 
Q 3506 4644 3803 4544 
z
" id="DejaVuSans-Bold-36" transform="scale(0.015625)"/>
       </defs>
       <use xlink:href="#DejaVuSans-Bold-36"/>
       <use x="69.580078" xlink:href="#DejaVuSans-Bold-30"/>
      </g>
     </g>
    </g>
    <g id="ytick_4">
     <g id="line2d_9">
      <g>
       <use style="stroke:#000000;stroke-width:0.8;" x="48.751563" xlink:href="#mf27bc121f8" y="123.208047"/>
      </g>
     </g>
     <g id="text_10">
      <!-- 80 -->
      <g transform="translate(27.835938 127.007265)scale(0.1 -0.1)">
       <defs>
        <path d="M 2228 2088 
Q 1891 2088 1709 1903 
Q 1528 1719 1528 1375 
Q 1528 1031 1709 848 
Q 1891 666 2228 666 
Q 2563 666 2741 848 
Q 2919 1031 2919 1375 
Q 2919 1722 2741 1905 
Q 2563 2088 2228 2088 
z
M 1350 2484 
Q 925 2613 709 2878 
Q 494 3144 494 3541 
Q 494 4131 934 4440 
Q 1375 4750 2228 4750 
Q 3075 4750 3515 4442 
Q 3956 4134 3956 3541 
Q 3956 3144 3739 2878 
Q 3522 2613 3097 2484 
Q 3572 2353 3814 2058 
Q 4056 1763 4056 1313 
Q 4056 619 3595 264 
Q 3134 -91 2228 -91 
Q 1319 -91 855 264 
Q 391 619 391 1313 
Q 391 1763 633 2058 
Q 875 2353 1350 2484 
z
M 1631 3419 
Q 1631 3141 1786 2991 
Q 1941 2841 2228 2841 
Q 2509 2841 2662 2991 
Q 2816 3141 2816 3419 
Q 2816 3697 2662 3845 
Q 2509 3994 2228 3994 
Q 1941 3994 1786 3844 
Q 1631 3694 1631 3419 
z
" id="DejaVuSans-Bold-38" transform="scale(0.015625)"/>
       </defs>
       <use xlink:href="#DejaVuSans-Bold-38"/>
       <use x="69.580078" xlink:href="#DejaVuSans-Bold-30"/>
      </g>
     </g>
    </g>
    <g id="ytick_5">
     <g id="line2d_10">
      <g>
       <use style="stroke:#000000;stroke-width:0.8;" x="48.751563" xlink:href="#mf27bc121f8" y="93.996922"/>
      </g>
     </g>
     <g id="text_11">
      <!-- 100 -->
      <g transform="translate(20.878125 97.796141)scale(0.1 -0.1)">
       <use xlink:href="#DejaVuSans-Bold-31"/>
       <use x="69.580078" xlink:href="#DejaVuSans-Bold-30"/>
       <use x="139.160156" xlink:href="#DejaVuSans-Bold-30"/>
      </g>
     </g>
    </g>
    <g id="ytick_6">
     <g id="line2d_11">
      <g>
       <use style="stroke:#000000;stroke-width:0.8;" x="48.751563" xlink:href="#mf27bc121f8" y="64.785797"/>
      </g>
     </g>
     <g id="text_12">
      <!-- 120 -->
      <g transform="translate(20.878125 68.585016)scale(0.1 -0.1)">
       <use xlink:href="#DejaVuSans-Bold-31"/>
       <use x="69.580078" xlink:href="#DejaVuSans-Bold-32"/>
       <use x="139.160156" xlink:href="#DejaVuSans-Bold-30"/>
      </g>
     </g>
    </g>
    <g id="ytick_7">
     <g id="line2d_12">
      <g>
       <use style="stroke:#000000;stroke-width:0.8;" x="48.751563" xlink:href="#mf27bc121f8" y="35.574673"/>
      </g>
     </g>
     <g id="text_13">
      <!-- 140 -->
      <g transform="translate(20.878125 39.373891)scale(0.1 -0.1)">
       <use xlink:href="#DejaVuSans-Bold-31"/>
       <use x="69.580078" xlink:href="#DejaVuSans-Bold-34"/>
       <use x="139.160156" xlink:href="#DejaVuSans-Bold-30"/>
      </g>
     </g>
    </g>
    <g id="text_14">
     <!-- Y -->
     <g transform="translate(14.798438 134.658437)rotate(-90)scale(0.1 -0.1)">
      <defs>
       <path d="M -63 4666 
L 1253 4666 
L 2316 3003 
L 3378 4666 
L 4697 4666 
L 2919 1966 
L 2919 0 
L 1716 0 
L 1716 1966 
L -63 4666 
z
" id="DejaVuSans-Bold-59" transform="scale(0.015625)"/>
      </defs>
      <use xlink:href="#DejaVuSans-Bold-59"/>
     </g>
    </g>
   </g>
   <g id="line2d_13">
    <path clip-path="url(#pf0f66c51ee)" d="M 342.498497 32.201761 
L 342.521454 61.185039 
L 343.14387 62.573541 
L 343.67479 63.516087 
L 343.746172 64.469343 
L 343.531376 65.433797 
L 343.3879 65.920163 
L 343.058554 66.407988 
L 341.731068 67.885098 
L 341.668241 68.379739 
L 342.380469 70.37778 
L 342.629323 70.882159 
L 344.478148 73.439106 
L 346.577447 77.102668 
L 348.278224 79.240922 
L 349.412536 80.86214 
L 349.701679 81.405467 
L 349.847146 81.951228 
L 349.711319 82.497476 
L 350.178432 84.148878 
L 350.65383 85.261335 
L 351.422661 86.380121 
L 352.002183 86.941462 
L 352.71207 88.068037 
L 353.028199 89.200942 
L 353.111542 89.769585 
L 353.997328 92.064022 
L 354.386719 92.641039 
L 354.527124 94.38431 
L 354.388778 94.968435 
L 354.437994 95.552658 
L 354.986197 97.895146 
L 355.168625 99.074448 
L 355.559299 100.256963 
L 355.49325 100.848294 
L 353.75016 102.624233 
L 351.648172 103.811616 
L 350.796439 104.407182 
L 348.792955 107.410232 
L 348.243759 108.015195 
L 347.715319 109.223415 
L 343.033476 113.47305 
L 341.029557 114.695097 
L 338.096302 117.141237 
L 337.475195 117.753307 
L 335.4216 118.981538 
L 334.104303 120.215854 
L 333.737583 120.832695 
L 333.64167 121.448125 
L 333.802251 122.678984 
L 333.94147 123.297043 
L 333.88913 123.915491 
L 333.349888 125.154092 
L 332.977693 125.775169 
L 333.072419 126.396392 
L 333.580877 127.01708 
L 335.172348 128.259186 
L 337.539016 130.131034 
L 339.030215 131.382926 
L 339.656795 132.632772 
L 340.505695 133.888169 
L 340.798398 134.518205 
L 341.225063 135.149116 
L 341.8134 135.779784 
L 342.610177 136.41128 
L 345.146121 137.677534 
L 347.58201 138.948948 
L 348.637703 139.585312 
L 354.712919 142.128579 
L 358.339796 144.044683 
L 359.121774 144.686013 
L 360.676794 146.61161 
L 360.930235 147.251334 
L 361.032954 147.892372 
L 361.317422 148.532777 
L 362.374931 149.815194 
L 362.88477 150.457352 
L 363.57505 151.100484 
L 364.581406 151.743567 
L 365.213557 152.384994 
L 365.115707 153.025643 
L 364.868901 153.664587 
L 365.164147 154.300952 
L 365.25352 154.935417 
L 365.530601 155.570467 
L 366.636503 156.845095 
L 366.988909 157.483893 
L 366.484641 158.759884 
L 366.586851 159.394593 
L 366.572803 160.028864 
L 366.901352 160.661772 
L 367.779437 161.293462 
L 368.308627 161.925591 
L 368.333381 162.557233 
L 367.714623 163.187706 
L 366.168638 163.817547 
L 362.714961 165.076546 
L 361.235315 165.705462 
L 360.496982 166.33204 
L 360.175917 166.956818 
L 359.725903 167.580719 
L 358.431906 168.203062 
L 355.344586 169.444145 
L 351.736358 171.296228 
L 348.598011 172.532442 
L 347.571479 173.147239 
L 346.231537 173.757898 
L 342.991769 174.970744 
L 342.185788 175.573369 
L 342.166806 176.172635 
L 341.810273 176.770733 
L 337.566339 179.756013 
L 336.657347 180.93176 
L 336.031866 181.513354 
L 335.238935 182.092318 
L 333.97758 182.671429 
L 332.1123 183.250734 
L 324.31245 184.973801 
L 314.965355 186.678416 
L 282.382365 192.153944 
L 269.476065 193.740498 
L 262.606203 194.77832 
L 243.022351 197.306835 
L 228.134825 199.272744 
L 222.728115 200.236176 
L 218.188494 201.188069 
L 209.072437 202.592248 
L 202.828672 203.511522 
L 196.624628 204.86351 
L 193.636321 205.308931 
L 171.278269 207.903463 
L 164.058908 208.739437 
L 151.522936 209.968495 
L 141.152749 210.764547 
L 91.752429 214.227915 
L 80.024691 215.316321 
L 69.258501 216.361495 
L 64.985062 217.039096 
L 64.154788 217.373028 
L 63.969744 217.703893 
L 64.440104 218.029645 
L 65.359993 218.34829 
L 69.665887 219.270291 
L 73.271572 219.863715 
L 77.921395 220.445551 
L 84.646177 221.826653 
L 90.284918 222.338588 
L 98.862556 222.830966 
L 110.957717 223.301163 
L 136.191452 223.949713 
L 223.23793 226.018747 
L 250.473259 226.810013 
L 268.200379 227.351261 
L 300.409575 228.183043 
L 313.271068 228.603474 
L 329.788866 229.141036 
L 334.60581 229.410597 
L 334.029123 229.516185 
L 330.673393 229.722119 
L 323.030418 229.862376 
L 302.808359 229.854839 
L 276.918495 229.784202 
L 289.188527 229.824562 
" style="fill:none;stroke:#1f77b4;stroke-linecap:square;stroke-width:1.5;"/>
   </g>
   <g id="patch_3">
    <path d="M 48.751563 239.758125 
L 48.751563 22.318125 
" style="fill:none;stroke:#000000;stroke-linecap:square;stroke-linejoin:miter;stroke-width:0.8;"/>
   </g>
   <g id="patch_4">
    <path d="M 383.551562 239.758125 
L 383.551562 22.318125 
" style="fill:none;stroke:#000000;stroke-linecap:square;stroke-linejoin:miter;stroke-width:0.8;"/>
   </g>
   <g id="patch_5">
    <path d="M 48.751563 239.758125 
L 383.551562 239.758125 
" style="fill:none;stroke:#000000;stroke-linecap:square;stroke-linejoin:miter;stroke-width:0.8;"/>
   </g>
   <g id="patch_6">
    <path d="M 48.751563 22.318125 
L 383.551562 22.318125 
" style="fill:none;stroke:#000000;stroke-linecap:square;stroke-linejoin:miter;stroke-width:0.8;"/>
   </g>
   <g id="text_15">
    <!-- Center of mass of intruder -->
    <g transform="translate(136.931875 16.318125)scale(0.12 -0.12)">
     <defs>
      <path d="M 4122 4306 
L 4122 3641 
Q 3803 3938 3442 4084 
Q 3081 4231 2675 4231 
Q 1875 4231 1450 3742 
Q 1025 3253 1025 2328 
Q 1025 1406 1450 917 
Q 1875 428 2675 428 
Q 3081 428 3442 575 
Q 3803 722 4122 1019 
L 4122 359 
Q 3791 134 3420 21 
Q 3050 -91 2638 -91 
Q 1578 -91 968 557 
Q 359 1206 359 2328 
Q 359 3453 968 4101 
Q 1578 4750 2638 4750 
Q 3056 4750 3426 4639 
Q 3797 4528 4122 4306 
z
" id="DejaVuSans-43" transform="scale(0.015625)"/>
      <path d="M 3597 1894 
L 3597 1613 
L 953 1613 
Q 991 1019 1311 708 
Q 1631 397 2203 397 
Q 2534 397 2845 478 
Q 3156 559 3463 722 
L 3463 178 
Q 3153 47 2828 -22 
Q 2503 -91 2169 -91 
Q 1331 -91 842 396 
Q 353 884 353 1716 
Q 353 2575 817 3079 
Q 1281 3584 2069 3584 
Q 2775 3584 3186 3129 
Q 3597 2675 3597 1894 
z
M 3022 2063 
Q 3016 2534 2758 2815 
Q 2500 3097 2075 3097 
Q 1594 3097 1305 2825 
Q 1016 2553 972 2059 
L 3022 2063 
z
" id="DejaVuSans-65" transform="scale(0.015625)"/>
      <path d="M 3513 2113 
L 3513 0 
L 2938 0 
L 2938 2094 
Q 2938 2591 2744 2837 
Q 2550 3084 2163 3084 
Q 1697 3084 1428 2787 
Q 1159 2491 1159 1978 
L 1159 0 
L 581 0 
L 581 3500 
L 1159 3500 
L 1159 2956 
Q 1366 3272 1645 3428 
Q 1925 3584 2291 3584 
Q 2894 3584 3203 3211 
Q 3513 2838 3513 2113 
z
" id="DejaVuSans-6e" transform="scale(0.015625)"/>
      <path d="M 1172 4494 
L 1172 3500 
L 2356 3500 
L 2356 3053 
L 1172 3053 
L 1172 1153 
Q 1172 725 1289 603 
Q 1406 481 1766 481 
L 2356 481 
L 2356 0 
L 1766 0 
Q 1100 0 847 248 
Q 594 497 594 1153 
L 594 3053 
L 172 3053 
L 172 3500 
L 594 3500 
L 594 4494 
L 1172 4494 
z
" id="DejaVuSans-74" transform="scale(0.015625)"/>
      <path d="M 2631 2963 
Q 2534 3019 2420 3045 
Q 2306 3072 2169 3072 
Q 1681 3072 1420 2755 
Q 1159 2438 1159 1844 
L 1159 0 
L 581 0 
L 581 3500 
L 1159 3500 
L 1159 2956 
Q 1341 3275 1631 3429 
Q 1922 3584 2338 3584 
Q 2397 3584 2469 3576 
Q 2541 3569 2628 3553 
L 2631 2963 
z
" id="DejaVuSans-72" transform="scale(0.015625)"/>
      <path id="DejaVuSans-20" transform="scale(0.015625)"/>
      <path d="M 1959 3097 
Q 1497 3097 1228 2736 
Q 959 2375 959 1747 
Q 959 1119 1226 758 
Q 1494 397 1959 397 
Q 2419 397 2687 759 
Q 2956 1122 2956 1747 
Q 2956 2369 2687 2733 
Q 2419 3097 1959 3097 
z
M 1959 3584 
Q 2709 3584 3137 3096 
Q 3566 2609 3566 1747 
Q 3566 888 3137 398 
Q 2709 -91 1959 -91 
Q 1206 -91 779 398 
Q 353 888 353 1747 
Q 353 2609 779 3096 
Q 1206 3584 1959 3584 
z
" id="DejaVuSans-6f" transform="scale(0.015625)"/>
      <path d="M 2375 4863 
L 2375 4384 
L 1825 4384 
Q 1516 4384 1395 4259 
Q 1275 4134 1275 3809 
L 1275 3500 
L 2222 3500 
L 2222 3053 
L 1275 3053 
L 1275 0 
L 697 0 
L 697 3053 
L 147 3053 
L 147 3500 
L 697 3500 
L 697 3744 
Q 697 4328 969 4595 
Q 1241 4863 1831 4863 
L 2375 4863 
z
" id="DejaVuSans-66" transform="scale(0.015625)"/>
      <path d="M 3328 2828 
Q 3544 3216 3844 3400 
Q 4144 3584 4550 3584 
Q 5097 3584 5394 3201 
Q 5691 2819 5691 2113 
L 5691 0 
L 5113 0 
L 5113 2094 
Q 5113 2597 4934 2840 
Q 4756 3084 4391 3084 
Q 3944 3084 3684 2787 
Q 3425 2491 3425 1978 
L 3425 0 
L 2847 0 
L 2847 2094 
Q 2847 2600 2669 2842 
Q 2491 3084 2119 3084 
Q 1678 3084 1418 2786 
Q 1159 2488 1159 1978 
L 1159 0 
L 581 0 
L 581 3500 
L 1159 3500 
L 1159 2956 
Q 1356 3278 1631 3431 
Q 1906 3584 2284 3584 
Q 2666 3584 2933 3390 
Q 3200 3197 3328 2828 
z
" id="DejaVuSans-6d" transform="scale(0.015625)"/>
      <path d="M 2194 1759 
Q 1497 1759 1228 1600 
Q 959 1441 959 1056 
Q 959 750 1161 570 
Q 1363 391 1709 391 
Q 2188 391 2477 730 
Q 2766 1069 2766 1631 
L 2766 1759 
L 2194 1759 
z
M 3341 1997 
L 3341 0 
L 2766 0 
L 2766 531 
Q 2569 213 2275 61 
Q 1981 -91 1556 -91 
Q 1019 -91 701 211 
Q 384 513 384 1019 
Q 384 1609 779 1909 
Q 1175 2209 1959 2209 
L 2766 2209 
L 2766 2266 
Q 2766 2663 2505 2880 
Q 2244 3097 1772 3097 
Q 1472 3097 1187 3025 
Q 903 2953 641 2809 
L 641 3341 
Q 956 3463 1253 3523 
Q 1550 3584 1831 3584 
Q 2591 3584 2966 3190 
Q 3341 2797 3341 1997 
z
" id="DejaVuSans-61" transform="scale(0.015625)"/>
      <path d="M 2834 3397 
L 2834 2853 
Q 2591 2978 2328 3040 
Q 2066 3103 1784 3103 
Q 1356 3103 1142 2972 
Q 928 2841 928 2578 
Q 928 2378 1081 2264 
Q 1234 2150 1697 2047 
L 1894 2003 
Q 2506 1872 2764 1633 
Q 3022 1394 3022 966 
Q 3022 478 2636 193 
Q 2250 -91 1575 -91 
Q 1294 -91 989 -36 
Q 684 19 347 128 
L 347 722 
Q 666 556 975 473 
Q 1284 391 1588 391 
Q 1994 391 2212 530 
Q 2431 669 2431 922 
Q 2431 1156 2273 1281 
Q 2116 1406 1581 1522 
L 1381 1569 
Q 847 1681 609 1914 
Q 372 2147 372 2553 
Q 372 3047 722 3315 
Q 1072 3584 1716 3584 
Q 2034 3584 2315 3537 
Q 2597 3491 2834 3397 
z
" id="DejaVuSans-73" transform="scale(0.015625)"/>
      <path d="M 603 3500 
L 1178 3500 
L 1178 0 
L 603 0 
L 603 3500 
z
M 603 4863 
L 1178 4863 
L 1178 4134 
L 603 4134 
L 603 4863 
z
" id="DejaVuSans-69" transform="scale(0.015625)"/>
      <path d="M 544 1381 
L 544 3500 
L 1119 3500 
L 1119 1403 
Q 1119 906 1312 657 
Q 1506 409 1894 409 
Q 2359 409 2629 706 
Q 2900 1003 2900 1516 
L 2900 3500 
L 3475 3500 
L 3475 0 
L 2900 0 
L 2900 538 
Q 2691 219 2414 64 
Q 2138 -91 1772 -91 
Q 1169 -91 856 284 
Q 544 659 544 1381 
z
M 1991 3584 
L 1991 3584 
z
" id="DejaVuSans-75" transform="scale(0.015625)"/>
      <path d="M 2906 2969 
L 2906 4863 
L 3481 4863 
L 3481 0 
L 2906 0 
L 2906 525 
Q 2725 213 2448 61 
Q 2172 -91 1784 -91 
Q 1150 -91 751 415 
Q 353 922 353 1747 
Q 353 2572 751 3078 
Q 1150 3584 1784 3584 
Q 2172 3584 2448 3432 
Q 2725 3281 2906 2969 
z
M 947 1747 
Q 947 1113 1208 752 
Q 1469 391 1925 391 
Q 2381 391 2643 752 
Q 2906 1113 2906 1747 
Q 2906 2381 2643 2742 
Q 2381 3103 1925 3103 
Q 1469 3103 1208 2742 
Q 947 2381 947 1747 
z
" id="DejaVuSans-64" transform="scale(0.015625)"/>
     </defs>
     <use xlink:href="#DejaVuSans-43"/>
     <use x="69.824219" xlink:href="#DejaVuSans-65"/>
     <use x="131.347656" xlink:href="#DejaVuSans-6e"/>
     <use x="194.726562" xlink:href="#DejaVuSans-74"/>
     <use x="233.935547" xlink:href="#DejaVuSans-65"/>
     <use x="295.458984" xlink:href="#DejaVuSans-72"/>
     <use x="336.572266" xlink:href="#DejaVuSans-20"/>
     <use x="368.359375" xlink:href="#DejaVuSans-6f"/>
     <use x="429.541016" xlink:href="#DejaVuSans-66"/>
     <use x="464.746094" xlink:href="#DejaVuSans-20"/>
     <use x="496.533203" xlink:href="#DejaVuSans-6d"/>
     <use x="593.945312" xlink:href="#DejaVuSans-61"/>
     <use x="655.224609" xlink:href="#DejaVuSans-73"/>
     <use x="707.324219" xlink:href="#DejaVuSans-73"/>
     <use x="759.423828" xlink:href="#DejaVuSans-20"/>
     <use x="791.210938" xlink:href="#DejaVuSans-6f"/>
     <use x="852.392578" xlink:href="#DejaVuSans-66"/>
     <use x="887.597656" xlink:href="#DejaVuSans-20"/>
     <use x="919.384766" xlink:href="#DejaVuSans-69"/>
     <use x="947.167969" xlink:href="#DejaVuSans-6e"/>
     <use x="1010.546875" xlink:href="#DejaVuSans-74"/>
     <use x="1049.755859" xlink:href="#DejaVuSans-72"/>
     <use x="1090.869141" xlink:href="#DejaVuSans-75"/>
     <use x="1154.248047" xlink:href="#DejaVuSans-64"/>
     <use x="1217.724609" xlink:href="#DejaVuSans-65"/>
     <use x="1279.248047" xlink:href="#DejaVuSans-72"/>
    </g>
   </g>
  </g>
 </g>
 <defs>
  <clipPath id="pf0f66c51ee">
   <rect height="217.44" width="334.8" x="48.751563" y="22.318125"/>
  </clipPath>
 </defs>
</svg>
