<?xml version="1.0" encoding="utf-8" standalone="no"?>
<!DOCTYPE svg PUBLIC "-//W3C//DTD SVG 1.1//EN"
  "http://www.w3.org/Graphics/SVG/1.1/DTD/svg11.dtd">
<svg height="331.674375pt" version="1.1" viewBox="0 0 615.373438 331.674375" width="615.373438pt" xmlns="http://www.w3.org/2000/svg" xmlns:xlink="http://www.w3.org/1999/xlink">
 <metadata>
  <rdf:RDF xmlns:cc="http://creativecommons.org/ns#" xmlns:dc="http://purl.org/dc/elements/1.1/" xmlns:rdf="http://www.w3.org/1999/02/22-rdf-syntax-ns#">
   <cc:Work>
    <dc:type rdf:resource="http://purl.org/dc/dcmitype/StillImage"/>
    <dc:date>2022-05-28T19:14:28.380000</dc:date>
    <dc:format>image/svg+xml</dc:format>
    <dc:creator>
     <cc:Agent>
      <dc:title>Matplotlib v3.4.3, https://matplotlib.org/</dc:title>
     </cc:Agent>
    </dc:creator>
   </cc:Work>
  </rdf:RDF>
 </metadata>
 <defs>
  <style type="text/css">*{stroke-linecap:butt;stroke-linejoin:round;}</style>
 </defs>
 <g id="figure_1">
  <g id="patch_1">
   <path d="M 0 331.674375 
L 615.373438 331.674375 
L 615.373438 0 
L 0 0 
z
" style="fill:none;"/>
  </g>
  <g id="axes_1">
   <g id="patch_2">
    <path d="M 50.173437 294.118125 
L 608.173437 294.118125 
L 608.173437 22.318125 
L 50.173437 22.318125 
z
" style="fill:#ffffff;"/>
   </g>
   <g id="matplotlib.axis_1">
    <g id="xtick_1">
     <g id="line2d_1">
      <defs>
       <path d="M 0 0 
L 0 3.5 
" id="m7cbbc9070a" style="stroke:#000000;stroke-width:0.8;"/>
      </defs>
      <g>
       <use style="stroke:#000000;stroke-width:0.8;" x="591.77887" xlink:href="#m7cbbc9070a" y="294.118125"/>
      </g>
     </g>
     <g id="text_1">
      <!-- 0 -->
      <g transform="translate(588.299964 308.716563)scale(0.1 -0.1)">
       <defs>
        <path d="M 2944 2338 
Q 2944 3213 2780 3570 
Q 2616 3928 2228 3928 
Q 1841 3928 1675 3570 
Q 1509 3213 1509 2338 
Q 1509 1453 1675 1090 
Q 1841 728 2228 728 
Q 2613 728 2778 1090 
Q 2944 1453 2944 2338 
z
M 4147 2328 
Q 4147 1169 3647 539 
Q 3147 -91 2228 -91 
Q 1306 -91 806 539 
Q 306 1169 306 2328 
Q 306 3491 806 4120 
Q 1306 4750 2228 4750 
Q 3147 4750 3647 4120 
Q 4147 3491 4147 2328 
z
" id="DejaVuSans-Bold-30" transform="scale(0.015625)"/>
       </defs>
       <use xlink:href="#DejaVuSans-Bold-30"/>
      </g>
     </g>
    </g>
    <g id="xtick_2">
     <g id="line2d_2">
      <g>
       <use style="stroke:#000000;stroke-width:0.8;" x="518.931271" xlink:href="#m7cbbc9070a" y="294.118125"/>
      </g>
     </g>
     <g id="text_2">
      <!-- 20 -->
      <g transform="translate(511.973459 308.716563)scale(0.1 -0.1)">
       <defs>
        <path d="M 1844 884 
L 3897 884 
L 3897 0 
L 506 0 
L 506 884 
L 2209 2388 
Q 2438 2594 2547 2791 
Q 2656 2988 2656 3200 
Q 2656 3528 2436 3728 
Q 2216 3928 1850 3928 
Q 1569 3928 1234 3808 
Q 900 3688 519 3450 
L 519 4475 
Q 925 4609 1322 4679 
Q 1719 4750 2100 4750 
Q 2938 4750 3402 4381 
Q 3866 4013 3866 3353 
Q 3866 2972 3669 2642 
Q 3472 2313 2841 1759 
L 1844 884 
z
" id="DejaVuSans-Bold-32" transform="scale(0.015625)"/>
       </defs>
       <use xlink:href="#DejaVuSans-Bold-32"/>
       <use x="69.580078" xlink:href="#DejaVuSans-Bold-30"/>
      </g>
     </g>
    </g>
    <g id="xtick_3">
     <g id="line2d_3">
      <g>
       <use style="stroke:#000000;stroke-width:0.8;" x="446.083672" xlink:href="#m7cbbc9070a" y="294.118125"/>
      </g>
     </g>
     <g id="text_3">
      <!-- 40 -->
      <g transform="translate(439.125859 308.716563)scale(0.1 -0.1)">
       <defs>
        <path d="M 2356 3675 
L 1038 1722 
L 2356 1722 
L 2356 3675 
z
M 2156 4666 
L 3494 4666 
L 3494 1722 
L 4159 1722 
L 4159 850 
L 3494 850 
L 3494 0 
L 2356 0 
L 2356 850 
L 288 850 
L 288 1881 
L 2156 4666 
z
" id="DejaVuSans-Bold-34" transform="scale(0.015625)"/>
       </defs>
       <use xlink:href="#DejaVuSans-Bold-34"/>
       <use x="69.580078" xlink:href="#DejaVuSans-Bold-30"/>
      </g>
     </g>
    </g>
    <g id="xtick_4">
     <g id="line2d_4">
      <g>
       <use style="stroke:#000000;stroke-width:0.8;" x="373.236073" xlink:href="#m7cbbc9070a" y="294.118125"/>
      </g>
     </g>
     <g id="text_4">
      <!-- 60 -->
      <g transform="translate(366.27826 308.716563)scale(0.1 -0.1)">
       <defs>
        <path d="M 2316 2303 
Q 2000 2303 1842 2098 
Q 1684 1894 1684 1484 
Q 1684 1075 1842 870 
Q 2000 666 2316 666 
Q 2634 666 2792 870 
Q 2950 1075 2950 1484 
Q 2950 1894 2792 2098 
Q 2634 2303 2316 2303 
z
M 3803 4544 
L 3803 3681 
Q 3506 3822 3243 3889 
Q 2981 3956 2731 3956 
Q 2194 3956 1894 3657 
Q 1594 3359 1544 2772 
Q 1750 2925 1990 3001 
Q 2231 3078 2516 3078 
Q 3231 3078 3670 2659 
Q 4109 2241 4109 1563 
Q 4109 813 3618 361 
Q 3128 -91 2303 -91 
Q 1394 -91 895 523 
Q 397 1138 397 2266 
Q 397 3422 980 4083 
Q 1563 4744 2578 4744 
Q 2900 4744 3203 4694 
Q 3506 4644 3803 4544 
z
" id="DejaVuSans-Bold-36" transform="scale(0.015625)"/>
       </defs>
       <use xlink:href="#DejaVuSans-Bold-36"/>
       <use x="69.580078" xlink:href="#DejaVuSans-Bold-30"/>
      </g>
     </g>
    </g>
    <g id="xtick_5">
     <g id="line2d_5">
      <g>
       <use style="stroke:#000000;stroke-width:0.8;" x="300.388474" xlink:href="#m7cbbc9070a" y="294.118125"/>
      </g>
     </g>
     <g id="text_5">
      <!-- 80 -->
      <g transform="translate(293.430661 308.716563)scale(0.1 -0.1)">
       <defs>
        <path d="M 2228 2088 
Q 1891 2088 1709 1903 
Q 1528 1719 1528 1375 
Q 1528 1031 1709 848 
Q 1891 666 2228 666 
Q 2563 666 2741 848 
Q 2919 1031 2919 1375 
Q 2919 1722 2741 1905 
Q 2563 2088 2228 2088 
z
M 1350 2484 
Q 925 2613 709 2878 
Q 494 3144 494 3541 
Q 494 4131 934 4440 
Q 1375 4750 2228 4750 
Q 3075 4750 3515 4442 
Q 3956 4134 3956 3541 
Q 3956 3144 3739 2878 
Q 3522 2613 3097 2484 
Q 3572 2353 3814 2058 
Q 4056 1763 4056 1313 
Q 4056 619 3595 264 
Q 3134 -91 2228 -91 
Q 1319 -91 855 264 
Q 391 619 391 1313 
Q 391 1763 633 2058 
Q 875 2353 1350 2484 
z
M 1631 3419 
Q 1631 3141 1786 2991 
Q 1941 2841 2228 2841 
Q 2509 2841 2662 2991 
Q 2816 3141 2816 3419 
Q 2816 3697 2662 3845 
Q 2509 3994 2228 3994 
Q 1941 3994 1786 3844 
Q 1631 3694 1631 3419 
z
" id="DejaVuSans-Bold-38" transform="scale(0.015625)"/>
       </defs>
       <use xlink:href="#DejaVuSans-Bold-38"/>
       <use x="69.580078" xlink:href="#DejaVuSans-Bold-30"/>
      </g>
     </g>
    </g>
    <g id="xtick_6">
     <g id="line2d_6">
      <g>
       <use style="stroke:#000000;stroke-width:0.8;" x="227.540874" xlink:href="#m7cbbc9070a" y="294.118125"/>
      </g>
     </g>
     <g id="text_6">
      <!-- 100 -->
      <g transform="translate(217.104156 308.716563)scale(0.1 -0.1)">
       <defs>
        <path d="M 750 831 
L 1813 831 
L 1813 3847 
L 722 3622 
L 722 4441 
L 1806 4666 
L 2950 4666 
L 2950 831 
L 4013 831 
L 4013 0 
L 750 0 
L 750 831 
z
" id="DejaVuSans-Bold-31" transform="scale(0.015625)"/>
       </defs>
       <use xlink:href="#DejaVuSans-Bold-31"/>
       <use x="69.580078" xlink:href="#DejaVuSans-Bold-30"/>
       <use x="139.160156" xlink:href="#DejaVuSans-Bold-30"/>
      </g>
     </g>
    </g>
    <g id="xtick_7">
     <g id="line2d_7">
      <g>
       <use style="stroke:#000000;stroke-width:0.8;" x="154.693275" xlink:href="#m7cbbc9070a" y="294.118125"/>
      </g>
     </g>
     <g id="text_7">
      <!-- 120 -->
      <g transform="translate(144.256556 308.716563)scale(0.1 -0.1)">
       <use xlink:href="#DejaVuSans-Bold-31"/>
       <use x="69.580078" xlink:href="#DejaVuSans-Bold-32"/>
       <use x="139.160156" xlink:href="#DejaVuSans-Bold-30"/>
      </g>
     </g>
    </g>
    <g id="xtick_8">
     <g id="line2d_8">
      <g>
       <use style="stroke:#000000;stroke-width:0.8;" x="81.845676" xlink:href="#m7cbbc9070a" y="294.118125"/>
      </g>
     </g>
     <g id="text_8">
      <!-- 140 -->
      <g transform="translate(71.408957 308.716563)scale(0.1 -0.1)">
       <use xlink:href="#DejaVuSans-Bold-31"/>
       <use x="69.580078" xlink:href="#DejaVuSans-Bold-34"/>
       <use x="139.160156" xlink:href="#DejaVuSans-Bold-30"/>
      </g>
     </g>
    </g>
    <g id="text_9">
     <!-- Y -->
     <g transform="translate(325.553125 322.394687)scale(0.1 -0.1)">
      <defs>
       <path d="M -63 4666 
L 1253 4666 
L 2316 3003 
L 3378 4666 
L 4697 4666 
L 2919 1966 
L 2919 0 
L 1716 0 
L 1716 1966 
L -63 4666 
z
" id="DejaVuSans-Bold-59" transform="scale(0.015625)"/>
      </defs>
      <use xlink:href="#DejaVuSans-Bold-59"/>
     </g>
    </g>
   </g>
   <g id="matplotlib.axis_2">
    <g id="ytick_1">
     <g id="line2d_9">
      <defs>
       <path d="M 0 0 
L -3.5 0 
" id="m14d9f94451" style="stroke:#000000;stroke-width:0.8;"/>
      </defs>
      <g>
       <use style="stroke:#000000;stroke-width:0.8;" x="50.173437" xlink:href="#m14d9f94451" y="260.155535"/>
      </g>
     </g>
     <g id="text_10">
      <!-- −30 -->
      <g transform="translate(20.878125 263.954753)scale(0.1 -0.1)">
       <defs>
        <path d="M 678 2375 
L 4684 2375 
L 4684 1638 
L 678 1638 
L 678 2375 
z
" id="DejaVuSans-Bold-2212" transform="scale(0.015625)"/>
        <path d="M 2981 2516 
Q 3453 2394 3698 2092 
Q 3944 1791 3944 1325 
Q 3944 631 3412 270 
Q 2881 -91 1863 -91 
Q 1503 -91 1142 -33 
Q 781 25 428 141 
L 428 1069 
Q 766 900 1098 814 
Q 1431 728 1753 728 
Q 2231 728 2486 893 
Q 2741 1059 2741 1369 
Q 2741 1688 2480 1852 
Q 2219 2016 1709 2016 
L 1228 2016 
L 1228 2791 
L 1734 2791 
Q 2188 2791 2409 2933 
Q 2631 3075 2631 3366 
Q 2631 3634 2415 3781 
Q 2200 3928 1806 3928 
Q 1516 3928 1219 3862 
Q 922 3797 628 3669 
L 628 4550 
Q 984 4650 1334 4700 
Q 1684 4750 2022 4750 
Q 2931 4750 3382 4451 
Q 3834 4153 3834 3553 
Q 3834 3144 3618 2883 
Q 3403 2622 2981 2516 
z
" id="DejaVuSans-Bold-33" transform="scale(0.015625)"/>
       </defs>
       <use xlink:href="#DejaVuSans-Bold-2212"/>
       <use x="83.789062" xlink:href="#DejaVuSans-Bold-33"/>
       <use x="153.369141" xlink:href="#DejaVuSans-Bold-30"/>
      </g>
     </g>
    </g>
    <g id="ytick_2">
     <g id="line2d_10">
      <g>
       <use style="stroke:#000000;stroke-width:0.8;" x="50.173437" xlink:href="#m14d9f94451" y="225.886424"/>
      </g>
     </g>
     <g id="text_11">
      <!-- −20 -->
      <g transform="translate(20.878125 229.685643)scale(0.1 -0.1)">
       <use xlink:href="#DejaVuSans-Bold-2212"/>
       <use x="83.789062" xlink:href="#DejaVuSans-Bold-32"/>
       <use x="153.369141" xlink:href="#DejaVuSans-Bold-30"/>
      </g>
     </g>
    </g>
    <g id="ytick_3">
     <g id="line2d_11">
      <g>
       <use style="stroke:#000000;stroke-width:0.8;" x="50.173437" xlink:href="#m14d9f94451" y="191.617314"/>
      </g>
     </g>
     <g id="text_12">
      <!-- −10 -->
      <g transform="translate(20.878125 195.416533)scale(0.1 -0.1)">
       <use xlink:href="#DejaVuSans-Bold-2212"/>
       <use x="83.789062" xlink:href="#DejaVuSans-Bold-31"/>
       <use x="153.369141" xlink:href="#DejaVuSans-Bold-30"/>
      </g>
     </g>
    </g>
    <g id="ytick_4">
     <g id="line2d_12">
      <g>
       <use style="stroke:#000000;stroke-width:0.8;" x="50.173437" xlink:href="#m14d9f94451" y="157.348204"/>
      </g>
     </g>
     <g id="text_13">
      <!-- 0 -->
      <g transform="translate(36.215625 161.147422)scale(0.1 -0.1)">
       <use xlink:href="#DejaVuSans-Bold-30"/>
      </g>
     </g>
    </g>
    <g id="ytick_5">
     <g id="line2d_13">
      <g>
       <use style="stroke:#000000;stroke-width:0.8;" x="50.173437" xlink:href="#m14d9f94451" y="123.079093"/>
      </g>
     </g>
     <g id="text_14">
      <!-- 10 -->
      <g transform="translate(29.257812 126.878312)scale(0.1 -0.1)">
       <use xlink:href="#DejaVuSans-Bold-31"/>
       <use x="69.580078" xlink:href="#DejaVuSans-Bold-30"/>
      </g>
     </g>
    </g>
    <g id="ytick_6">
     <g id="line2d_14">
      <g>
       <use style="stroke:#000000;stroke-width:0.8;" x="50.173437" xlink:href="#m14d9f94451" y="88.809983"/>
      </g>
     </g>
     <g id="text_15">
      <!-- 20 -->
      <g transform="translate(29.257812 92.609202)scale(0.1 -0.1)">
       <use xlink:href="#DejaVuSans-Bold-32"/>
       <use x="69.580078" xlink:href="#DejaVuSans-Bold-30"/>
      </g>
     </g>
    </g>
    <g id="ytick_7">
     <g id="line2d_15">
      <g>
       <use style="stroke:#000000;stroke-width:0.8;" x="50.173437" xlink:href="#m14d9f94451" y="54.540873"/>
      </g>
     </g>
     <g id="text_16">
      <!-- 30 -->
      <g transform="translate(29.257812 58.340091)scale(0.1 -0.1)">
       <use xlink:href="#DejaVuSans-Bold-33"/>
       <use x="69.580078" xlink:href="#DejaVuSans-Bold-30"/>
      </g>
     </g>
    </g>
    <g id="text_17">
     <!-- X -->
     <g transform="translate(14.798437 162.072813)rotate(-90)scale(0.1 -0.1)">
      <defs>
       <path d="M 3188 2381 
L 4806 0 
L 3553 0 
L 2463 1594 
L 1381 0 
L 122 0 
L 1741 2381 
L 184 4666 
L 1441 4666 
L 2463 3163 
L 3481 4666 
L 4744 4666 
L 3188 2381 
z
" id="DejaVuSans-Bold-58" transform="scale(0.015625)"/>
      </defs>
      <use xlink:href="#DejaVuSans-Bold-58"/>
     </g>
    </g>
   </g>
   <g id="line2d_16">
    <path clip-path="url(#pa59db98420)" d="M 75.537074 225.886424 
L 75.992371 225.886424 
L 77.358264 225.886424 
L 79.634751 225.886424 
L 82.821834 225.886424 
L 86.919511 225.886424 
L 91.927784 225.886424 
L 97.846651 225.886424 
L 104.676114 225.886424 
L 112.416171 225.886424 
L 121.066823 225.886424 
L 130.628071 225.886424 
L 141.099913 225.886424 
L 152.373079 225.891907 
L 164.061476 225.955648 
L 176.176032 226.139673 
L 188.38529 226.526229 
L 200.700176 227.116 
L 213.204467 227.911043 
L 225.876307 228.888398 
L 238.719703 230.052863 
L 251.796939 231.40101 
L 265.117487 232.976018 
L 278.629624 234.749787 
L 292.263417 236.703812 
L 306.00903 238.804508 
L 319.832226 241.075179 
L 333.676913 243.535702 
L 347.539811 246.140154 
L 361.399795 248.839874 
L 375.202958 251.651998 
L 388.896121 254.502502 
L 402.454881 257.362945 
L 415.752481 260.202483 
L 428.593328 262.935102 
L 441.108545 265.588217 
L 453.342571 268.088834 
L 465.301597 270.404055 
L 476.869067 272.518116 
L 488.078856 274.475568 
L 498.905102 276.272297 
L 509.207574 277.793503 
L 519.229946 279.075853 
L 529.105895 280.087477 
L 539.013169 280.903425 
L 549.019515 281.49491 
L 559.123331 281.76358 
L 569.541704 281.762894 
" style="fill:none;stroke:#0000ff;stroke-linecap:square;stroke-width:1.5;"/>
   </g>
   <g id="line2d_17">
    <path clip-path="url(#pa59db98420)" d="M 75.537074 191.617314 
L 75.992371 191.617314 
L 77.358264 191.617314 
L 79.634751 191.617314 
L 82.821834 191.617314 
L 86.919511 191.617314 
L 91.927784 191.617314 
L 97.846651 191.617314 
L 104.676114 191.617314 
L 112.416171 191.617314 
L 121.066823 191.617314 
L 130.628071 191.617314 
L 141.099913 191.617314 
L 152.333013 191.605491 
L 163.722735 191.623482 
L 175.079676 191.670088 
L 185.995889 191.822243 
L 196.686274 192.092627 
L 207.245533 192.442171 
L 217.746515 192.854429 
L 228.328357 193.353044 
L 238.950994 193.946928 
L 249.607505 194.643962 
L 260.360903 195.475673 
L 271.251619 196.433495 
L 282.436275 197.54587 
L 294.017587 198.765165 
L 306.005388 200.084526 
L 318.374546 201.4947 
L 331.172048 203.035439 
L 344.376768 204.71908 
L 357.969766 206.523006 
L 371.964882 208.414661 
L 386.276886 210.407753 
L 400.893757 212.469725 
L 415.800561 214.600921 
L 430.964881 216.796543 
L 446.339367 219.012041 
L 461.876667 221.217601 
L 477.593173 223.423846 
L 493.280175 225.619468 
L 508.955157 227.785276 
L 524.559841 229.878433 
L 539.985684 231.898254 
L 555.218846 233.847481 
L 570.209024 235.69116 
L 582.809801 237.253831 
L 570.680384 237.510507 
" style="fill:none;stroke:#ffd700;stroke-linecap:square;stroke-width:1.5;"/>
   </g>
   <g id="line2d_18">
    <path clip-path="url(#pa59db98420)" d="M 75.537074 157.348204 
L 75.992371 157.348204 
L 77.358264 157.348204 
L 79.634751 157.348204 
L 82.821834 157.348204 
L 86.919511 157.348204 
L 91.927784 157.348204 
L 97.846651 157.348204 
L 104.676114 157.348204 
L 112.416171 157.348204 
L 121.066823 157.348204 
L 130.628071 157.348204 
L 141.099913 157.348204 
L 152.318443 157.340836 
L 163.642603 157.307513 
L 174.897557 157.342062 
L 185.551518 157.403325 
L 195.728328 157.436905 
L 205.639244 157.449854 
L 215.433603 157.461464 
L 225.169685 157.539414 
L 234.852588 157.618383 
L 244.636385 157.716963 
L 254.586274 157.797307 
L 264.717554 157.886417 
L 275.001085 157.985071 
L 285.608788 158.074178 
L 296.605862 158.160621 
L 307.975915 158.260715 
L 319.749544 158.372069 
L 331.912179 158.471285 
L 344.457264 158.540546 
L 357.403376 158.612508 
L 370.727201 158.688623 
L 384.458974 158.770769 
L 398.65515 158.867093 
L 413.302617 158.977275 
L 428.342732 159.108385 
L 443.827946 159.246726 
L 459.68359 159.380245 
L 475.869963 159.514193 
L 492.316765 159.634032 
L 509.046216 159.7377 
L 526.05176 159.826391 
L 543.152369 159.895173 
L 560.333585 159.949582 
L 577.671022 160.05498 
L 576.772775 159.706056 
" style="fill:none;stroke:#ff1493;stroke-linecap:square;stroke-width:1.5;"/>
   </g>
   <g id="line2d_19">
    <path clip-path="url(#pa59db98420)" d="M 75.537074 123.079093 
L 75.992371 123.079093 
L 77.358264 123.079093 
L 79.634751 123.079093 
L 82.821834 123.079093 
L 86.919511 123.079093 
L 91.927784 123.079093 
L 97.846651 123.079093 
L 104.676114 123.079093 
L 112.416171 123.079093 
L 121.066823 123.079093 
L 130.628071 123.079093 
L 141.099913 123.079093 
L 152.387649 123.082246 
L 163.850218 123.069498 
L 175.334642 122.967376 
L 186.48761 122.771699 
L 197.378326 122.497889 
L 208.046857 122.142176 
L 218.525984 121.722379 
L 228.922429 121.202517 
L 239.344735 120.547977 
L 249.864293 119.765613 
L 260.588916 118.868105 
L 271.504036 117.856481 
L 282.687964 116.752673 
L 294.195699 115.545372 
L 306.096083 114.255483 
L 318.354513 112.827832 
L 331.031088 111.29703 
L 344.127265 109.671989 
L 357.627018 107.964017 
L 371.479717 106.152894 
L 385.623079 104.266037 
L 400.028691 102.31681 
L 414.710032 100.29459 
L 429.715545 98.217882 
L 444.958177 96.095938 
L 460.335212 93.949321 
L 475.839367 91.82121 
L 491.445872 89.690699 
L 507.192245 87.610907 
L 523.027127 85.601023 
L 538.719229 83.675785 
L 554.248152 81.867404 
L 569.585922 80.252301 
L 582.544745 78.874682 
L 571.138487 77.173221 
" style="fill:none;stroke:#008000;stroke-linecap:square;stroke-width:1.5;"/>
   </g>
   <g id="line2d_20">
    <path clip-path="url(#pa59db98420)" d="M 75.537074 88.809983 
L 75.992371 88.809983 
L 77.358264 88.809983 
L 79.634751 88.809983 
L 82.821834 88.809983 
L 86.919511 88.809983 
L 91.927784 88.809983 
L 97.846651 88.809983 
L 104.676114 88.809983 
L 112.416171 88.809983 
L 121.066823 88.809983 
L 130.628071 88.809983 
L 141.099913 88.809983 
L 152.351225 88.819236 
L 163.941278 88.791135 
L 175.833648 88.657485 
L 187.795224 88.373737 
L 200.000839 87.888144 
L 212.494203 87.188026 
L 225.227963 86.25008 
L 238.127816 85.080818 
L 251.221079 83.721363 
L 264.550733 82.133332 
L 278.018069 80.303019 
L 291.579742 78.219457 
L 305.218269 75.894983 
L 318.970075 73.410473 
L 332.806019 70.776206 
L 346.649249 68.044616 
L 360.363538 65.266419 
L 373.890244 62.501244 
L 387.270527 59.727845 
L 400.493459 56.950676 
L 413.579073 54.197839 
L 426.421012 51.502231 
L 438.880137 48.920738 
L 450.910554 46.401959 
L 462.588024 44.007233 
L 473.744998 41.780084 
L 484.524986 39.823318 
L 494.895934 38.269899 
L 505.023208 37.000914 
L 515.155944 35.99957 
L 525.13133 35.345373 
L 535.121286 34.967385 
L 545.367301 34.732984 
L 555.786802 34.67267 
L 566.671982 34.738467 
" style="fill:none;stroke:#8fbc8f;stroke-linecap:square;stroke-width:1.5;"/>
   </g>
   <g id="patch_3">
    <path d="M 50.173437 294.118125 
L 50.173437 22.318125 
" style="fill:none;stroke:#000000;stroke-linecap:square;stroke-linejoin:miter;stroke-width:0.8;"/>
   </g>
   <g id="patch_4">
    <path d="M 608.173437 294.118125 
L 608.173437 22.318125 
" style="fill:none;stroke:#000000;stroke-linecap:square;stroke-linejoin:miter;stroke-width:0.8;"/>
   </g>
   <g id="patch_5">
    <path d="M 50.173437 294.118125 
L 608.173437 294.118125 
" style="fill:none;stroke:#000000;stroke-linecap:square;stroke-linejoin:miter;stroke-width:0.8;"/>
   </g>
   <g id="patch_6">
    <path d="M 50.173437 22.318125 
L 608.173437 22.318125 
" style="fill:none;stroke:#000000;stroke-linecap:square;stroke-linejoin:miter;stroke-width:0.8;"/>
   </g>
   <g id="text_18">
    <!-- Center of mass of intruders -->
    <g transform="translate(246.828125 16.318125)scale(0.12 -0.12)">
     <defs>
      <path d="M 4122 4306 
L 4122 3641 
Q 3803 3938 3442 4084 
Q 3081 4231 2675 4231 
Q 1875 4231 1450 3742 
Q 1025 3253 1025 2328 
Q 1025 1406 1450 917 
Q 1875 428 2675 428 
Q 3081 428 3442 575 
Q 3803 722 4122 1019 
L 4122 359 
Q 3791 134 3420 21 
Q 3050 -91 2638 -91 
Q 1578 -91 968 557 
Q 359 1206 359 2328 
Q 359 3453 968 4101 
Q 1578 4750 2638 4750 
Q 3056 4750 3426 4639 
Q 3797 4528 4122 4306 
z
" id="DejaVuSans-43" transform="scale(0.015625)"/>
      <path d="M 3597 1894 
L 3597 1613 
L 953 1613 
Q 991 1019 1311 708 
Q 1631 397 2203 397 
Q 2534 397 2845 478 
Q 3156 559 3463 722 
L 3463 178 
Q 3153 47 2828 -22 
Q 2503 -91 2169 -91 
Q 1331 -91 842 396 
Q 353 884 353 1716 
Q 353 2575 817 3079 
Q 1281 3584 2069 3584 
Q 2775 3584 3186 3129 
Q 3597 2675 3597 1894 
z
M 3022 2063 
Q 3016 2534 2758 2815 
Q 2500 3097 2075 3097 
Q 1594 3097 1305 2825 
Q 1016 2553 972 2059 
L 3022 2063 
z
" id="DejaVuSans-65" transform="scale(0.015625)"/>
      <path d="M 3513 2113 
L 3513 0 
L 2938 0 
L 2938 2094 
Q 2938 2591 2744 2837 
Q 2550 3084 2163 3084 
Q 1697 3084 1428 2787 
Q 1159 2491 1159 1978 
L 1159 0 
L 581 0 
L 581 3500 
L 1159 3500 
L 1159 2956 
Q 1366 3272 1645 3428 
Q 1925 3584 2291 3584 
Q 2894 3584 3203 3211 
Q 3513 2838 3513 2113 
z
" id="DejaVuSans-6e" transform="scale(0.015625)"/>
      <path d="M 1172 4494 
L 1172 3500 
L 2356 3500 
L 2356 3053 
L 1172 3053 
L 1172 1153 
Q 1172 725 1289 603 
Q 1406 481 1766 481 
L 2356 481 
L 2356 0 
L 1766 0 
Q 1100 0 847 248 
Q 594 497 594 1153 
L 594 3053 
L 172 3053 
L 172 3500 
L 594 3500 
L 594 4494 
L 1172 4494 
z
" id="DejaVuSans-74" transform="scale(0.015625)"/>
      <path d="M 2631 2963 
Q 2534 3019 2420 3045 
Q 2306 3072 2169 3072 
Q 1681 3072 1420 2755 
Q 1159 2438 1159 1844 
L 1159 0 
L 581 0 
L 581 3500 
L 1159 3500 
L 1159 2956 
Q 1341 3275 1631 3429 
Q 1922 3584 2338 3584 
Q 2397 3584 2469 3576 
Q 2541 3569 2628 3553 
L 2631 2963 
z
" id="DejaVuSans-72" transform="scale(0.015625)"/>
      <path id="DejaVuSans-20" transform="scale(0.015625)"/>
      <path d="M 1959 3097 
Q 1497 3097 1228 2736 
Q 959 2375 959 1747 
Q 959 1119 1226 758 
Q 1494 397 1959 397 
Q 2419 397 2687 759 
Q 2956 1122 2956 1747 
Q 2956 2369 2687 2733 
Q 2419 3097 1959 3097 
z
M 1959 3584 
Q 2709 3584 3137 3096 
Q 3566 2609 3566 1747 
Q 3566 888 3137 398 
Q 2709 -91 1959 -91 
Q 1206 -91 779 398 
Q 353 888 353 1747 
Q 353 2609 779 3096 
Q 1206 3584 1959 3584 
z
" id="DejaVuSans-6f" transform="scale(0.015625)"/>
      <path d="M 2375 4863 
L 2375 4384 
L 1825 4384 
Q 1516 4384 1395 4259 
Q 1275 4134 1275 3809 
L 1275 3500 
L 2222 3500 
L 2222 3053 
L 1275 3053 
L 1275 0 
L 697 0 
L 697 3053 
L 147 3053 
L 147 3500 
L 697 3500 
L 697 3744 
Q 697 4328 969 4595 
Q 1241 4863 1831 4863 
L 2375 4863 
z
" id="DejaVuSans-66" transform="scale(0.015625)"/>
      <path d="M 3328 2828 
Q 3544 3216 3844 3400 
Q 4144 3584 4550 3584 
Q 5097 3584 5394 3201 
Q 5691 2819 5691 2113 
L 5691 0 
L 5113 0 
L 5113 2094 
Q 5113 2597 4934 2840 
Q 4756 3084 4391 3084 
Q 3944 3084 3684 2787 
Q 3425 2491 3425 1978 
L 3425 0 
L 2847 0 
L 2847 2094 
Q 2847 2600 2669 2842 
Q 2491 3084 2119 3084 
Q 1678 3084 1418 2786 
Q 1159 2488 1159 1978 
L 1159 0 
L 581 0 
L 581 3500 
L 1159 3500 
L 1159 2956 
Q 1356 3278 1631 3431 
Q 1906 3584 2284 3584 
Q 2666 3584 2933 3390 
Q 3200 3197 3328 2828 
z
" id="DejaVuSans-6d" transform="scale(0.015625)"/>
      <path d="M 2194 1759 
Q 1497 1759 1228 1600 
Q 959 1441 959 1056 
Q 959 750 1161 570 
Q 1363 391 1709 391 
Q 2188 391 2477 730 
Q 2766 1069 2766 1631 
L 2766 1759 
L 2194 1759 
z
M 3341 1997 
L 3341 0 
L 2766 0 
L 2766 531 
Q 2569 213 2275 61 
Q 1981 -91 1556 -91 
Q 1019 -91 701 211 
Q 384 513 384 1019 
Q 384 1609 779 1909 
Q 1175 2209 1959 2209 
L 2766 2209 
L 2766 2266 
Q 2766 2663 2505 2880 
Q 2244 3097 1772 3097 
Q 1472 3097 1187 3025 
Q 903 2953 641 2809 
L 641 3341 
Q 956 3463 1253 3523 
Q 1550 3584 1831 3584 
Q 2591 3584 2966 3190 
Q 3341 2797 3341 1997 
z
" id="DejaVuSans-61" transform="scale(0.015625)"/>
      <path d="M 2834 3397 
L 2834 2853 
Q 2591 2978 2328 3040 
Q 2066 3103 1784 3103 
Q 1356 3103 1142 2972 
Q 928 2841 928 2578 
Q 928 2378 1081 2264 
Q 1234 2150 1697 2047 
L 1894 2003 
Q 2506 1872 2764 1633 
Q 3022 1394 3022 966 
Q 3022 478 2636 193 
Q 2250 -91 1575 -91 
Q 1294 -91 989 -36 
Q 684 19 347 128 
L 347 722 
Q 666 556 975 473 
Q 1284 391 1588 391 
Q 1994 391 2212 530 
Q 2431 669 2431 922 
Q 2431 1156 2273 1281 
Q 2116 1406 1581 1522 
L 1381 1569 
Q 847 1681 609 1914 
Q 372 2147 372 2553 
Q 372 3047 722 3315 
Q 1072 3584 1716 3584 
Q 2034 3584 2315 3537 
Q 2597 3491 2834 3397 
z
" id="DejaVuSans-73" transform="scale(0.015625)"/>
      <path d="M 603 3500 
L 1178 3500 
L 1178 0 
L 603 0 
L 603 3500 
z
M 603 4863 
L 1178 4863 
L 1178 4134 
L 603 4134 
L 603 4863 
z
" id="DejaVuSans-69" transform="scale(0.015625)"/>
      <path d="M 544 1381 
L 544 3500 
L 1119 3500 
L 1119 1403 
Q 1119 906 1312 657 
Q 1506 409 1894 409 
Q 2359 409 2629 706 
Q 2900 1003 2900 1516 
L 2900 3500 
L 3475 3500 
L 3475 0 
L 2900 0 
L 2900 538 
Q 2691 219 2414 64 
Q 2138 -91 1772 -91 
Q 1169 -91 856 284 
Q 544 659 544 1381 
z
M 1991 3584 
L 1991 3584 
z
" id="DejaVuSans-75" transform="scale(0.015625)"/>
      <path d="M 2906 2969 
L 2906 4863 
L 3481 4863 
L 3481 0 
L 2906 0 
L 2906 525 
Q 2725 213 2448 61 
Q 2172 -91 1784 -91 
Q 1150 -91 751 415 
Q 353 922 353 1747 
Q 353 2572 751 3078 
Q 1150 3584 1784 3584 
Q 2172 3584 2448 3432 
Q 2725 3281 2906 2969 
z
M 947 1747 
Q 947 1113 1208 752 
Q 1469 391 1925 391 
Q 2381 391 2643 752 
Q 2906 1113 2906 1747 
Q 2906 2381 2643 2742 
Q 2381 3103 1925 3103 
Q 1469 3103 1208 2742 
Q 947 2381 947 1747 
z
" id="DejaVuSans-64" transform="scale(0.015625)"/>
     </defs>
     <use xlink:href="#DejaVuSans-43"/>
     <use x="69.824219" xlink:href="#DejaVuSans-65"/>
     <use x="131.347656" xlink:href="#DejaVuSans-6e"/>
     <use x="194.726562" xlink:href="#DejaVuSans-74"/>
     <use x="233.935547" xlink:href="#DejaVuSans-65"/>
     <use x="295.458984" xlink:href="#DejaVuSans-72"/>
     <use x="336.572266" xlink:href="#DejaVuSans-20"/>
     <use x="368.359375" xlink:href="#DejaVuSans-6f"/>
     <use x="429.541016" xlink:href="#DejaVuSans-66"/>
     <use x="464.746094" xlink:href="#DejaVuSans-20"/>
     <use x="496.533203" xlink:href="#DejaVuSans-6d"/>
     <use x="593.945312" xlink:href="#DejaVuSans-61"/>
     <use x="655.224609" xlink:href="#DejaVuSans-73"/>
     <use x="707.324219" xlink:href="#DejaVuSans-73"/>
     <use x="759.423828" xlink:href="#DejaVuSans-20"/>
     <use x="791.210938" xlink:href="#DejaVuSans-6f"/>
     <use x="852.392578" xlink:href="#DejaVuSans-66"/>
     <use x="887.597656" xlink:href="#DejaVuSans-20"/>
     <use x="919.384766" xlink:href="#DejaVuSans-69"/>
     <use x="947.167969" xlink:href="#DejaVuSans-6e"/>
     <use x="1010.546875" xlink:href="#DejaVuSans-74"/>
     <use x="1049.755859" xlink:href="#DejaVuSans-72"/>
     <use x="1090.869141" xlink:href="#DejaVuSans-75"/>
     <use x="1154.248047" xlink:href="#DejaVuSans-64"/>
     <use x="1217.724609" xlink:href="#DejaVuSans-65"/>
     <use x="1279.248047" xlink:href="#DejaVuSans-72"/>
     <use x="1320.361328" xlink:href="#DejaVuSans-73"/>
    </g>
   </g>
   <g id="legend_1">
    <g id="patch_7">
     <path d="M 515.967188 196.413438 
L 601.173438 196.413438 
Q 603.173438 196.413438 603.173438 194.413438 
L 603.173438 122.022813 
Q 603.173438 120.022813 601.173438 120.022813 
L 515.967188 120.022813 
Q 513.967188 120.022813 513.967188 122.022813 
L 513.967188 194.413438 
Q 513.967188 196.413438 515.967188 196.413438 
z
" style="fill:#ffffff;opacity:0.8;stroke:#cccccc;stroke-linejoin:miter;"/>
    </g>
    <g id="line2d_21">
     <path d="M 517.967188 128.12125 
L 537.967188 128.12125 
" style="fill:none;stroke:#0000ff;stroke-linecap:square;stroke-width:1.5;"/>
    </g>
    <g id="line2d_22"/>
    <g id="text_19">
     <!-- intruder1 -->
     <g transform="translate(545.967188 131.62125)scale(0.1 -0.1)">
      <defs>
       <path d="M 538 3500 
L 1656 3500 
L 1656 0 
L 538 0 
L 538 3500 
z
M 538 4863 
L 1656 4863 
L 1656 3950 
L 538 3950 
L 538 4863 
z
" id="DejaVuSans-Bold-69" transform="scale(0.015625)"/>
       <path d="M 4056 2131 
L 4056 0 
L 2931 0 
L 2931 347 
L 2931 1631 
Q 2931 2084 2911 2256 
Q 2891 2428 2841 2509 
Q 2775 2619 2662 2680 
Q 2550 2741 2406 2741 
Q 2056 2741 1856 2470 
Q 1656 2200 1656 1722 
L 1656 0 
L 538 0 
L 538 3500 
L 1656 3500 
L 1656 2988 
Q 1909 3294 2193 3439 
Q 2478 3584 2822 3584 
Q 3428 3584 3742 3212 
Q 4056 2841 4056 2131 
z
" id="DejaVuSans-Bold-6e" transform="scale(0.015625)"/>
       <path d="M 1759 4494 
L 1759 3500 
L 2913 3500 
L 2913 2700 
L 1759 2700 
L 1759 1216 
Q 1759 972 1856 886 
Q 1953 800 2241 800 
L 2816 800 
L 2816 0 
L 1856 0 
Q 1194 0 917 276 
Q 641 553 641 1216 
L 641 2700 
L 84 2700 
L 84 3500 
L 641 3500 
L 641 4494 
L 1759 4494 
z
" id="DejaVuSans-Bold-74" transform="scale(0.015625)"/>
       <path d="M 3138 2547 
Q 2991 2616 2845 2648 
Q 2700 2681 2553 2681 
Q 2122 2681 1889 2404 
Q 1656 2128 1656 1613 
L 1656 0 
L 538 0 
L 538 3500 
L 1656 3500 
L 1656 2925 
Q 1872 3269 2151 3426 
Q 2431 3584 2822 3584 
Q 2878 3584 2943 3579 
Q 3009 3575 3134 3559 
L 3138 2547 
z
" id="DejaVuSans-Bold-72" transform="scale(0.015625)"/>
       <path d="M 500 1363 
L 500 3500 
L 1625 3500 
L 1625 3150 
Q 1625 2866 1622 2436 
Q 1619 2006 1619 1863 
Q 1619 1441 1641 1255 
Q 1663 1069 1716 984 
Q 1784 875 1895 815 
Q 2006 756 2150 756 
Q 2500 756 2700 1025 
Q 2900 1294 2900 1772 
L 2900 3500 
L 4019 3500 
L 4019 0 
L 2900 0 
L 2900 506 
Q 2647 200 2364 54 
Q 2081 -91 1741 -91 
Q 1134 -91 817 281 
Q 500 653 500 1363 
z
" id="DejaVuSans-Bold-75" transform="scale(0.015625)"/>
       <path d="M 2919 2988 
L 2919 4863 
L 4044 4863 
L 4044 0 
L 2919 0 
L 2919 506 
Q 2688 197 2409 53 
Q 2131 -91 1766 -91 
Q 1119 -91 703 423 
Q 288 938 288 1747 
Q 288 2556 703 3070 
Q 1119 3584 1766 3584 
Q 2128 3584 2408 3439 
Q 2688 3294 2919 2988 
z
M 2181 722 
Q 2541 722 2730 984 
Q 2919 1247 2919 1747 
Q 2919 2247 2730 2509 
Q 2541 2772 2181 2772 
Q 1825 2772 1636 2509 
Q 1447 2247 1447 1747 
Q 1447 1247 1636 984 
Q 1825 722 2181 722 
z
" id="DejaVuSans-Bold-64" transform="scale(0.015625)"/>
       <path d="M 4031 1759 
L 4031 1441 
L 1416 1441 
Q 1456 1047 1700 850 
Q 1944 653 2381 653 
Q 2734 653 3104 758 
Q 3475 863 3866 1075 
L 3866 213 
Q 3469 63 3072 -14 
Q 2675 -91 2278 -91 
Q 1328 -91 801 392 
Q 275 875 275 1747 
Q 275 2603 792 3093 
Q 1309 3584 2216 3584 
Q 3041 3584 3536 3087 
Q 4031 2591 4031 1759 
z
M 2881 2131 
Q 2881 2450 2695 2645 
Q 2509 2841 2209 2841 
Q 1884 2841 1681 2658 
Q 1478 2475 1428 2131 
L 2881 2131 
z
" id="DejaVuSans-Bold-65" transform="scale(0.015625)"/>
      </defs>
      <use xlink:href="#DejaVuSans-Bold-69"/>
      <use x="34.277344" xlink:href="#DejaVuSans-Bold-6e"/>
      <use x="105.46875" xlink:href="#DejaVuSans-Bold-74"/>
      <use x="153.271484" xlink:href="#DejaVuSans-Bold-72"/>
      <use x="202.587891" xlink:href="#DejaVuSans-Bold-75"/>
      <use x="273.779297" xlink:href="#DejaVuSans-Bold-64"/>
      <use x="345.361328" xlink:href="#DejaVuSans-Bold-65"/>
      <use x="413.183594" xlink:href="#DejaVuSans-Bold-72"/>
      <use x="462.5" xlink:href="#DejaVuSans-Bold-31"/>
     </g>
    </g>
    <g id="line2d_23">
     <path d="M 517.967188 142.799375 
L 537.967188 142.799375 
" style="fill:none;stroke:#ffd700;stroke-linecap:square;stroke-width:1.5;"/>
    </g>
    <g id="line2d_24"/>
    <g id="text_20">
     <!-- intruder2 -->
     <g transform="translate(545.967188 146.299375)scale(0.1 -0.1)">
      <use xlink:href="#DejaVuSans-Bold-69"/>
      <use x="34.277344" xlink:href="#DejaVuSans-Bold-6e"/>
      <use x="105.46875" xlink:href="#DejaVuSans-Bold-74"/>
      <use x="153.271484" xlink:href="#DejaVuSans-Bold-72"/>
      <use x="202.587891" xlink:href="#DejaVuSans-Bold-75"/>
      <use x="273.779297" xlink:href="#DejaVuSans-Bold-64"/>
      <use x="345.361328" xlink:href="#DejaVuSans-Bold-65"/>
      <use x="413.183594" xlink:href="#DejaVuSans-Bold-72"/>
      <use x="462.5" xlink:href="#DejaVuSans-Bold-32"/>
     </g>
    </g>
    <g id="line2d_25">
     <path d="M 517.967188 157.4775 
L 537.967188 157.4775 
" style="fill:none;stroke:#ff1493;stroke-linecap:square;stroke-width:1.5;"/>
    </g>
    <g id="line2d_26"/>
    <g id="text_21">
     <!-- intruder3 -->
     <g transform="translate(545.967188 160.9775)scale(0.1 -0.1)">
      <use xlink:href="#DejaVuSans-Bold-69"/>
      <use x="34.277344" xlink:href="#DejaVuSans-Bold-6e"/>
      <use x="105.46875" xlink:href="#DejaVuSans-Bold-74"/>
      <use x="153.271484" xlink:href="#DejaVuSans-Bold-72"/>
      <use x="202.587891" xlink:href="#DejaVuSans-Bold-75"/>
      <use x="273.779297" xlink:href="#DejaVuSans-Bold-64"/>
      <use x="345.361328" xlink:href="#DejaVuSans-Bold-65"/>
      <use x="413.183594" xlink:href="#DejaVuSans-Bold-72"/>
      <use x="462.5" xlink:href="#DejaVuSans-Bold-33"/>
     </g>
    </g>
    <g id="line2d_27">
     <path d="M 517.967188 172.155625 
L 537.967188 172.155625 
" style="fill:none;stroke:#008000;stroke-linecap:square;stroke-width:1.5;"/>
    </g>
    <g id="line2d_28"/>
    <g id="text_22">
     <!-- intruder4 -->
     <g transform="translate(545.967188 175.655625)scale(0.1 -0.1)">
      <use xlink:href="#DejaVuSans-Bold-69"/>
      <use x="34.277344" xlink:href="#DejaVuSans-Bold-6e"/>
      <use x="105.46875" xlink:href="#DejaVuSans-Bold-74"/>
      <use x="153.271484" xlink:href="#DejaVuSans-Bold-72"/>
      <use x="202.587891" xlink:href="#DejaVuSans-Bold-75"/>
      <use x="273.779297" xlink:href="#DejaVuSans-Bold-64"/>
      <use x="345.361328" xlink:href="#DejaVuSans-Bold-65"/>
      <use x="413.183594" xlink:href="#DejaVuSans-Bold-72"/>
      <use x="462.5" xlink:href="#DejaVuSans-Bold-34"/>
     </g>
    </g>
    <g id="line2d_29">
     <path d="M 517.967188 186.83375 
L 537.967188 186.83375 
" style="fill:none;stroke:#8fbc8f;stroke-linecap:square;stroke-width:1.5;"/>
    </g>
    <g id="line2d_30"/>
    <g id="text_23">
     <!-- intruder5 -->
     <g transform="translate(545.967188 190.33375)scale(0.1 -0.1)">
      <defs>
       <path d="M 678 4666 
L 3669 4666 
L 3669 3781 
L 1638 3781 
L 1638 3059 
Q 1775 3097 1914 3117 
Q 2053 3138 2203 3138 
Q 3056 3138 3531 2711 
Q 4006 2284 4006 1522 
Q 4006 766 3489 337 
Q 2972 -91 2053 -91 
Q 1656 -91 1267 -14 
Q 878 63 494 219 
L 494 1166 
Q 875 947 1217 837 
Q 1559 728 1863 728 
Q 2300 728 2551 942 
Q 2803 1156 2803 1522 
Q 2803 1891 2551 2103 
Q 2300 2316 1863 2316 
Q 1603 2316 1309 2248 
Q 1016 2181 678 2041 
L 678 4666 
z
" id="DejaVuSans-Bold-35" transform="scale(0.015625)"/>
      </defs>
      <use xlink:href="#DejaVuSans-Bold-69"/>
      <use x="34.277344" xlink:href="#DejaVuSans-Bold-6e"/>
      <use x="105.46875" xlink:href="#DejaVuSans-Bold-74"/>
      <use x="153.271484" xlink:href="#DejaVuSans-Bold-72"/>
      <use x="202.587891" xlink:href="#DejaVuSans-Bold-75"/>
      <use x="273.779297" xlink:href="#DejaVuSans-Bold-64"/>
      <use x="345.361328" xlink:href="#DejaVuSans-Bold-65"/>
      <use x="413.183594" xlink:href="#DejaVuSans-Bold-72"/>
      <use x="462.5" xlink:href="#DejaVuSans-Bold-35"/>
     </g>
    </g>
   </g>
  </g>
 </g>
 <defs>
  <clipPath id="pa59db98420">
   <rect height="271.8" width="558" x="50.173437" y="22.318125"/>
  </clipPath>
 </defs>
</svg>
